<svg aria-roledescription="flowchart-v2" role="graphics-document document" viewBox="-8 -8 871.3828125 125.83154296875" style="max-width: 871.383px; background-color: white;" xmlns:xlink="http://www.w3.org/1999/xlink" xmlns="http://www.w3.org/2000/svg" width="100%" id="my-svg"><style>#my-svg{font-family:"trebuchet ms",verdana,arial,sans-serif;font-size:16px;fill:#333;}#my-svg .error-icon{fill:#552222;}#my-svg .error-text{fill:#552222;stroke:#552222;}#my-svg .edge-thickness-normal{stroke-width:2px;}#my-svg .edge-thickness-thick{stroke-width:3.5px;}#my-svg .edge-pattern-solid{stroke-dasharray:0;}#my-svg .edge-pattern-dashed{stroke-dasharray:3;}#my-svg .edge-pattern-dotted{stroke-dasharray:2;}#my-svg .marker{fill:#333333;stroke:#333333;}#my-svg .marker.cross{stroke:#333333;}#my-svg svg{font-family:"trebuchet ms",verdana,arial,sans-serif;font-size:16px;}#my-svg .label{font-family:"trebuchet ms",verdana,arial,sans-serif;color:#333;}#my-svg .cluster-label text{fill:#333;}#my-svg .cluster-label span,#my-svg p{color:#333;}#my-svg .label text,#my-svg span,#my-svg p{fill:#333;color:#333;}#my-svg .node rect,#my-svg .node circle,#my-svg .node ellipse,#my-svg .node polygon,#my-svg .node path{fill:#ECECFF;stroke:#9370DB;stroke-width:1px;}#my-svg .flowchart-label text{text-anchor:middle;}#my-svg .node .katex path{fill:#000;stroke:#000;stroke-width:1px;}#my-svg .node .label{text-align:center;}#my-svg .node.clickable{cursor:pointer;}#my-svg .arrowheadPath{fill:#333333;}#my-svg .edgePath .path{stroke:#333333;stroke-width:2.0px;}#my-svg .flowchart-link{stroke:#333333;fill:none;}#my-svg .edgeLabel{background-color:#e8e8e8;text-align:center;}#my-svg .edgeLabel rect{opacity:0.5;background-color:#e8e8e8;fill:#e8e8e8;}#my-svg .labelBkg{background-color:rgba(232, 232, 232, 0.5);}#my-svg .cluster rect{fill:#ffffde;stroke:#aaaa33;stroke-width:1px;}#my-svg .cluster text{fill:#333;}#my-svg .cluster span,#my-svg p{color:#333;}#my-svg div.mermaidTooltip{position:absolute;text-align:center;max-width:200px;padding:2px;font-family:"trebuchet ms",verdana,arial,sans-serif;font-size:12px;background:hsl(80, 100%, 96.2745098039%);border:1px solid #aaaa33;border-radius:2px;pointer-events:none;z-index:100;}#my-svg .flowchartTitleText{text-anchor:middle;font-size:18px;fill:#333;}#my-svg :root{--mermaid-font-family:"trebuchet ms",verdana,arial,sans-serif;}</style><g><marker orient="auto" markerHeight="12" markerWidth="12" markerUnits="userSpaceOnUse" refY="5" refX="6" viewBox="0 0 10 10" class="marker flowchart" id="my-svg_flowchart-pointEnd"><path style="stroke-width: 1; stroke-dasharray: 1, 0;" class="arrowMarkerPath" d="M 0 0 L 10 5 L 0 10 z"/></marker><marker orient="auto" markerHeight="12" markerWidth="12" markerUnits="userSpaceOnUse" refY="5" refX="4.5" viewBox="0 0 10 10" class="marker flowchart" id="my-svg_flowchart-pointStart"><path style="stroke-width: 1; stroke-dasharray: 1, 0;" class="arrowMarkerPath" d="M 0 5 L 10 10 L 10 0 z"/></marker><marker orient="auto" markerHeight="11" markerWidth="11" markerUnits="userSpaceOnUse" refY="5" refX="11" viewBox="0 0 10 10" class="marker flowchart" id="my-svg_flowchart-circleEnd"><circle style="stroke-width: 1; stroke-dasharray: 1, 0;" class="arrowMarkerPath" r="5" cy="5" cx="5"/></marker><marker orient="auto" markerHeight="11" markerWidth="11" markerUnits="userSpaceOnUse" refY="5" refX="-1" viewBox="0 0 10 10" class="marker flowchart" id="my-svg_flowchart-circleStart"><circle style="stroke-width: 1; stroke-dasharray: 1, 0;" class="arrowMarkerPath" r="5" cy="5" cx="5"/></marker><marker orient="auto" markerHeight="11" markerWidth="11" markerUnits="userSpaceOnUse" refY="5.2" refX="12" viewBox="0 0 11 11" class="marker cross flowchart" id="my-svg_flowchart-crossEnd"><path style="stroke-width: 2; stroke-dasharray: 1, 0;" class="arrowMarkerPath" d="M 1,1 l 9,9 M 10,1 l -9,9"/></marker><marker orient="auto" markerHeight="11" markerWidth="11" markerUnits="userSpaceOnUse" refY="5.2" refX="-1" viewBox="0 0 11 11" class="marker cross flowchart" id="my-svg_flowchart-crossStart"><path style="stroke-width: 2; stroke-dasharray: 1, 0;" class="arrowMarkerPath" d="M 1,1 l 9,9 M 10,1 l -9,9"/></marker><g class="root"><g class="clusters"/><g class="edgePaths"><path marker-end="url(#my-svg_flowchart-pointEnd)" style="fill:none;" class="edge-thickness-normal edge-pattern-solid flowchart-link LS-DB LE-KAFKA" id="L-DB-KAFKA-0" d="M278.289,32.791L289.391,32.791C300.493,32.791,322.698,32.791,348.075,32.791C373.452,32.791,402.002,32.791,416.277,32.791L430.552,32.791"/><path marker-end="url(#my-svg_flowchart-pointEnd)" style="fill:none;" class="edge-thickness-normal edge-pattern-solid flowchart-link LS-KAFKA LE-INDEXER" id="L-KAFKA-INDEXER-0" d="M490.859,32.791L499.082,32.791C507.305,32.791,523.75,32.791,535.256,32.791C546.762,32.791,553.329,32.791,556.612,32.791L559.895,32.791"/><path marker-end="url(#my-svg_flowchart-pointEnd)" style="fill:none;" class="edge-thickness-normal edge-pattern-solid flowchart-link LS-INDEXER LE-ES" id="L-INDEXER-ES-0" d="M696.891,32.791L701.057,32.791C705.224,32.791,713.557,32.791,721.232,35.921C728.906,39.051,735.921,45.311,739.429,48.441L742.936,51.571"/><path marker-end="url(#my-svg_flowchart-pointEnd)" style="fill:none;" class="edge-thickness-normal edge-pattern-solid flowchart-link LS-APP LE-DB" id="L-APP-DB-0" d="M93.729,49.936L101.521,47.079C109.312,44.221,124.896,38.506,139.2,35.648C153.504,32.791,166.528,32.791,173.04,32.791L179.552,32.791"/><path marker-end="url(#my-svg_flowchart-pointEnd)" style="fill:none;" class="edge-thickness-normal edge-pattern-solid flowchart-link LS-APP LE-ES" id="L-APP-ES-0" d="M93.729,83.436L101.521,86.294C109.312,89.151,124.896,94.866,147.87,97.724C170.844,100.582,201.207,100.582,235.277,100.582C269.348,100.582,307.125,100.582,345.756,100.582C384.387,100.582,423.871,100.582,456.42,100.582C488.969,100.582,514.582,100.582,542.53,100.582C570.478,100.582,600.76,100.582,631.043,100.582C661.326,100.582,691.608,100.582,710.257,97.451C728.906,94.321,735.921,88.061,739.429,84.931L742.936,81.801"/></g><g class="edgeLabels"><g transform="translate(344.90234375, 32.790771484375)" class="edgeLabel"><g transform="translate(-41.61328125, -9.25)" class="label"><foreignObject height="18.5" width="83.2265625"><div style="display: inline-block; white-space: nowrap;" xmlns="http://www.w3.org/1999/xhtml"><span class="edgeLabel">CDC stream</span></div></foreignObject></g></g><g class="edgeLabel"><g transform="translate(0, 0)" class="label"><foreignObject height="0" width="0"><div style="display: inline-block; white-space: nowrap;" xmlns="http://www.w3.org/1999/xhtml"><span class="edgeLabel"></span></div></foreignObject></g></g><g class="edgeLabel"><g transform="translate(0, 0)" class="label"><foreignObject height="0" width="0"><div style="display: inline-block; white-space: nowrap;" xmlns="http://www.w3.org/1999/xhtml"><span class="edgeLabel"></span></div></foreignObject></g></g><g transform="translate(140.48046875, 32.790771484375)" class="edgeLabel"><g transform="translate(-19.37109375, -9.25)" class="label"><foreignObject height="18.5" width="38.7421875"><div style="display: inline-block; white-space: nowrap;" xmlns="http://www.w3.org/1999/xhtml"><span class="edgeLabel">reads</span></div></foreignObject></g></g><g transform="translate(463.35546875, 100.58154296875)" class="edgeLabel"><g transform="translate(-51.83984375, -9.25)" class="label"><foreignObject height="18.5" width="103.6796875"><div style="display: inline-block; white-space: nowrap;" xmlns="http://www.w3.org/1999/xhtml"><span class="edgeLabel">search queries</span></div></foreignObject></g></g></g><g class="nodes"><g transform="translate(231.5703125, 32.790771484375)" data-id="DB" data-node="true" id="flowchart-DB-0" class="node default default flowchart-label"><path transform="translate(-46.71875,-32.79077253218884)" d="M 0,10.69384835479256 a 46.71875,10.69384835479256 0,0,0 93.4375 0 a 46.71875,10.69384835479256 0,0,0 -93.4375 0 l 0,44.193848354792564 a 46.71875,10.69384835479256 0,0,0 93.4375 0 l 0,-44.193848354792564" style=""/><g transform="translate(-39.21875, -9.25)" style="" class="label"><rect/><foreignObject height="18.5" width="78.4375"><div style="display: inline-block; white-space: nowrap;" xmlns="http://www.w3.org/1999/xhtml"><span class="nodeLabel">Primary DB</span></div></foreignObject></g></g><g transform="translate(463.35546875, 32.790771484375)" data-id="KAFKA" data-node="true" id="flowchart-KAFKA-1" class="node default default flowchart-label"><rect height="33.5" width="55.0078125" y="-16.75" x="-27.50390625" ry="0" rx="0" style="" class="basic label-container"/><g transform="translate(-20.00390625, -9.25)" style="" class="label"><rect/><foreignObject height="18.5" width="40.0078125"><div style="display: inline-block; white-space: nowrap;" xmlns="http://www.w3.org/1999/xhtml"><span class="nodeLabel">Kafka</span></div></foreignObject></g></g><g transform="translate(631.04296875, 32.790771484375)" data-id="INDEXER" data-node="true" id="flowchart-INDEXER-3" class="node default default flowchart-label"><rect height="33.5" width="131.6953125" y="-16.75" x="-65.84765625" ry="0" rx="0" style="" class="basic label-container"/><g transform="translate(-58.34765625, -9.25)" style="" class="label"><rect/><foreignObject height="18.5" width="116.6953125"><div style="display: inline-block; white-space: nowrap;" xmlns="http://www.w3.org/1999/xhtml"><span class="nodeLabel">Indexing Service</span></div></foreignObject></g></g><g transform="translate(801.13671875, 66.6861572265625)" data-id="ES" data-node="true" id="flowchart-ES-5" class="node default default flowchart-label"><path transform="translate(-54.24609375,-34.17438183825744)" d="M 0,11.61625455883829 a 54.24609375,11.61625455883829 0,0,0 108.4921875 0 a 54.24609375,11.61625455883829 0,0,0 -108.4921875 0 l 0,45.11625455883829 a 54.24609375,11.61625455883829 0,0,0 108.4921875 0 l 0,-45.11625455883829" style=""/><g transform="translate(-46.74609375, -9.25)" style="" class="label"><rect/><foreignObject height="18.5" width="93.4921875"><div style="display: inline-block; white-space: nowrap;" xmlns="http://www.w3.org/1999/xhtml"><span class="nodeLabel">Elasticsearch</span></div></foreignObject></g></g><g transform="translate(48.0546875, 66.6861572265625)" data-id="APP" data-node="true" id="flowchart-APP-6" class="node default default flowchart-label"><rect height="33.5" width="96.109375" y="-16.75" x="-48.0546875" ry="0" rx="0" style="" class="basic label-container"/><g transform="translate(-40.5546875, -9.25)" style="" class="label"><rect/><foreignObject height="18.5" width="81.109375"><div style="display: inline-block; white-space: nowrap;" xmlns="http://www.w3.org/1999/xhtml"><span class="nodeLabel">Application</span></div></foreignObject></g></g></g></g></g></svg>