<svg aria-roledescription="flowchart-v2" role="graphics-document document" viewBox="-8 -8 1487.375 324.48272705078125" style="max-width: 1487.38px; background-color: white;" xmlns:xlink="http://www.w3.org/1999/xlink" xmlns="http://www.w3.org/2000/svg" width="100%" id="my-svg"><style>#my-svg{font-family:"trebuchet ms",verdana,arial,sans-serif;font-size:16px;fill:#333;}#my-svg .error-icon{fill:#552222;}#my-svg .error-text{fill:#552222;stroke:#552222;}#my-svg .edge-thickness-normal{stroke-width:2px;}#my-svg .edge-thickness-thick{stroke-width:3.5px;}#my-svg .edge-pattern-solid{stroke-dasharray:0;}#my-svg .edge-pattern-dashed{stroke-dasharray:3;}#my-svg .edge-pattern-dotted{stroke-dasharray:2;}#my-svg .marker{fill:#333333;stroke:#333333;}#my-svg .marker.cross{stroke:#333333;}#my-svg svg{font-family:"trebuchet ms",verdana,arial,sans-serif;font-size:16px;}#my-svg .label{font-family:"trebuchet ms",verdana,arial,sans-serif;color:#333;}#my-svg .cluster-label text{fill:#333;}#my-svg .cluster-label span,#my-svg p{color:#333;}#my-svg .label text,#my-svg span,#my-svg p{fill:#333;color:#333;}#my-svg .node rect,#my-svg .node circle,#my-svg .node ellipse,#my-svg .node polygon,#my-svg .node path{fill:#ECECFF;stroke:#9370DB;stroke-width:1px;}#my-svg .flowchart-label text{text-anchor:middle;}#my-svg .node .katex path{fill:#000;stroke:#000;stroke-width:1px;}#my-svg .node .label{text-align:center;}#my-svg .node.clickable{cursor:pointer;}#my-svg .arrowheadPath{fill:#333333;}#my-svg .edgePath .path{stroke:#333333;stroke-width:2.0px;}#my-svg .flowchart-link{stroke:#333333;fill:none;}#my-svg .edgeLabel{background-color:#e8e8e8;text-align:center;}#my-svg .edgeLabel rect{opacity:0.5;background-color:#e8e8e8;fill:#e8e8e8;}#my-svg .labelBkg{background-color:rgba(232, 232, 232, 0.5);}#my-svg .cluster rect{fill:#ffffde;stroke:#aaaa33;stroke-width:1px;}#my-svg .cluster text{fill:#333;}#my-svg .cluster span,#my-svg p{color:#333;}#my-svg div.mermaidTooltip{position:absolute;text-align:center;max-width:200px;padding:2px;font-family:"trebuchet ms",verdana,arial,sans-serif;font-size:12px;background:hsl(80, 100%, 96.2745098039%);border:1px solid #aaaa33;border-radius:2px;pointer-events:none;z-index:100;}#my-svg .flowchartTitleText{text-anchor:middle;font-size:18px;fill:#333;}#my-svg :root{--mermaid-font-family:"trebuchet ms",verdana,arial,sans-serif;}</style><g><marker orient="auto" markerHeight="12" markerWidth="12" markerUnits="userSpaceOnUse" refY="5" refX="6" viewBox="0 0 10 10" class="marker flowchart" id="my-svg_flowchart-pointEnd"><path style="stroke-width: 1; stroke-dasharray: 1, 0;" class="arrowMarkerPath" d="M 0 0 L 10 5 L 0 10 z"/></marker><marker orient="auto" markerHeight="12" markerWidth="12" markerUnits="userSpaceOnUse" refY="5" refX="4.5" viewBox="0 0 10 10" class="marker flowchart" id="my-svg_flowchart-pointStart"><path style="stroke-width: 1; stroke-dasharray: 1, 0;" class="arrowMarkerPath" d="M 0 5 L 10 10 L 10 0 z"/></marker><marker orient="auto" markerHeight="11" markerWidth="11" markerUnits="userSpaceOnUse" refY="5" refX="11" viewBox="0 0 10 10" class="marker flowchart" id="my-svg_flowchart-circleEnd"><circle style="stroke-width: 1; stroke-dasharray: 1, 0;" class="arrowMarkerPath" r="5" cy="5" cx="5"/></marker><marker orient="auto" markerHeight="11" markerWidth="11" markerUnits="userSpaceOnUse" refY="5" refX="-1" viewBox="0 0 10 10" class="marker flowchart" id="my-svg_flowchart-circleStart"><circle style="stroke-width: 1; stroke-dasharray: 1, 0;" class="arrowMarkerPath" r="5" cy="5" cx="5"/></marker><marker orient="auto" markerHeight="11" markerWidth="11" markerUnits="userSpaceOnUse" refY="5.2" refX="12" viewBox="0 0 11 11" class="marker cross flowchart" id="my-svg_flowchart-crossEnd"><path style="stroke-width: 2; stroke-dasharray: 1, 0;" class="arrowMarkerPath" d="M 1,1 l 9,9 M 10,1 l -9,9"/></marker><marker orient="auto" markerHeight="11" markerWidth="11" markerUnits="userSpaceOnUse" refY="5.2" refX="-1" viewBox="0 0 11 11" class="marker cross flowchart" id="my-svg_flowchart-crossStart"><path style="stroke-width: 2; stroke-dasharray: 1, 0;" class="arrowMarkerPath" d="M 1,1 l 9,9 M 10,1 l -9,9"/></marker><g class="root"><g class="clusters"><g id="subGraph1" class="cluster default flowchart-label"><rect height="132" width="901.7734375" y="0" x="569.6015625" ry="0" rx="0" style=""/><g transform="translate(968.3203125, 0)" class="cluster-label"><foreignObject height="18.5" width="104.3359375"><div style="display: inline-block; white-space: nowrap;" xmlns="http://www.w3.org/1999/xhtml"><span class="nodeLabel">Query Pipeline</span></div></foreignObject></g></g><g id="subGraph0" class="cluster default flowchart-label"><rect height="156.48273468017578" width="968.609375" y="152" x="0" ry="0" rx="0" style=""/><g transform="translate(423.23828125, 152)" class="cluster-label"><foreignObject height="18.5" width="122.1328125"><div style="display: inline-block; white-space: nowrap;" xmlns="http://www.w3.org/1999/xhtml"><span class="nodeLabel">Indexing Pipeline</span></div></foreignObject></g></g></g><g class="edgePaths"><path marker-end="url(#my-svg_flowchart-pointEnd)" style="fill:none;" class="edge-thickness-normal edge-pattern-solid flowchart-link LS-DATA LE-CRAWL" id="L-DATA-CRAWL-0" d="M141.547,230.241L145.714,230.241C149.88,230.241,158.214,230.241,165.664,230.241C173.114,230.241,179.68,230.241,182.964,230.241L186.247,230.241"/><path marker-end="url(#my-svg_flowchart-pointEnd)" style="fill:none;" class="edge-thickness-normal edge-pattern-solid flowchart-link LS-CRAWL LE-PROC" id="L-CRAWL-PROC-0" d="M309.297,230.241L313.464,230.241C317.63,230.241,325.964,230.241,333.414,230.241C340.864,230.241,347.43,230.241,350.714,230.241L353.997,230.241"/><path marker-end="url(#my-svg_flowchart-pointEnd)" style="fill:none;" class="edge-thickness-normal edge-pattern-solid flowchart-link LS-PROC LE-IDX" id="L-PROC-IDX-0" d="M519.602,230.241L523.768,230.241C527.935,230.241,536.268,230.241,544.602,230.241C552.935,230.241,561.268,230.241,568.718,230.241C576.168,230.241,582.735,230.241,586.018,230.241L589.302,230.241"/><path marker-end="url(#my-svg_flowchart-pointEnd)" style="fill:none;" class="edge-thickness-normal edge-pattern-solid flowchart-link LS-IDX LE-STORE" id="L-IDX-STORE-0" d="M754.047,230.241L758.214,230.241C762.38,230.241,770.714,230.241,780.929,230.241C791.143,230.241,803.24,230.241,809.288,230.241L815.337,230.241"/><path marker-end="url(#my-svg_flowchart-pointEnd)" style="fill:none;" class="edge-thickness-normal edge-pattern-solid flowchart-link LS-USER LE-QP" id="L-USER-QP-0" d="M721.328,61L730.948,61C740.568,61,759.807,61,772.71,61C785.614,61,792.18,61,795.464,61L798.747,61"/><path marker-end="url(#my-svg_flowchart-pointEnd)" style="fill:none;" class="edge-thickness-normal edge-pattern-solid flowchart-link LS-QP LE-SEARCH" id="L-QP-SEARCH-0" d="M943.609,61L947.776,61C951.943,61,960.276,61,968.609,61C976.943,61,985.276,61,992.73,61.315C1000.184,61.63,1006.759,62.26,1010.046,62.575L1013.334,62.89"/><path marker-end="url(#my-svg_flowchart-pointEnd)" style="fill:none;" class="edge-thickness-normal edge-pattern-solid flowchart-link LS-SEARCH LE-RANK" id="L-SEARCH-RANK-0" d="M1177.297,71L1181.464,71C1185.63,71,1193.964,71,1201.414,71C1208.864,71,1215.43,71,1218.714,71L1221.997,71"/><path marker-end="url(#my-svg_flowchart-pointEnd)" style="fill:none;" class="edge-thickness-normal edge-pattern-solid flowchart-link LS-RANK LE-RESULT" id="L-RANK-RESULT-0" d="M1331.227,71L1335.393,71C1339.56,71,1347.893,71,1355.343,71C1362.793,71,1369.36,71,1372.643,71L1375.927,71"/><path marker-end="url(#my-svg_flowchart-pointEnd)" style="fill:none;" class="edge-thickness-normal edge-pattern-solid flowchart-link LS-STORE LE-SEARCH" id="L-STORE-SEARCH-0" d="M927.02,230.241L933.951,230.241C940.883,230.241,954.746,230.241,965.844,207.118C976.943,183.994,985.276,137.747,992.743,113.975C1000.209,90.203,1006.809,88.907,1010.109,88.258L1013.409,87.61"/></g><g class="edgeLabels"><g class="edgeLabel"><g transform="translate(0, 0)" class="label"><foreignObject height="0" width="0"><div style="display: inline-block; white-space: nowrap;" xmlns="http://www.w3.org/1999/xhtml"><span class="edgeLabel"></span></div></foreignObject></g></g><g class="edgeLabel"><g transform="translate(0, 0)" class="label"><foreignObject height="0" width="0"><div style="display: inline-block; white-space: nowrap;" xmlns="http://www.w3.org/1999/xhtml"><span class="edgeLabel"></span></div></foreignObject></g></g><g class="edgeLabel"><g transform="translate(0, 0)" class="label"><foreignObject height="0" width="0"><div style="display: inline-block; white-space: nowrap;" xmlns="http://www.w3.org/1999/xhtml"><span class="edgeLabel"></span></div></foreignObject></g></g><g class="edgeLabel"><g transform="translate(0, 0)" class="label"><foreignObject height="0" width="0"><div style="display: inline-block; white-space: nowrap;" xmlns="http://www.w3.org/1999/xhtml"><span class="edgeLabel"></span></div></foreignObject></g></g><g class="edgeLabel"><g transform="translate(0, 0)" class="label"><foreignObject height="0" width="0"><div style="display: inline-block; white-space: nowrap;" xmlns="http://www.w3.org/1999/xhtml"><span class="edgeLabel"></span></div></foreignObject></g></g><g class="edgeLabel"><g transform="translate(0, 0)" class="label"><foreignObject height="0" width="0"><div style="display: inline-block; white-space: nowrap;" xmlns="http://www.w3.org/1999/xhtml"><span class="edgeLabel"></span></div></foreignObject></g></g><g class="edgeLabel"><g transform="translate(0, 0)" class="label"><foreignObject height="0" width="0"><div style="display: inline-block; white-space: nowrap;" xmlns="http://www.w3.org/1999/xhtml"><span class="edgeLabel"></span></div></foreignObject></g></g><g class="edgeLabel"><g transform="translate(0, 0)" class="label"><foreignObject height="0" width="0"><div style="display: inline-block; white-space: nowrap;" xmlns="http://www.w3.org/1999/xhtml"><span class="edgeLabel"></span></div></foreignObject></g></g><g class="edgeLabel"><g transform="translate(0, 0)" class="label"><foreignObject height="0" width="0"><div style="display: inline-block; white-space: nowrap;" xmlns="http://www.w3.org/1999/xhtml"><span class="edgeLabel"></span></div></foreignObject></g></g></g><g class="nodes"><g transform="translate(873.828125, 61)" data-id="QP" data-node="true" id="flowchart-QP-9" class="node default default flowchart-label"><rect height="52" width="139.5625" y="-26" x="-69.78125" ry="0" rx="0" style="" class="basic label-container"/><g transform="translate(-62.28125, -18.5)" style="" class="label"><rect/><foreignObject height="37" width="124.5625"><div style="display: inline-block; white-space: nowrap;" xmlns="http://www.w3.org/1999/xhtml"><span class="nodeLabel">Query Parser<br />Tokenize, Expand</span></div></foreignObject></g></g><g transform="translate(674.32421875, 61)" data-id="USER" data-node="true" id="flowchart-USER-8" class="node default default flowchart-label"><rect height="33.5" width="94.0078125" y="-16.75" x="-47.00390625" ry="0" rx="0" style="" class="basic label-container"/><g transform="translate(-39.50390625, -9.25)" style="" class="label"><rect/><foreignObject height="18.5" width="79.0078125"><div style="display: inline-block; white-space: nowrap;" xmlns="http://www.w3.org/1999/xhtml"><span class="nodeLabel">User Query</span></div></foreignObject></g></g><g transform="translate(1097.953125, 71)" data-id="SEARCH" data-node="true" id="flowchart-SEARCH-11" class="node default default flowchart-label"><rect height="52" width="158.6875" y="-26" x="-79.34375" ry="0" rx="0" style="" class="basic label-container"/><g transform="translate(-71.84375, -18.5)" style="" class="label"><rect/><foreignObject height="37" width="143.6875"><div style="display: inline-block; white-space: nowrap;" xmlns="http://www.w3.org/1999/xhtml"><span class="nodeLabel">Search Engine<br />Retrieve Candidates</span></div></foreignObject></g></g><g transform="translate(1279.26171875, 71)" data-id="RANK" data-node="true" id="flowchart-RANK-13" class="node default default flowchart-label"><rect height="52" width="103.9296875" y="-26" x="-51.96484375" ry="0" rx="0" style="" class="basic label-container"/><g transform="translate(-44.46484375, -18.5)" style="" class="label"><rect/><foreignObject height="37" width="88.9296875"><div style="display: inline-block; white-space: nowrap;" xmlns="http://www.w3.org/1999/xhtml"><span class="nodeLabel">Ranker<br />Score &amp; Sort</span></div></foreignObject></g></g><g transform="translate(1413.80078125, 71)" data-id="RESULT" data-node="true" id="flowchart-RESULT-15" class="node default default flowchart-label"><rect height="33.5" width="65.1484375" y="-16.75" x="-32.57421875" ry="0" rx="0" style="" class="basic label-container"/><g transform="translate(-25.07421875, -9.25)" style="" class="label"><rect/><foreignObject height="18.5" width="50.1484375"><div style="display: inline-block; white-space: nowrap;" xmlns="http://www.w3.org/1999/xhtml"><span class="nodeLabel">Results</span></div></foreignObject></g></g><g transform="translate(250.421875, 230.2413673400879)" data-id="CRAWL" data-node="true" id="flowchart-CRAWL-1" class="node default default flowchart-label"><rect height="33.5" width="117.75" y="-16.75" x="-58.875" ry="0" rx="0" style="" class="basic label-container"/><g transform="translate(-51.375, -9.25)" style="" class="label"><rect/><foreignObject height="18.5" width="102.75"><div style="display: inline-block; white-space: nowrap;" xmlns="http://www.w3.org/1999/xhtml"><span class="nodeLabel">Crawler / CDC</span></div></foreignObject></g></g><g transform="translate(83.2734375, 230.2413673400879)" data-id="DATA" data-node="true" id="flowchart-DATA-0" class="node default default flowchart-label"><rect height="52" width="116.546875" y="-26" x="-58.2734375" ry="0" rx="0" style="" class="basic label-container"/><g transform="translate(-50.7734375, -18.5)" style="" class="label"><rect/><foreignObject height="37" width="101.546875"><div style="display: inline-block; white-space: nowrap;" xmlns="http://www.w3.org/1999/xhtml"><span class="nodeLabel">Data Sources<br />DB, Files, APIs</span></div></foreignObject></g></g><g transform="translate(439.44921875, 230.2413673400879)" data-id="PROC" data-node="true" id="flowchart-PROC-3" class="node default default flowchart-label"><rect height="52" width="160.3046875" y="-26" x="-80.15234375" ry="0" rx="0" style="" class="basic label-container"/><g transform="translate(-72.65234375, -18.5)" style="" class="label"><rect/><foreignObject height="37" width="145.3046875"><div style="display: inline-block; white-space: nowrap;" xmlns="http://www.w3.org/1999/xhtml"><span class="nodeLabel">Document Processor<br />Tokenize, Normalize</span></div></foreignObject></g></g><g transform="translate(674.32421875, 230.2413673400879)" data-id="IDX" data-node="true" id="flowchart-IDX-5" class="node default default flowchart-label"><rect height="52" width="159.4453125" y="-26" x="-79.72265625" ry="0" rx="0" style="" class="basic label-container"/><g transform="translate(-72.22265625, -18.5)" style="" class="label"><rect/><foreignObject height="37" width="144.4453125"><div style="display: inline-block; white-space: nowrap;" xmlns="http://www.w3.org/1999/xhtml"><span class="nodeLabel">Indexer<br />Build Inverted Index</span></div></foreignObject></g></g><g transform="translate(873.828125, 230.2413673400879)" data-id="STORE" data-node="true" id="flowchart-STORE-7" class="node default default flowchart-label"><path transform="translate(-53.19140625,-43.24136475672756)" d="M 0,11.494243171151705 a 53.19140625,11.494243171151705 0,0,0 106.3828125 0 a 53.19140625,11.494243171151705 0,0,0 -106.3828125 0 l 0,63.49424317115171 a 53.19140625,11.494243171151705 0,0,0 106.3828125 0 l 0,-63.49424317115171" style=""/><g transform="translate(-45.69140625, -18.5)" style="" class="label"><rect/><foreignObject height="37" width="91.3828125"><div style="display: inline-block; white-space: nowrap;" xmlns="http://www.w3.org/1999/xhtml"><span class="nodeLabel">Search Index<br />Sharded</span></div></foreignObject></g></g></g></g></g></svg>