<svg aria-roledescription="flowchart-v2" role="graphics-document document" viewBox="-8 -8 811.765625 1656.578125" style="max-width: 811.766px; background-color: white;" xmlns:xlink="http://www.w3.org/1999/xlink" xmlns="http://www.w3.org/2000/svg" width="100%" id="my-svg"><style>#my-svg{font-family:"trebuchet ms",verdana,arial,sans-serif;font-size:16px;fill:#333;}#my-svg .error-icon{fill:#552222;}#my-svg .error-text{fill:#552222;stroke:#552222;}#my-svg .edge-thickness-normal{stroke-width:2px;}#my-svg .edge-thickness-thick{stroke-width:3.5px;}#my-svg .edge-pattern-solid{stroke-dasharray:0;}#my-svg .edge-pattern-dashed{stroke-dasharray:3;}#my-svg .edge-pattern-dotted{stroke-dasharray:2;}#my-svg .marker{fill:#333333;stroke:#333333;}#my-svg .marker.cross{stroke:#333333;}#my-svg svg{font-family:"trebuchet ms",verdana,arial,sans-serif;font-size:16px;}#my-svg .label{font-family:"trebuchet ms",verdana,arial,sans-serif;color:#333;}#my-svg .cluster-label text{fill:#333;}#my-svg .cluster-label span,#my-svg p{color:#333;}#my-svg .label text,#my-svg span,#my-svg p{fill:#333;color:#333;}#my-svg .node rect,#my-svg .node circle,#my-svg .node ellipse,#my-svg .node polygon,#my-svg .node path{fill:#ECECFF;stroke:#9370DB;stroke-width:1px;}#my-svg .flowchart-label text{text-anchor:middle;}#my-svg .node .katex path{fill:#000;stroke:#000;stroke-width:1px;}#my-svg .node .label{text-align:center;}#my-svg .node.clickable{cursor:pointer;}#my-svg .arrowheadPath{fill:#333333;}#my-svg .edgePath .path{stroke:#333333;stroke-width:2.0px;}#my-svg .flowchart-link{stroke:#333333;fill:none;}#my-svg .edgeLabel{background-color:#e8e8e8;text-align:center;}#my-svg .edgeLabel rect{opacity:0.5;background-color:#e8e8e8;fill:#e8e8e8;}#my-svg .labelBkg{background-color:rgba(232, 232, 232, 0.5);}#my-svg .cluster rect{fill:#ffffde;stroke:#aaaa33;stroke-width:1px;}#my-svg .cluster text{fill:#333;}#my-svg .cluster span,#my-svg p{color:#333;}#my-svg div.mermaidTooltip{position:absolute;text-align:center;max-width:200px;padding:2px;font-family:"trebuchet ms",verdana,arial,sans-serif;font-size:12px;background:hsl(80, 100%, 96.2745098039%);border:1px solid #aaaa33;border-radius:2px;pointer-events:none;z-index:100;}#my-svg .flowchartTitleText{text-anchor:middle;font-size:18px;fill:#333;}#my-svg :root{--mermaid-font-family:"trebuchet ms",verdana,arial,sans-serif;}</style><g><marker orient="auto" markerHeight="12" markerWidth="12" markerUnits="userSpaceOnUse" refY="5" refX="6" viewBox="0 0 10 10" class="marker flowchart" id="my-svg_flowchart-pointEnd"><path style="stroke-width: 1; stroke-dasharray: 1, 0;" class="arrowMarkerPath" d="M 0 0 L 10 5 L 0 10 z"/></marker><marker orient="auto" markerHeight="12" markerWidth="12" markerUnits="userSpaceOnUse" refY="5" refX="4.5" viewBox="0 0 10 10" class="marker flowchart" id="my-svg_flowchart-pointStart"><path style="stroke-width: 1; stroke-dasharray: 1, 0;" class="arrowMarkerPath" d="M 0 5 L 10 10 L 10 0 z"/></marker><marker orient="auto" markerHeight="11" markerWidth="11" markerUnits="userSpaceOnUse" refY="5" refX="11" viewBox="0 0 10 10" class="marker flowchart" id="my-svg_flowchart-circleEnd"><circle style="stroke-width: 1; stroke-dasharray: 1, 0;" class="arrowMarkerPath" r="5" cy="5" cx="5"/></marker><marker orient="auto" markerHeight="11" markerWidth="11" markerUnits="userSpaceOnUse" refY="5" refX="-1" viewBox="0 0 10 10" class="marker flowchart" id="my-svg_flowchart-circleStart"><circle style="stroke-width: 1; stroke-dasharray: 1, 0;" class="arrowMarkerPath" r="5" cy="5" cx="5"/></marker><marker orient="auto" markerHeight="11" markerWidth="11" markerUnits="userSpaceOnUse" refY="5.2" refX="12" viewBox="0 0 11 11" class="marker cross flowchart" id="my-svg_flowchart-crossEnd"><path style="stroke-width: 2; stroke-dasharray: 1, 0;" class="arrowMarkerPath" d="M 1,1 l 9,9 M 10,1 l -9,9"/></marker><marker orient="auto" markerHeight="11" markerWidth="11" markerUnits="userSpaceOnUse" refY="5.2" refX="-1" viewBox="0 0 11 11" class="marker cross flowchart" id="my-svg_flowchart-crossStart"><path style="stroke-width: 2; stroke-dasharray: 1, 0;" class="arrowMarkerPath" d="M 1,1 l 9,9 M 10,1 l -9,9"/></marker><g class="root"><g class="clusters"/><g class="edgePaths"><path marker-end="url(#my-svg_flowchart-pointEnd)" style="fill:none;" class="edge-thickness-normal edge-pattern-solid flowchart-link LS-START LE-Q1" id="L-START-Q1-0" d="M383.037,33.5L383.037,37.667C383.037,41.833,383.037,50.167,383.103,57.7C383.169,65.234,383.301,71.967,383.367,75.334L383.433,78.701"/><path marker-end="url(#my-svg_flowchart-pointEnd)" style="fill:none;" class="edge-thickness-normal edge-pattern-solid flowchart-link LS-Q1 LE-DB" id="L-Q1-DB-0" d="M454.428,218.14L493.626,235.58C532.825,253.021,611.221,287.901,650.419,326.423C689.617,364.945,689.617,407.109,689.617,428.191L689.617,449.273"/><path marker-end="url(#my-svg_flowchart-pointEnd)" style="fill:none;" class="edge-thickness-normal edge-pattern-solid flowchart-link LS-Q1 LE-Q2" id="L-Q1-Q2-0" d="M328.153,233.647L310.515,248.503C292.877,263.359,257.6,293.07,240.033,312.834C222.465,332.598,222.607,342.415,222.677,347.323L222.748,352.232"/><path marker-end="url(#my-svg_flowchart-pointEnd)" style="fill:none;" class="edge-thickness-normal edge-pattern-solid flowchart-link LS-Q2 LE-FS" id="L-Q2-FS-0" d="M158.752,575.639L145.036,591.943C131.32,608.246,103.889,640.854,90.173,685.195C76.457,729.537,76.457,785.613,76.457,813.65L76.457,841.688"/><path marker-end="url(#my-svg_flowchart-pointEnd)" style="fill:none;" class="edge-thickness-normal edge-pattern-solid flowchart-link LS-Q2 LE-Q3" id="L-Q2-Q3-0" d="M286.896,575.639L300.445,591.943C313.995,608.246,341.093,640.854,354.713,662.066C368.333,683.278,368.474,693.095,368.545,698.003L368.615,702.911"/><path marker-end="url(#my-svg_flowchart-pointEnd)" style="fill:none;" class="edge-thickness-normal edge-pattern-solid flowchart-link LS-Q3 LE-OBJ" id="L-Q3-OBJ-0" d="M314.478,984.552L307.198,999.213C299.918,1013.873,285.357,1043.195,278.077,1062.68C270.797,1082.166,270.797,1091.816,270.797,1096.641L270.797,1101.466"/><path marker-end="url(#my-svg_flowchart-pointEnd)" style="fill:none;" class="edge-thickness-normal edge-pattern-solid flowchart-link LS-Q3 LE-OTHER" id="L-Q3-OTHER-0" d="M422.905,984.552L430.018,999.213C437.132,1013.873,451.359,1043.195,458.472,1064.222C465.586,1085.249,465.586,1097.982,465.586,1104.349L465.586,1110.716"/><path marker-end="url(#my-svg_flowchart-pointEnd)" style="fill:none;" class="edge-thickness-normal edge-pattern-solid flowchart-link LS-OBJ LE-Q4" id="L-OBJ-Q4-0" d="M270.797,1158.766L270.797,1162.932C270.797,1167.099,270.797,1175.432,270.863,1182.966C270.929,1190.499,271.061,1197.233,271.127,1200.6L271.193,1203.967"/><path marker-end="url(#my-svg_flowchart-pointEnd)" style="fill:none;" class="edge-thickness-normal edge-pattern-solid flowchart-link LS-Q4 LE-CDN" id="L-Q4-CDN-0" d="M227.452,1374.733L217.985,1387.666C208.517,1400.598,189.582,1426.463,180.114,1445.762C170.646,1465.061,170.646,1477.795,170.646,1484.161L170.646,1490.528"/><path marker-end="url(#my-svg_flowchart-pointEnd)" style="fill:none;" class="edge-thickness-normal edge-pattern-solid flowchart-link LS-Q4 LE-ORIGIN" id="L-Q4-ORIGIN-0" d="M315.142,1374.733L324.443,1387.666C333.743,1400.598,352.345,1426.463,361.646,1444.221C370.947,1461.978,370.947,1471.628,370.947,1476.453L370.947,1481.278"/><path marker-end="url(#my-svg_flowchart-pointEnd)" style="fill:none;" class="edge-thickness-normal edge-pattern-solid flowchart-link LS-DB LE-API" id="L-DB-API-0" d="M689.617,541.67L689.617,563.635C689.617,585.6,689.617,629.531,689.617,681.075C689.617,732.62,689.617,791.779,689.617,821.359L689.617,850.938"/><path marker-end="url(#my-svg_flowchart-pointEnd)" style="fill:none;" class="edge-thickness-normal edge-pattern-solid flowchart-link LS-CDN LE-SEC" id="L-CDN-SEC-0" d="M170.646,1529.328L170.646,1535.036C170.646,1540.745,170.646,1552.161,170.646,1561.153C170.646,1570.145,170.646,1576.711,170.646,1579.995L170.646,1583.278"/></g><g class="edgeLabels"><g class="edgeLabel"><g transform="translate(0, 0)" class="label"><foreignObject height="0" width="0"><div style="display: inline-block; white-space: nowrap;" xmlns="http://www.w3.org/1999/xhtml"><span class="edgeLabel"></span></div></foreignObject></g></g><g transform="translate(689.6171875, 322.78125)" class="edgeLabel"><g transform="translate(-11.32421875, -9.25)" class="label"><foreignObject height="18.5" width="22.6484375"><div style="display: inline-block; white-space: nowrap;" xmlns="http://www.w3.org/1999/xhtml"><span class="edgeLabel">Yes</span></div></foreignObject></g></g><g transform="translate(222.32421875, 322.78125)" class="edgeLabel"><g transform="translate(-9.3984375, -9.25)" class="label"><foreignObject height="18.5" width="18.796875"><div style="display: inline-block; white-space: nowrap;" xmlns="http://www.w3.org/1999/xhtml"><span class="edgeLabel">No</span></div></foreignObject></g></g><g transform="translate(76.45703125, 673.4609375)" class="edgeLabel"><g transform="translate(-11.32421875, -9.25)" class="label"><foreignObject height="18.5" width="22.6484375"><div style="display: inline-block; white-space: nowrap;" xmlns="http://www.w3.org/1999/xhtml"><span class="edgeLabel">Yes</span></div></foreignObject></g></g><g transform="translate(368.19140625, 673.4609375)" class="edgeLabel"><g transform="translate(-9.3984375, -9.25)" class="label"><foreignObject height="18.5" width="18.796875"><div style="display: inline-block; white-space: nowrap;" xmlns="http://www.w3.org/1999/xhtml"><span class="edgeLabel">No</span></div></foreignObject></g></g><g transform="translate(270.796875, 1072.515625)" class="edgeLabel"><g transform="translate(-11.32421875, -9.25)" class="label"><foreignObject height="18.5" width="22.6484375"><div style="display: inline-block; white-space: nowrap;" xmlns="http://www.w3.org/1999/xhtml"><span class="edgeLabel">Yes</span></div></foreignObject></g></g><g transform="translate(465.5859375, 1072.515625)" class="edgeLabel"><g transform="translate(-9.3984375, -9.25)" class="label"><foreignObject height="18.5" width="18.796875"><div style="display: inline-block; white-space: nowrap;" xmlns="http://www.w3.org/1999/xhtml"><span class="edgeLabel">No</span></div></foreignObject></g></g><g class="edgeLabel"><g transform="translate(0, 0)" class="label"><foreignObject height="0" width="0"><div style="display: inline-block; white-space: nowrap;" xmlns="http://www.w3.org/1999/xhtml"><span class="edgeLabel"></span></div></foreignObject></g></g><g transform="translate(170.646484375, 1452.328125)" class="edgeLabel"><g transform="translate(-11.32421875, -9.25)" class="label"><foreignObject height="18.5" width="22.6484375"><div style="display: inline-block; white-space: nowrap;" xmlns="http://www.w3.org/1999/xhtml"><span class="edgeLabel">Yes</span></div></foreignObject></g></g><g transform="translate(370.947265625, 1452.328125)" class="edgeLabel"><g transform="translate(-9.3984375, -9.25)" class="label"><foreignObject height="18.5" width="18.796875"><div style="display: inline-block; white-space: nowrap;" xmlns="http://www.w3.org/1999/xhtml"><span class="edgeLabel">No</span></div></foreignObject></g></g><g class="edgeLabel"><g transform="translate(0, 0)" class="label"><foreignObject height="0" width="0"><div style="display: inline-block; white-space: nowrap;" xmlns="http://www.w3.org/1999/xhtml"><span class="edgeLabel"></span></div></foreignObject></g></g><g class="edgeLabel"><g transform="translate(0, 0)" class="label"><foreignObject height="0" width="0"><div style="display: inline-block; white-space: nowrap;" xmlns="http://www.w3.org/1999/xhtml"><span class="edgeLabel"></span></div></foreignObject></g></g></g><g class="nodes"><g transform="translate(383.037109375, 16.75)" data-id="START" data-node="true" id="flowchart-START-0" class="node default default flowchart-label"><rect height="33.5" width="223.625" y="-16.75" x="-111.8125" ry="16.75" rx="16.75" style=""/><g transform="translate(-100.125, -9.25)" style="" class="label"><rect/><foreignObject height="18.5" width="200.25"><div style="display: inline-block; white-space: nowrap;" xmlns="http://www.w3.org/1999/xhtml"><span class="nodeLabel">Need to persist binary blob?</span></div></foreignObject></g></g><g transform="translate(383.037109375, 186.015625)" data-id="Q1" data-node="true" id="flowchart-Q1-2" class="node default default flowchart-label"><polygon style="" transform="translate(-102.515625,102.515625)" class="label-container" points="102.515625,0 205.03125,-102.515625 102.515625,-205.03125 0,-102.515625"/><g transform="translate(-69.015625, -18.5)" style="" class="label"><rect/><foreignObject height="37" width="138.03125"><div style="display: inline-block; white-space: nowrap;" xmlns="http://www.w3.org/1999/xhtml"><span class="nodeLabel">Structured query,<br />transactions, joins?</span></div></foreignObject></g></g><g transform="translate(689.6171875, 498.12109375)" data-id="DB" data-node="true" id="flowchart-DB-4" class="node default default flowchart-label"><path transform="translate(-54.97265625,-43.548548531905695)" d="M 0,11.699032354603796 a 54.97265625,11.699032354603796 0,0,0 109.9453125 0 a 54.97265625,11.699032354603796 0,0,0 -109.9453125 0 l 0,63.699032354603794 a 54.97265625,11.699032354603796 0,0,0 109.9453125 0 l 0,-63.699032354603794" style=""/><g transform="translate(-47.47265625, -18.5)" style="" class="label"><rect/><foreignObject height="37" width="94.9453125"><div style="display: inline-block; white-space: nowrap;" xmlns="http://www.w3.org/1999/xhtml"><span class="nodeLabel">Relational or<br />document DB</span></div></foreignObject></g></g><g transform="translate(222.32421875, 498.12109375)" data-id="Q2" data-node="true" id="flowchart-Q2-6" class="node default default flowchart-label"><polygon style="" transform="translate(-141.08984375,141.08984375)" class="label-container" points="141.08984375,0 282.1796875,-141.08984375 141.08984375,-282.1796875 0,-141.08984375"/><g transform="translate(-98.33984375, -27.75)" style="" class="label"><rect/><foreignObject height="55.5" width="196.6796875"><div style="display: inline-block; white-space: nowrap;" xmlns="http://www.w3.org/1999/xhtml"><span class="nodeLabel">POSIX filesystem,<br />random writes, low latency<br />local disk?</span></div></foreignObject></g></g><g transform="translate(76.45703125, 872.98828125)" data-id="FS" data-node="true" id="flowchart-FS-8" class="node default default flowchart-label"><rect height="52" width="152.9140625" y="-26" x="-76.45703125" ry="0" rx="0" style="" class="basic label-container"/><g transform="translate(-68.95703125, -18.5)" style="" class="label"><rect/><foreignObject height="37" width="137.9140625"><div style="display: inline-block; white-space: nowrap;" xmlns="http://www.w3.org/1999/xhtml"><span class="nodeLabel">Block / file storage<br />attached volume</span></div></foreignObject></g></g><g transform="translate(368.19140625, 872.98828125)" data-id="Q3" data-node="true" id="flowchart-Q3-10" class="node default default flowchart-label"><polygon style="" transform="translate(-165.27734375,165.27734375)" class="label-container" points="165.27734375,0 330.5546875,-165.27734375 165.27734375,-330.5546875 0,-165.27734375"/><g transform="translate(-131.77734375, -18.5)" style="" class="label"><rect/><foreignObject height="37" width="263.5546875"><div style="display: inline-block; white-space: nowrap;" xmlns="http://www.w3.org/1999/xhtml"><span class="nodeLabel">Huge scale, HTTP access,<br />immutable or whole-object updates?</span></div></foreignObject></g></g><g transform="translate(270.796875, 1132.765625)" data-id="OBJ" data-node="true" id="flowchart-OBJ-12" class="node default default flowchart-label"><rect height="52" width="126.90625" y="-26" x="-63.453125" ry="0" rx="0" style="" class="basic label-container"/><g transform="translate(-55.953125, -18.5)" style="" class="label"><rect/><foreignObject height="37" width="111.90625"><div style="display: inline-block; white-space: nowrap;" xmlns="http://www.w3.org/1999/xhtml"><span class="nodeLabel">Object storage<br />+ CDN for reads</span></div></foreignObject></g></g><g transform="translate(465.5859375, 1132.765625)" data-id="OTHER" data-node="true" id="flowchart-OTHER-14" class="node default default flowchart-label"><rect height="33.5" width="162.671875" y="-16.75" x="-81.3359375" ry="0" rx="0" style="" class="basic label-container"/><g transform="translate(-73.8359375, -9.25)" style="" class="label"><rect/><foreignObject height="18.5" width="147.671875"><div style="display: inline-block; white-space: nowrap;" xmlns="http://www.w3.org/1999/xhtml"><span class="nodeLabel">Revisit requirements</span></div></foreignObject></g></g><g transform="translate(270.796875, 1313.421875)" data-id="Q4" data-node="true" id="flowchart-Q4-16" class="node default default flowchart-label"><polygon style="" transform="translate(-104.65625,104.65625)" class="label-container" points="104.65625,0 209.3125,-104.65625 104.65625,-209.3125 0,-104.65625"/><g transform="translate(-71.15625, -18.5)" style="" class="label"><rect/><foreignObject height="37" width="142.3125"><div style="display: inline-block; white-space: nowrap;" xmlns="http://www.w3.org/1999/xhtml"><span class="nodeLabel">Globally distributed<br />read-heavy users?</span></div></foreignObject></g></g><g transform="translate(170.646484375, 1512.578125)" data-id="CDN" data-node="true" id="flowchart-CDN-18" class="node default default flowchart-label"><rect height="33.5" width="183.84375" y="-16.75" x="-91.921875" ry="0" rx="0" style="" class="basic label-container"/><g transform="translate(-84.421875, -9.25)" style="" class="label"><rect/><foreignObject height="18.5" width="168.84375"><div style="display: inline-block; white-space: nowrap;" xmlns="http://www.w3.org/1999/xhtml"><span class="nodeLabel">Add CDN + cache policy</span></div></foreignObject></g></g><g transform="translate(370.947265625, 1512.578125)" data-id="ORIGIN" data-node="true" id="flowchart-ORIGIN-20" class="node default default flowchart-label"><rect height="52" width="116.7578125" y="-26" x="-58.37890625" ry="0" rx="0" style="" class="basic label-container"/><g transform="translate(-50.87890625, -18.5)" style="" class="label"><rect/><foreignObject height="37" width="101.7578125"><div style="display: inline-block; white-space: nowrap;" xmlns="http://www.w3.org/1999/xhtml"><span class="nodeLabel">Origin-only or<br />private access</span></div></foreignObject></g></g><g transform="translate(689.6171875, 872.98828125)" data-id="API" data-node="true" id="flowchart-API-22" class="node default default flowchart-label"><rect height="33.5" width="212.296875" y="-16.75" x="-106.1484375" ry="0" rx="0" style="" class="basic label-container"/><g transform="translate(-98.6484375, -9.25)" style="" class="label"><rect/><foreignObject height="18.5" width="197.296875"><div style="display: inline-block; white-space: nowrap;" xmlns="http://www.w3.org/1999/xhtml"><span class="nodeLabel">App servers mediate access</span></div></foreignObject></g></g><g transform="translate(170.646484375, 1614.578125)" data-id="SEC" data-node="true" id="flowchart-SEC-24" class="node default default flowchart-label"><rect height="52" width="142.28125" y="-26" x="-71.140625" ry="0" rx="0" style="" class="basic label-container"/><g transform="translate(-63.640625, -18.5)" style="" class="label"><rect/><foreignObject height="37" width="127.28125"><div style="display: inline-block; white-space: nowrap;" xmlns="http://www.w3.org/1999/xhtml"><span class="nodeLabel">Presigned URLs or<br />OAC for origin</span></div></foreignObject></g></g></g></g></g></svg>