<svg aria-roledescription="flowchart-v2" role="graphics-document document" viewBox="-8 -8 539.625 329.3778381347656" style="max-width: 539.625px; background-color: white;" xmlns:xlink="http://www.w3.org/1999/xlink" xmlns="http://www.w3.org/2000/svg" width="100%" id="my-svg"><style>#my-svg{font-family:"trebuchet ms",verdana,arial,sans-serif;font-size:16px;fill:#333;}#my-svg .error-icon{fill:#552222;}#my-svg .error-text{fill:#552222;stroke:#552222;}#my-svg .edge-thickness-normal{stroke-width:2px;}#my-svg .edge-thickness-thick{stroke-width:3.5px;}#my-svg .edge-pattern-solid{stroke-dasharray:0;}#my-svg .edge-pattern-dashed{stroke-dasharray:3;}#my-svg .edge-pattern-dotted{stroke-dasharray:2;}#my-svg .marker{fill:#333333;stroke:#333333;}#my-svg .marker.cross{stroke:#333333;}#my-svg svg{font-family:"trebuchet ms",verdana,arial,sans-serif;font-size:16px;}#my-svg .label{font-family:"trebuchet ms",verdana,arial,sans-serif;color:#333;}#my-svg .cluster-label text{fill:#333;}#my-svg .cluster-label span,#my-svg p{color:#333;}#my-svg .label text,#my-svg span,#my-svg p{fill:#333;color:#333;}#my-svg .node rect,#my-svg .node circle,#my-svg .node ellipse,#my-svg .node polygon,#my-svg .node path{fill:#ECECFF;stroke:#9370DB;stroke-width:1px;}#my-svg .flowchart-label text{text-anchor:middle;}#my-svg .node .katex path{fill:#000;stroke:#000;stroke-width:1px;}#my-svg .node .label{text-align:center;}#my-svg .node.clickable{cursor:pointer;}#my-svg .arrowheadPath{fill:#333333;}#my-svg .edgePath .path{stroke:#333333;stroke-width:2.0px;}#my-svg .flowchart-link{stroke:#333333;fill:none;}#my-svg .edgeLabel{background-color:#e8e8e8;text-align:center;}#my-svg .edgeLabel rect{opacity:0.5;background-color:#e8e8e8;fill:#e8e8e8;}#my-svg .labelBkg{background-color:rgba(232, 232, 232, 0.5);}#my-svg .cluster rect{fill:#ffffde;stroke:#aaaa33;stroke-width:1px;}#my-svg .cluster text{fill:#333;}#my-svg .cluster span,#my-svg p{color:#333;}#my-svg div.mermaidTooltip{position:absolute;text-align:center;max-width:200px;padding:2px;font-family:"trebuchet ms",verdana,arial,sans-serif;font-size:12px;background:hsl(80, 100%, 96.2745098039%);border:1px solid #aaaa33;border-radius:2px;pointer-events:none;z-index:100;}#my-svg .flowchartTitleText{text-anchor:middle;font-size:18px;fill:#333;}#my-svg :root{--mermaid-font-family:"trebuchet ms",verdana,arial,sans-serif;}</style><g><marker orient="auto" markerHeight="12" markerWidth="12" markerUnits="userSpaceOnUse" refY="5" refX="6" viewBox="0 0 10 10" class="marker flowchart" id="my-svg_flowchart-pointEnd"><path style="stroke-width: 1; stroke-dasharray: 1, 0;" class="arrowMarkerPath" d="M 0 0 L 10 5 L 0 10 z"/></marker><marker orient="auto" markerHeight="12" markerWidth="12" markerUnits="userSpaceOnUse" refY="5" refX="4.5" viewBox="0 0 10 10" class="marker flowchart" id="my-svg_flowchart-pointStart"><path style="stroke-width: 1; stroke-dasharray: 1, 0;" class="arrowMarkerPath" d="M 0 5 L 10 10 L 10 0 z"/></marker><marker orient="auto" markerHeight="11" markerWidth="11" markerUnits="userSpaceOnUse" refY="5" refX="11" viewBox="0 0 10 10" class="marker flowchart" id="my-svg_flowchart-circleEnd"><circle style="stroke-width: 1; stroke-dasharray: 1, 0;" class="arrowMarkerPath" r="5" cy="5" cx="5"/></marker><marker orient="auto" markerHeight="11" markerWidth="11" markerUnits="userSpaceOnUse" refY="5" refX="-1" viewBox="0 0 10 10" class="marker flowchart" id="my-svg_flowchart-circleStart"><circle style="stroke-width: 1; stroke-dasharray: 1, 0;" class="arrowMarkerPath" r="5" cy="5" cx="5"/></marker><marker orient="auto" markerHeight="11" markerWidth="11" markerUnits="userSpaceOnUse" refY="5.2" refX="12" viewBox="0 0 11 11" class="marker cross flowchart" id="my-svg_flowchart-crossEnd"><path style="stroke-width: 2; stroke-dasharray: 1, 0;" class="arrowMarkerPath" d="M 1,1 l 9,9 M 10,1 l -9,9"/></marker><marker orient="auto" markerHeight="11" markerWidth="11" markerUnits="userSpaceOnUse" refY="5.2" refX="-1" viewBox="0 0 11 11" class="marker cross flowchart" id="my-svg_flowchart-crossStart"><path style="stroke-width: 2; stroke-dasharray: 1, 0;" class="arrowMarkerPath" d="M 1,1 l 9,9 M 10,1 l -9,9"/></marker><g class="root"><g class="clusters"/><g class="edgePaths"><path marker-end="url(#my-svg_flowchart-pointEnd)" style="fill:none;" class="edge-thickness-normal edge-pattern-solid flowchart-link LS-Expire LE-R1" id="L-Expire-R1-0" d="M165.98,32.985L145.384,37.237C124.788,41.49,83.595,49.995,62.999,57.531C42.402,65.067,42.402,71.633,42.402,74.917L42.402,78.2"/><path marker-end="url(#my-svg_flowchart-pointEnd)" style="fill:none;" class="edge-thickness-normal edge-pattern-solid flowchart-link LS-Expire LE-R2" id="L-Expire-R2-0" d="M217.568,33.5L210.841,37.667C204.114,41.833,190.661,50.167,183.934,57.617C177.207,65.067,177.207,71.633,177.207,74.917L177.207,78.2"/><path marker-end="url(#my-svg_flowchart-pointEnd)" style="fill:none;" class="edge-thickness-normal edge-pattern-solid flowchart-link LS-Expire LE-R3" id="L-Expire-R3-0" d="M271.651,33.5L278.378,37.667C285.105,41.833,298.558,50.167,305.285,57.617C312.012,65.067,312.012,71.633,312.012,74.917L312.012,78.2"/><path marker-end="url(#my-svg_flowchart-pointEnd)" style="fill:none;" class="edge-thickness-normal edge-pattern-solid flowchart-link LS-Expire LE-R100" id="L-Expire-R100-0" d="M323.238,31.712L346.702,36.176C370.165,40.641,417.092,49.571,440.556,57.319C464.02,65.067,464.02,71.633,464.02,74.917L464.02,78.2"/><path marker-end="url(#my-svg_flowchart-pointEnd)" style="fill:none;" class="edge-thickness-normal edge-pattern-solid flowchart-link LS-R1 LE-DB" id="L-R1-DB-0" d="M42.402,117L42.402,121.167C42.402,125.333,42.402,133.667,68.545,145.13C94.688,156.594,146.973,171.187,173.116,178.484L199.258,185.781"/><path marker-end="url(#my-svg_flowchart-pointEnd)" style="fill:none;" class="edge-thickness-normal edge-pattern-solid flowchart-link LS-R2 LE-DB" id="L-R2-DB-0" d="M177.207,117L177.207,121.167C177.207,125.333,177.207,133.667,181.573,142.406C185.939,151.144,194.671,160.289,199.037,164.861L203.403,169.433"/><path marker-end="url(#my-svg_flowchart-pointEnd)" style="fill:none;" class="edge-thickness-normal edge-pattern-solid flowchart-link LS-R3 LE-DB" id="L-R3-DB-0" d="M312.012,117L312.012,121.167C312.012,125.333,312.012,133.667,307.646,142.406C303.28,151.144,294.548,160.289,290.182,164.861L285.816,169.433"/><path marker-end="url(#my-svg_flowchart-pointEnd)" style="fill:none;" class="edge-thickness-normal edge-pattern-solid flowchart-link LS-R100 LE-DB" id="L-R100-DB-0" d="M464.02,117L464.02,121.167C464.02,125.333,464.02,133.667,435.014,145.294C406.009,156.922,347.999,171.844,318.994,179.305L289.988,186.766"/><path marker-end="url(#my-svg_flowchart-pointEnd)" style="fill:none;" class="edge-thickness-normal edge-pattern-solid flowchart-link LS-DB LE-Crash" id="L-DB-Crash-0" d="M244.609,229.878L244.609,234.044C244.609,238.211,244.609,246.544,244.609,253.994C244.609,261.444,244.609,268.011,244.609,271.294L244.609,274.578"/></g><g class="edgeLabels"><g class="edgeLabel"><g transform="translate(0, 0)" class="label"><foreignObject height="0" width="0"><div style="display: inline-block; white-space: nowrap;" xmlns="http://www.w3.org/1999/xhtml"><span class="edgeLabel"></span></div></foreignObject></g></g><g class="edgeLabel"><g transform="translate(0, 0)" class="label"><foreignObject height="0" width="0"><div style="display: inline-block; white-space: nowrap;" xmlns="http://www.w3.org/1999/xhtml"><span class="edgeLabel"></span></div></foreignObject></g></g><g class="edgeLabel"><g transform="translate(0, 0)" class="label"><foreignObject height="0" width="0"><div style="display: inline-block; white-space: nowrap;" xmlns="http://www.w3.org/1999/xhtml"><span class="edgeLabel"></span></div></foreignObject></g></g><g class="edgeLabel"><g transform="translate(0, 0)" class="label"><foreignObject height="0" width="0"><div style="display: inline-block; white-space: nowrap;" xmlns="http://www.w3.org/1999/xhtml"><span class="edgeLabel"></span></div></foreignObject></g></g><g class="edgeLabel"><g transform="translate(0, 0)" class="label"><foreignObject height="0" width="0"><div style="display: inline-block; white-space: nowrap;" xmlns="http://www.w3.org/1999/xhtml"><span class="edgeLabel"></span></div></foreignObject></g></g><g class="edgeLabel"><g transform="translate(0, 0)" class="label"><foreignObject height="0" width="0"><div style="display: inline-block; white-space: nowrap;" xmlns="http://www.w3.org/1999/xhtml"><span class="edgeLabel"></span></div></foreignObject></g></g><g class="edgeLabel"><g transform="translate(0, 0)" class="label"><foreignObject height="0" width="0"><div style="display: inline-block; white-space: nowrap;" xmlns="http://www.w3.org/1999/xhtml"><span class="edgeLabel"></span></div></foreignObject></g></g><g class="edgeLabel"><g transform="translate(0, 0)" class="label"><foreignObject height="0" width="0"><div style="display: inline-block; white-space: nowrap;" xmlns="http://www.w3.org/1999/xhtml"><span class="edgeLabel"></span></div></foreignObject></g></g><g class="edgeLabel"><g transform="translate(0, 0)" class="label"><foreignObject height="0" width="0"><div style="display: inline-block; white-space: nowrap;" xmlns="http://www.w3.org/1999/xhtml"><span class="edgeLabel"></span></div></foreignObject></g></g></g><g class="nodes"><g transform="translate(244.609375, 16.75)" data-id="Expire" data-node="true" id="flowchart-Expire-0" class="node default default flowchart-label"><rect height="33.5" width="157.2578125" y="-16.75" x="-78.62890625" ry="0" rx="0" style="" class="basic label-container"/><g transform="translate(-71.12890625, -9.25)" style="" class="label"><rect/><foreignObject height="18.5" width="142.2578125"><div style="display: inline-block; white-space: nowrap;" xmlns="http://www.w3.org/1999/xhtml"><span class="nodeLabel">Cache Entry Expires</span></div></foreignObject></g></g><g transform="translate(42.40234375, 100.25)" data-id="R1" data-node="true" id="flowchart-R1-1" class="node default default flowchart-label"><rect height="33.5" width="84.8046875" y="-16.75" x="-42.40234375" ry="0" rx="0" style="" class="basic label-container"/><g transform="translate(-34.90234375, -9.25)" style="" class="label"><rect/><foreignObject height="18.5" width="69.8046875"><div style="display: inline-block; white-space: nowrap;" xmlns="http://www.w3.org/1999/xhtml"><span class="nodeLabel">Request 1</span></div></foreignObject></g></g><g transform="translate(177.20703125, 100.25)" data-id="R2" data-node="true" id="flowchart-R2-3" class="node default default flowchart-label"><rect height="33.5" width="84.8046875" y="-16.75" x="-42.40234375" ry="0" rx="0" style="" class="basic label-container"/><g transform="translate(-34.90234375, -9.25)" style="" class="label"><rect/><foreignObject height="18.5" width="69.8046875"><div style="display: inline-block; white-space: nowrap;" xmlns="http://www.w3.org/1999/xhtml"><span class="nodeLabel">Request 2</span></div></foreignObject></g></g><g transform="translate(312.01171875, 100.25)" data-id="R3" data-node="true" id="flowchart-R3-5" class="node default default flowchart-label"><rect height="33.5" width="84.8046875" y="-16.75" x="-42.40234375" ry="0" rx="0" style="" class="basic label-container"/><g transform="translate(-34.90234375, -9.25)" style="" class="label"><rect/><foreignObject height="18.5" width="69.8046875"><div style="display: inline-block; white-space: nowrap;" xmlns="http://www.w3.org/1999/xhtml"><span class="nodeLabel">Request 3</span></div></foreignObject></g></g><g transform="translate(464.01953125, 100.25)" data-id="R100" data-node="true" id="flowchart-R100-7" class="node default default flowchart-label"><rect height="33.5" width="119.2109375" y="-16.75" x="-59.60546875" ry="0" rx="0" style="" class="basic label-container"/><g transform="translate(-52.10546875, -9.25)" style="" class="label"><rect/><foreignObject height="18.5" width="104.2109375"><div style="display: inline-block; white-space: nowrap;" xmlns="http://www.w3.org/1999/xhtml"><span class="nodeLabel">Request 100...</span></div></foreignObject></g></g><g transform="translate(244.609375, 198.43891525268555)" data-id="DB" data-node="true" id="flowchart-DB-9" class="node default default flowchart-label"><path transform="translate(-40.24609375,-31.438913812112688)" d="M 0,9.792609208075126 a 40.24609375,9.792609208075126 0,0,0 80.4921875 0 a 40.24609375,9.792609208075126 0,0,0 -80.4921875 0 l 0,43.29260920807513 a 40.24609375,9.792609208075126 0,0,0 80.4921875 0 l 0,-43.29260920807513" style=""/><g transform="translate(-32.74609375, -9.25)" style="" class="label"><rect/><foreignObject height="18.5" width="65.4921875"><div style="display: inline-block; white-space: nowrap;" xmlns="http://www.w3.org/1999/xhtml"><span class="nodeLabel">Database</span></div></foreignObject></g></g><g transform="translate(244.609375, 296.6278305053711)" data-id="Crash" data-node="true" id="flowchart-Crash-17" class="node default default flowchart-label"><rect height="33.5" width="173.015625" y="-16.75" x="-86.5078125" ry="0" rx="0" style="" class="basic label-container"/><g transform="translate(-79.0078125, -9.25)" style="" class="label"><rect/><foreignObject height="18.5" width="158.015625"><div style="display: inline-block; white-space: nowrap;" xmlns="http://www.w3.org/1999/xhtml"><span class="nodeLabel">Database Overloaded!</span></div></foreignObject></g></g></g></g></g></svg>