<svg aria-roledescription="stateDiagram" role="graphics-document document" viewBox="0 0 617.525390625 317.5" style="max-width: 617.525px; background-color: white;" class="statediagram" xmlns:xlink="http://www.w3.org/1999/xlink" xmlns="http://www.w3.org/2000/svg" width="100%" id="my-svg"><style>#my-svg{font-family:"trebuchet ms",verdana,arial,sans-serif;font-size:16px;fill:#333;}#my-svg .error-icon{fill:#552222;}#my-svg .error-text{fill:#552222;stroke:#552222;}#my-svg .edge-thickness-normal{stroke-width:2px;}#my-svg .edge-thickness-thick{stroke-width:3.5px;}#my-svg .edge-pattern-solid{stroke-dasharray:0;}#my-svg .edge-pattern-dashed{stroke-dasharray:3;}#my-svg .edge-pattern-dotted{stroke-dasharray:2;}#my-svg .marker{fill:#333333;stroke:#333333;}#my-svg .marker.cross{stroke:#333333;}#my-svg svg{font-family:"trebuchet ms",verdana,arial,sans-serif;font-size:16px;}#my-svg defs #statediagram-barbEnd{fill:#333333;stroke:#333333;}#my-svg g.stateGroup text{fill:#9370DB;stroke:none;font-size:10px;}#my-svg g.stateGroup text{fill:#333;stroke:none;font-size:10px;}#my-svg g.stateGroup .state-title{font-weight:bolder;fill:#131300;}#my-svg g.stateGroup rect{fill:#ECECFF;stroke:#9370DB;}#my-svg g.stateGroup line{stroke:#333333;stroke-width:1;}#my-svg .transition{stroke:#333333;stroke-width:1;fill:none;}#my-svg .stateGroup .composit{fill:white;border-bottom:1px;}#my-svg .stateGroup .alt-composit{fill:#e0e0e0;border-bottom:1px;}#my-svg .state-note{stroke:#aaaa33;fill:#fff5ad;}#my-svg .state-note text{fill:black;stroke:none;font-size:10px;}#my-svg .stateLabel .box{stroke:none;stroke-width:0;fill:#ECECFF;opacity:0.5;}#my-svg .edgeLabel .label rect{fill:#ECECFF;opacity:0.5;}#my-svg .edgeLabel .label text{fill:#333;}#my-svg .label div .edgeLabel{color:#333;}#my-svg .stateLabel text{fill:#131300;font-size:10px;font-weight:bold;}#my-svg .node circle.state-start{fill:#333333;stroke:#333333;}#my-svg .node .fork-join{fill:#333333;stroke:#333333;}#my-svg .node circle.state-end{fill:#9370DB;stroke:white;stroke-width:1.5;}#my-svg .end-state-inner{fill:white;stroke-width:1.5;}#my-svg .node rect{fill:#ECECFF;stroke:#9370DB;stroke-width:1px;}#my-svg .node polygon{fill:#ECECFF;stroke:#9370DB;stroke-width:1px;}#my-svg #statediagram-barbEnd{fill:#333333;}#my-svg .statediagram-cluster rect{fill:#ECECFF;stroke:#9370DB;stroke-width:1px;}#my-svg .cluster-label,#my-svg .nodeLabel{color:#131300;}#my-svg .statediagram-cluster rect.outer{rx:5px;ry:5px;}#my-svg .statediagram-state .divider{stroke:#9370DB;}#my-svg .statediagram-state .title-state{rx:5px;ry:5px;}#my-svg .statediagram-cluster.statediagram-cluster .inner{fill:white;}#my-svg .statediagram-cluster.statediagram-cluster-alt .inner{fill:#f0f0f0;}#my-svg .statediagram-cluster .inner{rx:0;ry:0;}#my-svg .statediagram-state rect.basic{rx:5px;ry:5px;}#my-svg .statediagram-state rect.divider{stroke-dasharray:10,10;fill:#f0f0f0;}#my-svg .note-edge{stroke-dasharray:5;}#my-svg .statediagram-note rect{fill:#fff5ad;stroke:#aaaa33;stroke-width:1px;rx:0;ry:0;}#my-svg .statediagram-note rect{fill:#fff5ad;stroke:#aaaa33;stroke-width:1px;rx:0;ry:0;}#my-svg .statediagram-note text{fill:black;}#my-svg .statediagram-note .nodeLabel{color:black;}#my-svg .statediagram .edgeLabel{color:red;}#my-svg #dependencyStart,#my-svg #dependencyEnd{fill:#333333;stroke:#333333;stroke-width:1;}#my-svg .statediagramTitleText{text-anchor:middle;font-size:18px;fill:#333;}#my-svg :root{--mermaid-font-family:"trebuchet ms",verdana,arial,sans-serif;}</style><g><defs><marker orient="auto" markerUnits="strokeWidth" markerHeight="14" markerWidth="20" refY="7" refX="19" id="my-svg_statediagram-barbEnd"><path d="M 19,7 L9,13 L14,7 L9,1 Z"/></marker></defs><g class="root"><g class="clusters"/><g class="edgePaths"><path marker-end="url(#my-svg_statediagram-barbEnd)" style="fill:none" class="edge-thickness-normal transition" id="edge0" d="M287.781,22L287.781,26.167C287.781,30.333,287.781,38.667,287.781,47C287.781,55.333,287.781,63.667,287.781,67.833L287.781,72"/><path marker-end="url(#my-svg_statediagram-barbEnd)" style="fill:none" class="edge-thickness-normal transition" id="edge1" d="M249.352,97.659L219.091,104.674C188.831,111.689,128.31,125.72,107.408,138.443C86.507,151.167,105.225,162.583,114.584,168.292L123.942,174"/><path marker-end="url(#my-svg_statediagram-barbEnd)" style="fill:none" class="edge-thickness-normal transition" id="edge2" d="M151.404,207.5L151.404,213.208C151.404,218.917,151.404,230.333,177.746,243.109C204.088,255.884,256.771,270.018,283.113,277.085L309.455,284.152"/><path marker-end="url(#my-svg_statediagram-barbEnd)" style="fill:none" class="edge-thickness-normal transition" id="edge3" d="M195.197,174.373L210.628,168.603C226.059,162.832,256.92,151.291,272.351,139.812C287.781,128.333,287.781,116.917,287.781,111.208L287.781,105.5"/><path marker-end="url(#my-svg_statediagram-barbEnd)" style="fill:none" class="edge-thickness-normal transition" id="edge4" d="M195.197,185.314L210.39,183.429C225.584,181.543,255.97,177.771,274.961,175.886C293.953,174,301.549,174,309.146,176.792C316.742,179.583,324.339,185.167,324.339,190.75C324.339,196.333,316.742,201.917,309.146,204.708C301.549,207.5,293.953,207.5,274.961,205.614C255.97,203.729,225.584,199.957,210.39,198.071L195.197,196.186"/><path marker-end="url(#my-svg_statediagram-barbEnd)" style="fill:none" class="edge-thickness-normal transition" id="edge5" d="M373.549,284.152L399.891,277.085C426.232,270.018,478.916,255.884,505.258,240.317C531.6,224.75,531.6,207.75,531.6,190.75C531.6,173.75,531.6,156.75,497.368,141.09C463.137,125.429,394.674,111.109,360.442,103.949L326.211,96.788"/></g><g class="edgeLabels"><g class="edgeLabel"><g transform="translate(0, 0)" class="label"><rect height="0" width="0" ry="0" rx="0"/><foreignObject height="0" width="0"><div style="display: inline-block; white-space: nowrap;" xmlns="http://www.w3.org/1999/xhtml"><span class="edgeLabel"></span></div></foreignObject></g></g><g transform="translate(67.7890625, 139.75)" class="edgeLabel"><g transform="translate(-59.7890625, -9.25)" class="label"><rect height="18.5" width="119.578125" ry="0" rx="0"/><foreignObject height="18.5" width="119.578125"><div style="display: inline-block; white-space: nowrap;" xmlns="http://www.w3.org/1999/xhtml"><span class="edgeLabel">Election timeout</span></div></foreignObject></g></g><g transform="translate(151.404296875, 241.75)" class="edgeLabel"><g transform="translate(-85.203125, -9.25)" class="label"><rect height="18.5" width="170.40625" ry="0" rx="0"/><foreignObject height="18.5" width="170.40625"><div style="display: inline-block; white-space: nowrap;" xmlns="http://www.w3.org/1999/xhtml"><span class="edgeLabel">Receives majority votes</span></div></foreignObject></g></g><g transform="translate(287.78125, 139.75)" class="edgeLabel"><g transform="translate(-87.44140625, -9.25)" class="label"><rect height="18.5" width="174.8828125" ry="0" rx="0"/><foreignObject height="18.5" width="174.8828125"><div style="display: inline-block; white-space: nowrap;" xmlns="http://www.w3.org/1999/xhtml"><span class="edgeLabel">Discovers current leader</span></div></foreignObject></g></g><g transform="translate(331.935546875, 190.75)" class="edgeLabel"><g transform="translate(-101.73828125, -9.25)" class="label"><rect height="18.5" width="203.4765625" ry="0" rx="0"/><foreignObject height="18.5" width="203.4765625"><div style="display: inline-block; white-space: nowrap;" xmlns="http://www.w3.org/1999/xhtml"><span class="edgeLabel">Election timeout (split vote)</span></div></foreignObject></g></g><g transform="translate(531.599609375, 190.75)" class="edgeLabel"><g transform="translate(-77.92578125, -9.25)" class="label"><rect height="18.5" width="155.8515625" ry="0" rx="0"/><foreignObject height="18.5" width="155.8515625"><div style="display: inline-block; white-space: nowrap;" xmlns="http://www.w3.org/1999/xhtml"><span class="edgeLabel">Discovers higher term</span></div></foreignObject></g></g></g><g class="nodes"><g transform="translate(287.78125, 15)" data-id="root_start" data-node="true" id="state-root_start-0" class="node default"><circle height="14" width="14" r="7" class="state-start"/></g><g transform="translate(287.78125, 88.75)" data-id="Follower" data-node="true" id="state-Follower-5" class="node  statediagram-state undefined"><rect height="33.5" width="76.859375" y="-16.75" x="-38.4296875" style="" class="basic label-container"/><g transform="translate(-30.9296875, -9.25)" style="" class="label"><rect/><foreignObject height="18.5" width="61.859375"><div style="display: inline-block; white-space: nowrap;" xmlns="http://www.w3.org/1999/xhtml"><span class="nodeLabel">Follower</span></div></foreignObject></g></g><g transform="translate(151.404296875, 190.75)" data-id="Candidate" data-node="true" id="state-Candidate-4" class="node  statediagram-state undefined"><rect height="33.5" width="87.5859375" y="-16.75" x="-43.79296875" style="" class="basic label-container"/><g transform="translate(-36.29296875, -9.25)" style="" class="label"><rect/><foreignObject height="18.5" width="72.5859375"><div style="display: inline-block; white-space: nowrap;" xmlns="http://www.w3.org/1999/xhtml"><span class="nodeLabel">Candidate</span></div></foreignObject></g></g><g transform="translate(341.501953125, 292.75)" data-id="Leader" data-node="true" id="state-Leader-5" class="node  statediagram-state undefined"><rect height="33.5" width="64.09375" y="-16.75" x="-32.046875" style="" class="basic label-container"/><g transform="translate(-24.546875, -9.25)" style="" class="label"><rect/><foreignObject height="18.5" width="49.09375"><div style="display: inline-block; white-space: nowrap;" xmlns="http://www.w3.org/1999/xhtml"><span class="nodeLabel">Leader</span></div></foreignObject></g></g></g></g></g></svg>