<svg aria-roledescription="flowchart-v2" role="graphics-document document" viewBox="-8 -8 757.634765625 1167.9246826171875" style="max-width: 757.635px; background-color: white;" xmlns:xlink="http://www.w3.org/1999/xlink" xmlns="http://www.w3.org/2000/svg" width="100%" id="my-svg"><style>#my-svg{font-family:"trebuchet ms",verdana,arial,sans-serif;font-size:16px;fill:#333;}#my-svg .error-icon{fill:#552222;}#my-svg .error-text{fill:#552222;stroke:#552222;}#my-svg .edge-thickness-normal{stroke-width:2px;}#my-svg .edge-thickness-thick{stroke-width:3.5px;}#my-svg .edge-pattern-solid{stroke-dasharray:0;}#my-svg .edge-pattern-dashed{stroke-dasharray:3;}#my-svg .edge-pattern-dotted{stroke-dasharray:2;}#my-svg .marker{fill:#333333;stroke:#333333;}#my-svg .marker.cross{stroke:#333333;}#my-svg svg{font-family:"trebuchet ms",verdana,arial,sans-serif;font-size:16px;}#my-svg .label{font-family:"trebuchet ms",verdana,arial,sans-serif;color:#333;}#my-svg .cluster-label text{fill:#333;}#my-svg .cluster-label span,#my-svg p{color:#333;}#my-svg .label text,#my-svg span,#my-svg p{fill:#333;color:#333;}#my-svg .node rect,#my-svg .node circle,#my-svg .node ellipse,#my-svg .node polygon,#my-svg .node path{fill:#ECECFF;stroke:#9370DB;stroke-width:1px;}#my-svg .flowchart-label text{text-anchor:middle;}#my-svg .node .katex path{fill:#000;stroke:#000;stroke-width:1px;}#my-svg .node .label{text-align:center;}#my-svg .node.clickable{cursor:pointer;}#my-svg .arrowheadPath{fill:#333333;}#my-svg .edgePath .path{stroke:#333333;stroke-width:2.0px;}#my-svg .flowchart-link{stroke:#333333;fill:none;}#my-svg .edgeLabel{background-color:#e8e8e8;text-align:center;}#my-svg .edgeLabel rect{opacity:0.5;background-color:#e8e8e8;fill:#e8e8e8;}#my-svg .labelBkg{background-color:rgba(232, 232, 232, 0.5);}#my-svg .cluster rect{fill:#ffffde;stroke:#aaaa33;stroke-width:1px;}#my-svg .cluster text{fill:#333;}#my-svg .cluster span,#my-svg p{color:#333;}#my-svg div.mermaidTooltip{position:absolute;text-align:center;max-width:200px;padding:2px;font-family:"trebuchet ms",verdana,arial,sans-serif;font-size:12px;background:hsl(80, 100%, 96.2745098039%);border:1px solid #aaaa33;border-radius:2px;pointer-events:none;z-index:100;}#my-svg .flowchartTitleText{text-anchor:middle;font-size:18px;fill:#333;}#my-svg :root{--mermaid-font-family:"trebuchet ms",verdana,arial,sans-serif;}</style><g><marker orient="auto" markerHeight="12" markerWidth="12" markerUnits="userSpaceOnUse" refY="5" refX="6" viewBox="0 0 10 10" class="marker flowchart" id="my-svg_flowchart-pointEnd"><path style="stroke-width: 1; stroke-dasharray: 1, 0;" class="arrowMarkerPath" d="M 0 0 L 10 5 L 0 10 z"/></marker><marker orient="auto" markerHeight="12" markerWidth="12" markerUnits="userSpaceOnUse" refY="5" refX="4.5" viewBox="0 0 10 10" class="marker flowchart" id="my-svg_flowchart-pointStart"><path style="stroke-width: 1; stroke-dasharray: 1, 0;" class="arrowMarkerPath" d="M 0 5 L 10 10 L 10 0 z"/></marker><marker orient="auto" markerHeight="11" markerWidth="11" markerUnits="userSpaceOnUse" refY="5" refX="11" viewBox="0 0 10 10" class="marker flowchart" id="my-svg_flowchart-circleEnd"><circle style="stroke-width: 1; stroke-dasharray: 1, 0;" class="arrowMarkerPath" r="5" cy="5" cx="5"/></marker><marker orient="auto" markerHeight="11" markerWidth="11" markerUnits="userSpaceOnUse" refY="5" refX="-1" viewBox="0 0 10 10" class="marker flowchart" id="my-svg_flowchart-circleStart"><circle style="stroke-width: 1; stroke-dasharray: 1, 0;" class="arrowMarkerPath" r="5" cy="5" cx="5"/></marker><marker orient="auto" markerHeight="11" markerWidth="11" markerUnits="userSpaceOnUse" refY="5.2" refX="12" viewBox="0 0 11 11" class="marker cross flowchart" id="my-svg_flowchart-crossEnd"><path style="stroke-width: 2; stroke-dasharray: 1, 0;" class="arrowMarkerPath" d="M 1,1 l 9,9 M 10,1 l -9,9"/></marker><marker orient="auto" markerHeight="11" markerWidth="11" markerUnits="userSpaceOnUse" refY="5.2" refX="-1" viewBox="0 0 11 11" class="marker cross flowchart" id="my-svg_flowchart-crossStart"><path style="stroke-width: 2; stroke-dasharray: 1, 0;" class="arrowMarkerPath" d="M 1,1 l 9,9 M 10,1 l -9,9"/></marker><g class="root"><g class="clusters"><g id="Data" class="cluster default flowchart-label"><rect height="126.42472839355469" width="741.634765625" y="1025.5" x="0" ry="0" rx="0" style=""/><g transform="translate(348.7939453125, 1025.5)" class="cluster-label"><foreignObject height="18.5" width="44.046875"><div style="display: inline-block; white-space: nowrap;" xmlns="http://www.w3.org/1999/xhtml"><span class="nodeLabel">Stores</span></div></foreignObject></g></g><g id="Rank" class="cluster default flowchart-label"><rect height="389.5" width="570.095703125" y="0" x="0" ry="0" rx="0" style=""/><g transform="translate(257.1142578125, 0)" class="cluster-label"><foreignObject height="18.5" width="55.8671875"><div style="display: inline-block; white-space: nowrap;" xmlns="http://www.w3.org/1999/xhtml"><span class="nodeLabel">Ranking</span></div></foreignObject></g></g><g id="Qu" class="cluster default flowchart-label"><rect height="269" width="515.40625" y="706.5" x="87.587890625" ry="0" rx="0" style=""/><g transform="translate(305.853515625, 706.5)" class="cluster-label"><foreignObject height="18.5" width="78.875"><div style="display: inline-block; white-space: nowrap;" xmlns="http://www.w3.org/1999/xhtml"><span class="nodeLabel">Query Path</span></div></foreignObject></g></g><g id="Edge" class="cluster default flowchart-label"><rect height="83.5" width="424.357421875" y="573" x="289.236328125" ry="0" rx="0" style=""/><g transform="translate(484.2939453125, 573)" class="cluster-label"><foreignObject height="18.5" width="34.2421875"><div style="display: inline-block; white-space: nowrap;" xmlns="http://www.w3.org/1999/xhtml"><span class="nodeLabel">Edge</span></div></foreignObject></g></g><g id="Client" class="cluster default flowchart-label"><rect height="83.5" width="116.796875" y="439.5" x="411.560546875" ry="0" rx="0" style=""/><g transform="translate(448.626953125, 439.5)" class="cluster-label"><foreignObject height="18.5" width="42.6640625"><div style="display: inline-block; white-space: nowrap;" xmlns="http://www.w3.org/1999/xhtml"><span class="nodeLabel">Client</span></div></foreignObject></g></g></g><g class="edgePaths"><path marker-end="url(#my-svg_flowchart-pointEnd)" style="fill:none;" class="edge-thickness-normal edge-pattern-solid flowchart-link LS-U LE-LB" id="L-U-LB-0" d="M469.959,498L469.959,502.167C469.959,506.333,469.959,514.667,469.959,523C469.959,531.333,469.959,539.667,469.959,548C469.959,556.333,469.959,564.667,469.959,572.117C469.959,579.567,469.959,586.133,469.959,589.417L469.959,592.7"/><path marker-end="url(#my-svg_flowchart-pointEnd)" style="fill:none;" class="edge-thickness-normal edge-pattern-solid flowchart-link LS-LB LE-QU" id="L-LB-QU-0" d="M431.08,631.5L421.408,635.667C411.737,639.833,392.394,648.167,382.722,656.5C373.051,664.833,373.051,673.167,373.051,681.5C373.051,689.833,373.051,698.167,373.051,705.617C373.051,713.067,373.051,719.633,373.051,722.917L373.051,726.2"/><path marker-end="url(#my-svg_flowchart-pointEnd)" style="fill:none;" class="edge-thickness-normal edge-pattern-solid flowchart-link LS-QU LE-IX" id="L-QU-IX-0" d="M411.437,765L420.986,769.167C430.535,773.333,449.633,781.667,459.182,790.658C468.73,799.65,468.73,809.3,468.73,814.125L468.73,818.95"/><path marker-end="url(#my-svg_flowchart-pointEnd)" style="fill:none;" class="edge-thickness-normal edge-pattern-solid flowchart-link LS-QU LE-ANN" id="L-QU-ANN-0" d="M326.669,765L315.131,769.167C303.593,773.333,280.517,781.667,268.979,789.117C257.441,796.567,257.441,803.133,257.441,806.417L257.441,809.7"/><path marker-end="url(#my-svg_flowchart-pointEnd)" style="fill:none;" class="edge-thickness-normal edge-pattern-solid flowchart-link LS-IX LE-FUS" id="L-IX-FUS-0" d="M468.73,857.75L468.73,863.458C468.73,869.167,468.73,880.583,443.74,891.23C418.75,901.876,368.77,911.752,343.78,916.69L318.789,921.628"/><path marker-end="url(#my-svg_flowchart-pointEnd)" style="fill:none;" class="edge-thickness-normal edge-pattern-solid flowchart-link LS-ANN LE-FUS" id="L-ANN-FUS-0" d="M257.441,867L257.441,871.167C257.441,875.333,257.441,883.667,257.441,891.117C257.441,898.567,257.441,905.133,257.441,908.417L257.441,911.7"/><path marker-end="url(#my-svg_flowchart-pointEnd)" style="fill:none;" class="edge-thickness-normal edge-pattern-solid flowchart-link LS-FUS LE-FE" id="L-FUS-FE-0" d="M206.018,917L193.227,912.833C180.435,908.667,154.851,900.333,142.059,887.667C129.268,875,129.268,858,129.268,841C129.268,824,129.268,807,129.268,791.542C129.268,776.083,129.268,762.167,129.268,748.25C129.268,734.333,129.268,720.417,129.268,709.292C129.268,698.167,129.268,689.833,129.268,681.5C129.268,673.167,129.268,664.833,129.268,653.708C129.268,642.583,129.268,628.667,129.268,614.75C129.268,600.833,129.268,586.917,129.268,575.792C129.268,564.667,129.268,556.333,129.268,548C129.268,539.667,129.268,531.333,129.268,520.208C129.268,509.083,129.268,495.167,129.268,481.25C129.268,467.333,129.268,453.417,129.268,442.292C129.268,431.167,129.268,422.833,129.268,414.5C129.268,406.167,129.268,397.833,129.268,385.167C129.268,372.5,129.268,355.5,129.268,338.5C129.268,321.5,129.268,304.5,129.268,287.5C129.268,270.5,129.268,253.5,129.268,236.5C129.268,219.5,129.268,202.5,129.268,185.5C129.268,168.5,129.268,151.5,129.268,134.5C129.268,117.5,129.268,100.5,131.151,88.606C133.034,76.712,136.8,69.923,138.683,66.529L140.566,63.135"/><path marker-end="url(#my-svg_flowchart-pointEnd)" style="fill:none;" class="edge-thickness-normal edge-pattern-solid flowchart-link LS-FE LE-RM" id="L-FE-RM-0" d="M215.965,50.104L258.297,55.67C300.63,61.236,385.294,72.368,427.627,81.217C469.959,90.067,469.959,96.633,469.959,99.917L469.959,103.2"/><path marker-end="url(#my-svg_flowchart-pointEnd)" style="fill:none;" class="edge-thickness-normal edge-pattern-solid flowchart-link LS-RM LE-CE" id="L-RM-CE-0" d="M469.959,160.5L469.959,164.667C469.959,168.833,469.959,177.167,469.959,184.617C469.959,192.067,469.959,198.633,469.959,201.917L469.959,205.2"/><path marker-end="url(#my-svg_flowchart-pointEnd)" style="fill:none;" class="edge-thickness-normal edge-pattern-solid flowchart-link LS-CE LE-RER" id="L-CE-RER-0" d="M469.959,262.5L469.959,266.667C469.959,270.833,469.959,279.167,469.959,286.617C469.959,294.067,469.959,300.633,469.959,303.917L469.959,307.2"/><path marker-end="url(#my-svg_flowchart-pointEnd)" style="fill:none;" class="edge-thickness-normal edge-pattern-solid flowchart-link LS-RER LE-U" id="L-RER-U-0" d="M469.959,364.5L469.959,368.667C469.959,372.833,469.959,381.167,469.959,389.5C469.959,397.833,469.959,406.167,469.959,414.5C469.959,422.833,469.959,431.167,469.959,438.617C469.959,446.067,469.959,452.633,469.959,455.917L469.959,459.2"/><path marker-end="url(#my-svg_flowchart-pointEnd)" style="fill:none;stroke-width:2px;stroke-dasharray:3;" class="edge-thickness-normal edge-pattern-dotted flowchart-link LS-FUS LE-DOC" id="L-FUS-DOC-0" d="M257.441,950.5L257.441,954.667C257.441,958.833,257.441,967.167,257.441,975.5C257.441,983.833,257.441,992.167,257.441,1000.5C257.441,1008.833,257.441,1017.167,250.449,1026.925C243.456,1036.684,229.47,1047.868,222.478,1053.46L215.485,1059.052"/><path marker-end="url(#my-svg_flowchart-pointEnd)" style="fill:none;stroke-width:2px;stroke-dasharray:3;" class="edge-thickness-normal edge-pattern-dotted flowchart-link LS-FE LE-DOC" id="L-FE-DOC-0" d="M118.391,58.5L109.924,62.667C101.457,66.833,84.522,75.167,76.055,87.833C67.588,100.5,67.588,117.5,67.588,134.5C67.588,151.5,67.588,168.5,67.588,185.5C67.588,202.5,67.588,219.5,67.588,236.5C67.588,253.5,67.588,270.5,67.588,287.5C67.588,304.5,67.588,321.5,67.588,338.5C67.588,355.5,67.588,372.5,67.588,385.167C67.588,397.833,67.588,406.167,67.588,414.5C67.588,422.833,67.588,431.167,67.588,442.292C67.588,453.417,67.588,467.333,67.588,481.25C67.588,495.167,67.588,509.083,67.588,520.208C67.588,531.333,67.588,539.667,67.588,548C67.588,556.333,67.588,564.667,67.588,575.792C67.588,586.917,67.588,600.833,67.588,614.75C67.588,628.667,67.588,642.583,67.588,653.708C67.588,664.833,67.588,673.167,67.588,681.5C67.588,689.833,67.588,698.167,67.588,709.292C67.588,720.417,67.588,734.333,67.588,748.25C67.588,762.167,67.588,776.083,67.588,791.542C67.588,807,67.588,824,67.588,841C67.588,858,67.588,875,67.588,890.458C67.588,905.917,67.588,919.833,67.588,933.75C67.588,947.667,67.588,961.583,67.588,972.708C67.588,983.833,67.588,992.167,67.588,1000.5C67.588,1008.833,67.588,1017.167,73.286,1026.239C78.983,1035.311,90.379,1045.122,96.077,1050.027L101.775,1054.933"/><path marker-end="url(#my-svg_flowchart-pointEnd)" style="fill:none;stroke-width:2px;stroke-dasharray:3;" class="edge-thickness-normal edge-pattern-dotted flowchart-link LS-LB LE-CACHE" id="L-LB-CACHE-0" d="M531.356,631.5L546.629,635.667C561.902,639.833,592.448,648.167,607.721,656.5C622.994,664.833,622.994,673.167,622.994,681.5C622.994,689.833,622.994,698.167,622.994,709.292C622.994,720.417,622.994,734.333,622.994,748.25C622.994,762.167,622.994,776.083,622.994,791.542C622.994,807,622.994,824,622.994,841C622.994,858,622.994,875,622.994,890.458C622.994,905.917,622.994,919.833,622.994,933.75C622.994,947.667,622.994,961.583,622.994,972.708C622.994,983.833,622.994,992.167,622.994,1000.5C622.994,1008.833,622.994,1017.167,622.994,1024.617C622.994,1032.067,622.994,1038.633,622.994,1041.917L622.994,1045.2"/></g><g class="edgeLabels"><g class="edgeLabel"><g transform="translate(0, 0)" class="label"><foreignObject height="0" width="0"><div style="display: inline-block; white-space: nowrap;" xmlns="http://www.w3.org/1999/xhtml"><span class="edgeLabel"></span></div></foreignObject></g></g><g class="edgeLabel"><g transform="translate(0, 0)" class="label"><foreignObject height="0" width="0"><div style="display: inline-block; white-space: nowrap;" xmlns="http://www.w3.org/1999/xhtml"><span class="edgeLabel"></span></div></foreignObject></g></g><g class="edgeLabel"><g transform="translate(0, 0)" class="label"><foreignObject height="0" width="0"><div style="display: inline-block; white-space: nowrap;" xmlns="http://www.w3.org/1999/xhtml"><span class="edgeLabel"></span></div></foreignObject></g></g><g class="edgeLabel"><g transform="translate(0, 0)" class="label"><foreignObject height="0" width="0"><div style="display: inline-block; white-space: nowrap;" xmlns="http://www.w3.org/1999/xhtml"><span class="edgeLabel"></span></div></foreignObject></g></g><g class="edgeLabel"><g transform="translate(0, 0)" class="label"><foreignObject height="0" width="0"><div style="display: inline-block; white-space: nowrap;" xmlns="http://www.w3.org/1999/xhtml"><span class="edgeLabel"></span></div></foreignObject></g></g><g class="edgeLabel"><g transform="translate(0, 0)" class="label"><foreignObject height="0" width="0"><div style="display: inline-block; white-space: nowrap;" xmlns="http://www.w3.org/1999/xhtml"><span class="edgeLabel"></span></div></foreignObject></g></g><g class="edgeLabel"><g transform="translate(0, 0)" class="label"><foreignObject height="0" width="0"><div style="display: inline-block; white-space: nowrap;" xmlns="http://www.w3.org/1999/xhtml"><span class="edgeLabel"></span></div></foreignObject></g></g><g class="edgeLabel"><g transform="translate(0, 0)" class="label"><foreignObject height="0" width="0"><div style="display: inline-block; white-space: nowrap;" xmlns="http://www.w3.org/1999/xhtml"><span class="edgeLabel"></span></div></foreignObject></g></g><g class="edgeLabel"><g transform="translate(0, 0)" class="label"><foreignObject height="0" width="0"><div style="display: inline-block; white-space: nowrap;" xmlns="http://www.w3.org/1999/xhtml"><span class="edgeLabel"></span></div></foreignObject></g></g><g class="edgeLabel"><g transform="translate(0, 0)" class="label"><foreignObject height="0" width="0"><div style="display: inline-block; white-space: nowrap;" xmlns="http://www.w3.org/1999/xhtml"><span class="edgeLabel"></span></div></foreignObject></g></g><g class="edgeLabel"><g transform="translate(0, 0)" class="label"><foreignObject height="0" width="0"><div style="display: inline-block; white-space: nowrap;" xmlns="http://www.w3.org/1999/xhtml"><span class="edgeLabel"></span></div></foreignObject></g></g><g class="edgeLabel"><g transform="translate(0, 0)" class="label"><foreignObject height="0" width="0"><div style="display: inline-block; white-space: nowrap;" xmlns="http://www.w3.org/1999/xhtml"><span class="edgeLabel"></span></div></foreignObject></g></g><g class="edgeLabel"><g transform="translate(0, 0)" class="label"><foreignObject height="0" width="0"><div style="display: inline-block; white-space: nowrap;" xmlns="http://www.w3.org/1999/xhtml"><span class="edgeLabel"></span></div></foreignObject></g></g><g class="edgeLabel"><g transform="translate(0, 0)" class="label"><foreignObject height="0" width="0"><div style="display: inline-block; white-space: nowrap;" xmlns="http://www.w3.org/1999/xhtml"><span class="edgeLabel"></span></div></foreignObject></g></g></g><g class="nodes"><g transform="translate(153.626953125, 1088.7123641967773)" data-id="DOC" data-node="true" id="flowchart-DOC-10" class="node default default flowchart-label"><path transform="translate(-60.17578125,-35.14476198057634)" d="M 0,12.263174653717561 a 60.17578125,12.263174653717561 0,0,0 120.3515625 0 a 60.17578125,12.263174653717561 0,0,0 -120.3515625 0 l 0,45.76317465371756 a 60.17578125,12.263174653717561 0,0,0 120.3515625 0 l 0,-45.76317465371756" style=""/><g transform="translate(-52.67578125, -9.25)" style="" class="label"><rect/><foreignObject height="18.5" width="105.3515625"><div style="display: inline-block; white-space: nowrap;" xmlns="http://www.w3.org/1999/xhtml"><span class="nodeLabel">Doc Store / KV</span></div></foreignObject></g></g><g transform="translate(622.994140625, 1088.7123641967773)" data-id="CACHE" data-node="true" id="flowchart-CACHE-11" class="node default default flowchart-label"><path transform="translate(-83.640625,-38.21236501657222)" d="M 0,14.308243344381482 a 83.640625,14.308243344381482 0,0,0 167.28125 0 a 83.640625,14.308243344381482 0,0,0 -167.28125 0 l 0,47.80824334438148 a 83.640625,14.308243344381482 0,0,0 167.28125 0 l 0,-47.80824334438148" style=""/><g transform="translate(-76.140625, -9.25)" style="" class="label"><rect/><foreignObject height="18.5" width="152.28125"><div style="display: inline-block; white-space: nowrap;" xmlns="http://www.w3.org/1999/xhtml"><span class="nodeLabel">Query / Result Cache</span></div></foreignObject></g></g><g transform="translate(152.4296875, 41.75)" data-id="FE" data-node="true" id="flowchart-FE-6" class="node default default flowchart-label"><rect height="33.5" width="127.0703125" y="-16.75" x="-63.53515625" ry="0" rx="0" style="" class="basic label-container"/><g transform="translate(-56.03515625, -9.25)" style="" class="label"><rect/><foreignObject height="18.5" width="112.0703125"><div style="display: inline-block; white-space: nowrap;" xmlns="http://www.w3.org/1999/xhtml"><span class="nodeLabel">Feature Service</span></div></foreignObject></g></g><g transform="translate(469.958984375, 134.5)" data-id="RM" data-node="true" id="flowchart-RM-7" class="node default default flowchart-label"><rect height="52" width="130.2734375" y="-26" x="-65.13671875" ry="0" rx="0" style="" class="basic label-container"/><g transform="translate(-57.63671875, -18.5)" style="" class="label"><rect/><foreignObject height="37" width="115.2734375"><div style="display: inline-block; white-space: nowrap;" xmlns="http://www.w3.org/1999/xhtml"><span class="nodeLabel">Ranking Model<br />LightGBM / DNN</span></div></foreignObject></g></g><g transform="translate(469.958984375, 236.5)" data-id="CE" data-node="true" id="flowchart-CE-8" class="node default default flowchart-label"><rect height="52" width="120.46875" y="-26" x="-60.234375" ry="0" rx="0" style="" class="basic label-container"/><g transform="translate(-52.734375, -18.5)" style="" class="label"><rect/><foreignObject height="37" width="105.46875"><div style="display: inline-block; white-space: nowrap;" xmlns="http://www.w3.org/1999/xhtml"><span class="nodeLabel">Cross-Encoder<br />Optional Top-K</span></div></foreignObject></g></g><g transform="translate(469.958984375, 338.5)" data-id="RER" data-node="true" id="flowchart-RER-9" class="node default default flowchart-label"><rect height="52" width="102.5625" y="-26" x="-51.28125" ry="0" rx="0" style="" class="basic label-container"/><g transform="translate(-43.78125, -18.5)" style="" class="label"><rect/><foreignObject height="37" width="87.5625"><div style="display: inline-block; white-space: nowrap;" xmlns="http://www.w3.org/1999/xhtml"><span class="nodeLabel">Re-ranker<br />MMR / Rules</span></div></foreignObject></g></g><g transform="translate(373.05078125, 748.25)" data-id="QU" data-node="true" id="flowchart-QU-2" class="node default default flowchart-label"><rect height="33.5" width="221.9140625" y="-16.75" x="-110.95703125" ry="0" rx="0" style="" class="basic label-container"/><g transform="translate(-103.45703125, -9.25)" style="" class="label"><rect/><foreignObject height="18.5" width="206.9140625"><div style="display: inline-block; white-space: nowrap;" xmlns="http://www.w3.org/1999/xhtml"><span class="nodeLabel">Query Understanding Service</span></div></foreignObject></g></g><g transform="translate(468.73046875, 841)" data-id="IX" data-node="true" id="flowchart-IX-3" class="node default default flowchart-label"><rect height="33.5" width="175.140625" y="-16.75" x="-87.5703125" ry="0" rx="0" style="" class="basic label-container"/><g transform="translate(-80.0703125, -9.25)" style="" class="label"><rect/><foreignObject height="18.5" width="160.140625"><div style="display: inline-block; white-space: nowrap;" xmlns="http://www.w3.org/1999/xhtml"><span class="nodeLabel">Inverted Index Service</span></div></foreignObject></g></g><g transform="translate(257.44140625, 841)" data-id="ANN" data-node="true" id="flowchart-ANN-4" class="node default default flowchart-label"><rect height="52" width="147.4375" y="-26" x="-73.71875" ry="0" rx="0" style="" class="basic label-container"/><g transform="translate(-66.21875, -18.5)" style="" class="label"><rect/><foreignObject height="37" width="132.4375"><div style="display: inline-block; white-space: nowrap;" xmlns="http://www.w3.org/1999/xhtml"><span class="nodeLabel">ANN Index<br />Dense Embeddings</span></div></foreignObject></g></g><g transform="translate(257.44140625, 933.75)" data-id="FUS" data-node="true" id="flowchart-FUS-5" class="node default default flowchart-label"><rect height="33.5" width="112.296875" y="-16.75" x="-56.1484375" ry="0" rx="0" style="" class="basic label-container"/><g transform="translate(-48.6484375, -9.25)" style="" class="label"><rect/><foreignObject height="18.5" width="97.296875"><div style="display: inline-block; white-space: nowrap;" xmlns="http://www.w3.org/1999/xhtml"><span class="nodeLabel">Hybrid Fusion</span></div></foreignObject></g></g><g transform="translate(469.958984375, 614.75)" data-id="LB" data-node="true" id="flowchart-LB-1" class="node default default flowchart-label"><rect height="33.5" width="185.2578125" y="-16.75" x="-92.62890625" ry="0" rx="0" style="" class="basic label-container"/><g transform="translate(-85.12890625, -9.25)" style="" class="label"><rect/><foreignObject height="18.5" width="170.2578125"><div style="display: inline-block; white-space: nowrap;" xmlns="http://www.w3.org/1999/xhtml"><span class="nodeLabel">Load Balancer / API GW</span></div></foreignObject></g></g><g transform="translate(469.958984375, 481.25)" data-id="U" data-node="true" id="flowchart-U-0" class="node default default flowchart-label"><rect height="33.5" width="46.796875" y="-16.75" x="-23.3984375" ry="0" rx="0" style="" class="basic label-container"/><g transform="translate(-15.8984375, -9.25)" style="" class="label"><rect/><foreignObject height="18.5" width="31.796875"><div style="display: inline-block; white-space: nowrap;" xmlns="http://www.w3.org/1999/xhtml"><span class="nodeLabel">User</span></div></foreignObject></g></g></g></g></g></svg>