<svg aria-roledescription="flowchart-v2" role="graphics-document document" viewBox="-8 -8 1548.5546875 276.8511047363281" style="max-width: 1548.55px; background-color: white;" xmlns:xlink="http://www.w3.org/1999/xlink" xmlns="http://www.w3.org/2000/svg" width="100%" id="my-svg"><style>#my-svg{font-family:"trebuchet ms",verdana,arial,sans-serif;font-size:16px;fill:#333;}#my-svg .error-icon{fill:#552222;}#my-svg .error-text{fill:#552222;stroke:#552222;}#my-svg .edge-thickness-normal{stroke-width:2px;}#my-svg .edge-thickness-thick{stroke-width:3.5px;}#my-svg .edge-pattern-solid{stroke-dasharray:0;}#my-svg .edge-pattern-dashed{stroke-dasharray:3;}#my-svg .edge-pattern-dotted{stroke-dasharray:2;}#my-svg .marker{fill:#333333;stroke:#333333;}#my-svg .marker.cross{stroke:#333333;}#my-svg svg{font-family:"trebuchet ms",verdana,arial,sans-serif;font-size:16px;}#my-svg .label{font-family:"trebuchet ms",verdana,arial,sans-serif;color:#333;}#my-svg .cluster-label text{fill:#333;}#my-svg .cluster-label span,#my-svg p{color:#333;}#my-svg .label text,#my-svg span,#my-svg p{fill:#333;color:#333;}#my-svg .node rect,#my-svg .node circle,#my-svg .node ellipse,#my-svg .node polygon,#my-svg .node path{fill:#ECECFF;stroke:#9370DB;stroke-width:1px;}#my-svg .flowchart-label text{text-anchor:middle;}#my-svg .node .katex path{fill:#000;stroke:#000;stroke-width:1px;}#my-svg .node .label{text-align:center;}#my-svg .node.clickable{cursor:pointer;}#my-svg .arrowheadPath{fill:#333333;}#my-svg .edgePath .path{stroke:#333333;stroke-width:2.0px;}#my-svg .flowchart-link{stroke:#333333;fill:none;}#my-svg .edgeLabel{background-color:#e8e8e8;text-align:center;}#my-svg .edgeLabel rect{opacity:0.5;background-color:#e8e8e8;fill:#e8e8e8;}#my-svg .labelBkg{background-color:rgba(232, 232, 232, 0.5);}#my-svg .cluster rect{fill:#ffffde;stroke:#aaaa33;stroke-width:1px;}#my-svg .cluster text{fill:#333;}#my-svg .cluster span,#my-svg p{color:#333;}#my-svg div.mermaidTooltip{position:absolute;text-align:center;max-width:200px;padding:2px;font-family:"trebuchet ms",verdana,arial,sans-serif;font-size:12px;background:hsl(80, 100%, 96.2745098039%);border:1px solid #aaaa33;border-radius:2px;pointer-events:none;z-index:100;}#my-svg .flowchartTitleText{text-anchor:middle;font-size:18px;fill:#333;}#my-svg :root{--mermaid-font-family:"trebuchet ms",verdana,arial,sans-serif;}</style><g><marker orient="auto" markerHeight="12" markerWidth="12" markerUnits="userSpaceOnUse" refY="5" refX="6" viewBox="0 0 10 10" class="marker flowchart" id="my-svg_flowchart-pointEnd"><path style="stroke-width: 1; stroke-dasharray: 1, 0;" class="arrowMarkerPath" d="M 0 0 L 10 5 L 0 10 z"/></marker><marker orient="auto" markerHeight="12" markerWidth="12" markerUnits="userSpaceOnUse" refY="5" refX="4.5" viewBox="0 0 10 10" class="marker flowchart" id="my-svg_flowchart-pointStart"><path style="stroke-width: 1; stroke-dasharray: 1, 0;" class="arrowMarkerPath" d="M 0 5 L 10 10 L 10 0 z"/></marker><marker orient="auto" markerHeight="11" markerWidth="11" markerUnits="userSpaceOnUse" refY="5" refX="11" viewBox="0 0 10 10" class="marker flowchart" id="my-svg_flowchart-circleEnd"><circle style="stroke-width: 1; stroke-dasharray: 1, 0;" class="arrowMarkerPath" r="5" cy="5" cx="5"/></marker><marker orient="auto" markerHeight="11" markerWidth="11" markerUnits="userSpaceOnUse" refY="5" refX="-1" viewBox="0 0 10 10" class="marker flowchart" id="my-svg_flowchart-circleStart"><circle style="stroke-width: 1; stroke-dasharray: 1, 0;" class="arrowMarkerPath" r="5" cy="5" cx="5"/></marker><marker orient="auto" markerHeight="11" markerWidth="11" markerUnits="userSpaceOnUse" refY="5.2" refX="12" viewBox="0 0 11 11" class="marker cross flowchart" id="my-svg_flowchart-crossEnd"><path style="stroke-width: 2; stroke-dasharray: 1, 0;" class="arrowMarkerPath" d="M 1,1 l 9,9 M 10,1 l -9,9"/></marker><marker orient="auto" markerHeight="11" markerWidth="11" markerUnits="userSpaceOnUse" refY="5.2" refX="-1" viewBox="0 0 11 11" class="marker cross flowchart" id="my-svg_flowchart-crossStart"><path style="stroke-width: 2; stroke-dasharray: 1, 0;" class="arrowMarkerPath" d="M 1,1 l 9,9 M 10,1 l -9,9"/></marker><g class="root"><g class="clusters"><g id="Deployment" class="cluster default flowchart-label"><rect height="103.5" width="332.9609375" y="79.34167671203613" x="1199.59375" ry="0" rx="0" style=""/><g transform="translate(1323.203125, 79.34167671203613)" class="cluster-label"><foreignObject height="18.5" width="85.7421875"><div style="display: inline-block; white-space: nowrap;" xmlns="http://www.w3.org/1999/xhtml"><span class="nodeLabel">Deployment</span></div></foreignObject></g></g><g id="Training" class="cluster default flowchart-label"><rect height="208.0505485534668" width="437.890625" y="19.128902435302734" x="711.703125" ry="0" rx="0" style=""/><g transform="translate(902.25, 19.128902435302734)" class="cluster-label"><foreignObject height="18.5" width="56.796875"><div style="display: inline-block; white-space: nowrap;" xmlns="http://www.w3.org/1999/xhtml"><span class="nodeLabel">Training</span></div></foreignObject></g></g><g id="Storage" class="cluster default flowchart-label"><rect height="260.8510971069336" width="180.15625" y="0" x="481.546875" ry="0" rx="0" style=""/><g transform="translate(544.62109375, 0)" class="cluster-label"><foreignObject height="18.5" width="54.0078125"><div style="display: inline-block; white-space: nowrap;" xmlns="http://www.w3.org/1999/xhtml"><span class="nodeLabel">Storage</span></div></foreignObject></g></g><g id="Ingestion" class="cluster default flowchart-label"><rect height="202.1755485534668" width="431.546875" y="25.003902435302734" x="0" ry="0" rx="0" style=""/><g transform="translate(164.546875, 25.003902435302734)" class="cluster-label"><foreignObject height="18.5" width="102.453125"><div style="display: inline-block; white-space: nowrap;" xmlns="http://www.w3.org/1999/xhtml"><span class="nodeLabel">Data Ingestion</span></div></foreignObject></g></g></g><g class="edgePaths"><path marker-end="url(#my-svg_flowchart-pointEnd)" style="fill:none;" class="edge-thickness-normal edge-pattern-solid flowchart-link LS-Events LE-Kafka" id="L-Events-Kafka-0" d="M123.313,131.092L127.479,131.092C131.646,131.092,139.979,131.092,147.429,131.092C154.879,131.092,161.446,131.092,164.729,131.092L168.013,131.092"/><path marker-end="url(#my-svg_flowchart-pointEnd)" style="fill:none;" class="edge-thickness-normal edge-pattern-solid flowchart-link LS-Kafka LE-Flink" id="L-Kafka-Flink-0" d="M228.32,131.092L232.487,131.092C236.654,131.092,244.987,131.092,252.437,131.092C259.887,131.092,266.454,131.092,269.737,131.092L273.02,131.092"/><path marker-end="url(#my-svg_flowchart-pointEnd)" style="fill:none;" class="edge-thickness-normal edge-pattern-solid flowchart-link LS-Flink LE-DW" id="L-Flink-DW-0" d="M367.223,114.342L377.944,107.098C388.664,99.854,410.106,85.366,424.993,78.123C439.88,70.879,448.214,70.879,456.547,70.879C464.88,70.879,473.214,70.879,480.664,70.879C488.114,70.879,494.68,70.879,497.964,70.879L501.247,70.879"/><path marker-end="url(#my-svg_flowchart-pointEnd)" style="fill:none;" class="edge-thickness-normal edge-pattern-solid flowchart-link LS-Flink LE-FS" id="L-Flink-FS-0" d="M367.223,147.842L377.944,155.085C388.664,162.329,410.106,176.817,424.993,184.061C439.88,191.304,448.214,191.304,456.547,191.304C464.88,191.304,473.214,191.304,482.097,191.304C490.981,191.304,500.415,191.304,505.132,191.304L509.848,191.304"/><path marker-end="url(#my-svg_flowchart-pointEnd)" style="fill:none;" class="edge-thickness-normal edge-pattern-solid flowchart-link LS-DW LE-Sample" id="L-DW-Sample-0" d="M636.703,70.879L640.87,70.879C645.036,70.879,653.37,70.879,661.703,70.879C670.036,70.879,678.37,70.879,686.703,70.879C695.036,70.879,703.37,70.879,710.82,70.879C718.27,70.879,724.836,70.879,728.12,70.879L731.403,70.879"/><path marker-end="url(#my-svg_flowchart-pointEnd)" style="fill:none;" class="edge-thickness-normal edge-pattern-solid flowchart-link LS-Sample LE-Train" id="L-Sample-Train-0" d="M816.055,70.879L820.221,70.879C824.388,70.879,832.721,70.879,846.312,77.609C859.903,84.34,878.752,97.801,888.176,104.531L897.6,111.261"/><path marker-end="url(#my-svg_flowchart-pointEnd)" style="fill:none;" class="edge-thickness-normal edge-pattern-solid flowchart-link LS-FS LE-Train" id="L-FS-Train-0" d="M628.102,191.304L633.702,191.304C639.302,191.304,650.503,191.304,660.27,191.304C670.036,191.304,678.37,191.304,686.703,191.304C695.036,191.304,703.37,191.304,718.316,191.304C733.262,191.304,754.82,191.304,776.379,191.304C797.938,191.304,819.496,191.304,839.7,184.574C859.903,177.844,878.752,164.383,888.176,157.652L897.6,150.922"/><path marker-end="url(#my-svg_flowchart-pointEnd)" style="fill:none;" class="edge-thickness-normal edge-pattern-solid flowchart-link LS-Train LE-Eval" id="L-Train-Eval-0" d="M984.68,131.092L988.846,131.092C993.013,131.092,1001.346,131.092,1008.796,131.092C1016.246,131.092,1022.813,131.092,1026.096,131.092L1029.38,131.092"/><path marker-end="url(#my-svg_flowchart-pointEnd)" style="fill:none;" class="edge-thickness-normal edge-pattern-solid flowchart-link LS-Eval LE-Registry" id="L-Eval-Registry-0" d="M1124.594,131.092L1128.76,131.092C1132.927,131.092,1141.26,131.092,1149.594,131.092C1157.927,131.092,1166.26,131.092,1174.594,131.092C1182.927,131.092,1191.26,131.092,1198.71,131.092C1206.16,131.092,1212.727,131.092,1216.01,131.092L1219.294,131.092"/><path marker-end="url(#my-svg_flowchart-pointEnd)" style="fill:none;" class="edge-thickness-normal edge-pattern-solid flowchart-link LS-Registry LE-Serving" id="L-Registry-Serving-0" d="M1343.625,131.092L1347.792,131.092C1351.958,131.092,1360.292,131.092,1367.742,131.092C1375.192,131.092,1381.758,131.092,1385.042,131.092L1388.325,131.092"/></g><g class="edgeLabels"><g class="edgeLabel"><g transform="translate(0, 0)" class="label"><foreignObject height="0" width="0"><div style="display: inline-block; white-space: nowrap;" xmlns="http://www.w3.org/1999/xhtml"><span class="edgeLabel"></span></div></foreignObject></g></g><g class="edgeLabel"><g transform="translate(0, 0)" class="label"><foreignObject height="0" width="0"><div style="display: inline-block; white-space: nowrap;" xmlns="http://www.w3.org/1999/xhtml"><span class="edgeLabel"></span></div></foreignObject></g></g><g class="edgeLabel"><g transform="translate(0, 0)" class="label"><foreignObject height="0" width="0"><div style="display: inline-block; white-space: nowrap;" xmlns="http://www.w3.org/1999/xhtml"><span class="edgeLabel"></span></div></foreignObject></g></g><g class="edgeLabel"><g transform="translate(0, 0)" class="label"><foreignObject height="0" width="0"><div style="display: inline-block; white-space: nowrap;" xmlns="http://www.w3.org/1999/xhtml"><span class="edgeLabel"></span></div></foreignObject></g></g><g class="edgeLabel"><g transform="translate(0, 0)" class="label"><foreignObject height="0" width="0"><div style="display: inline-block; white-space: nowrap;" xmlns="http://www.w3.org/1999/xhtml"><span class="edgeLabel"></span></div></foreignObject></g></g><g class="edgeLabel"><g transform="translate(0, 0)" class="label"><foreignObject height="0" width="0"><div style="display: inline-block; white-space: nowrap;" xmlns="http://www.w3.org/1999/xhtml"><span class="edgeLabel"></span></div></foreignObject></g></g><g class="edgeLabel"><g transform="translate(0, 0)" class="label"><foreignObject height="0" width="0"><div style="display: inline-block; white-space: nowrap;" xmlns="http://www.w3.org/1999/xhtml"><span class="edgeLabel"></span></div></foreignObject></g></g><g class="edgeLabel"><g transform="translate(0, 0)" class="label"><foreignObject height="0" width="0"><div style="display: inline-block; white-space: nowrap;" xmlns="http://www.w3.org/1999/xhtml"><span class="edgeLabel"></span></div></foreignObject></g></g><g class="edgeLabel"><g transform="translate(0, 0)" class="label"><foreignObject height="0" width="0"><div style="display: inline-block; white-space: nowrap;" xmlns="http://www.w3.org/1999/xhtml"><span class="edgeLabel"></span></div></foreignObject></g></g><g class="edgeLabel"><g transform="translate(0, 0)" class="label"><foreignObject height="0" width="0"><div style="display: inline-block; white-space: nowrap;" xmlns="http://www.w3.org/1999/xhtml"><span class="edgeLabel"></span></div></foreignObject></g></g></g><g class="nodes"><g transform="translate(1284.109375, 131.09167671203613)" data-id="Registry" data-node="true" id="flowchart-Registry-17" class="node default default flowchart-label"><rect height="33.5" width="119.03125" y="-16.75" x="-59.515625" ry="0" rx="0" style="" class="basic label-container"/><g transform="translate(-52.015625, -9.25)" style="" class="label"><rect/><foreignObject height="18.5" width="104.03125"><div style="display: inline-block; white-space: nowrap;" xmlns="http://www.w3.org/1999/xhtml"><span class="nodeLabel">Model Registry</span></div></foreignObject></g></g><g transform="translate(1450.58984375, 131.09167671203613)" data-id="Serving" data-node="true" id="flowchart-Serving-19" class="node default default flowchart-label"><rect height="33.5" width="113.9296875" y="-16.75" x="-56.96484375" ry="0" rx="0" style="" class="basic label-container"/><g transform="translate(-49.46484375, -9.25)" style="" class="label"><rect/><foreignObject height="18.5" width="98.9296875"><div style="display: inline-block; white-space: nowrap;" xmlns="http://www.w3.org/1999/xhtml"><span class="nodeLabel">Model Serving</span></div></foreignObject></g></g><g transform="translate(776.37890625, 70.87890243530273)" data-id="Sample" data-node="true" id="flowchart-Sample-9" class="node default default flowchart-label"><rect height="33.5" width="79.3515625" y="-16.75" x="-39.67578125" ry="0" rx="0" style="" class="basic label-container"/><g transform="translate(-32.17578125, -9.25)" style="" class="label"><rect/><foreignObject height="18.5" width="64.3515625"><div style="display: inline-block; white-space: nowrap;" xmlns="http://www.w3.org/1999/xhtml"><span class="nodeLabel">Sampling</span></div></foreignObject></g></g><g transform="translate(925.3671875, 131.09167671203613)" data-id="Train" data-node="true" id="flowchart-Train-11" class="node default default flowchart-label"><rect height="33.5" width="118.625" y="-16.75" x="-59.3125" ry="0" rx="0" style="" class="basic label-container"/><g transform="translate(-51.8125, -9.25)" style="" class="label"><rect/><foreignObject height="18.5" width="103.625"><div style="display: inline-block; white-space: nowrap;" xmlns="http://www.w3.org/1999/xhtml"><span class="nodeLabel">Model Training</span></div></foreignObject></g></g><g transform="translate(1079.63671875, 131.09167671203613)" data-id="Eval" data-node="true" id="flowchart-Eval-15" class="node default default flowchart-label"><rect height="33.5" width="89.9140625" y="-16.75" x="-44.95703125" ry="0" rx="0" style="" class="basic label-container"/><g transform="translate(-37.45703125, -9.25)" style="" class="label"><rect/><foreignObject height="18.5" width="74.9140625"><div style="display: inline-block; white-space: nowrap;" xmlns="http://www.w3.org/1999/xhtml"><span class="nodeLabel">Evaluation</span></div></foreignObject></g></g><g transform="translate(571.625, 70.87890243530273)" data-id="DW" data-node="true" id="flowchart-DW-5" class="node default default flowchart-label"><path transform="translate(-65.078125,-35.87890385793019)" d="M 0,12.752602571953458 a 65.078125,12.752602571953458 0,0,0 130.15625 0 a 65.078125,12.752602571953458 0,0,0 -130.15625 0 l 0,46.25260257195346 a 65.078125,12.752602571953458 0,0,0 130.15625 0 l 0,-46.25260257195346" style=""/><g transform="translate(-57.578125, -9.25)" style="" class="label"><rect/><foreignObject height="18.5" width="115.15625"><div style="display: inline-block; white-space: nowrap;" xmlns="http://www.w3.org/1999/xhtml"><span class="nodeLabel">Data Warehouse</span></div></foreignObject></g></g><g transform="translate(571.625, 191.30445098876953)" data-id="FS" data-node="true" id="flowchart-FS-7" class="node default default flowchart-label"><path transform="translate(-56.4765625,-34.550742005384464)" d="M 0,11.867161336922974 a 56.4765625,11.867161336922974 0,0,0 112.953125 0 a 56.4765625,11.867161336922974 0,0,0 -112.953125 0 l 0,45.367161336922976 a 56.4765625,11.867161336922974 0,0,0 112.953125 0 l 0,-45.367161336922976" style=""/><g transform="translate(-48.9765625, -9.25)" style="" class="label"><rect/><foreignObject height="18.5" width="97.953125"><div style="display: inline-block; white-space: nowrap;" xmlns="http://www.w3.org/1999/xhtml"><span class="nodeLabel">Feature Store</span></div></foreignObject></g></g><g transform="translate(200.81640625, 131.09167671203613)" data-id="Kafka" data-node="true" id="flowchart-Kafka-1" class="node default default flowchart-label"><rect height="33.5" width="55.0078125" y="-16.75" x="-27.50390625" ry="0" rx="0" style="" class="basic label-container"/><g transform="translate(-20.00390625, -9.25)" style="" class="label"><rect/><foreignObject height="18.5" width="40.0078125"><div style="display: inline-block; white-space: nowrap;" xmlns="http://www.w3.org/1999/xhtml"><span class="nodeLabel">Kafka</span></div></foreignObject></g></g><g transform="translate(74.15625, 131.09167671203613)" data-id="Events" data-node="true" id="flowchart-Events-0" class="node default default flowchart-label"><rect height="33.5" width="98.3125" y="-16.75" x="-49.15625" ry="0" rx="0" style="" class="basic label-container"/><g transform="translate(-41.65625, -9.25)" style="" class="label"><rect/><foreignObject height="18.5" width="83.3125"><div style="display: inline-block; white-space: nowrap;" xmlns="http://www.w3.org/1999/xhtml"><span class="nodeLabel">User Events</span></div></foreignObject></g></g><g transform="translate(342.43359375, 131.09167671203613)" data-id="Flink" data-node="true" id="flowchart-Flink-3" class="node default default flowchart-label"><rect height="33.5" width="128.2265625" y="-16.75" x="-64.11328125" ry="0" rx="0" style="" class="basic label-container"/><g transform="translate(-56.61328125, -9.25)" style="" class="label"><rect/><foreignObject height="18.5" width="113.2265625"><div style="display: inline-block; white-space: nowrap;" xmlns="http://www.w3.org/1999/xhtml"><span class="nodeLabel">Flink Processing</span></div></foreignObject></g></g></g></g></g></svg>