<svg aria-roledescription="flowchart-v2" role="graphics-document document" viewBox="-8 -8 1859.32421875 632.8163452148438" style="max-width: 1859.32px; background-color: white;" xmlns:xlink="http://www.w3.org/1999/xlink" xmlns="http://www.w3.org/2000/svg" width="100%" id="my-svg"><style>#my-svg{font-family:"trebuchet ms",verdana,arial,sans-serif;font-size:16px;fill:#333;}#my-svg .error-icon{fill:#552222;}#my-svg .error-text{fill:#552222;stroke:#552222;}#my-svg .edge-thickness-normal{stroke-width:2px;}#my-svg .edge-thickness-thick{stroke-width:3.5px;}#my-svg .edge-pattern-solid{stroke-dasharray:0;}#my-svg .edge-pattern-dashed{stroke-dasharray:3;}#my-svg .edge-pattern-dotted{stroke-dasharray:2;}#my-svg .marker{fill:#333333;stroke:#333333;}#my-svg .marker.cross{stroke:#333333;}#my-svg svg{font-family:"trebuchet ms",verdana,arial,sans-serif;font-size:16px;}#my-svg .label{font-family:"trebuchet ms",verdana,arial,sans-serif;color:#333;}#my-svg .cluster-label text{fill:#333;}#my-svg .cluster-label span,#my-svg p{color:#333;}#my-svg .label text,#my-svg span,#my-svg p{fill:#333;color:#333;}#my-svg .node rect,#my-svg .node circle,#my-svg .node ellipse,#my-svg .node polygon,#my-svg .node path{fill:#ECECFF;stroke:#9370DB;stroke-width:1px;}#my-svg .flowchart-label text{text-anchor:middle;}#my-svg .node .katex path{fill:#000;stroke:#000;stroke-width:1px;}#my-svg .node .label{text-align:center;}#my-svg .node.clickable{cursor:pointer;}#my-svg .arrowheadPath{fill:#333333;}#my-svg .edgePath .path{stroke:#333333;stroke-width:2.0px;}#my-svg .flowchart-link{stroke:#333333;fill:none;}#my-svg .edgeLabel{background-color:#e8e8e8;text-align:center;}#my-svg .edgeLabel rect{opacity:0.5;background-color:#e8e8e8;fill:#e8e8e8;}#my-svg .labelBkg{background-color:rgba(232, 232, 232, 0.5);}#my-svg .cluster rect{fill:#ffffde;stroke:#aaaa33;stroke-width:1px;}#my-svg .cluster text{fill:#333;}#my-svg .cluster span,#my-svg p{color:#333;}#my-svg div.mermaidTooltip{position:absolute;text-align:center;max-width:200px;padding:2px;font-family:"trebuchet ms",verdana,arial,sans-serif;font-size:12px;background:hsl(80, 100%, 96.2745098039%);border:1px solid #aaaa33;border-radius:2px;pointer-events:none;z-index:100;}#my-svg .flowchartTitleText{text-anchor:middle;font-size:18px;fill:#333;}#my-svg :root{--mermaid-font-family:"trebuchet ms",verdana,arial,sans-serif;}</style><g><marker orient="auto" markerHeight="12" markerWidth="12" markerUnits="userSpaceOnUse" refY="5" refX="6" viewBox="0 0 10 10" class="marker flowchart" id="my-svg_flowchart-pointEnd"><path style="stroke-width: 1; stroke-dasharray: 1, 0;" class="arrowMarkerPath" d="M 0 0 L 10 5 L 0 10 z"/></marker><marker orient="auto" markerHeight="12" markerWidth="12" markerUnits="userSpaceOnUse" refY="5" refX="4.5" viewBox="0 0 10 10" class="marker flowchart" id="my-svg_flowchart-pointStart"><path style="stroke-width: 1; stroke-dasharray: 1, 0;" class="arrowMarkerPath" d="M 0 5 L 10 10 L 10 0 z"/></marker><marker orient="auto" markerHeight="11" markerWidth="11" markerUnits="userSpaceOnUse" refY="5" refX="11" viewBox="0 0 10 10" class="marker flowchart" id="my-svg_flowchart-circleEnd"><circle style="stroke-width: 1; stroke-dasharray: 1, 0;" class="arrowMarkerPath" r="5" cy="5" cx="5"/></marker><marker orient="auto" markerHeight="11" markerWidth="11" markerUnits="userSpaceOnUse" refY="5" refX="-1" viewBox="0 0 10 10" class="marker flowchart" id="my-svg_flowchart-circleStart"><circle style="stroke-width: 1; stroke-dasharray: 1, 0;" class="arrowMarkerPath" r="5" cy="5" cx="5"/></marker><marker orient="auto" markerHeight="11" markerWidth="11" markerUnits="userSpaceOnUse" refY="5.2" refX="12" viewBox="0 0 11 11" class="marker cross flowchart" id="my-svg_flowchart-crossEnd"><path style="stroke-width: 2; stroke-dasharray: 1, 0;" class="arrowMarkerPath" d="M 1,1 l 9,9 M 10,1 l -9,9"/></marker><marker orient="auto" markerHeight="11" markerWidth="11" markerUnits="userSpaceOnUse" refY="5.2" refX="-1" viewBox="0 0 11 11" class="marker cross flowchart" id="my-svg_flowchart-crossStart"><path style="stroke-width: 2; stroke-dasharray: 1, 0;" class="arrowMarkerPath" d="M 1,1 l 9,9 M 10,1 l -9,9"/></marker><g class="root"><g class="clusters"><g id="Data" class="cluster default flowchart-label"><rect height="132.8163604736328" width="1297.845703125" y="484" x="492.6015625" ry="0" rx="0" style=""/><g transform="translate(1101.2158203125, 484)" class="cluster-label"><foreignObject height="18.5" width="80.6171875"><div style="display: inline-block; white-space: nowrap;" xmlns="http://www.w3.org/1999/xhtml"><span class="nodeLabel">Data stores</span></div></foreignObject></g></g><g id="Core" class="cluster default flowchart-label"><rect height="192" width="1313.85546875" y="242" x="529.46875" ry="0" rx="0" style=""/><g transform="translate(1138.962890625, 242)" class="cluster-label"><foreignObject height="18.5" width="94.8671875"><div style="display: inline-block; white-space: nowrap;" xmlns="http://www.w3.org/1999/xhtml"><span class="nodeLabel">Core services</span></div></foreignObject></g></g><g id="Edge" class="cluster default flowchart-label"><rect height="192" width="509.46875" y="133.5" x="0" ry="0" rx="0" style=""/><g transform="translate(237.61328125, 133.5)" class="cluster-label"><foreignObject height="18.5" width="34.2421875"><div style="display: inline-block; white-space: nowrap;" xmlns="http://www.w3.org/1999/xhtml"><span class="nodeLabel">Edge</span></div></foreignObject></g></g><g id="Clients" class="cluster default flowchart-label"><rect height="83.5" width="397.19921875" y="0" x="70.14453125" ry="0" rx="0" style=""/><g transform="translate(244.173828125, 0)" class="cluster-label"><foreignObject height="18.5" width="49.140625"><div style="display: inline-block; white-space: nowrap;" xmlns="http://www.w3.org/1999/xhtml"><span class="nodeLabel">Clients</span></div></foreignObject></g></g></g><g class="edgePaths"><path marker-end="url(#my-svg_flowchart-pointEnd)" style="fill:none;" class="edge-thickness-normal edge-pattern-solid flowchart-link LS-W LE-CDN" id="L-W-CDN-0" d="M127.914,58.5L127.914,62.667C127.914,66.833,127.914,75.167,127.914,83.5C127.914,91.833,127.914,100.167,127.914,108.5C127.914,116.833,127.914,125.167,127.914,132.617C127.914,140.067,127.914,146.633,127.914,149.917L127.914,153.2"/><path marker-end="url(#my-svg_flowchart-pointEnd)" style="fill:none;" class="edge-thickness-normal edge-pattern-solid flowchart-link LS-W LE-GW" id="L-W-GW-0" d="M150.684,48.932L168.95,54.693C187.216,60.454,223.749,71.977,242.015,81.905C260.281,91.833,260.281,100.167,260.281,108.5C260.281,116.833,260.281,125.167,270.668,133.192C281.054,141.218,301.826,148.936,312.213,152.795L322.599,156.654"/><path marker-end="url(#my-svg_flowchart-pointEnd)" style="fill:none;" class="edge-thickness-normal edge-pattern-solid flowchart-link LS-M LE-GW" id="L-M-GW-0" d="M382.648,58.5L382.648,62.667C382.648,66.833,382.648,75.167,382.648,83.5C382.648,91.833,382.648,100.167,382.648,108.5C382.648,116.833,382.648,125.167,381.856,132.641C381.064,140.115,379.479,146.731,378.687,150.038L377.895,153.346"/><path marker-end="url(#my-svg_flowchart-pointEnd)" style="fill:none;" class="edge-thickness-normal edge-pattern-solid flowchart-link LS-GW LE-WR" id="L-GW-WR-0" d="M293.884,192L274.29,196.167C254.697,200.333,215.511,208.667,195.917,217C176.324,225.333,176.324,233.667,176.324,241.117C176.324,248.567,176.324,255.133,176.324,258.417L176.324,261.7"/><path marker-end="url(#my-svg_flowchart-pointEnd)" style="fill:none;" class="edge-thickness-normal edge-pattern-solid flowchart-link LS-GW LE-CS" id="L-GW-CS-0" d="M372.517,192L372.484,196.167C372.451,200.333,372.386,208.667,372.353,217C372.32,225.333,372.32,233.667,411.46,243.239C450.6,252.812,528.879,263.625,568.018,269.031L607.158,274.437"/><path marker-end="url(#my-svg_flowchart-pointEnd)" style="fill:none;" class="edge-thickness-normal edge-pattern-solid flowchart-link LS-GW LE-IS" id="L-GW-IS-0" d="M341.059,192L333.201,196.167C325.343,200.333,309.626,208.667,301.768,217C293.91,225.333,293.91,233.667,293.91,244.792C293.91,255.917,293.91,269.833,293.91,283.75C293.91,297.667,293.91,311.583,350.489,322.708C407.068,333.833,520.225,342.167,576.804,349.617C633.383,357.067,633.383,363.633,633.383,366.917L633.383,370.2"/><path marker-end="url(#my-svg_flowchart-pointEnd)" style="fill:none;" class="edge-thickness-normal edge-pattern-solid flowchart-link LS-GW LE-HS" id="L-GW-HS-0" d="M349.083,192L343.221,196.167C337.359,200.333,325.634,208.667,319.772,217C313.91,225.333,313.91,233.667,313.91,244.792C313.91,255.917,313.91,269.833,313.91,283.75C313.91,297.667,313.91,311.583,395.556,322.708C477.202,333.833,640.493,342.167,722.139,349.617C803.785,357.067,803.785,363.633,803.785,366.917L803.785,370.2"/><path marker-end="url(#my-svg_flowchart-pointEnd)" style="fill:none;" class="edge-thickness-normal edge-pattern-solid flowchart-link LS-GW LE-OS" id="L-GW-OS-0" d="M396.082,192L401.912,196.167C407.741,200.333,419.4,208.667,425.229,217C431.059,225.333,431.059,233.667,510.792,244.006C590.525,254.346,749.992,266.692,829.725,272.865L909.458,279.038"/><path marker-end="url(#my-svg_flowchart-pointEnd)" style="fill:none;" class="edge-thickness-normal edge-pattern-solid flowchart-link LS-OS LE-PS" id="L-OS-PS-0" d="M1025.891,290.434L1074.481,296.279C1123.072,302.123,1220.253,313.811,1268.843,323.822C1317.434,333.833,1317.434,342.167,1317.434,349.617C1317.434,357.067,1317.434,363.633,1317.434,366.917L1317.434,370.2"/><path marker-end="url(#my-svg_flowchart-pointEnd)" style="fill:none;" class="edge-thickness-normal edge-pattern-solid flowchart-link LS-PS LE-KQ" id="L-PS-KQ-0" d="M1317.434,409L1317.434,413.167C1317.434,417.333,1317.434,425.667,1317.434,434C1317.434,442.333,1317.434,450.667,1317.434,459C1317.434,467.333,1317.434,475.667,1357.12,488.48C1396.806,501.293,1476.179,518.586,1515.866,527.233L1555.552,535.879"/><path marker-end="url(#my-svg_flowchart-pointEnd)" style="fill:none;" class="edge-thickness-normal edge-pattern-solid flowchart-link LS-HS LE-RD" id="L-HS-RD-0" d="M846.508,409L857.136,413.167C867.763,417.333,889.018,425.667,899.646,434C910.273,442.333,910.273,450.667,910.273,459C910.273,467.333,910.273,475.667,910.273,483.117C910.273,490.567,910.273,497.133,910.273,500.417L910.273,503.7"/><path marker-end="url(#my-svg_flowchart-pointEnd)" style="fill:none;" class="edge-thickness-normal edge-pattern-solid flowchart-link LS-HS LE-PG" id="L-HS-PG-0" d="M752.297,402.373L725.485,407.644C698.673,412.915,645.049,423.458,618.238,432.895C591.426,442.333,591.426,450.667,591.426,459C591.426,467.333,591.426,475.667,593.723,483.506C596.021,491.344,600.616,498.689,602.914,502.361L605.211,506.033"/><path marker-end="url(#my-svg_flowchart-pointEnd)" style="fill:none;" class="edge-thickness-normal edge-pattern-solid flowchart-link LS-IS LE-PG" id="L-IS-PG-0" d="M633.383,409L633.383,413.167C633.383,417.333,633.383,425.667,633.383,434C633.383,442.333,633.383,450.667,633.383,459C633.383,467.333,633.383,475.667,633.401,483.293C633.418,490.919,633.454,497.839,633.471,501.298L633.489,504.758"/><path marker-end="url(#my-svg_flowchart-pointEnd)" style="fill:none;" class="edge-thickness-normal edge-pattern-solid flowchart-link LS-OS LE-PG" id="L-OS-PG-0" d="M938.203,300.5L930.215,304.667C922.227,308.833,906.25,317.167,898.262,325.5C890.273,333.833,890.273,342.167,890.273,353.292C890.273,364.417,890.273,378.333,890.273,392.25C890.273,406.167,890.273,420.083,890.273,431.208C890.273,442.333,890.273,450.667,890.273,459C890.273,467.333,890.273,475.667,866.032,488.644C841.791,501.621,793.308,519.241,769.066,528.052L744.825,536.862"/><path marker-end="url(#my-svg_flowchart-pointEnd)" style="fill:none;" class="edge-thickness-normal edge-pattern-solid flowchart-link LS-NS LE-KQ" id="L-NS-KQ-0" d="M1730.809,409L1730.809,413.167C1730.809,417.333,1730.809,425.667,1730.809,434C1730.809,442.333,1730.809,450.667,1730.809,459C1730.809,467.333,1730.809,475.667,1718.389,487.72C1705.97,499.772,1681.132,515.545,1668.713,523.431L1656.294,531.317"/></g><g class="edgeLabels"><g class="edgeLabel"><g transform="translate(0, 0)" class="label"><foreignObject height="0" width="0"><div style="display: inline-block; white-space: nowrap;" xmlns="http://www.w3.org/1999/xhtml"><span class="edgeLabel"></span></div></foreignObject></g></g><g class="edgeLabel"><g transform="translate(0, 0)" class="label"><foreignObject height="0" width="0"><div style="display: inline-block; white-space: nowrap;" xmlns="http://www.w3.org/1999/xhtml"><span class="edgeLabel"></span></div></foreignObject></g></g><g class="edgeLabel"><g transform="translate(0, 0)" class="label"><foreignObject height="0" width="0"><div style="display: inline-block; white-space: nowrap;" xmlns="http://www.w3.org/1999/xhtml"><span class="edgeLabel"></span></div></foreignObject></g></g><g class="edgeLabel"><g transform="translate(0, 0)" class="label"><foreignObject height="0" width="0"><div style="display: inline-block; white-space: nowrap;" xmlns="http://www.w3.org/1999/xhtml"><span class="edgeLabel"></span></div></foreignObject></g></g><g class="edgeLabel"><g transform="translate(0, 0)" class="label"><foreignObject height="0" width="0"><div style="display: inline-block; white-space: nowrap;" xmlns="http://www.w3.org/1999/xhtml"><span class="edgeLabel"></span></div></foreignObject></g></g><g class="edgeLabel"><g transform="translate(0, 0)" class="label"><foreignObject height="0" width="0"><div style="display: inline-block; white-space: nowrap;" xmlns="http://www.w3.org/1999/xhtml"><span class="edgeLabel"></span></div></foreignObject></g></g><g class="edgeLabel"><g transform="translate(0, 0)" class="label"><foreignObject height="0" width="0"><div style="display: inline-block; white-space: nowrap;" xmlns="http://www.w3.org/1999/xhtml"><span class="edgeLabel"></span></div></foreignObject></g></g><g class="edgeLabel"><g transform="translate(0, 0)" class="label"><foreignObject height="0" width="0"><div style="display: inline-block; white-space: nowrap;" xmlns="http://www.w3.org/1999/xhtml"><span class="edgeLabel"></span></div></foreignObject></g></g><g class="edgeLabel"><g transform="translate(0, 0)" class="label"><foreignObject height="0" width="0"><div style="display: inline-block; white-space: nowrap;" xmlns="http://www.w3.org/1999/xhtml"><span class="edgeLabel"></span></div></foreignObject></g></g><g class="edgeLabel"><g transform="translate(0, 0)" class="label"><foreignObject height="0" width="0"><div style="display: inline-block; white-space: nowrap;" xmlns="http://www.w3.org/1999/xhtml"><span class="edgeLabel"></span></div></foreignObject></g></g><g class="edgeLabel"><g transform="translate(0, 0)" class="label"><foreignObject height="0" width="0"><div style="display: inline-block; white-space: nowrap;" xmlns="http://www.w3.org/1999/xhtml"><span class="edgeLabel"></span></div></foreignObject></g></g><g class="edgeLabel"><g transform="translate(0, 0)" class="label"><foreignObject height="0" width="0"><div style="display: inline-block; white-space: nowrap;" xmlns="http://www.w3.org/1999/xhtml"><span class="edgeLabel"></span></div></foreignObject></g></g><g class="edgeLabel"><g transform="translate(0, 0)" class="label"><foreignObject height="0" width="0"><div style="display: inline-block; white-space: nowrap;" xmlns="http://www.w3.org/1999/xhtml"><span class="edgeLabel"></span></div></foreignObject></g></g><g class="edgeLabel"><g transform="translate(0, 0)" class="label"><foreignObject height="0" width="0"><div style="display: inline-block; white-space: nowrap;" xmlns="http://www.w3.org/1999/xhtml"><span class="edgeLabel"></span></div></foreignObject></g></g><g class="edgeLabel"><g transform="translate(0, 0)" class="label"><foreignObject height="0" width="0"><div style="display: inline-block; white-space: nowrap;" xmlns="http://www.w3.org/1999/xhtml"><span class="edgeLabel"></span></div></foreignObject></g></g></g><g class="nodes"><g transform="translate(633.72265625, 550.4081802368164)" data-id="PG" data-node="true" id="flowchart-PG-11" class="node default default flowchart-label"><path transform="translate(-106.12109375,-40.35049343248315)" d="M 0,15.733662288322098 a 106.12109375,15.733662288322098 0,0,0 212.2421875 0 a 106.12109375,15.733662288322098 0,0,0 -212.2421875 0 l 0,49.233662288322094 a 106.12109375,15.733662288322098 0,0,0 212.2421875 0 l 0,-49.233662288322094" style=""/><g transform="translate(-98.62109375, -9.25)" style="" class="label"><rect/><foreignObject height="18.5" width="197.2421875"><div style="display: inline-block; white-space: nowrap;" xmlns="http://www.w3.org/1999/xhtml"><span class="nodeLabel">OLTP: Postgres / Cockroach</span></div></foreignObject></g></g><g transform="translate(910.2734375, 550.4081802368164)" data-id="RD" data-node="true" id="flowchart-RD-12" class="node default default flowchart-label"><path transform="translate(-120.08984375,-41.41385341120595)" d="M 0,16.44256894080397 a 120.08984375,16.44256894080397 0,0,0 240.1796875 0 a 120.08984375,16.44256894080397 0,0,0 -240.1796875 0 l 0,49.942568940803966 a 120.08984375,16.44256894080397 0,0,0 240.1796875 0 l 0,-49.942568940803966" style=""/><g transform="translate(-112.58984375, -9.25)" style="" class="label"><rect/><foreignObject height="18.5" width="225.1796875"><div style="display: inline-block; white-space: nowrap;" xmlns="http://www.w3.org/1999/xhtml"><span class="nodeLabel">Redis: holds, rate limits, queue</span></div></foreignObject></g></g><g transform="translate(1162.3828125, 550.4081802368164)" data-id="ES" data-node="true" id="flowchart-ES-13" class="node default default flowchart-label"><path transform="translate(-82.01953125,-38.03246884882558)" d="M 0,14.18831256588372 a 82.01953125,14.18831256588372 0,0,0 164.0390625 0 a 82.01953125,14.18831256588372 0,0,0 -164.0390625 0 l 0,47.68831256588372 a 82.01953125,14.18831256588372 0,0,0 164.0390625 0 l 0,-47.68831256588372" style=""/><g transform="translate(-74.51953125, -9.25)" style="" class="label"><rect/><foreignObject height="18.5" width="149.0390625"><div style="display: inline-block; white-space: nowrap;" xmlns="http://www.w3.org/1999/xhtml"><span class="nodeLabel">Search index: events</span></div></foreignObject></g></g><g transform="translate(1402.31640625, 550.4081802368164)" data-id="OBJ" data-node="true" id="flowchart-OBJ-14" class="node default default flowchart-label"><path transform="translate(-107.9140625,-40.49673359922982)" d="M 0,15.831155732819878 a 107.9140625,15.831155732819878 0,0,0 215.828125 0 a 107.9140625,15.831155732819878 0,0,0 -215.828125 0 l 0,49.33115573281988 a 107.9140625,15.831155732819878 0,0,0 215.828125 0 l 0,-49.33115573281988" style=""/><g transform="translate(-100.4140625, -9.25)" style="" class="label"><rect/><foreignObject height="18.5" width="200.828125"><div style="display: inline-block; white-space: nowrap;" xmlns="http://www.w3.org/1999/xhtml"><span class="nodeLabel">Object storage: tickets/PDF</span></div></foreignObject></g></g><g transform="translate(1624.5078125, 550.4081802368164)" data-id="KQ" data-node="true" id="flowchart-KQ-15" class="node default default flowchart-label"><polygon style="" transform="translate(-56.27734375,16.75)" class="label-container" points="0,0 112.5546875,0 112.5546875,-33.5 0,-33.5 0,0 -8,0 120.5546875,0 120.5546875,-33.5 -8,-33.5 -8,0"/><g transform="translate(-48.77734375, -9.25)" style="" class="label"><rect/><foreignObject height="18.5" width="97.5546875"><div style="display: inline-block; white-space: nowrap;" xmlns="http://www.w3.org/1999/xhtml"><span class="nodeLabel">Kafka: events</span></div></foreignObject></g></g><g transform="translate(674.583984375, 283.75)" data-id="CS" data-node="true" id="flowchart-CS-5" class="node default default flowchart-label"><rect height="33.5" width="124.3515625" y="-16.75" x="-62.17578125" ry="0" rx="0" style="" class="basic label-container"/><g transform="translate(-54.67578125, -9.25)" style="" class="label"><rect/><foreignObject height="18.5" width="109.3515625"><div style="display: inline-block; white-space: nowrap;" xmlns="http://www.w3.org/1999/xhtml"><span class="nodeLabel">Catalog service</span></div></foreignObject></g></g><g transform="translate(633.3828125, 392.25)" data-id="IS" data-node="true" id="flowchart-IS-6" class="node default default flowchart-label"><rect height="33.5" width="137.828125" y="-16.75" x="-68.9140625" ry="0" rx="0" style="" class="basic label-container"/><g transform="translate(-61.4140625, -9.25)" style="" class="label"><rect/><foreignObject height="18.5" width="122.828125"><div style="display: inline-block; white-space: nowrap;" xmlns="http://www.w3.org/1999/xhtml"><span class="nodeLabel">Inventory service</span></div></foreignObject></g></g><g transform="translate(803.78515625, 392.25)" data-id="HS" data-node="true" id="flowchart-HS-7" class="node default default flowchart-label"><rect height="33.5" width="102.9765625" y="-16.75" x="-51.48828125" ry="0" rx="0" style="" class="basic label-container"/><g transform="translate(-43.98828125, -9.25)" style="" class="label"><rect/><foreignObject height="18.5" width="87.9765625"><div style="display: inline-block; white-space: nowrap;" xmlns="http://www.w3.org/1999/xhtml"><span class="nodeLabel">Hold service</span></div></foreignObject></g></g><g transform="translate(970.31640625, 283.75)" data-id="OS" data-node="true" id="flowchart-OS-8" class="node default default flowchart-label"><rect height="33.5" width="111.1484375" y="-16.75" x="-55.57421875" ry="0" rx="0" style="" class="basic label-container"/><g transform="translate(-48.07421875, -9.25)" style="" class="label"><rect/><foreignObject height="18.5" width="96.1484375"><div style="display: inline-block; white-space: nowrap;" xmlns="http://www.w3.org/1999/xhtml"><span class="nodeLabel">Order service</span></div></foreignObject></g></g><g transform="translate(1317.43359375, 392.25)" data-id="PS" data-node="true" id="flowchart-PS-9" class="node default default flowchart-label"><rect height="33.5" width="170.171875" y="-16.75" x="-85.0859375" ry="0" rx="0" style="" class="basic label-container"/><g transform="translate(-77.5859375, -9.25)" style="" class="label"><rect/><foreignObject height="18.5" width="155.171875"><div style="display: inline-block; white-space: nowrap;" xmlns="http://www.w3.org/1999/xhtml"><span class="nodeLabel">Payment orchestrator</span></div></foreignObject></g></g><g transform="translate(1730.80859375, 392.25)" data-id="NS" data-node="true" id="flowchart-NS-10" class="node default default flowchart-label"><rect height="33.5" width="155.03125" y="-16.75" x="-77.515625" ry="0" rx="0" style="" class="basic label-container"/><g transform="translate(-70.015625, -9.25)" style="" class="label"><rect/><foreignObject height="18.5" width="140.03125"><div style="display: inline-block; white-space: nowrap;" xmlns="http://www.w3.org/1999/xhtml"><span class="nodeLabel">Notification service</span></div></foreignObject></g></g><g transform="translate(127.9140625, 175.25)" data-id="CDN" data-node="true" id="flowchart-CDN-2" class="node default default flowchart-label"><rect height="33.5" width="185.828125" y="-16.75" x="-92.9140625" ry="0" rx="0" style="" class="basic label-container"/><g transform="translate(-85.4140625, -9.25)" style="" class="label"><rect/><foreignObject height="18.5" width="170.828125"><div style="display: inline-block; white-space: nowrap;" xmlns="http://www.w3.org/1999/xhtml"><span class="nodeLabel">CDN / static map assets</span></div></foreignObject></g></g><g transform="translate(372.6484375, 175.25)" data-id="GW" data-node="true" id="flowchart-GW-3" class="node default default flowchart-label"><rect height="33.5" width="203.640625" y="-16.75" x="-101.8203125" ry="0" rx="0" style="" class="basic label-container"/><g transform="translate(-94.3203125, -9.25)" style="" class="label"><rect/><foreignObject height="18.5" width="188.640625"><div style="display: inline-block; white-space: nowrap;" xmlns="http://www.w3.org/1999/xhtml"><span class="nodeLabel">API Gateway + WAF + Auth</span></div></foreignObject></g></g><g transform="translate(176.32421875, 283.75)" data-id="WR" data-node="true" id="flowchart-WR-4" class="node default default flowchart-label"><rect height="33.5" width="165.171875" y="-16.75" x="-82.5859375" ry="0" rx="0" style="" class="basic label-container"/><g transform="translate(-75.0859375, -9.25)" style="" class="label"><rect/><foreignObject height="18.5" width="150.171875"><div style="display: inline-block; white-space: nowrap;" xmlns="http://www.w3.org/1999/xhtml"><span class="nodeLabel">Waiting room service</span></div></foreignObject></g></g><g transform="translate(127.9140625, 41.75)" data-id="W" data-node="true" id="flowchart-W-0" class="node default default flowchart-label"><rect height="33.5" width="45.5390625" y="-16.75" x="-22.76953125" ry="0" rx="0" style="" class="basic label-container"/><g transform="translate(-15.26953125, -9.25)" style="" class="label"><rect/><foreignObject height="18.5" width="30.5390625"><div style="display: inline-block; white-space: nowrap;" xmlns="http://www.w3.org/1999/xhtml"><span class="nodeLabel">Web</span></div></foreignObject></g></g><g transform="translate(382.6484375, 41.75)" data-id="M" data-node="true" id="flowchart-M-1" class="node default default flowchart-label"><rect height="33.5" width="99.390625" y="-16.75" x="-49.6953125" ry="0" rx="0" style="" class="basic label-container"/><g transform="translate(-42.1953125, -9.25)" style="" class="label"><rect/><foreignObject height="18.5" width="84.390625"><div style="display: inline-block; white-space: nowrap;" xmlns="http://www.w3.org/1999/xhtml"><span class="nodeLabel">Mobile apps</span></div></foreignObject></g></g></g></g></g></svg>