<svg aria-roledescription="flowchart-v2" role="graphics-document document" viewBox="-8 -8 1269.4921875 229.154296875" style="max-width: 1269.49px; background-color: white;" xmlns:xlink="http://www.w3.org/1999/xlink" xmlns="http://www.w3.org/2000/svg" width="100%" id="my-svg"><style>#my-svg{font-family:"trebuchet ms",verdana,arial,sans-serif;font-size:16px;fill:#333;}#my-svg .error-icon{fill:#552222;}#my-svg .error-text{fill:#552222;stroke:#552222;}#my-svg .edge-thickness-normal{stroke-width:2px;}#my-svg .edge-thickness-thick{stroke-width:3.5px;}#my-svg .edge-pattern-solid{stroke-dasharray:0;}#my-svg .edge-pattern-dashed{stroke-dasharray:3;}#my-svg .edge-pattern-dotted{stroke-dasharray:2;}#my-svg .marker{fill:#333333;stroke:#333333;}#my-svg .marker.cross{stroke:#333333;}#my-svg svg{font-family:"trebuchet ms",verdana,arial,sans-serif;font-size:16px;}#my-svg .label{font-family:"trebuchet ms",verdana,arial,sans-serif;color:#333;}#my-svg .cluster-label text{fill:#333;}#my-svg .cluster-label span,#my-svg p{color:#333;}#my-svg .label text,#my-svg span,#my-svg p{fill:#333;color:#333;}#my-svg .node rect,#my-svg .node circle,#my-svg .node ellipse,#my-svg .node polygon,#my-svg .node path{fill:#ECECFF;stroke:#9370DB;stroke-width:1px;}#my-svg .flowchart-label text{text-anchor:middle;}#my-svg .node .katex path{fill:#000;stroke:#000;stroke-width:1px;}#my-svg .node .label{text-align:center;}#my-svg .node.clickable{cursor:pointer;}#my-svg .arrowheadPath{fill:#333333;}#my-svg .edgePath .path{stroke:#333333;stroke-width:2.0px;}#my-svg .flowchart-link{stroke:#333333;fill:none;}#my-svg .edgeLabel{background-color:#e8e8e8;text-align:center;}#my-svg .edgeLabel rect{opacity:0.5;background-color:#e8e8e8;fill:#e8e8e8;}#my-svg .labelBkg{background-color:rgba(232, 232, 232, 0.5);}#my-svg .cluster rect{fill:#ffffde;stroke:#aaaa33;stroke-width:1px;}#my-svg .cluster text{fill:#333;}#my-svg .cluster span,#my-svg p{color:#333;}#my-svg div.mermaidTooltip{position:absolute;text-align:center;max-width:200px;padding:2px;font-family:"trebuchet ms",verdana,arial,sans-serif;font-size:12px;background:hsl(80, 100%, 96.2745098039%);border:1px solid #aaaa33;border-radius:2px;pointer-events:none;z-index:100;}#my-svg .flowchartTitleText{text-anchor:middle;font-size:18px;fill:#333;}#my-svg :root{--mermaid-font-family:"trebuchet ms",verdana,arial,sans-serif;}</style><g><marker orient="auto" markerHeight="12" markerWidth="12" markerUnits="userSpaceOnUse" refY="5" refX="6" viewBox="0 0 10 10" class="marker flowchart" id="my-svg_flowchart-pointEnd"><path style="stroke-width: 1; stroke-dasharray: 1, 0;" class="arrowMarkerPath" d="M 0 0 L 10 5 L 0 10 z"/></marker><marker orient="auto" markerHeight="12" markerWidth="12" markerUnits="userSpaceOnUse" refY="5" refX="4.5" viewBox="0 0 10 10" class="marker flowchart" id="my-svg_flowchart-pointStart"><path style="stroke-width: 1; stroke-dasharray: 1, 0;" class="arrowMarkerPath" d="M 0 5 L 10 10 L 10 0 z"/></marker><marker orient="auto" markerHeight="11" markerWidth="11" markerUnits="userSpaceOnUse" refY="5" refX="11" viewBox="0 0 10 10" class="marker flowchart" id="my-svg_flowchart-circleEnd"><circle style="stroke-width: 1; stroke-dasharray: 1, 0;" class="arrowMarkerPath" r="5" cy="5" cx="5"/></marker><marker orient="auto" markerHeight="11" markerWidth="11" markerUnits="userSpaceOnUse" refY="5" refX="-1" viewBox="0 0 10 10" class="marker flowchart" id="my-svg_flowchart-circleStart"><circle style="stroke-width: 1; stroke-dasharray: 1, 0;" class="arrowMarkerPath" r="5" cy="5" cx="5"/></marker><marker orient="auto" markerHeight="11" markerWidth="11" markerUnits="userSpaceOnUse" refY="5.2" refX="12" viewBox="0 0 11 11" class="marker cross flowchart" id="my-svg_flowchart-crossEnd"><path style="stroke-width: 2; stroke-dasharray: 1, 0;" class="arrowMarkerPath" d="M 1,1 l 9,9 M 10,1 l -9,9"/></marker><marker orient="auto" markerHeight="11" markerWidth="11" markerUnits="userSpaceOnUse" refY="5.2" refX="-1" viewBox="0 0 11 11" class="marker cross flowchart" id="my-svg_flowchart-crossStart"><path style="stroke-width: 2; stroke-dasharray: 1, 0;" class="arrowMarkerPath" d="M 1,1 l 9,9 M 10,1 l -9,9"/></marker><g class="root"><g class="clusters"/><g class="edgePaths"><path marker-end="url(#my-svg_flowchart-pointEnd)" style="fill:none;" class="edge-thickness-normal edge-pattern-solid flowchart-link LS-A LE-B" id="L-A-B-0" d="M134.094,108.174L138.26,108.174C142.427,108.174,150.76,108.174,158.294,108.24C165.827,108.306,172.561,108.438,175.928,108.504L179.295,108.57"/><path marker-end="url(#my-svg_flowchart-pointEnd)" style="fill:none;" class="edge-thickness-normal edge-pattern-solid flowchart-link LS-B LE-C" id="L-B-C-0" d="M367.777,81.896L377.89,78.322C388.003,74.747,408.228,67.598,423.19,64.024C438.153,60.449,447.852,60.449,452.702,60.449L457.552,60.449"/><path marker-end="url(#my-svg_flowchart-pointEnd)" style="fill:none;" class="edge-thickness-normal edge-pattern-solid flowchart-link LS-C LE-D" id="L-C-D-0" d="M637.883,60.449L642.049,60.449C646.216,60.449,654.549,60.449,661.999,60.449C669.449,60.449,676.016,60.449,679.299,60.449L682.583,60.449"/><path marker-end="url(#my-svg_flowchart-pointEnd)" style="fill:none;" class="edge-thickness-normal edge-pattern-solid flowchart-link LS-D LE-E" id="L-D-E-0" d="M790.672,51.688L796.405,50.711C802.138,49.733,813.604,47.779,825.628,47.833C837.652,47.888,850.233,49.952,856.524,50.984L862.814,52.016"/><path marker-end="url(#my-svg_flowchart-pointEnd)" style="fill:none;" class="edge-thickness-normal edge-pattern-solid flowchart-link LS-E LE-F" id="L-E-F-0" d="M980.867,60.949L986.838,60.866C992.809,60.783,1004.75,60.616,1024.659,65.404C1044.568,70.191,1072.444,79.933,1086.383,84.804L1100.321,89.675"/><path marker-end="url(#my-svg_flowchart-pointEnd)" style="fill:none;" class="edge-thickness-normal edge-pattern-solid flowchart-link LS-E LE-D" id="L-E-D-0" d="M875.607,76.587L867.184,79.414C858.761,82.241,841.916,87.895,827.254,88.315C812.593,88.735,800.115,83.921,793.876,81.514L787.637,79.107"/><path marker-end="url(#my-svg_flowchart-pointEnd)" style="fill:none;" class="edge-thickness-normal edge-pattern-solid flowchart-link LS-B LE-F" id="L-B-F-0" d="M367.777,135.451L377.89,138.859C388.003,142.267,408.228,149.083,438.659,152.491C469.091,155.898,509.729,155.898,548.801,155.898C587.872,155.898,625.378,155.898,656.863,155.898C688.348,155.898,713.813,155.898,740.844,155.898C767.875,155.898,796.473,155.898,826.579,155.898C856.686,155.898,888.302,155.898,920.239,155.898C952.176,155.898,984.434,155.898,1014.501,151.027C1044.568,146.156,1072.444,136.414,1086.383,131.543L1100.321,126.672"/></g><g class="edgeLabels"><g class="edgeLabel"><g transform="translate(0, 0)" class="label"><foreignObject height="0" width="0"><div style="display: inline-block; white-space: nowrap;" xmlns="http://www.w3.org/1999/xhtml"><span class="edgeLabel"></span></div></foreignObject></g></g><g transform="translate(428.453125, 60.44921875)" class="edgeLabel"><g transform="translate(-9.3984375, -9.25)" class="label"><foreignObject height="18.5" width="18.796875"><div style="display: inline-block; white-space: nowrap;" xmlns="http://www.w3.org/1999/xhtml"><span class="edgeLabel">No</span></div></foreignObject></g></g><g class="edgeLabel"><g transform="translate(0, 0)" class="label"><foreignObject height="0" width="0"><div style="display: inline-block; white-space: nowrap;" xmlns="http://www.w3.org/1999/xhtml"><span class="edgeLabel"></span></div></foreignObject></g></g><g class="edgeLabel"><g transform="translate(0, 0)" class="label"><foreignObject height="0" width="0"><div style="display: inline-block; white-space: nowrap;" xmlns="http://www.w3.org/1999/xhtml"><span class="edgeLabel"></span></div></foreignObject></g></g><g transform="translate(1016.69140625, 60.44921875)" class="edgeLabel"><g transform="translate(-11.32421875, -9.25)" class="label"><foreignObject height="18.5" width="22.6484375"><div style="display: inline-block; white-space: nowrap;" xmlns="http://www.w3.org/1999/xhtml"><span class="edgeLabel">Yes</span></div></foreignObject></g></g><g transform="translate(825.0703125, 93.548828125)" class="edgeLabel"><g transform="translate(-9.3984375, -9.25)" class="label"><foreignObject height="18.5" width="18.796875"><div style="display: inline-block; white-space: nowrap;" xmlns="http://www.w3.org/1999/xhtml"><span class="edgeLabel">No</span></div></foreignObject></g></g><g transform="translate(739.27734375, 155.8984375)" class="edgeLabel"><g transform="translate(-11.32421875, -9.25)" class="label"><foreignObject height="18.5" width="22.6484375"><div style="display: inline-block; white-space: nowrap;" xmlns="http://www.w3.org/1999/xhtml"><span class="edgeLabel">Yes</span></div></foreignObject></g></g></g><g class="nodes"><g transform="translate(67.046875, 108.173828125)" data-id="A" data-node="true" id="flowchart-A-0" class="node default default flowchart-label"><rect height="33.5" width="134.09375" y="-16.75" x="-67.046875" ry="0" rx="0" style="" class="basic label-container"/><g transform="translate(-59.546875, -9.25)" style="" class="label"><rect/><foreignObject height="18.5" width="119.09375"><div style="display: inline-block; white-space: nowrap;" xmlns="http://www.w3.org/1999/xhtml"><span class="nodeLabel">User hits on-sale</span></div></foreignObject></g></g><g transform="translate(289.07421875, 108.173828125)" data-id="B" data-node="true" id="flowchart-B-1" class="node default default flowchart-label"><polygon style="" transform="translate(-104.98046875,104.98046875)" class="label-container" points="104.98046875,0 209.9609375,-104.98046875 104.98046875,-209.9609375 0,-104.98046875"/><g transform="translate(-80.73046875, -9.25)" style="" class="label"><rect/><foreignObject height="18.5" width="161.4609375"><div style="display: inline-block; white-space: nowrap;" xmlns="http://www.w3.org/1999/xhtml"><span class="nodeLabel">Admission token valid?</span></div></foreignObject></g></g><g transform="translate(550.3671875, 60.44921875)" data-id="C" data-node="true" id="flowchart-C-3" class="node default default flowchart-label"><rect height="33.5" width="175.03125" y="-16.75" x="-87.515625" ry="0" rx="0" style="" class="basic label-container"/><g transform="translate(-80.015625, -9.25)" style="" class="label"><rect/><foreignObject height="18.5" width="160.03125"><div style="display: inline-block; white-space: nowrap;" xmlns="http://www.w3.org/1999/xhtml"><span class="nodeLabel">Enqueue waiting room</span></div></foreignObject></g></g><g transform="translate(739.27734375, 60.44921875)" data-id="D" data-node="true" id="flowchart-D-5" class="node default default flowchart-label"><rect height="33.5" width="102.7890625" y="-16.75" x="-51.39453125" ry="0" rx="0" style="" class="basic label-container"/><g transform="translate(-43.89453125, -9.25)" style="" class="label"><rect/><foreignObject height="18.5" width="87.7890625"><div style="display: inline-block; white-space: nowrap;" xmlns="http://www.w3.org/1999/xhtml"><span class="nodeLabel">Poll position</span></div></foreignObject></g></g><g transform="translate(919.91796875, 60.44921875)" data-id="E" data-node="true" id="flowchart-E-7" class="node default default flowchart-label"><polygon style="" transform="translate(-60.44921875,60.44921875)" class="label-container" points="60.44921875,0 120.8984375,-60.44921875 60.44921875,-120.8984375 0,-60.44921875"/><g transform="translate(-36.19921875, -9.25)" style="" class="label"><rect/><foreignObject height="18.5" width="72.3984375"><div style="display: inline-block; white-space: nowrap;" xmlns="http://www.w3.org/1999/xhtml"><span class="nodeLabel">Admitted?</span></div></foreignObject></g></g><g transform="translate(1153.25390625, 108.173828125)" data-id="F" data-node="true" id="flowchart-F-9" class="node default default flowchart-label"><rect height="33.5" width="200.4765625" y="-16.75" x="-100.23828125" ry="0" rx="0" style="" class="basic label-container"/><g transform="translate(-92.73828125, -9.25)" style="" class="label"><rect/><foreignObject height="18.5" width="185.4765625"><div style="display: inline-block; white-space: nowrap;" xmlns="http://www.w3.org/1999/xhtml"><span class="nodeLabel">Shop checkout with token</span></div></foreignObject></g></g></g></g></g></svg>