<svg aria-roledescription="flowchart-v2" role="graphics-document document" viewBox="-8 -8 742.337890625 818.66455078125" style="max-width: 742.338px; background-color: white;" xmlns:xlink="http://www.w3.org/1999/xlink" xmlns="http://www.w3.org/2000/svg" width="100%" id="my-svg"><style>#my-svg{font-family:"trebuchet ms",verdana,arial,sans-serif;font-size:16px;fill:#333;}#my-svg .error-icon{fill:#552222;}#my-svg .error-text{fill:#552222;stroke:#552222;}#my-svg .edge-thickness-normal{stroke-width:2px;}#my-svg .edge-thickness-thick{stroke-width:3.5px;}#my-svg .edge-pattern-solid{stroke-dasharray:0;}#my-svg .edge-pattern-dashed{stroke-dasharray:3;}#my-svg .edge-pattern-dotted{stroke-dasharray:2;}#my-svg .marker{fill:#333333;stroke:#333333;}#my-svg .marker.cross{stroke:#333333;}#my-svg svg{font-family:"trebuchet ms",verdana,arial,sans-serif;font-size:16px;}#my-svg .label{font-family:"trebuchet ms",verdana,arial,sans-serif;color:#333;}#my-svg .cluster-label text{fill:#333;}#my-svg .cluster-label span,#my-svg p{color:#333;}#my-svg .label text,#my-svg span,#my-svg p{fill:#333;color:#333;}#my-svg .node rect,#my-svg .node circle,#my-svg .node ellipse,#my-svg .node polygon,#my-svg .node path{fill:#ECECFF;stroke:#9370DB;stroke-width:1px;}#my-svg .flowchart-label text{text-anchor:middle;}#my-svg .node .katex path{fill:#000;stroke:#000;stroke-width:1px;}#my-svg .node .label{text-align:center;}#my-svg .node.clickable{cursor:pointer;}#my-svg .arrowheadPath{fill:#333333;}#my-svg .edgePath .path{stroke:#333333;stroke-width:2.0px;}#my-svg .flowchart-link{stroke:#333333;fill:none;}#my-svg .edgeLabel{background-color:#e8e8e8;text-align:center;}#my-svg .edgeLabel rect{opacity:0.5;background-color:#e8e8e8;fill:#e8e8e8;}#my-svg .labelBkg{background-color:rgba(232, 232, 232, 0.5);}#my-svg .cluster rect{fill:#ffffde;stroke:#aaaa33;stroke-width:1px;}#my-svg .cluster text{fill:#333;}#my-svg .cluster span,#my-svg p{color:#333;}#my-svg div.mermaidTooltip{position:absolute;text-align:center;max-width:200px;padding:2px;font-family:"trebuchet ms",verdana,arial,sans-serif;font-size:12px;background:hsl(80, 100%, 96.2745098039%);border:1px solid #aaaa33;border-radius:2px;pointer-events:none;z-index:100;}#my-svg .flowchartTitleText{text-anchor:middle;font-size:18px;fill:#333;}#my-svg :root{--mermaid-font-family:"trebuchet ms",verdana,arial,sans-serif;}</style><g><marker orient="auto" markerHeight="12" markerWidth="12" markerUnits="userSpaceOnUse" refY="5" refX="6" viewBox="0 0 10 10" class="marker flowchart" id="my-svg_flowchart-pointEnd"><path style="stroke-width: 1; stroke-dasharray: 1, 0;" class="arrowMarkerPath" d="M 0 0 L 10 5 L 0 10 z"/></marker><marker orient="auto" markerHeight="12" markerWidth="12" markerUnits="userSpaceOnUse" refY="5" refX="4.5" viewBox="0 0 10 10" class="marker flowchart" id="my-svg_flowchart-pointStart"><path style="stroke-width: 1; stroke-dasharray: 1, 0;" class="arrowMarkerPath" d="M 0 5 L 10 10 L 10 0 z"/></marker><marker orient="auto" markerHeight="11" markerWidth="11" markerUnits="userSpaceOnUse" refY="5" refX="11" viewBox="0 0 10 10" class="marker flowchart" id="my-svg_flowchart-circleEnd"><circle style="stroke-width: 1; stroke-dasharray: 1, 0;" class="arrowMarkerPath" r="5" cy="5" cx="5"/></marker><marker orient="auto" markerHeight="11" markerWidth="11" markerUnits="userSpaceOnUse" refY="5" refX="-1" viewBox="0 0 10 10" class="marker flowchart" id="my-svg_flowchart-circleStart"><circle style="stroke-width: 1; stroke-dasharray: 1, 0;" class="arrowMarkerPath" r="5" cy="5" cx="5"/></marker><marker orient="auto" markerHeight="11" markerWidth="11" markerUnits="userSpaceOnUse" refY="5.2" refX="12" viewBox="0 0 11 11" class="marker cross flowchart" id="my-svg_flowchart-crossEnd"><path style="stroke-width: 2; stroke-dasharray: 1, 0;" class="arrowMarkerPath" d="M 1,1 l 9,9 M 10,1 l -9,9"/></marker><marker orient="auto" markerHeight="11" markerWidth="11" markerUnits="userSpaceOnUse" refY="5.2" refX="-1" viewBox="0 0 11 11" class="marker cross flowchart" id="my-svg_flowchart-crossStart"><path style="stroke-width: 2; stroke-dasharray: 1, 0;" class="arrowMarkerPath" d="M 1,1 l 9,9 M 10,1 l -9,9"/></marker><g class="root"><g class="clusters"><g id="ev_path" class="cluster default flowchart-label"><rect height="434.9817123413086" width="324.41015625" y="108.5" x="0" ry="0" rx="0" style=""/><g transform="translate(87.115234375, 108.5)" class="cluster-label"><foreignObject height="18.5" width="150.1796875"><div style="display: inline-block; white-space: nowrap;" xmlns="http://www.w3.org/1999/xhtml"><span class="nodeLabel">Eventual: aggregates</span></div></foreignObject></g></g><g id="cp_path" class="cluster default flowchart-label"><rect height="239.6046142578125" width="287.2109375" y="0" x="435.583984375" ry="0" rx="0" style=""/><g transform="translate(493.158203125, 0)" class="cluster-label"><foreignObject height="18.5" width="172.0625"><div style="display: inline-block; white-space: nowrap;" xmlns="http://www.w3.org/1999/xhtml"><span class="nodeLabel">CP: authoritative writes</span></div></foreignObject></g></g><g id="ap_path" class="cluster default flowchart-label"><rect height="392.5599060058594" width="381.927734375" y="410.1046142578125" x="344.41015625" ry="0" rx="0" style=""/><g transform="translate(476.9365234375, 410.1046142578125)" class="cluster-label"><foreignObject height="18.5" width="116.875"><div style="display: inline-block; white-space: nowrap;" xmlns="http://www.w3.org/1999/xhtml"><span class="nodeLabel">AP: serving path</span></div></foreignObject></g></g></g><g class="edgePaths"><path marker-end="url(#my-svg_flowchart-pointEnd)" style="fill:none;" class="edge-thickness-normal edge-pattern-solid flowchart-link LS-Q LE-IX" id="L-Q-IX-0" d="M534.02,493.543L534.02,501.866C534.02,510.189,534.02,526.836,534.02,540.867C534.02,554.898,534.02,566.315,535.45,576.899C536.881,587.483,539.743,597.234,541.174,602.11L542.605,606.985"/><path marker-end="url(#my-svg_flowchart-pointEnd)" style="fill:none;" class="edge-thickness-normal edge-pattern-solid flowchart-link LS-IX LE-CA" id="L-IX-CA-0" d="M556.188,694.165L556.188,698.331C556.188,702.498,556.188,710.831,556.188,718.281C556.188,725.731,556.188,732.298,556.188,735.581L556.188,738.865"/><path marker-end="url(#my-svg_flowchart-pointEnd)" style="fill:none;" class="edge-thickness-normal edge-pattern-solid flowchart-link LS-ADM LE-OLTP" id="L-ADM-OLTP-0" d="M579.189,58.5L579.189,62.667C579.189,66.833,579.189,75.167,579.189,83.5C579.189,91.833,579.189,100.167,579.189,107.617C579.189,115.067,579.189,121.633,579.189,124.917L579.189,128.2"/><path marker-end="url(#my-svg_flowchart-pointEnd)" style="fill:none;" class="edge-thickness-normal edge-pattern-solid flowchart-link LS-RV LE-AGG" id="L-RV-AGG-0" d="M128.627,190.802L128.627,198.936C128.627,207.07,128.627,223.337,128.627,237.179C128.627,251.021,128.627,262.438,132.21,273.137C135.793,283.836,142.959,293.818,146.542,298.809L150.126,303.799"/><path marker-end="url(#my-svg_flowchart-pointEnd)" style="fill:none;" class="edge-thickness-normal edge-pattern-solid flowchart-link LS-AGG LE-SUM" id="L-AGG-SUM-0" d="M165.242,341.605L165.242,347.313C165.242,353.021,165.242,364.438,165.242,375.855C165.242,387.271,165.242,398.688,165.242,407.68C165.242,416.671,165.242,423.238,165.242,426.521L165.242,429.805"/><path marker-end="url(#my-svg_flowchart-pointEnd)" style="fill:none;stroke-width:2px;stroke-dasharray:3;" class="edge-thickness-normal edge-pattern-dotted flowchart-link LS-OLTP LE-IX" id="L-OLTP-IX-0" d="M607.133,214.07L610.004,218.326C612.875,222.582,618.617,231.093,621.488,241.057C624.359,251.021,624.359,262.438,624.359,276.646C624.359,290.855,624.359,307.855,624.359,324.855C624.359,341.855,624.359,358.855,624.359,373.063C624.359,387.271,624.359,398.688,624.359,415.511C624.359,432.334,624.359,454.564,624.359,476.793C624.359,499.023,624.359,521.252,624.359,538.075C624.359,554.898,624.359,566.315,619.779,577.213C615.198,588.111,606.037,598.49,601.456,603.68L596.876,608.869"/><path marker-end="url(#my-svg_flowchart-pointEnd)" style="fill:none;stroke-width:2px;stroke-dasharray:3;" class="edge-thickness-normal edge-pattern-dotted flowchart-link LS-OLTP LE-AGG" id="L-OLTP-AGG-0" d="M536.854,213.349L532.504,217.725C528.154,222.101,519.454,230.853,464.68,240.937C409.906,251.021,309.059,262.438,254.395,273.179C199.73,283.92,191.25,293.986,187.01,299.019L182.769,304.051"/><path marker-end="url(#my-svg_flowchart-pointEnd)" style="fill:none;stroke-width:2px;stroke-dasharray:3;" class="edge-thickness-normal edge-pattern-dotted flowchart-link LS-SUM LE-IX" id="L-SUM-IX-0" d="M165.242,518.482L165.242,522.648C165.242,526.815,165.242,535.148,210.904,545.023C256.566,554.898,347.891,566.315,401.69,577.676C455.489,589.037,471.763,600.343,479.9,605.996L488.038,611.649"/></g><g class="edgeLabels"><g class="edgeLabel"><g transform="translate(0, 0)" class="label"><foreignObject height="0" width="0"><div style="display: inline-block; white-space: nowrap;" xmlns="http://www.w3.org/1999/xhtml"><span class="edgeLabel"></span></div></foreignObject></g></g><g class="edgeLabel"><g transform="translate(0, 0)" class="label"><foreignObject height="0" width="0"><div style="display: inline-block; white-space: nowrap;" xmlns="http://www.w3.org/1999/xhtml"><span class="edgeLabel"></span></div></foreignObject></g></g><g class="edgeLabel"><g transform="translate(0, 0)" class="label"><foreignObject height="0" width="0"><div style="display: inline-block; white-space: nowrap;" xmlns="http://www.w3.org/1999/xhtml"><span class="edgeLabel"></span></div></foreignObject></g></g><g class="edgeLabel"><g transform="translate(0, 0)" class="label"><foreignObject height="0" width="0"><div style="display: inline-block; white-space: nowrap;" xmlns="http://www.w3.org/1999/xhtml"><span class="edgeLabel"></span></div></foreignObject></g></g><g class="edgeLabel"><g transform="translate(0, 0)" class="label"><foreignObject height="0" width="0"><div style="display: inline-block; white-space: nowrap;" xmlns="http://www.w3.org/1999/xhtml"><span class="edgeLabel"></span></div></foreignObject></g></g><g transform="translate(624.359375, 375.8546142578125)" class="edgeLabel"><g transform="translate(-61.9453125, -9.25)" class="label"><foreignObject height="18.5" width="123.890625"><div style="display: inline-block; white-space: nowrap;" xmlns="http://www.w3.org/1999/xhtml"><span class="edgeLabel">async index build</span></div></foreignObject></g></g><g transform="translate(208.2109375, 273.8546142578125)" class="edgeLabel"><g transform="translate(-53.23046875, -9.25)" class="label"><foreignObject height="18.5" width="106.4609375"><div style="display: inline-block; white-space: nowrap;" xmlns="http://www.w3.org/1999/xhtml"><span class="edgeLabel">publish change</span></div></foreignObject></g></g><g transform="translate(439.21484375, 577.7317123413086)" class="edgeLabel"><g transform="translate(-74.8046875, -9.25)" class="label"><foreignObject height="18.5" width="149.609375"><div style="display: inline-block; white-space: nowrap;" xmlns="http://www.w3.org/1999/xhtml"><span class="edgeLabel">read model for cards</span></div></foreignObject></g></g></g><g class="nodes"><g transform="translate(128.626953125, 174.05230712890625)" data-id="RV" data-node="true" id="flowchart-RV-10" class="node default default flowchart-label"><rect height="33.5" width="126.171875" y="-16.75" x="-63.0859375" ry="0" rx="0" style="" class="basic label-container"/><g transform="translate(-55.5859375, -9.25)" style="" class="label"><rect/><foreignObject height="18.5" width="111.171875"><div style="display: inline-block; white-space: nowrap;" xmlns="http://www.w3.org/1999/xhtml"><span class="nodeLabel">Reviews stream</span></div></foreignObject></g></g><g transform="translate(165.2421875, 324.8546142578125)" data-id="AGG" data-node="true" id="flowchart-AGG-11" class="node default default flowchart-label"><rect height="33.5" width="198.828125" y="-16.75" x="-99.4140625" ry="0" rx="0" style="" class="basic label-container"/><g transform="translate(-91.9140625, -9.25)" style="" class="label"><rect/><foreignObject height="18.5" width="183.828125"><div style="display: inline-block; white-space: nowrap;" xmlns="http://www.w3.org/1999/xhtml"><span class="nodeLabel">Aggregator / materializer</span></div></foreignObject></g></g><g transform="translate(165.2421875, 476.79316329956055)" data-id="SUM" data-node="true" id="flowchart-SUM-12" class="node default default flowchart-label"><path transform="translate(-124.16796875,-41.69428401029569)" d="M 0,16.62952267353046 a 124.16796875,16.62952267353046 0,0,0 248.3359375 0 a 124.16796875,16.62952267353046 0,0,0 -248.3359375 0 l 0,50.12952267353046 a 124.16796875,16.62952267353046 0,0,0 248.3359375 0 l 0,-50.12952267353046" style=""/><g transform="translate(-116.66796875, -9.25)" style="" class="label"><rect/><foreignObject height="18.5" width="233.3359375"><div style="display: inline-block; white-space: nowrap;" xmlns="http://www.w3.org/1999/xhtml"><span class="nodeLabel">Denormalized rating_sum, count</span></div></foreignObject></g></g><g transform="translate(579.189453125, 41.75)" data-id="ADM" data-node="true" id="flowchart-ADM-6" class="node default default flowchart-label"><rect height="33.5" width="120.8515625" y="-16.75" x="-60.42578125" ry="0" rx="0" style="" class="basic label-container"/><g transform="translate(-52.92578125, -9.25)" style="" class="label"><rect/><foreignObject height="18.5" width="105.8515625"><div style="display: inline-block; white-space: nowrap;" xmlns="http://www.w3.org/1999/xhtml"><span class="nodeLabel">Admin / ingest</span></div></foreignObject></g></g><g transform="translate(579.189453125, 174.05230712890625)" data-id="OLTP" data-node="true" id="flowchart-OLTP-7" class="node default default flowchart-label"><path transform="translate(-108.60546875,-40.55230806109171)" d="M 0,15.868205374061139 a 108.60546875,15.868205374061139 0,0,0 217.2109375 0 a 108.60546875,15.868205374061139 0,0,0 -217.2109375 0 l 0,49.36820537406114 a 108.60546875,15.868205374061139 0,0,0 217.2109375 0 l 0,-49.36820537406114" style=""/><g transform="translate(-101.10546875, -9.25)" style="" class="label"><rect/><foreignObject height="18.5" width="202.2109375"><div style="display: inline-block; white-space: nowrap;" xmlns="http://www.w3.org/1999/xhtml"><span class="nodeLabel">OLTP: place row + geometry</span></div></foreignObject></g></g><g transform="translate(534.01953125, 476.79316329956055)" data-id="Q" data-node="true" id="flowchart-Q-0" class="node default default flowchart-label"><rect height="33.5" width="110.6796875" y="-16.75" x="-55.33984375" ry="0" rx="0" style="" class="basic label-container"/><g transform="translate(-47.83984375, -9.25)" style="" class="label"><rect/><foreignObject height="18.5" width="95.6796875"><div style="display: inline-block; white-space: nowrap;" xmlns="http://www.w3.org/1999/xhtml"><span class="nodeLabel">Nearby query</span></div></foreignObject></g></g><g transform="translate(556.1875, 653.0731163024902)" data-id="IX" data-node="true" id="flowchart-IX-1" class="node default default flowchart-label"><path transform="translate(-115.69140625,-41.09700879058246)" d="M 0,16.231339193721638 a 115.69140625,16.231339193721638 0,0,0 231.3828125 0 a 115.69140625,16.231339193721638 0,0,0 -231.3828125 0 l 0,49.73133919372164 a 115.69140625,16.231339193721638 0,0,0 231.3828125 0 l 0,-49.73133919372164" style=""/><g transform="translate(-108.19140625, -9.25)" style="" class="label"><rect/><foreignObject height="18.5" width="216.3828125"><div style="display: inline-block; white-space: nowrap;" xmlns="http://www.w3.org/1999/xhtml"><span class="nodeLabel">Geospatial shards / Redis GEO</span></div></foreignObject></g></g><g transform="translate(556.1875, 760.9145202636719)" data-id="CA" data-node="true" id="flowchart-CA-2" class="node default default flowchart-label"><rect height="33.5" width="122.59375" y="-16.75" x="-61.296875" ry="0" rx="0" style="" class="basic label-container"/><g transform="translate(-53.796875, -9.25)" style="" class="label"><rect/><foreignObject height="18.5" width="107.59375"><div style="display: inline-block; white-space: nowrap;" xmlns="http://www.w3.org/1999/xhtml"><span class="nodeLabel">Optional cache</span></div></foreignObject></g></g></g></g></g></svg>