<svg aria-roledescription="flowchart-v2" role="graphics-document document" viewBox="-8 -8 644.546875 488.5027160644531" style="max-width: 644.547px; background-color: white;" xmlns:xlink="http://www.w3.org/1999/xlink" xmlns="http://www.w3.org/2000/svg" width="100%" id="my-svg"><style>#my-svg{font-family:"trebuchet ms",verdana,arial,sans-serif;font-size:16px;fill:#333;}#my-svg .error-icon{fill:#552222;}#my-svg .error-text{fill:#552222;stroke:#552222;}#my-svg .edge-thickness-normal{stroke-width:2px;}#my-svg .edge-thickness-thick{stroke-width:3.5px;}#my-svg .edge-pattern-solid{stroke-dasharray:0;}#my-svg .edge-pattern-dashed{stroke-dasharray:3;}#my-svg .edge-pattern-dotted{stroke-dasharray:2;}#my-svg .marker{fill:#333333;stroke:#333333;}#my-svg .marker.cross{stroke:#333333;}#my-svg svg{font-family:"trebuchet ms",verdana,arial,sans-serif;font-size:16px;}#my-svg .label{font-family:"trebuchet ms",verdana,arial,sans-serif;color:#333;}#my-svg .cluster-label text{fill:#333;}#my-svg .cluster-label span,#my-svg p{color:#333;}#my-svg .label text,#my-svg span,#my-svg p{fill:#333;color:#333;}#my-svg .node rect,#my-svg .node circle,#my-svg .node ellipse,#my-svg .node polygon,#my-svg .node path{fill:#ECECFF;stroke:#9370DB;stroke-width:1px;}#my-svg .flowchart-label text{text-anchor:middle;}#my-svg .node .katex path{fill:#000;stroke:#000;stroke-width:1px;}#my-svg .node .label{text-align:center;}#my-svg .node.clickable{cursor:pointer;}#my-svg .arrowheadPath{fill:#333333;}#my-svg .edgePath .path{stroke:#333333;stroke-width:2.0px;}#my-svg .flowchart-link{stroke:#333333;fill:none;}#my-svg .edgeLabel{background-color:#e8e8e8;text-align:center;}#my-svg .edgeLabel rect{opacity:0.5;background-color:#e8e8e8;fill:#e8e8e8;}#my-svg .labelBkg{background-color:rgba(232, 232, 232, 0.5);}#my-svg .cluster rect{fill:#ffffde;stroke:#aaaa33;stroke-width:1px;}#my-svg .cluster text{fill:#333;}#my-svg .cluster span,#my-svg p{color:#333;}#my-svg div.mermaidTooltip{position:absolute;text-align:center;max-width:200px;padding:2px;font-family:"trebuchet ms",verdana,arial,sans-serif;font-size:12px;background:hsl(80, 100%, 96.2745098039%);border:1px solid #aaaa33;border-radius:2px;pointer-events:none;z-index:100;}#my-svg .flowchartTitleText{text-anchor:middle;font-size:18px;fill:#333;}#my-svg :root{--mermaid-font-family:"trebuchet ms",verdana,arial,sans-serif;}</style><g><marker orient="auto" markerHeight="12" markerWidth="12" markerUnits="userSpaceOnUse" refY="5" refX="6" viewBox="0 0 10 10" class="marker flowchart" id="my-svg_flowchart-pointEnd"><path style="stroke-width: 1; stroke-dasharray: 1, 0;" class="arrowMarkerPath" d="M 0 0 L 10 5 L 0 10 z"/></marker><marker orient="auto" markerHeight="12" markerWidth="12" markerUnits="userSpaceOnUse" refY="5" refX="4.5" viewBox="0 0 10 10" class="marker flowchart" id="my-svg_flowchart-pointStart"><path style="stroke-width: 1; stroke-dasharray: 1, 0;" class="arrowMarkerPath" d="M 0 5 L 10 10 L 10 0 z"/></marker><marker orient="auto" markerHeight="11" markerWidth="11" markerUnits="userSpaceOnUse" refY="5" refX="11" viewBox="0 0 10 10" class="marker flowchart" id="my-svg_flowchart-circleEnd"><circle style="stroke-width: 1; stroke-dasharray: 1, 0;" class="arrowMarkerPath" r="5" cy="5" cx="5"/></marker><marker orient="auto" markerHeight="11" markerWidth="11" markerUnits="userSpaceOnUse" refY="5" refX="-1" viewBox="0 0 10 10" class="marker flowchart" id="my-svg_flowchart-circleStart"><circle style="stroke-width: 1; stroke-dasharray: 1, 0;" class="arrowMarkerPath" r="5" cy="5" cx="5"/></marker><marker orient="auto" markerHeight="11" markerWidth="11" markerUnits="userSpaceOnUse" refY="5.2" refX="12" viewBox="0 0 11 11" class="marker cross flowchart" id="my-svg_flowchart-crossEnd"><path style="stroke-width: 2; stroke-dasharray: 1, 0;" class="arrowMarkerPath" d="M 1,1 l 9,9 M 10,1 l -9,9"/></marker><marker orient="auto" markerHeight="11" markerWidth="11" markerUnits="userSpaceOnUse" refY="5.2" refX="-1" viewBox="0 0 11 11" class="marker cross flowchart" id="my-svg_flowchart-crossStart"><path style="stroke-width: 2; stroke-dasharray: 1, 0;" class="arrowMarkerPath" d="M 1,1 l 9,9 M 10,1 l -9,9"/></marker><g class="root"><g class="clusters"><g id="Workers" class="cluster default flowchart-label"><rect height="327.10668182373047" width="155.1328125" y="145.39602661132812" x="0" ry="0" rx="0" style=""/><g transform="translate(48.96875, 145.39602661132812)" class="cluster-label"><foreignObject height="18.5" width="57.1953125"><div style="display: inline-block; white-space: nowrap;" xmlns="http://www.w3.org/1999/xhtml"><span class="nodeLabel">Workers</span></div></foreignObject></g></g><g id="Messaging" class="cluster default flowchart-label"><rect height="129.375" width="223.7578125" y="333.1277084350586" x="404.7890625" ry="0" rx="0" style=""/><g transform="translate(481.265625, 333.1277084350586)" class="cluster-label"><foreignObject height="18.5" width="70.8046875"><div style="display: inline-block; white-space: nowrap;" xmlns="http://www.w3.org/1999/xhtml"><span class="nodeLabel">Messaging</span></div></foreignObject></g></g><g id="Control" class="cluster default flowchart-label"><rect height="313.1277084350586" width="423.4140625" y="0" x="205.1328125" ry="0" rx="0" style=""/><g transform="translate(390.45703125, 0)" class="cluster-label"><foreignObject height="18.5" width="52.765625"><div style="display: inline-block; white-space: nowrap;" xmlns="http://www.w3.org/1999/xhtml"><span class="nodeLabel">Control</span></div></foreignObject></g></g><g id="Clients" class="cluster default flowchart-label"><rect height="103.5" width="155.1328125" y="21.896026611328125" x="0" ry="0" rx="0" style=""/><g transform="translate(52.99609375, 21.896026611328125)" class="cluster-label"><foreignObject height="18.5" width="49.140625"><div style="display: inline-block; white-space: nowrap;" xmlns="http://www.w3.org/1999/xhtml"><span class="nodeLabel">Clients</span></div></foreignObject></g></g></g><g class="edgePaths"><path marker-end="url(#my-svg_flowchart-pointEnd)" style="fill:none;" class="edge-thickness-normal edge-pattern-solid flowchart-link LS-API LE-SCH" id="L-API-SCH-0" d="M130.133,73.646L134.299,73.646C138.466,73.646,146.799,73.646,155.133,73.646C163.466,73.646,171.799,73.646,180.133,73.646C188.466,73.646,196.799,73.646,212.691,88.049C228.582,102.452,252.031,131.258,263.755,145.661L275.48,160.065"/><path marker-end="url(#my-svg_flowchart-pointEnd)" style="fill:none;" class="edge-thickness-normal edge-pattern-solid flowchart-link LS-SCH LE-TS" id="L-SCH-TS-0" d="M305.309,164.175L317.723,147.992C330.136,131.809,354.963,99.444,371.542,83.261C388.122,67.079,396.456,67.079,411.184,67.079C425.912,67.079,447.034,67.079,457.596,67.079L468.157,67.079"/><path marker-end="url(#my-svg_flowchart-pointEnd)" style="fill:none;" class="edge-thickness-normal edge-pattern-solid flowchart-link LS-SCH LE-OS" id="L-SCH-OS-0" d="M354.789,184.975L358.956,185.246C363.122,185.517,371.456,186.058,379.789,186.329C388.122,186.6,396.456,186.6,405.561,186.6C414.667,186.6,424.545,186.6,429.484,186.6L434.423,186.6"/><path marker-end="url(#my-svg_flowchart-pointEnd)" style="fill:none;" class="edge-thickness-normal edge-pattern-solid flowchart-link LS-SCH LE-RQ" id="L-SCH-RQ-0" d="M307.646,197.675L319.67,210.938C331.694,224.201,355.741,250.727,371.932,263.99C388.122,277.253,396.456,277.253,416.362,296.034C436.268,314.815,467.747,352.378,483.487,371.159L499.226,389.941"/><path marker-end="url(#my-svg_flowchart-pointEnd)" style="fill:none;" class="edge-thickness-normal edge-pattern-solid flowchart-link LS-W1 LE-RQ" id="L-W1-RQ-0" d="M93.745,321.321L103.976,331.914C114.207,342.506,134.67,363.692,149.068,374.285C163.466,384.878,171.799,384.878,180.133,384.878C188.466,384.878,196.799,384.878,215.521,384.878C234.242,384.878,263.352,384.878,292.461,384.878C321.57,384.878,350.68,384.878,369.401,384.878C388.122,384.878,396.456,384.878,406.338,386.2C416.219,387.521,427.65,390.165,433.365,391.487L439.08,392.808"/><path marker-end="url(#my-svg_flowchart-pointEnd)" style="fill:none;" class="edge-thickness-normal edge-pattern-solid flowchart-link LS-W2 LE-RQ" id="L-W2-RQ-0" d="M104.323,404.821L112.792,410.122C121.26,415.423,138.196,426.025,150.831,431.327C163.466,436.628,171.799,436.628,180.133,436.628C188.466,436.628,196.799,436.628,215.521,436.628C234.242,436.628,263.352,436.628,292.461,436.628C321.57,436.628,350.68,436.628,369.401,436.628C388.122,436.628,396.456,436.628,406.338,435.306C416.219,433.984,427.65,431.341,433.365,430.019L439.08,428.697"/><path marker-end="url(#my-svg_flowchart-pointEnd)" style="fill:none;" class="edge-thickness-normal edge-pattern-solid flowchart-link LS-W1 LE-SCH" id="L-W1-SCH-0" d="M89.034,287.821L100.05,271.729C111.067,255.638,133.1,223.454,148.283,207.363C163.466,191.271,171.799,191.271,180.133,191.271C188.466,191.271,196.799,191.271,204.256,190.881C211.712,190.492,218.291,189.712,221.58,189.322L224.87,188.933"/><path marker-end="url(#my-svg_flowchart-pointEnd)" style="fill:none;" class="edge-thickness-normal edge-pattern-solid flowchart-link LS-W2 LE-SCH" id="L-W2-SCH-0" d="M90.453,371.321L101.233,357.31C112.013,343.298,133.573,315.275,148.52,301.264C163.466,287.253,171.799,287.253,180.133,287.253C188.466,287.253,196.799,287.253,212.667,273.006C228.535,258.759,251.938,230.265,263.639,216.018L275.34,201.771"/></g><g class="edgeLabels"><g class="edgeLabel"><g transform="translate(0, 0)" class="label"><foreignObject height="0" width="0"><div style="display: inline-block; white-space: nowrap;" xmlns="http://www.w3.org/1999/xhtml"><span class="edgeLabel"></span></div></foreignObject></g></g><g class="edgeLabel"><g transform="translate(0, 0)" class="label"><foreignObject height="0" width="0"><div style="display: inline-block; white-space: nowrap;" xmlns="http://www.w3.org/1999/xhtml"><span class="edgeLabel"></span></div></foreignObject></g></g><g class="edgeLabel"><g transform="translate(0, 0)" class="label"><foreignObject height="0" width="0"><div style="display: inline-block; white-space: nowrap;" xmlns="http://www.w3.org/1999/xhtml"><span class="edgeLabel"></span></div></foreignObject></g></g><g class="edgeLabel"><g transform="translate(0, 0)" class="label"><foreignObject height="0" width="0"><div style="display: inline-block; white-space: nowrap;" xmlns="http://www.w3.org/1999/xhtml"><span class="edgeLabel"></span></div></foreignObject></g></g><g class="edgeLabel"><g transform="translate(0, 0)" class="label"><foreignObject height="0" width="0"><div style="display: inline-block; white-space: nowrap;" xmlns="http://www.w3.org/1999/xhtml"><span class="edgeLabel"></span></div></foreignObject></g></g><g class="edgeLabel"><g transform="translate(0, 0)" class="label"><foreignObject height="0" width="0"><div style="display: inline-block; white-space: nowrap;" xmlns="http://www.w3.org/1999/xhtml"><span class="edgeLabel"></span></div></foreignObject></g></g><g class="edgeLabel"><g transform="translate(0, 0)" class="label"><foreignObject height="0" width="0"><div style="display: inline-block; white-space: nowrap;" xmlns="http://www.w3.org/1999/xhtml"><span class="edgeLabel"></span></div></foreignObject></g></g><g class="edgeLabel"><g transform="translate(0, 0)" class="label"><foreignObject height="0" width="0"><div style="display: inline-block; white-space: nowrap;" xmlns="http://www.w3.org/1999/xhtml"><span class="edgeLabel"></span></div></foreignObject></g></g></g><g class="nodes"><g transform="translate(77.56640625, 304.57088470458984)" data-id="W1" data-node="true" id="flowchart-W1-5" class="node default default flowchart-label"><rect height="33.5" width="101.34375" y="-16.75" x="-50.671875" ry="0" rx="0" style="" class="basic label-container"/><g transform="translate(-43.171875, -9.25)" style="" class="label"><rect/><foreignObject height="18.5" width="86.34375"><div style="display: inline-block; white-space: nowrap;" xmlns="http://www.w3.org/1999/xhtml"><span class="nodeLabel">Worker pool</span></div></foreignObject></g></g><g transform="translate(77.56640625, 388.07088470458984)" data-id="W2" data-node="true" id="flowchart-W2-6" class="node default default flowchart-label"><rect height="33.5" width="101.34375" y="-16.75" x="-50.671875" ry="0" rx="0" style="" class="basic label-container"/><g transform="translate(-43.171875, -9.25)" style="" class="label"><rect/><foreignObject height="18.5" width="86.34375"><div style="display: inline-block; white-space: nowrap;" xmlns="http://www.w3.org/1999/xhtml"><span class="nodeLabel">Worker pool</span></div></foreignObject></g></g><g transform="translate(516.66796875, 410.7527084350586)" data-id="RQ" data-node="true" id="flowchart-RQ-4" class="node default default flowchart-label"><rect height="33.5" width="173.7578125" y="-16.75" x="-86.87890625" ry="0" rx="0" style="" class="basic label-container"/><g transform="translate(-79.37890625, -9.25)" style="" class="label"><rect/><foreignObject height="18.5" width="158.7578125"><div style="display: inline-block; white-space: nowrap;" xmlns="http://www.w3.org/1999/xhtml"><span class="nodeLabel">Ready queue / stream</span></div></foreignObject></g></g><g transform="translate(292.4609375, 180.92485809326172)" data-id="SCH" data-node="true" id="flowchart-SCH-1" class="node default default flowchart-label"><rect height="33.5" width="124.65625" y="-16.75" x="-62.328125" ry="0" rx="0" style="" class="basic label-container"/><g transform="translate(-54.828125, -9.25)" style="" class="label"><rect/><foreignObject height="18.5" width="109.65625"><div style="display: inline-block; white-space: nowrap;" xmlns="http://www.w3.org/1999/xhtml"><span class="nodeLabel">Scheduler fleet</span></div></foreignObject></g></g><g transform="translate(516.66796875, 67.07868957519531)" data-id="TS" data-node="true" id="flowchart-TS-2" class="node default default flowchart-label"><path transform="translate(-43.2109375,-32.07868967555983)" d="M 0,10.219126450373217 a 43.2109375,10.219126450373217 0,0,0 86.421875 0 a 43.2109375,10.219126450373217 0,0,0 -86.421875 0 l 0,43.71912645037322 a 43.2109375,10.219126450373217 0,0,0 86.421875 0 l 0,-43.71912645037322" style=""/><g transform="translate(-35.7109375, -9.25)" style="" class="label"><rect/><foreignObject height="18.5" width="71.421875"><div style="display: inline-block; white-space: nowrap;" xmlns="http://www.w3.org/1999/xhtml"><span class="nodeLabel">Task store</span></div></foreignObject></g></g><g transform="translate(516.66796875, 186.59971618652344)" data-id="OS" data-node="true" id="flowchart-OS-3" class="node default default flowchart-label"><path transform="translate(-76.9453125,-37.44233570508152)" d="M 0,13.794890470054344 a 76.9453125,13.794890470054344 0,0,0 153.890625 0 a 76.9453125,13.794890470054344 0,0,0 -153.890625 0 l 0,47.29489047005434 a 76.9453125,13.794890470054344 0,0,0 153.890625 0 l 0,-47.29489047005434" style=""/><g transform="translate(-69.4453125, -9.25)" style="" class="label"><rect/><foreignObject height="18.5" width="138.890625"><div style="display: inline-block; white-space: nowrap;" xmlns="http://www.w3.org/1999/xhtml"><span class="nodeLabel">Object store / blob</span></div></foreignObject></g></g><g transform="translate(77.56640625, 73.64602661132812)" data-id="API" data-node="true" id="flowchart-API-0" class="node default default flowchart-label"><rect height="33.5" width="105.1328125" y="-16.75" x="-52.56640625" ry="0" rx="0" style="" class="basic label-container"/><g transform="translate(-45.06640625, -9.25)" style="" class="label"><rect/><foreignObject height="18.5" width="90.1328125"><div style="display: inline-block; white-space: nowrap;" xmlns="http://www.w3.org/1999/xhtml"><span class="nodeLabel">API Gateway</span></div></foreignObject></g></g></g></g></g></svg>