<svg aria-roledescription="flowchart-v2" role="graphics-document document" viewBox="-8 -8 707.90625 320.7898254394531" style="max-width: 707.906px; background-color: white;" xmlns:xlink="http://www.w3.org/1999/xlink" xmlns="http://www.w3.org/2000/svg" width="100%" id="my-svg"><style>#my-svg{font-family:"trebuchet ms",verdana,arial,sans-serif;font-size:16px;fill:#333;}#my-svg .error-icon{fill:#552222;}#my-svg .error-text{fill:#552222;stroke:#552222;}#my-svg .edge-thickness-normal{stroke-width:2px;}#my-svg .edge-thickness-thick{stroke-width:3.5px;}#my-svg .edge-pattern-solid{stroke-dasharray:0;}#my-svg .edge-pattern-dashed{stroke-dasharray:3;}#my-svg .edge-pattern-dotted{stroke-dasharray:2;}#my-svg .marker{fill:#333333;stroke:#333333;}#my-svg .marker.cross{stroke:#333333;}#my-svg svg{font-family:"trebuchet ms",verdana,arial,sans-serif;font-size:16px;}#my-svg .label{font-family:"trebuchet ms",verdana,arial,sans-serif;color:#333;}#my-svg .cluster-label text{fill:#333;}#my-svg .cluster-label span,#my-svg p{color:#333;}#my-svg .label text,#my-svg span,#my-svg p{fill:#333;color:#333;}#my-svg .node rect,#my-svg .node circle,#my-svg .node ellipse,#my-svg .node polygon,#my-svg .node path{fill:#ECECFF;stroke:#9370DB;stroke-width:1px;}#my-svg .flowchart-label text{text-anchor:middle;}#my-svg .node .katex path{fill:#000;stroke:#000;stroke-width:1px;}#my-svg .node .label{text-align:center;}#my-svg .node.clickable{cursor:pointer;}#my-svg .arrowheadPath{fill:#333333;}#my-svg .edgePath .path{stroke:#333333;stroke-width:2.0px;}#my-svg .flowchart-link{stroke:#333333;fill:none;}#my-svg .edgeLabel{background-color:#e8e8e8;text-align:center;}#my-svg .edgeLabel rect{opacity:0.5;background-color:#e8e8e8;fill:#e8e8e8;}#my-svg .labelBkg{background-color:rgba(232, 232, 232, 0.5);}#my-svg .cluster rect{fill:#ffffde;stroke:#aaaa33;stroke-width:1px;}#my-svg .cluster text{fill:#333;}#my-svg .cluster span,#my-svg p{color:#333;}#my-svg div.mermaidTooltip{position:absolute;text-align:center;max-width:200px;padding:2px;font-family:"trebuchet ms",verdana,arial,sans-serif;font-size:12px;background:hsl(80, 100%, 96.2745098039%);border:1px solid #aaaa33;border-radius:2px;pointer-events:none;z-index:100;}#my-svg .flowchartTitleText{text-anchor:middle;font-size:18px;fill:#333;}#my-svg :root{--mermaid-font-family:"trebuchet ms",verdana,arial,sans-serif;}</style><g><marker orient="auto" markerHeight="12" markerWidth="12" markerUnits="userSpaceOnUse" refY="5" refX="6" viewBox="0 0 10 10" class="marker flowchart" id="my-svg_flowchart-pointEnd"><path style="stroke-width: 1; stroke-dasharray: 1, 0;" class="arrowMarkerPath" d="M 0 0 L 10 5 L 0 10 z"/></marker><marker orient="auto" markerHeight="12" markerWidth="12" markerUnits="userSpaceOnUse" refY="5" refX="4.5" viewBox="0 0 10 10" class="marker flowchart" id="my-svg_flowchart-pointStart"><path style="stroke-width: 1; stroke-dasharray: 1, 0;" class="arrowMarkerPath" d="M 0 5 L 10 10 L 10 0 z"/></marker><marker orient="auto" markerHeight="11" markerWidth="11" markerUnits="userSpaceOnUse" refY="5" refX="11" viewBox="0 0 10 10" class="marker flowchart" id="my-svg_flowchart-circleEnd"><circle style="stroke-width: 1; stroke-dasharray: 1, 0;" class="arrowMarkerPath" r="5" cy="5" cx="5"/></marker><marker orient="auto" markerHeight="11" markerWidth="11" markerUnits="userSpaceOnUse" refY="5" refX="-1" viewBox="0 0 10 10" class="marker flowchart" id="my-svg_flowchart-circleStart"><circle style="stroke-width: 1; stroke-dasharray: 1, 0;" class="arrowMarkerPath" r="5" cy="5" cx="5"/></marker><marker orient="auto" markerHeight="11" markerWidth="11" markerUnits="userSpaceOnUse" refY="5.2" refX="12" viewBox="0 0 11 11" class="marker cross flowchart" id="my-svg_flowchart-crossEnd"><path style="stroke-width: 2; stroke-dasharray: 1, 0;" class="arrowMarkerPath" d="M 1,1 l 9,9 M 10,1 l -9,9"/></marker><marker orient="auto" markerHeight="11" markerWidth="11" markerUnits="userSpaceOnUse" refY="5.2" refX="-1" viewBox="0 0 11 11" class="marker cross flowchart" id="my-svg_flowchart-crossStart"><path style="stroke-width: 2; stroke-dasharray: 1, 0;" class="arrowMarkerPath" d="M 1,1 l 9,9 M 10,1 l -9,9"/></marker><g class="root"><g class="clusters"><g id="AP" class="cluster default flowchart-label"><rect height="205.5" width="183.0703125" y="45.81035804748535" x="0" ry="0" rx="0" style=""/><g transform="translate(0.01953125, 45.81035804748535)" class="cluster-label"><foreignObject height="18.5" width="183.03125"><div style="display: inline-block; white-space: nowrap;" xmlns="http://www.w3.org/1999/xhtml"><span class="nodeLabel">AP-leaning (keep moving)</span></div></foreignObject></g></g><g id="CP" class="cluster default flowchart-label"><rect height="304.7898178100586" width="208.8828125" y="0" x="483.0234375" ry="0" rx="0" style=""/><g transform="translate(495.80859375, 0)" class="cluster-label"><foreignObject height="18.5" width="183.3125"><div style="display: inline-block; white-space: nowrap;" xmlns="http://www.w3.org/1999/xhtml"><span class="nodeLabel">CP-leaning (ground truth)</span></div></foreignObject></g></g></g><g class="edgePaths"><path marker-end="url(#my-svg_flowchart-pointEnd)" style="fill:none;" class="edge-thickness-normal edge-pattern-solid flowchart-link LS-Frontier LE-Workers" id="L-Frontier-Workers-0" d="M155.227,107.31L159.867,107.227C164.508,107.144,173.789,106.977,193.243,106.894C212.697,106.81,242.323,106.81,271.121,112C299.919,117.189,327.889,127.568,341.874,132.757L355.859,137.947"/><path marker-end="url(#my-svg_flowchart-pointEnd)" style="fill:none;" class="edge-thickness-normal edge-pattern-solid flowchart-link LS-Workers LE-Dedup" id="L-Workers-Dedup-0" d="M411.3,136.435L419.087,127.361C426.874,118.286,442.449,100.137,454.403,91.062C466.357,81.988,474.69,81.988,482.14,81.988C489.59,81.988,496.157,81.988,499.44,81.988L502.723,81.988"/><path marker-end="url(#my-svg_flowchart-pointEnd)" style="fill:none;" class="edge-thickness-normal edge-pattern-solid flowchart-link LS-Workers LE-Meta" id="L-Workers-Meta-0" d="M411.3,169.935L419.087,179.01C426.874,188.085,442.449,206.234,454.403,215.308C466.357,224.383,474.69,224.383,484.207,224.383C493.724,224.383,504.425,224.383,509.775,224.383L515.126,224.383"/><path marker-end="url(#my-svg_flowchart-pointEnd)" style="fill:none;stroke-width:2px;stroke-dasharray:3;" class="edge-thickness-normal edge-pattern-dotted flowchart-link LS-Polite LE-Workers" id="L-Polite-Workers-0" d="M158.07,199.56L162.237,199.56C166.404,199.56,174.737,199.56,193.717,199.56C212.697,199.56,242.323,199.56,271.121,194.371C299.919,189.182,327.889,178.803,341.874,173.613L355.859,168.424"/></g><g class="edgeLabels"><g transform="translate(271.94921875, 106.81035804748535)" class="edgeLabel"><g transform="translate(-63.87890625, -9.25)" class="label"><foreignObject height="18.5" width="127.7578125"><div style="display: inline-block; white-space: nowrap;" xmlns="http://www.w3.org/1999/xhtml"><span class="edgeLabel">at-least-once URL</span></div></foreignObject></g></g><g class="edgeLabel"><g transform="translate(0, 0)" class="label"><foreignObject height="0" width="0"><div style="display: inline-block; white-space: nowrap;" xmlns="http://www.w3.org/1999/xhtml"><span class="edgeLabel"></span></div></foreignObject></g></g><g class="edgeLabel"><g transform="translate(0, 0)" class="label"><foreignObject height="0" width="0"><div style="display: inline-block; white-space: nowrap;" xmlns="http://www.w3.org/1999/xhtml"><span class="edgeLabel"></span></div></foreignObject></g></g><g transform="translate(271.94921875, 199.56035804748535)" class="edgeLabel"><g transform="translate(-60.7578125, -9.25)" class="label"><foreignObject height="18.5" width="121.515625"><div style="display: inline-block; white-space: nowrap;" xmlns="http://www.w3.org/1999/xhtml"><span class="edgeLabel">best-effort delay</span></div></foreignObject></g></g></g><g class="nodes"><g transform="translate(91.53515625, 106.81035804748535)" data-id="Frontier" data-node="true" id="flowchart-Frontier-2" class="node default default flowchart-label"><polygon style="" transform="translate(-55.19140625,26)" class="label-container" points="0,0 110.3828125,0 110.3828125,-52 0,-52 0,0 -8,0 118.3828125,0 118.3828125,-52 -8,-52 -8,0"/><g transform="translate(-47.69140625, -18.5)" style="" class="label"><rect/><foreignObject height="37" width="95.3828125"><div style="display: inline-block; white-space: nowrap;" xmlns="http://www.w3.org/1999/xhtml"><span class="nodeLabel">Frontier<br />Kafka / Redis</span></div></foreignObject></g></g><g transform="translate(91.53515625, 199.56035804748535)" data-id="Polite" data-node="true" id="flowchart-Polite-3" class="node default default flowchart-label"><rect height="33.5" width="133.0703125" y="-16.75" x="-66.53515625" ry="0" rx="0" style="" class="basic label-container"/><g transform="translate(-59.03515625, -9.25)" style="" class="label"><rect/><foreignObject height="18.5" width="118.0703125"><div style="display: inline-block; white-space: nowrap;" xmlns="http://www.w3.org/1999/xhtml"><span class="nodeLabel">Politeness cache</span></div></foreignObject></g></g><g transform="translate(587.46484375, 81.9879035949707)" data-id="Dedup" data-node="true" id="flowchart-Dedup-0" class="node default default flowchart-label"><path transform="translate(-79.44140625,-46.987904890332175)" d="M 0,13.99193659355478 a 79.44140625,13.99193659355478 0,0,0 158.8828125 0 a 79.44140625,13.99193659355478 0,0,0 -158.8828125 0 l 0,65.99193659355478 a 79.44140625,13.99193659355478 0,0,0 158.8828125 0 l 0,-65.99193659355478" style=""/><g transform="translate(-71.94140625, -18.5)" style="" class="label"><rect/><foreignObject height="37" width="143.8828125"><div style="display: inline-block; white-space: nowrap;" xmlns="http://www.w3.org/1999/xhtml"><span class="nodeLabel">Authoritative dedup<br />RocksDB / DB</span></div></foreignObject></g></g><g transform="translate(587.46484375, 224.3828125)" data-id="Meta" data-node="true" id="flowchart-Meta-1" class="node default default flowchart-label"><path transform="translate(-67.0390625,-45.40700199022979)" d="M 0,12.938001326819855 a 67.0390625,12.938001326819855 0,0,0 134.078125 0 a 67.0390625,12.938001326819855 0,0,0 -134.078125 0 l 0,64.93800132681986 a 67.0390625,12.938001326819855 0,0,0 134.078125 0 l 0,-64.93800132681986" style=""/><g transform="translate(-59.5390625, -18.5)" style="" class="label"><rect/><foreignObject height="37" width="119.078125"><div style="display: inline-block; white-space: nowrap;" xmlns="http://www.w3.org/1999/xhtml"><span class="nodeLabel">Crawl metadata<br />committed state</span></div></foreignObject></g></g><g transform="translate(396.92578125, 153.18535804748535)" data-id="Workers" data-node="true" id="flowchart-Workers-5" class="node default default flowchart-label"><rect height="33.5" width="72.1953125" y="-16.75" x="-36.09765625" ry="0" rx="0" style="" class="basic label-container"/><g transform="translate(-28.59765625, -9.25)" style="" class="label"><rect/><foreignObject height="18.5" width="57.1953125"><div style="display: inline-block; white-space: nowrap;" xmlns="http://www.w3.org/1999/xhtml"><span class="nodeLabel">Workers</span></div></foreignObject></g></g></g></g></g></svg>