<svg aria-roledescription="er" role="graphics-document document" viewBox="0 0 865.9609375 518" style="max-width: 865.961px; background-color: white;" xmlns:xlink="http://www.w3.org/1999/xlink" xmlns="http://www.w3.org/2000/svg" width="100%" id="my-svg"><style>#my-svg{font-family:"trebuchet ms",verdana,arial,sans-serif;font-size:16px;fill:#333;}#my-svg .error-icon{fill:#552222;}#my-svg .error-text{fill:#552222;stroke:#552222;}#my-svg .edge-thickness-normal{stroke-width:2px;}#my-svg .edge-thickness-thick{stroke-width:3.5px;}#my-svg .edge-pattern-solid{stroke-dasharray:0;}#my-svg .edge-pattern-dashed{stroke-dasharray:3;}#my-svg .edge-pattern-dotted{stroke-dasharray:2;}#my-svg .marker{fill:#333333;stroke:#333333;}#my-svg .marker.cross{stroke:#333333;}#my-svg svg{font-family:"trebuchet ms",verdana,arial,sans-serif;font-size:16px;}#my-svg .entityBox{fill:#ECECFF;stroke:#9370DB;}#my-svg .attributeBoxOdd{fill:#ffffff;stroke:#9370DB;}#my-svg .attributeBoxEven{fill:#f2f2f2;stroke:#9370DB;}#my-svg .relationshipLabelBox{fill:hsl(80, 100%, 96.2745098039%);opacity:0.7;background-color:hsl(80, 100%, 96.2745098039%);}#my-svg .relationshipLabelBox rect{opacity:0.5;}#my-svg .relationshipLine{stroke:#333333;}#my-svg .entityTitleText{text-anchor:middle;font-size:18px;fill:#333;}#my-svg #MD_PARENT_START{fill:#f5f5f5!important;stroke:#333333!important;stroke-width:1;}#my-svg #MD_PARENT_END{fill:#f5f5f5!important;stroke:#333333!important;stroke-width:1;}#my-svg :root{--mermaid-font-family:"trebuchet ms",verdana,arial,sans-serif;}</style><g/><defs><marker orient="auto" markerHeight="240" markerWidth="190" refY="7" refX="0" id="MD_PARENT_START"><path d="M 18,7 L9,13 L1,7 L9,1 Z"/></marker></defs><defs><marker orient="auto" markerHeight="28" markerWidth="20" refY="7" refX="19" id="MD_PARENT_END"><path d="M 18,7 L9,13 L1,7 L9,1 Z"/></marker></defs><defs><marker orient="auto" markerHeight="18" markerWidth="18" refY="9" refX="0" id="ONLY_ONE_START"><path d="M9,0 L9,18 M15,0 L15,18" fill="none" stroke="gray"/></marker></defs><defs><marker orient="auto" markerHeight="18" markerWidth="18" refY="9" refX="18" id="ONLY_ONE_END"><path d="M3,0 L3,18 M9,0 L9,18" fill="none" stroke="gray"/></marker></defs><defs><marker orient="auto" markerHeight="18" markerWidth="30" refY="9" refX="0" id="ZERO_OR_ONE_START"><circle r="6" cy="9" cx="21" fill="white" stroke="gray"/><path d="M9,0 L9,18" fill="none" stroke="gray"/></marker></defs><defs><marker orient="auto" markerHeight="18" markerWidth="30" refY="9" refX="30" id="ZERO_OR_ONE_END"><circle r="6" cy="9" cx="9" fill="white" stroke="gray"/><path d="M21,0 L21,18" fill="none" stroke="gray"/></marker></defs><defs><marker orient="auto" markerHeight="36" markerWidth="45" refY="18" refX="18" id="ONE_OR_MORE_START"><path d="M0,18 Q 18,0 36,18 Q 18,36 0,18 M42,9 L42,27" fill="none" stroke="gray"/></marker></defs><defs><marker orient="auto" markerHeight="36" markerWidth="45" refY="18" refX="27" id="ONE_OR_MORE_END"><path d="M3,9 L3,27 M9,18 Q27,0 45,18 Q27,36 9,18" fill="none" stroke="gray"/></marker></defs><defs><marker orient="auto" markerHeight="36" markerWidth="57" refY="18" refX="18" id="ZERO_OR_MORE_START"><circle r="6" cy="18" cx="48" fill="white" stroke="gray"/><path d="M0,18 Q18,0 36,18 Q18,36 0,18" fill="none" stroke="gray"/></marker></defs><defs><marker orient="auto" markerHeight="36" markerWidth="57" refY="18" refX="39" id="ZERO_OR_MORE_END"><circle r="6" cy="18" cx="9" fill="white" stroke="gray"/><path d="M21,18 Q39,0 57,18 Q39,36 21,18" fill="none" stroke="gray"/></marker></defs><path style="stroke: gray; fill: none;" marker-start="url(#ZERO_OR_MORE_START)" marker-end="url(#ONLY_ONE_END)" d="M361.469,149.101L315.142,169.251C268.815,189.401,176.161,229.7,129.835,261.85C83.508,294,83.508,318,83.508,330L83.508,342" class="er relationshipLine"/><path style="stroke: gray; fill: none;" marker-start="url(#ZERO_OR_MORE_START)" marker-end="url(#ONLY_ONE_END)" d="M361.469,207.012L353.396,217.51C345.324,228.008,329.18,249.004,321.107,271.502C313.035,294,313.035,318,313.035,330L313.035,342" class="er relationshipLine"/><path style="stroke: gray; fill: none;" marker-start="url(#ZERO_OR_MORE_START)" marker-end="url(#ONLY_ONE_END)" d="M495.281,207.012L503.354,217.51C511.426,228.008,527.57,249.004,535.643,271.502C543.715,294,543.715,318,543.715,330L543.715,342" class="er relationshipLine"/><path style="stroke: gray; fill: none;" marker-start="url(#ZERO_OR_MORE_START)" marker-end="url(#ONLY_ONE_END)" d="M495.281,148.773L542.262,168.978C589.243,189.182,683.206,229.591,730.187,258.129C777.168,286.667,777.168,303.333,777.168,311.667L777.168,320" class="er relationshipLine"/><g transform="translate(361.46875,20 )" id="entity-FACTSALES-5e582e1b-0b86-5b24-b2a2-2894ad816ae6"><rect height="200" width="133.8125" y="0" x="0" class="er entityBox"/><text style="dominant-baseline: middle; text-anchor: middle; font-size: 12px;" transform="translate(66.90625,12)" y="0" x="0" id="text-entity-FACTSALES-5e582e1b-0b86-5b24-b2a2-2894ad816ae6" class="er entityLabel">FACT_SALES</text><rect height="22" width="46.0390625" y="24" x="0" class="er attributeBoxOdd"/><text style="dominant-baseline: middle; font-size: 10.2px;" transform="translate(5,35)" y="0" x="0" id="text-entity-FACTSALES-5e582e1b-0b86-5b24-b2a2-2894ad816ae6-attr-1-type" class="er entityLabel">bigint</text><rect height="22" width="66.2109375" y="24" x="46.0390625" class="er attributeBoxOdd"/><text style="dominant-baseline: middle; font-size: 10.2px;" transform="translate(51.0390625,35)" y="0" x="0" id="text-entity-FACTSALES-5e582e1b-0b86-5b24-b2a2-2894ad816ae6-attr-1-name" class="er entityLabel">sale_id</text><rect height="22" width="21.5625" y="24" x="112.25" class="er attributeBoxOdd"/><text style="dominant-baseline: middle; font-size: 10.2px;" transform="translate(117.25,35)" y="0" x="0" id="text-entity-FACTSALES-5e582e1b-0b86-5b24-b2a2-2894ad816ae6-attr-1-key" class="er entityLabel">PK</text><rect height="22" width="46.0390625" y="46" x="0" class="er attributeBoxEven"/><text style="dominant-baseline: middle; font-size: 10.2px;" transform="translate(5,57)" y="0" x="0" id="text-entity-FACTSALES-5e582e1b-0b86-5b24-b2a2-2894ad816ae6-attr-2-type" class="er entityLabel">bigint</text><rect height="22" width="66.2109375" y="46" x="46.0390625" class="er attributeBoxEven"/><text style="dominant-baseline: middle; font-size: 10.2px;" transform="translate(51.0390625,57)" y="0" x="0" id="text-entity-FACTSALES-5e582e1b-0b86-5b24-b2a2-2894ad816ae6-attr-2-name" class="er entityLabel">product_id</text><rect height="22" width="21.5625" y="46" x="112.25" class="er attributeBoxEven"/><text style="dominant-baseline: middle; font-size: 10.2px;" transform="translate(117.25,57)" y="0" x="0" id="text-entity-FACTSALES-5e582e1b-0b86-5b24-b2a2-2894ad816ae6-attr-2-key" class="er entityLabel">FK</text><rect height="22" width="46.0390625" y="68" x="0" class="er attributeBoxOdd"/><text style="dominant-baseline: middle; font-size: 10.2px;" transform="translate(5,79)" y="0" x="0" id="text-entity-FACTSALES-5e582e1b-0b86-5b24-b2a2-2894ad816ae6-attr-3-type" class="er entityLabel">bigint</text><rect height="22" width="66.2109375" y="68" x="46.0390625" class="er attributeBoxOdd"/><text style="dominant-baseline: middle; font-size: 10.2px;" transform="translate(51.0390625,79)" y="0" x="0" id="text-entity-FACTSALES-5e582e1b-0b86-5b24-b2a2-2894ad816ae6-attr-3-name" class="er entityLabel">customer_id</text><rect height="22" width="21.5625" y="68" x="112.25" class="er attributeBoxOdd"/><text style="dominant-baseline: middle; font-size: 10.2px;" transform="translate(117.25,79)" y="0" x="0" id="text-entity-FACTSALES-5e582e1b-0b86-5b24-b2a2-2894ad816ae6-attr-3-key" class="er entityLabel">FK</text><rect height="22" width="46.0390625" y="90" x="0" class="er attributeBoxEven"/><text style="dominant-baseline: middle; font-size: 10.2px;" transform="translate(5,101)" y="0" x="0" id="text-entity-FACTSALES-5e582e1b-0b86-5b24-b2a2-2894ad816ae6-attr-4-type" class="er entityLabel">bigint</text><rect height="22" width="66.2109375" y="90" x="46.0390625" class="er attributeBoxEven"/><text style="dominant-baseline: middle; font-size: 10.2px;" transform="translate(51.0390625,101)" y="0" x="0" id="text-entity-FACTSALES-5e582e1b-0b86-5b24-b2a2-2894ad816ae6-attr-4-name" class="er entityLabel">store_id</text><rect height="22" width="21.5625" y="90" x="112.25" class="er attributeBoxEven"/><text style="dominant-baseline: middle; font-size: 10.2px;" transform="translate(117.25,101)" y="0" x="0" id="text-entity-FACTSALES-5e582e1b-0b86-5b24-b2a2-2894ad816ae6-attr-4-key" class="er entityLabel">FK</text><rect height="22" width="46.0390625" y="112" x="0" class="er attributeBoxOdd"/><text style="dominant-baseline: middle; font-size: 10.2px;" transform="translate(5,123)" y="0" x="0" id="text-entity-FACTSALES-5e582e1b-0b86-5b24-b2a2-2894ad816ae6-attr-5-type" class="er entityLabel">bigint</text><rect height="22" width="66.2109375" y="112" x="46.0390625" class="er attributeBoxOdd"/><text style="dominant-baseline: middle; font-size: 10.2px;" transform="translate(51.0390625,123)" y="0" x="0" id="text-entity-FACTSALES-5e582e1b-0b86-5b24-b2a2-2894ad816ae6-attr-5-name" class="er entityLabel">date_id</text><rect height="22" width="21.5625" y="112" x="112.25" class="er attributeBoxOdd"/><text style="dominant-baseline: middle; font-size: 10.2px;" transform="translate(117.25,123)" y="0" x="0" id="text-entity-FACTSALES-5e582e1b-0b86-5b24-b2a2-2894ad816ae6-attr-5-key" class="er entityLabel">FK</text><rect height="22" width="46.0390625" y="134" x="0" class="er attributeBoxEven"/><text style="dominant-baseline: middle; font-size: 10.2px;" transform="translate(5,145)" y="0" x="0" id="text-entity-FACTSALES-5e582e1b-0b86-5b24-b2a2-2894ad816ae6-attr-6-type" class="er entityLabel">decimal</text><rect height="22" width="66.2109375" y="134" x="46.0390625" class="er attributeBoxEven"/><text style="dominant-baseline: middle; font-size: 10.2px;" transform="translate(51.0390625,145)" y="0" x="0" id="text-entity-FACTSALES-5e582e1b-0b86-5b24-b2a2-2894ad816ae6-attr-6-name" class="er entityLabel">amount</text><rect height="22" width="21.5625" y="134" x="112.25" class="er attributeBoxEven"/><text style="dominant-baseline: middle; font-size: 10.2px;" transform="translate(117.25,145)" y="0" x="0" id="text-entity-FACTSALES-5e582e1b-0b86-5b24-b2a2-2894ad816ae6-attr-6-key" class="er entityLabel"/><rect height="22" width="46.0390625" y="156" x="0" class="er attributeBoxOdd"/><text style="dominant-baseline: middle; font-size: 10.2px;" transform="translate(5,167)" y="0" x="0" id="text-entity-FACTSALES-5e582e1b-0b86-5b24-b2a2-2894ad816ae6-attr-7-type" class="er entityLabel">int</text><rect height="22" width="66.2109375" y="156" x="46.0390625" class="er attributeBoxOdd"/><text style="dominant-baseline: middle; font-size: 10.2px;" transform="translate(51.0390625,167)" y="0" x="0" id="text-entity-FACTSALES-5e582e1b-0b86-5b24-b2a2-2894ad816ae6-attr-7-name" class="er entityLabel">quantity</text><rect height="22" width="21.5625" y="156" x="112.25" class="er attributeBoxOdd"/><text style="dominant-baseline: middle; font-size: 10.2px;" transform="translate(117.25,167)" y="0" x="0" id="text-entity-FACTSALES-5e582e1b-0b86-5b24-b2a2-2894ad816ae6-attr-7-key" class="er entityLabel"/><rect height="22" width="46.0390625" y="178" x="0" class="er attributeBoxEven"/><text style="dominant-baseline: middle; font-size: 10.2px;" transform="translate(5,189)" y="0" x="0" id="text-entity-FACTSALES-5e582e1b-0b86-5b24-b2a2-2894ad816ae6-attr-8-type" class="er entityLabel">decimal</text><rect height="22" width="66.2109375" y="178" x="46.0390625" class="er attributeBoxEven"/><text style="dominant-baseline: middle; font-size: 10.2px;" transform="translate(51.0390625,189)" y="0" x="0" id="text-entity-FACTSALES-5e582e1b-0b86-5b24-b2a2-2894ad816ae6-attr-8-name" class="er entityLabel">discount</text><rect height="22" width="21.5625" y="178" x="112.25" class="er attributeBoxEven"/><text style="dominant-baseline: middle; font-size: 10.2px;" transform="translate(117.25,189)" y="0" x="0" id="text-entity-FACTSALES-5e582e1b-0b86-5b24-b2a2-2894ad816ae6-attr-8-key" class="er entityLabel"/></g><g transform="translate(20,342 )" id="entity-DIMPRODUCT-63939fd8-8e79-54e5-9b11-944a34476825"><rect height="134" width="127.015625" y="0" x="0" class="er entityBox"/><text style="dominant-baseline: middle; text-anchor: middle; font-size: 12px;" transform="translate(63.5078125,12)" y="0" x="0" id="text-entity-DIMPRODUCT-63939fd8-8e79-54e5-9b11-944a34476825" class="er entityLabel">DIM_PRODUCT</text><rect height="22" width="46.0390625" y="24" x="0" class="er attributeBoxOdd"/><text style="dominant-baseline: middle; font-size: 10.2px;" transform="translate(5,35)" y="0" x="0" id="text-entity-DIMPRODUCT-63939fd8-8e79-54e5-9b11-944a34476825-attr-1-type" class="er entityLabel">bigint</text><rect height="22" width="59.4140625" y="24" x="46.0390625" class="er attributeBoxOdd"/><text style="dominant-baseline: middle; font-size: 10.2px;" transform="translate(51.0390625,35)" y="0" x="0" id="text-entity-DIMPRODUCT-63939fd8-8e79-54e5-9b11-944a34476825-attr-1-name" class="er entityLabel">product_id</text><rect height="22" width="21.5625" y="24" x="105.453125" class="er attributeBoxOdd"/><text style="dominant-baseline: middle; font-size: 10.2px;" transform="translate(110.453125,35)" y="0" x="0" id="text-entity-DIMPRODUCT-63939fd8-8e79-54e5-9b11-944a34476825-attr-1-key" class="er entityLabel">PK</text><rect height="22" width="46.0390625" y="46" x="0" class="er attributeBoxEven"/><text style="dominant-baseline: middle; font-size: 10.2px;" transform="translate(5,57)" y="0" x="0" id="text-entity-DIMPRODUCT-63939fd8-8e79-54e5-9b11-944a34476825-attr-2-type" class="er entityLabel">varchar</text><rect height="22" width="59.4140625" y="46" x="46.0390625" class="er attributeBoxEven"/><text style="dominant-baseline: middle; font-size: 10.2px;" transform="translate(51.0390625,57)" y="0" x="0" id="text-entity-DIMPRODUCT-63939fd8-8e79-54e5-9b11-944a34476825-attr-2-name" class="er entityLabel">name</text><rect height="22" width="21.5625" y="46" x="105.453125" class="er attributeBoxEven"/><text style="dominant-baseline: middle; font-size: 10.2px;" transform="translate(110.453125,57)" y="0" x="0" id="text-entity-DIMPRODUCT-63939fd8-8e79-54e5-9b11-944a34476825-attr-2-key" class="er entityLabel"/><rect height="22" width="46.0390625" y="68" x="0" class="er attributeBoxOdd"/><text style="dominant-baseline: middle; font-size: 10.2px;" transform="translate(5,79)" y="0" x="0" id="text-entity-DIMPRODUCT-63939fd8-8e79-54e5-9b11-944a34476825-attr-3-type" class="er entityLabel">varchar</text><rect height="22" width="59.4140625" y="68" x="46.0390625" class="er attributeBoxOdd"/><text style="dominant-baseline: middle; font-size: 10.2px;" transform="translate(51.0390625,79)" y="0" x="0" id="text-entity-DIMPRODUCT-63939fd8-8e79-54e5-9b11-944a34476825-attr-3-name" class="er entityLabel">category</text><rect height="22" width="21.5625" y="68" x="105.453125" class="er attributeBoxOdd"/><text style="dominant-baseline: middle; font-size: 10.2px;" transform="translate(110.453125,79)" y="0" x="0" id="text-entity-DIMPRODUCT-63939fd8-8e79-54e5-9b11-944a34476825-attr-3-key" class="er entityLabel"/><rect height="22" width="46.0390625" y="90" x="0" class="er attributeBoxEven"/><text style="dominant-baseline: middle; font-size: 10.2px;" transform="translate(5,101)" y="0" x="0" id="text-entity-DIMPRODUCT-63939fd8-8e79-54e5-9b11-944a34476825-attr-4-type" class="er entityLabel">varchar</text><rect height="22" width="59.4140625" y="90" x="46.0390625" class="er attributeBoxEven"/><text style="dominant-baseline: middle; font-size: 10.2px;" transform="translate(51.0390625,101)" y="0" x="0" id="text-entity-DIMPRODUCT-63939fd8-8e79-54e5-9b11-944a34476825-attr-4-name" class="er entityLabel">brand</text><rect height="22" width="21.5625" y="90" x="105.453125" class="er attributeBoxEven"/><text style="dominant-baseline: middle; font-size: 10.2px;" transform="translate(110.453125,101)" y="0" x="0" id="text-entity-DIMPRODUCT-63939fd8-8e79-54e5-9b11-944a34476825-attr-4-key" class="er entityLabel"/><rect height="22" width="46.0390625" y="112" x="0" class="er attributeBoxOdd"/><text style="dominant-baseline: middle; font-size: 10.2px;" transform="translate(5,123)" y="0" x="0" id="text-entity-DIMPRODUCT-63939fd8-8e79-54e5-9b11-944a34476825-attr-5-type" class="er entityLabel">decimal</text><rect height="22" width="59.4140625" y="112" x="46.0390625" class="er attributeBoxOdd"/><text style="dominant-baseline: middle; font-size: 10.2px;" transform="translate(51.0390625,123)" y="0" x="0" id="text-entity-DIMPRODUCT-63939fd8-8e79-54e5-9b11-944a34476825-attr-5-name" class="er entityLabel">price</text><rect height="22" width="21.5625" y="112" x="105.453125" class="er attributeBoxOdd"/><text style="dominant-baseline: middle; font-size: 10.2px;" transform="translate(110.453125,123)" y="0" x="0" id="text-entity-DIMPRODUCT-63939fd8-8e79-54e5-9b11-944a34476825-attr-5-key" class="er entityLabel"/></g><g transform="translate(247.015625,342 )" id="entity-DIMCUSTOMER-a251bd94-1669-505a-88b4-b6a6d24602ce"><rect height="134" width="132.0390625" y="0" x="0" class="er entityBox"/><text style="dominant-baseline: middle; text-anchor: middle; font-size: 12px;" transform="translate(66.01953125,12)" y="0" x="0" id="text-entity-DIMCUSTOMER-a251bd94-1669-505a-88b4-b6a6d24602ce" class="er entityLabel">DIM_CUSTOMER</text><rect height="22" width="44.265625" y="24" x="0" class="er attributeBoxOdd"/><text style="dominant-baseline: middle; font-size: 10.2px;" transform="translate(5,35)" y="0" x="0" id="text-entity-DIMCUSTOMER-a251bd94-1669-505a-88b4-b6a6d24602ce-attr-1-type" class="er entityLabel">bigint</text><rect height="22" width="66.2109375" y="24" x="44.265625" class="er attributeBoxOdd"/><text style="dominant-baseline: middle; font-size: 10.2px;" transform="translate(49.265625,35)" y="0" x="0" id="text-entity-DIMCUSTOMER-a251bd94-1669-505a-88b4-b6a6d24602ce-attr-1-name" class="er entityLabel">customer_id</text><rect height="22" width="21.5625" y="24" x="110.4765625" class="er attributeBoxOdd"/><text style="dominant-baseline: middle; font-size: 10.2px;" transform="translate(115.4765625,35)" y="0" x="0" id="text-entity-DIMCUSTOMER-a251bd94-1669-505a-88b4-b6a6d24602ce-attr-1-key" class="er entityLabel">PK</text><rect height="22" width="44.265625" y="46" x="0" class="er attributeBoxEven"/><text style="dominant-baseline: middle; font-size: 10.2px;" transform="translate(5,57)" y="0" x="0" id="text-entity-DIMCUSTOMER-a251bd94-1669-505a-88b4-b6a6d24602ce-attr-2-type" class="er entityLabel">varchar</text><rect height="22" width="66.2109375" y="46" x="44.265625" class="er attributeBoxEven"/><text style="dominant-baseline: middle; font-size: 10.2px;" transform="translate(49.265625,57)" y="0" x="0" id="text-entity-DIMCUSTOMER-a251bd94-1669-505a-88b4-b6a6d24602ce-attr-2-name" class="er entityLabel">name</text><rect height="22" width="21.5625" y="46" x="110.4765625" class="er attributeBoxEven"/><text style="dominant-baseline: middle; font-size: 10.2px;" transform="translate(115.4765625,57)" y="0" x="0" id="text-entity-DIMCUSTOMER-a251bd94-1669-505a-88b4-b6a6d24602ce-attr-2-key" class="er entityLabel"/><rect height="22" width="44.265625" y="68" x="0" class="er attributeBoxOdd"/><text style="dominant-baseline: middle; font-size: 10.2px;" transform="translate(5,79)" y="0" x="0" id="text-entity-DIMCUSTOMER-a251bd94-1669-505a-88b4-b6a6d24602ce-attr-3-type" class="er entityLabel">varchar</text><rect height="22" width="66.2109375" y="68" x="44.265625" class="er attributeBoxOdd"/><text style="dominant-baseline: middle; font-size: 10.2px;" transform="translate(49.265625,79)" y="0" x="0" id="text-entity-DIMCUSTOMER-a251bd94-1669-505a-88b4-b6a6d24602ce-attr-3-name" class="er entityLabel">email</text><rect height="22" width="21.5625" y="68" x="110.4765625" class="er attributeBoxOdd"/><text style="dominant-baseline: middle; font-size: 10.2px;" transform="translate(115.4765625,79)" y="0" x="0" id="text-entity-DIMCUSTOMER-a251bd94-1669-505a-88b4-b6a6d24602ce-attr-3-key" class="er entityLabel"/><rect height="22" width="44.265625" y="90" x="0" class="er attributeBoxEven"/><text style="dominant-baseline: middle; font-size: 10.2px;" transform="translate(5,101)" y="0" x="0" id="text-entity-DIMCUSTOMER-a251bd94-1669-505a-88b4-b6a6d24602ce-attr-4-type" class="er entityLabel">varchar</text><rect height="22" width="66.2109375" y="90" x="44.265625" class="er attributeBoxEven"/><text style="dominant-baseline: middle; font-size: 10.2px;" transform="translate(49.265625,101)" y="0" x="0" id="text-entity-DIMCUSTOMER-a251bd94-1669-505a-88b4-b6a6d24602ce-attr-4-name" class="er entityLabel">segment</text><rect height="22" width="21.5625" y="90" x="110.4765625" class="er attributeBoxEven"/><text style="dominant-baseline: middle; font-size: 10.2px;" transform="translate(115.4765625,101)" y="0" x="0" id="text-entity-DIMCUSTOMER-a251bd94-1669-505a-88b4-b6a6d24602ce-attr-4-key" class="er entityLabel"/><rect height="22" width="44.265625" y="112" x="0" class="er attributeBoxOdd"/><text style="dominant-baseline: middle; font-size: 10.2px;" transform="translate(5,123)" y="0" x="0" id="text-entity-DIMCUSTOMER-a251bd94-1669-505a-88b4-b6a6d24602ce-attr-5-type" class="er entityLabel">varchar</text><rect height="22" width="66.2109375" y="112" x="44.265625" class="er attributeBoxOdd"/><text style="dominant-baseline: middle; font-size: 10.2px;" transform="translate(49.265625,123)" y="0" x="0" id="text-entity-DIMCUSTOMER-a251bd94-1669-505a-88b4-b6a6d24602ce-attr-5-name" class="er entityLabel">region</text><rect height="22" width="21.5625" y="112" x="110.4765625" class="er attributeBoxOdd"/><text style="dominant-baseline: middle; font-size: 10.2px;" transform="translate(115.4765625,123)" y="0" x="0" id="text-entity-DIMCUSTOMER-a251bd94-1669-505a-88b4-b6a6d24602ce-attr-5-key" class="er entityLabel"/></g><g transform="translate(479.0546875,342 )" id="entity-DIMSTORE-dbe906d3-7b51-54b6-aaf9-d80d5a878331"><rect height="134" width="129.3203125" y="0" x="0" class="er entityBox"/><text style="dominant-baseline: middle; text-anchor: middle; font-size: 12px;" transform="translate(64.66015625,12)" y="0" x="0" id="text-entity-DIMSTORE-dbe906d3-7b51-54b6-aaf9-d80d5a878331" class="er entityLabel">DIM_STORE</text><rect height="22" width="44.265625" y="24" x="0" class="er attributeBoxOdd"/><text style="dominant-baseline: middle; font-size: 10.2px;" transform="translate(5,35)" y="0" x="0" id="text-entity-DIMSTORE-dbe906d3-7b51-54b6-aaf9-d80d5a878331-attr-1-type" class="er entityLabel">bigint</text><rect height="22" width="63.4921875" y="24" x="44.265625" class="er attributeBoxOdd"/><text style="dominant-baseline: middle; font-size: 10.2px;" transform="translate(49.265625,35)" y="0" x="0" id="text-entity-DIMSTORE-dbe906d3-7b51-54b6-aaf9-d80d5a878331-attr-1-name" class="er entityLabel">store_id</text><rect height="22" width="21.5625" y="24" x="107.7578125" class="er attributeBoxOdd"/><text style="dominant-baseline: middle; font-size: 10.2px;" transform="translate(112.7578125,35)" y="0" x="0" id="text-entity-DIMSTORE-dbe906d3-7b51-54b6-aaf9-d80d5a878331-attr-1-key" class="er entityLabel">PK</text><rect height="22" width="44.265625" y="46" x="0" class="er attributeBoxEven"/><text style="dominant-baseline: middle; font-size: 10.2px;" transform="translate(5,57)" y="0" x="0" id="text-entity-DIMSTORE-dbe906d3-7b51-54b6-aaf9-d80d5a878331-attr-2-type" class="er entityLabel">varchar</text><rect height="22" width="63.4921875" y="46" x="44.265625" class="er attributeBoxEven"/><text style="dominant-baseline: middle; font-size: 10.2px;" transform="translate(49.265625,57)" y="0" x="0" id="text-entity-DIMSTORE-dbe906d3-7b51-54b6-aaf9-d80d5a878331-attr-2-name" class="er entityLabel">store_name</text><rect height="22" width="21.5625" y="46" x="107.7578125" class="er attributeBoxEven"/><text style="dominant-baseline: middle; font-size: 10.2px;" transform="translate(112.7578125,57)" y="0" x="0" id="text-entity-DIMSTORE-dbe906d3-7b51-54b6-aaf9-d80d5a878331-attr-2-key" class="er entityLabel"/><rect height="22" width="44.265625" y="68" x="0" class="er attributeBoxOdd"/><text style="dominant-baseline: middle; font-size: 10.2px;" transform="translate(5,79)" y="0" x="0" id="text-entity-DIMSTORE-dbe906d3-7b51-54b6-aaf9-d80d5a878331-attr-3-type" class="er entityLabel">varchar</text><rect height="22" width="63.4921875" y="68" x="44.265625" class="er attributeBoxOdd"/><text style="dominant-baseline: middle; font-size: 10.2px;" transform="translate(49.265625,79)" y="0" x="0" id="text-entity-DIMSTORE-dbe906d3-7b51-54b6-aaf9-d80d5a878331-attr-3-name" class="er entityLabel">city</text><rect height="22" width="21.5625" y="68" x="107.7578125" class="er attributeBoxOdd"/><text style="dominant-baseline: middle; font-size: 10.2px;" transform="translate(112.7578125,79)" y="0" x="0" id="text-entity-DIMSTORE-dbe906d3-7b51-54b6-aaf9-d80d5a878331-attr-3-key" class="er entityLabel"/><rect height="22" width="44.265625" y="90" x="0" class="er attributeBoxEven"/><text style="dominant-baseline: middle; font-size: 10.2px;" transform="translate(5,101)" y="0" x="0" id="text-entity-DIMSTORE-dbe906d3-7b51-54b6-aaf9-d80d5a878331-attr-4-type" class="er entityLabel">varchar</text><rect height="22" width="63.4921875" y="90" x="44.265625" class="er attributeBoxEven"/><text style="dominant-baseline: middle; font-size: 10.2px;" transform="translate(49.265625,101)" y="0" x="0" id="text-entity-DIMSTORE-dbe906d3-7b51-54b6-aaf9-d80d5a878331-attr-4-name" class="er entityLabel">state</text><rect height="22" width="21.5625" y="90" x="107.7578125" class="er attributeBoxEven"/><text style="dominant-baseline: middle; font-size: 10.2px;" transform="translate(112.7578125,101)" y="0" x="0" id="text-entity-DIMSTORE-dbe906d3-7b51-54b6-aaf9-d80d5a878331-attr-4-key" class="er entityLabel"/><rect height="22" width="44.265625" y="112" x="0" class="er attributeBoxOdd"/><text style="dominant-baseline: middle; font-size: 10.2px;" transform="translate(5,123)" y="0" x="0" id="text-entity-DIMSTORE-dbe906d3-7b51-54b6-aaf9-d80d5a878331-attr-5-type" class="er entityLabel">varchar</text><rect height="22" width="63.4921875" y="112" x="44.265625" class="er attributeBoxOdd"/><text style="dominant-baseline: middle; font-size: 10.2px;" transform="translate(49.265625,123)" y="0" x="0" id="text-entity-DIMSTORE-dbe906d3-7b51-54b6-aaf9-d80d5a878331-attr-5-name" class="er entityLabel">country</text><rect height="22" width="21.5625" y="112" x="107.7578125" class="er attributeBoxOdd"/><text style="dominant-baseline: middle; font-size: 10.2px;" transform="translate(112.7578125,123)" y="0" x="0" id="text-entity-DIMSTORE-dbe906d3-7b51-54b6-aaf9-d80d5a878331-attr-5-key" class="er entityLabel"/></g><g transform="translate(708.375,320 )" id="entity-DIMDATE-99cb062b-c23e-5069-9732-c6449b5ecdb7"><rect height="178" width="137.5859375" y="0" x="0" class="er entityBox"/><text style="dominant-baseline: middle; text-anchor: middle; font-size: 12px;" transform="translate(68.79296875,12)" y="0" x="0" id="text-entity-DIMDATE-99cb062b-c23e-5069-9732-c6449b5ecdb7" class="er entityLabel">DIM_DATE</text><rect height="22" width="46.140625" y="24" x="0" class="er attributeBoxOdd"/><text style="dominant-baseline: middle; font-size: 10.2px;" transform="translate(5,35)" y="0" x="0" id="text-entity-DIMDATE-99cb062b-c23e-5069-9732-c6449b5ecdb7-attr-1-type" class="er entityLabel">bigint</text><rect height="22" width="69.8828125" y="24" x="46.140625" class="er attributeBoxOdd"/><text style="dominant-baseline: middle; font-size: 10.2px;" transform="translate(51.140625,35)" y="0" x="0" id="text-entity-DIMDATE-99cb062b-c23e-5069-9732-c6449b5ecdb7-attr-1-name" class="er entityLabel">date_id</text><rect height="22" width="21.5625" y="24" x="116.0234375" class="er attributeBoxOdd"/><text style="dominant-baseline: middle; font-size: 10.2px;" transform="translate(121.0234375,35)" y="0" x="0" id="text-entity-DIMDATE-99cb062b-c23e-5069-9732-c6449b5ecdb7-attr-1-key" class="er entityLabel">PK</text><rect height="22" width="46.140625" y="46" x="0" class="er attributeBoxEven"/><text style="dominant-baseline: middle; font-size: 10.2px;" transform="translate(5,57)" y="0" x="0" id="text-entity-DIMDATE-99cb062b-c23e-5069-9732-c6449b5ecdb7-attr-2-type" class="er entityLabel">date</text><rect height="22" width="69.8828125" y="46" x="46.140625" class="er attributeBoxEven"/><text style="dominant-baseline: middle; font-size: 10.2px;" transform="translate(51.140625,57)" y="0" x="0" id="text-entity-DIMDATE-99cb062b-c23e-5069-9732-c6449b5ecdb7-attr-2-name" class="er entityLabel">full_date</text><rect height="22" width="21.5625" y="46" x="116.0234375" class="er attributeBoxEven"/><text style="dominant-baseline: middle; font-size: 10.2px;" transform="translate(121.0234375,57)" y="0" x="0" id="text-entity-DIMDATE-99cb062b-c23e-5069-9732-c6449b5ecdb7-attr-2-key" class="er entityLabel"/><rect height="22" width="46.140625" y="68" x="0" class="er attributeBoxOdd"/><text style="dominant-baseline: middle; font-size: 10.2px;" transform="translate(5,79)" y="0" x="0" id="text-entity-DIMDATE-99cb062b-c23e-5069-9732-c6449b5ecdb7-attr-3-type" class="er entityLabel">int</text><rect height="22" width="69.8828125" y="68" x="46.140625" class="er attributeBoxOdd"/><text style="dominant-baseline: middle; font-size: 10.2px;" transform="translate(51.140625,79)" y="0" x="0" id="text-entity-DIMDATE-99cb062b-c23e-5069-9732-c6449b5ecdb7-attr-3-name" class="er entityLabel">year</text><rect height="22" width="21.5625" y="68" x="116.0234375" class="er attributeBoxOdd"/><text style="dominant-baseline: middle; font-size: 10.2px;" transform="translate(121.0234375,79)" y="0" x="0" id="text-entity-DIMDATE-99cb062b-c23e-5069-9732-c6449b5ecdb7-attr-3-key" class="er entityLabel"/><rect height="22" width="46.140625" y="90" x="0" class="er attributeBoxEven"/><text style="dominant-baseline: middle; font-size: 10.2px;" transform="translate(5,101)" y="0" x="0" id="text-entity-DIMDATE-99cb062b-c23e-5069-9732-c6449b5ecdb7-attr-4-type" class="er entityLabel">int</text><rect height="22" width="69.8828125" y="90" x="46.140625" class="er attributeBoxEven"/><text style="dominant-baseline: middle; font-size: 10.2px;" transform="translate(51.140625,101)" y="0" x="0" id="text-entity-DIMDATE-99cb062b-c23e-5069-9732-c6449b5ecdb7-attr-4-name" class="er entityLabel">quarter</text><rect height="22" width="21.5625" y="90" x="116.0234375" class="er attributeBoxEven"/><text style="dominant-baseline: middle; font-size: 10.2px;" transform="translate(121.0234375,101)" y="0" x="0" id="text-entity-DIMDATE-99cb062b-c23e-5069-9732-c6449b5ecdb7-attr-4-key" class="er entityLabel"/><rect height="22" width="46.140625" y="112" x="0" class="er attributeBoxOdd"/><text style="dominant-baseline: middle; font-size: 10.2px;" transform="translate(5,123)" y="0" x="0" id="text-entity-DIMDATE-99cb062b-c23e-5069-9732-c6449b5ecdb7-attr-5-type" class="er entityLabel">int</text><rect height="22" width="69.8828125" y="112" x="46.140625" class="er attributeBoxOdd"/><text style="dominant-baseline: middle; font-size: 10.2px;" transform="translate(51.140625,123)" y="0" x="0" id="text-entity-DIMDATE-99cb062b-c23e-5069-9732-c6449b5ecdb7-attr-5-name" class="er entityLabel">month</text><rect height="22" width="21.5625" y="112" x="116.0234375" class="er attributeBoxOdd"/><text style="dominant-baseline: middle; font-size: 10.2px;" transform="translate(121.0234375,123)" y="0" x="0" id="text-entity-DIMDATE-99cb062b-c23e-5069-9732-c6449b5ecdb7-attr-5-key" class="er entityLabel"/><rect height="22" width="46.140625" y="134" x="0" class="er attributeBoxEven"/><text style="dominant-baseline: middle; font-size: 10.2px;" transform="translate(5,145)" y="0" x="0" id="text-entity-DIMDATE-99cb062b-c23e-5069-9732-c6449b5ecdb7-attr-6-type" class="er entityLabel">int</text><rect height="22" width="69.8828125" y="134" x="46.140625" class="er attributeBoxEven"/><text style="dominant-baseline: middle; font-size: 10.2px;" transform="translate(51.140625,145)" y="0" x="0" id="text-entity-DIMDATE-99cb062b-c23e-5069-9732-c6449b5ecdb7-attr-6-name" class="er entityLabel">day_of_week</text><rect height="22" width="21.5625" y="134" x="116.0234375" class="er attributeBoxEven"/><text style="dominant-baseline: middle; font-size: 10.2px;" transform="translate(121.0234375,145)" y="0" x="0" id="text-entity-DIMDATE-99cb062b-c23e-5069-9732-c6449b5ecdb7-attr-6-key" class="er entityLabel"/><rect height="22" width="46.140625" y="156" x="0" class="er attributeBoxOdd"/><text style="dominant-baseline: middle; font-size: 10.2px;" transform="translate(5,167)" y="0" x="0" id="text-entity-DIMDATE-99cb062b-c23e-5069-9732-c6449b5ecdb7-attr-7-type" class="er entityLabel">boolean</text><rect height="22" width="69.8828125" y="156" x="46.140625" class="er attributeBoxOdd"/><text style="dominant-baseline: middle; font-size: 10.2px;" transform="translate(51.140625,167)" y="0" x="0" id="text-entity-DIMDATE-99cb062b-c23e-5069-9732-c6449b5ecdb7-attr-7-name" class="er entityLabel">is_holiday</text><rect height="22" width="21.5625" y="156" x="116.0234375" class="er attributeBoxOdd"/><text style="dominant-baseline: middle; font-size: 10.2px;" transform="translate(121.0234375,167)" y="0" x="0" id="text-entity-DIMDATE-99cb062b-c23e-5069-9732-c6449b5ecdb7-attr-7-key" class="er entityLabel"/></g><rect height="14" width="58.1328125" y="215.40509033203125" x="170.19361877441406" class="er relationshipLabelBox"/><text style="text-anchor: middle; dominant-baseline: middle; font-size: 12px;" y="222.40509033203125" x="199.26002502441406" id="rel1" class="er relationshipLabel">product_id</text><rect height="14" width="66.125" y="262.1349182128906" x="288.92559814453125" class="er relationshipLabelBox"/><text style="text-anchor: middle; dominant-baseline: middle; font-size: 12px;" y="269.1349182128906" x="321.98809814453125" id="rel2" class="er relationshipLabel">customer_id</text><rect height="14" width="43.6640625" y="262.1349182128906" x="512.9298706054688" class="er relationshipLabelBox"/><text style="text-anchor: middle; dominant-baseline: middle; font-size: 12px;" y="269.1349182128906" x="534.7619018554688" id="rel3" class="er relationshipLabel">store_id</text><rect height="14" width="40.6953125" y="210.6479949951172" x="631.4259033203125" class="er relationshipLabelBox"/><text style="text-anchor: middle; dominant-baseline: middle; font-size: 12px;" y="217.6479949951172" x="651.7735595703125" id="rel4" class="er relationshipLabel">date_id</text></svg>