<svg aria-roledescription="flowchart-v2" role="graphics-document document" viewBox="-8 -8 543.7734375 478.453125" style="max-width: 543.773px; background-color: white;" xmlns:xlink="http://www.w3.org/1999/xlink" xmlns="http://www.w3.org/2000/svg" width="100%" id="my-svg"><style>#my-svg{font-family:"trebuchet ms",verdana,arial,sans-serif;font-size:16px;fill:#333;}#my-svg .error-icon{fill:#552222;}#my-svg .error-text{fill:#552222;stroke:#552222;}#my-svg .edge-thickness-normal{stroke-width:2px;}#my-svg .edge-thickness-thick{stroke-width:3.5px;}#my-svg .edge-pattern-solid{stroke-dasharray:0;}#my-svg .edge-pattern-dashed{stroke-dasharray:3;}#my-svg .edge-pattern-dotted{stroke-dasharray:2;}#my-svg .marker{fill:#333333;stroke:#333333;}#my-svg .marker.cross{stroke:#333333;}#my-svg svg{font-family:"trebuchet ms",verdana,arial,sans-serif;font-size:16px;}#my-svg .label{font-family:"trebuchet ms",verdana,arial,sans-serif;color:#333;}#my-svg .cluster-label text{fill:#333;}#my-svg .cluster-label span,#my-svg p{color:#333;}#my-svg .label text,#my-svg span,#my-svg p{fill:#333;color:#333;}#my-svg .node rect,#my-svg .node circle,#my-svg .node ellipse,#my-svg .node polygon,#my-svg .node path{fill:#ECECFF;stroke:#9370DB;stroke-width:1px;}#my-svg .flowchart-label text{text-anchor:middle;}#my-svg .node .katex path{fill:#000;stroke:#000;stroke-width:1px;}#my-svg .node .label{text-align:center;}#my-svg .node.clickable{cursor:pointer;}#my-svg .arrowheadPath{fill:#333333;}#my-svg .edgePath .path{stroke:#333333;stroke-width:2.0px;}#my-svg .flowchart-link{stroke:#333333;fill:none;}#my-svg .edgeLabel{background-color:#e8e8e8;text-align:center;}#my-svg .edgeLabel rect{opacity:0.5;background-color:#e8e8e8;fill:#e8e8e8;}#my-svg .labelBkg{background-color:rgba(232, 232, 232, 0.5);}#my-svg .cluster rect{fill:#ffffde;stroke:#aaaa33;stroke-width:1px;}#my-svg .cluster text{fill:#333;}#my-svg .cluster span,#my-svg p{color:#333;}#my-svg div.mermaidTooltip{position:absolute;text-align:center;max-width:200px;padding:2px;font-family:"trebuchet ms",verdana,arial,sans-serif;font-size:12px;background:hsl(80, 100%, 96.2745098039%);border:1px solid #aaaa33;border-radius:2px;pointer-events:none;z-index:100;}#my-svg .flowchartTitleText{text-anchor:middle;font-size:18px;fill:#333;}#my-svg :root{--mermaid-font-family:"trebuchet ms",verdana,arial,sans-serif;}</style><g><marker orient="auto" markerHeight="12" markerWidth="12" markerUnits="userSpaceOnUse" refY="5" refX="6" viewBox="0 0 10 10" class="marker flowchart" id="my-svg_flowchart-pointEnd"><path style="stroke-width: 1; stroke-dasharray: 1, 0;" class="arrowMarkerPath" d="M 0 0 L 10 5 L 0 10 z"/></marker><marker orient="auto" markerHeight="12" markerWidth="12" markerUnits="userSpaceOnUse" refY="5" refX="4.5" viewBox="0 0 10 10" class="marker flowchart" id="my-svg_flowchart-pointStart"><path style="stroke-width: 1; stroke-dasharray: 1, 0;" class="arrowMarkerPath" d="M 0 5 L 10 10 L 10 0 z"/></marker><marker orient="auto" markerHeight="11" markerWidth="11" markerUnits="userSpaceOnUse" refY="5" refX="11" viewBox="0 0 10 10" class="marker flowchart" id="my-svg_flowchart-circleEnd"><circle style="stroke-width: 1; stroke-dasharray: 1, 0;" class="arrowMarkerPath" r="5" cy="5" cx="5"/></marker><marker orient="auto" markerHeight="11" markerWidth="11" markerUnits="userSpaceOnUse" refY="5" refX="-1" viewBox="0 0 10 10" class="marker flowchart" id="my-svg_flowchart-circleStart"><circle style="stroke-width: 1; stroke-dasharray: 1, 0;" class="arrowMarkerPath" r="5" cy="5" cx="5"/></marker><marker orient="auto" markerHeight="11" markerWidth="11" markerUnits="userSpaceOnUse" refY="5.2" refX="12" viewBox="0 0 11 11" class="marker cross flowchart" id="my-svg_flowchart-crossEnd"><path style="stroke-width: 2; stroke-dasharray: 1, 0;" class="arrowMarkerPath" d="M 1,1 l 9,9 M 10,1 l -9,9"/></marker><marker orient="auto" markerHeight="11" markerWidth="11" markerUnits="userSpaceOnUse" refY="5.2" refX="-1" viewBox="0 0 11 11" class="marker cross flowchart" id="my-svg_flowchart-crossStart"><path style="stroke-width: 2; stroke-dasharray: 1, 0;" class="arrowMarkerPath" d="M 1,1 l 9,9 M 10,1 l -9,9"/></marker><g class="root"><g class="clusters"/><g class="edgePaths"><path marker-end="url(#my-svg_flowchart-pointEnd)" style="fill:none;" class="edge-thickness-normal edge-pattern-solid flowchart-link LS-C LE-N1" id="L-C-N1-0" d="M235.055,21.959L201.342,28.049C167.629,34.139,100.203,46.32,66.49,55.693C32.777,65.067,32.777,71.633,32.777,74.917L32.777,78.2"/><path marker-end="url(#my-svg_flowchart-pointEnd)" style="fill:none;" class="edge-thickness-normal edge-pattern-solid flowchart-link LS-C LE-N2" id="L-C-N2-0" d="M235.055,27.167L220.601,32.389C206.147,37.611,177.24,48.056,162.786,56.561C148.332,65.067,148.332,71.633,148.332,74.917L148.332,78.2"/><path marker-end="url(#my-svg_flowchart-pointEnd)" style="fill:none;" class="edge-thickness-normal edge-pattern-solid flowchart-link LS-C LE-N3" id="L-C-N3-0" d="M263.887,33.5L263.887,37.667C263.887,41.833,263.887,50.167,263.887,57.617C263.887,65.067,263.887,71.633,263.887,74.917L263.887,78.2"/><path marker-end="url(#my-svg_flowchart-pointEnd)" style="fill:none;" class="edge-thickness-normal edge-pattern-solid flowchart-link LS-C LE-N4" id="L-C-N4-0" d="M292.719,27.167L307.173,32.389C321.626,37.611,350.534,48.056,364.988,56.561C379.441,65.067,379.441,71.633,379.441,74.917L379.441,78.2"/><path marker-end="url(#my-svg_flowchart-pointEnd)" style="fill:none;" class="edge-thickness-normal edge-pattern-solid flowchart-link LS-C LE-N5" id="L-C-N5-0" d="M292.719,21.959L326.432,28.049C360.145,34.139,427.57,46.32,461.283,55.693C494.996,65.067,494.996,71.633,494.996,74.917L494.996,78.2"/><path marker-end="url(#my-svg_flowchart-pointEnd)" style="fill:none;" class="edge-thickness-normal edge-pattern-solid flowchart-link LS-N1 LE-Q" id="L-N1-Q-0" d="M32.777,117L32.777,121.167C32.777,125.333,32.777,133.667,60.038,152.23C87.299,170.794,141.822,199.588,169.083,213.984L196.344,228.381"/><path marker-end="url(#my-svg_flowchart-pointEnd)" style="fill:none;" class="edge-thickness-normal edge-pattern-solid flowchart-link LS-N2 LE-Q" id="L-N2-Q-0" d="M148.332,117L148.332,121.167C148.332,125.333,148.332,133.667,159.215,149.294C170.099,164.921,191.865,187.841,202.748,199.302L213.632,210.762"/><path marker-end="url(#my-svg_flowchart-pointEnd)" style="fill:none;" class="edge-thickness-normal edge-pattern-solid flowchart-link LS-N3 LE-Q" id="L-N3-Q-0" d="M263.887,117L263.887,121.167C263.887,125.333,263.887,133.667,263.953,141.2C264.019,148.734,264.151,155.467,264.217,158.834L264.283,162.201"/><path marker-end="url(#my-svg_flowchart-pointEnd)" style="fill:none;" class="edge-thickness-normal edge-pattern-solid flowchart-link LS-N4 LE-Q" id="L-N4-Q-0" d="M379.441,117L379.441,121.167C379.441,125.333,379.441,133.667,368.72,149.289C357.999,164.912,336.556,187.824,325.835,199.28L315.114,210.736"/><path marker-end="url(#my-svg_flowchart-pointEnd)" style="fill:none;" class="edge-thickness-normal edge-pattern-solid flowchart-link LS-N5 LE-Q" id="L-N5-Q-0" d="M494.996,117L494.996,121.167C494.996,125.333,494.996,133.667,467.901,152.228C440.805,170.79,386.614,199.58,359.519,213.975L332.424,228.37"/><path marker-end="url(#my-svg_flowchart-pointEnd)" style="fill:none;" class="edge-thickness-normal edge-pattern-solid flowchart-link LS-Q LE-OK" id="L-Q-OK-0" d="M220.983,317.55L210.365,330.409C199.747,343.267,178.511,368.985,167.893,386.669C157.275,404.353,157.275,414.003,157.275,418.828L157.275,423.653"/><path marker-end="url(#my-svg_flowchart-pointEnd)" style="fill:none;" class="edge-thickness-normal edge-pattern-solid flowchart-link LS-Q LE-ROLL" id="L-Q-ROLL-0" d="M307.79,317.55L318.242,330.409C328.693,343.267,349.595,368.985,360.047,386.669C370.498,404.353,370.498,414.003,370.498,418.828L370.498,423.653"/></g><g class="edgeLabels"><g class="edgeLabel"><g transform="translate(0, 0)" class="label"><foreignObject height="0" width="0"><div style="display: inline-block; white-space: nowrap;" xmlns="http://www.w3.org/1999/xhtml"><span class="edgeLabel"></span></div></foreignObject></g></g><g class="edgeLabel"><g transform="translate(0, 0)" class="label"><foreignObject height="0" width="0"><div style="display: inline-block; white-space: nowrap;" xmlns="http://www.w3.org/1999/xhtml"><span class="edgeLabel"></span></div></foreignObject></g></g><g class="edgeLabel"><g transform="translate(0, 0)" class="label"><foreignObject height="0" width="0"><div style="display: inline-block; white-space: nowrap;" xmlns="http://www.w3.org/1999/xhtml"><span class="edgeLabel"></span></div></foreignObject></g></g><g class="edgeLabel"><g transform="translate(0, 0)" class="label"><foreignObject height="0" width="0"><div style="display: inline-block; white-space: nowrap;" xmlns="http://www.w3.org/1999/xhtml"><span class="edgeLabel"></span></div></foreignObject></g></g><g class="edgeLabel"><g transform="translate(0, 0)" class="label"><foreignObject height="0" width="0"><div style="display: inline-block; white-space: nowrap;" xmlns="http://www.w3.org/1999/xhtml"><span class="edgeLabel"></span></div></foreignObject></g></g><g class="edgeLabel"><g transform="translate(0, 0)" class="label"><foreignObject height="0" width="0"><div style="display: inline-block; white-space: nowrap;" xmlns="http://www.w3.org/1999/xhtml"><span class="edgeLabel"></span></div></foreignObject></g></g><g class="edgeLabel"><g transform="translate(0, 0)" class="label"><foreignObject height="0" width="0"><div style="display: inline-block; white-space: nowrap;" xmlns="http://www.w3.org/1999/xhtml"><span class="edgeLabel"></span></div></foreignObject></g></g><g class="edgeLabel"><g transform="translate(0, 0)" class="label"><foreignObject height="0" width="0"><div style="display: inline-block; white-space: nowrap;" xmlns="http://www.w3.org/1999/xhtml"><span class="edgeLabel"></span></div></foreignObject></g></g><g class="edgeLabel"><g transform="translate(0, 0)" class="label"><foreignObject height="0" width="0"><div style="display: inline-block; white-space: nowrap;" xmlns="http://www.w3.org/1999/xhtml"><span class="edgeLabel"></span></div></foreignObject></g></g><g class="edgeLabel"><g transform="translate(0, 0)" class="label"><foreignObject height="0" width="0"><div style="display: inline-block; white-space: nowrap;" xmlns="http://www.w3.org/1999/xhtml"><span class="edgeLabel"></span></div></foreignObject></g></g><g transform="translate(157.275390625, 394.703125)" class="edgeLabel"><g transform="translate(-11.546875, -9.25)" class="label"><foreignObject height="18.5" width="23.09375"><div style="display: inline-block; white-space: nowrap;" xmlns="http://www.w3.org/1999/xhtml"><span class="edgeLabel">yes</span></div></foreignObject></g></g><g transform="translate(370.498046875, 394.703125)" class="edgeLabel"><g transform="translate(-8.6640625, -9.25)" class="label"><foreignObject height="18.5" width="17.328125"><div style="display: inline-block; white-space: nowrap;" xmlns="http://www.w3.org/1999/xhtml"><span class="edgeLabel">no</span></div></foreignObject></g></g></g><g class="nodes"><g transform="translate(263.88671875, 16.75)" data-id="C" data-node="true" id="flowchart-C-0" class="node default default flowchart-label"><rect height="33.5" width="57.6640625" y="-16.75" x="-28.83203125" ry="0" rx="0" style="" class="basic label-container"/><g transform="translate(-21.33203125, -9.25)" style="" class="label"><rect/><foreignObject height="18.5" width="42.6640625"><div style="display: inline-block; white-space: nowrap;" xmlns="http://www.w3.org/1999/xhtml"><span class="nodeLabel">Client</span></div></foreignObject></g></g><g transform="translate(32.77734375, 100.25)" data-id="N1" data-node="true" id="flowchart-N1-1" class="node default default flowchart-label"><rect height="33.5" width="65.5546875" y="-16.75" x="-32.77734375" ry="0" rx="0" style="" class="basic label-container"/><g transform="translate(-25.27734375, -9.25)" style="" class="label"><rect/><foreignObject height="18.5" width="50.5546875"><div style="display: inline-block; white-space: nowrap;" xmlns="http://www.w3.org/1999/xhtml"><span class="nodeLabel">Redis 1</span></div></foreignObject></g></g><g transform="translate(148.33203125, 100.25)" data-id="N2" data-node="true" id="flowchart-N2-3" class="node default default flowchart-label"><rect height="33.5" width="65.5546875" y="-16.75" x="-32.77734375" ry="0" rx="0" style="" class="basic label-container"/><g transform="translate(-25.27734375, -9.25)" style="" class="label"><rect/><foreignObject height="18.5" width="50.5546875"><div style="display: inline-block; white-space: nowrap;" xmlns="http://www.w3.org/1999/xhtml"><span class="nodeLabel">Redis 2</span></div></foreignObject></g></g><g transform="translate(263.88671875, 100.25)" data-id="N3" data-node="true" id="flowchart-N3-5" class="node default default flowchart-label"><rect height="33.5" width="65.5546875" y="-16.75" x="-32.77734375" ry="0" rx="0" style="" class="basic label-container"/><g transform="translate(-25.27734375, -9.25)" style="" class="label"><rect/><foreignObject height="18.5" width="50.5546875"><div style="display: inline-block; white-space: nowrap;" xmlns="http://www.w3.org/1999/xhtml"><span class="nodeLabel">Redis 3</span></div></foreignObject></g></g><g transform="translate(379.44140625, 100.25)" data-id="N4" data-node="true" id="flowchart-N4-7" class="node default default flowchart-label"><rect height="33.5" width="65.5546875" y="-16.75" x="-32.77734375" ry="0" rx="0" style="" class="basic label-container"/><g transform="translate(-25.27734375, -9.25)" style="" class="label"><rect/><foreignObject height="18.5" width="50.5546875"><div style="display: inline-block; white-space: nowrap;" xmlns="http://www.w3.org/1999/xhtml"><span class="nodeLabel">Redis 4</span></div></foreignObject></g></g><g transform="translate(494.99609375, 100.25)" data-id="N5" data-node="true" id="flowchart-N5-9" class="node default default flowchart-label"><rect height="33.5" width="65.5546875" y="-16.75" x="-32.77734375" ry="0" rx="0" style="" class="basic label-container"/><g transform="translate(-25.27734375, -9.25)" style="" class="label"><rect/><foreignObject height="18.5" width="50.5546875"><div style="display: inline-block; white-space: nowrap;" xmlns="http://www.w3.org/1999/xhtml"><span class="nodeLabel">Redis 5</span></div></foreignObject></g></g><g transform="translate(263.88671875, 263.7265625)" data-id="Q" data-node="true" id="flowchart-Q-11" class="node default default flowchart-label"><polygon style="" transform="translate(-96.7265625,96.7265625)" class="label-container" points="96.7265625,0 193.453125,-96.7265625 96.7265625,-193.453125 0,-96.7265625"/><g transform="translate(-63.2265625, -18.5)" style="" class="label"><rect/><foreignObject height="37" width="126.453125"><div style="display: inline-block; white-space: nowrap;" xmlns="http://www.w3.org/1999/xhtml"><span class="nodeLabel">Majority acquired<br />in time window?</span></div></foreignObject></g></g><g transform="translate(157.275390625, 445.703125)" data-id="OK" data-node="true" id="flowchart-OK-21" class="node default default flowchart-label"><rect height="33.5" width="166.2109375" y="-16.75" x="-83.10546875" ry="0" rx="0" style="" class="basic label-container"/><g transform="translate(-75.60546875, -9.25)" style="" class="label"><rect/><foreignObject height="18.5" width="151.2109375"><div style="display: inline-block; white-space: nowrap;" xmlns="http://www.w3.org/1999/xhtml"><span class="nodeLabel">Lock considered held</span></div></foreignObject></g></g><g transform="translate(370.498046875, 445.703125)" data-id="ROLL" data-node="true" id="flowchart-ROLL-23" class="node default default flowchart-label"><rect height="33.5" width="160.234375" y="-16.75" x="-80.1171875" ry="0" rx="0" style="" class="basic label-container"/><g transform="translate(-72.6171875, -9.25)" style="" class="label"><rect/><foreignObject height="18.5" width="145.234375"><div style="display: inline-block; white-space: nowrap;" xmlns="http://www.w3.org/1999/xhtml"><span class="nodeLabel">Rollback partial sets</span></div></foreignObject></g></g></g></g></g></svg>