<svg aria-roledescription="flowchart-v2" role="graphics-document document" viewBox="-8 -8 905.609375 326.5" style="max-width: 905.609px; background-color: white;" xmlns:xlink="http://www.w3.org/1999/xlink" xmlns="http://www.w3.org/2000/svg" width="100%" id="my-svg"><style>#my-svg{font-family:"trebuchet ms",verdana,arial,sans-serif;font-size:16px;fill:#333;}#my-svg .error-icon{fill:#552222;}#my-svg .error-text{fill:#552222;stroke:#552222;}#my-svg .edge-thickness-normal{stroke-width:2px;}#my-svg .edge-thickness-thick{stroke-width:3.5px;}#my-svg .edge-pattern-solid{stroke-dasharray:0;}#my-svg .edge-pattern-dashed{stroke-dasharray:3;}#my-svg .edge-pattern-dotted{stroke-dasharray:2;}#my-svg .marker{fill:#333333;stroke:#333333;}#my-svg .marker.cross{stroke:#333333;}#my-svg svg{font-family:"trebuchet ms",verdana,arial,sans-serif;font-size:16px;}#my-svg .label{font-family:"trebuchet ms",verdana,arial,sans-serif;color:#333;}#my-svg .cluster-label text{fill:#333;}#my-svg .cluster-label span,#my-svg p{color:#333;}#my-svg .label text,#my-svg span,#my-svg p{fill:#333;color:#333;}#my-svg .node rect,#my-svg .node circle,#my-svg .node ellipse,#my-svg .node polygon,#my-svg .node path{fill:#ECECFF;stroke:#9370DB;stroke-width:1px;}#my-svg .flowchart-label text{text-anchor:middle;}#my-svg .node .katex path{fill:#000;stroke:#000;stroke-width:1px;}#my-svg .node .label{text-align:center;}#my-svg .node.clickable{cursor:pointer;}#my-svg .arrowheadPath{fill:#333333;}#my-svg .edgePath .path{stroke:#333333;stroke-width:2.0px;}#my-svg .flowchart-link{stroke:#333333;fill:none;}#my-svg .edgeLabel{background-color:#e8e8e8;text-align:center;}#my-svg .edgeLabel rect{opacity:0.5;background-color:#e8e8e8;fill:#e8e8e8;}#my-svg .labelBkg{background-color:rgba(232, 232, 232, 0.5);}#my-svg .cluster rect{fill:#ffffde;stroke:#aaaa33;stroke-width:1px;}#my-svg .cluster text{fill:#333;}#my-svg .cluster span,#my-svg p{color:#333;}#my-svg div.mermaidTooltip{position:absolute;text-align:center;max-width:200px;padding:2px;font-family:"trebuchet ms",verdana,arial,sans-serif;font-size:12px;background:hsl(80, 100%, 96.2745098039%);border:1px solid #aaaa33;border-radius:2px;pointer-events:none;z-index:100;}#my-svg .flowchartTitleText{text-anchor:middle;font-size:18px;fill:#333;}#my-svg :root{--mermaid-font-family:"trebuchet ms",verdana,arial,sans-serif;}</style><g><marker orient="auto" markerHeight="12" markerWidth="12" markerUnits="userSpaceOnUse" refY="5" refX="6" viewBox="0 0 10 10" class="marker flowchart" id="my-svg_flowchart-pointEnd"><path style="stroke-width: 1; stroke-dasharray: 1, 0;" class="arrowMarkerPath" d="M 0 0 L 10 5 L 0 10 z"/></marker><marker orient="auto" markerHeight="12" markerWidth="12" markerUnits="userSpaceOnUse" refY="5" refX="4.5" viewBox="0 0 10 10" class="marker flowchart" id="my-svg_flowchart-pointStart"><path style="stroke-width: 1; stroke-dasharray: 1, 0;" class="arrowMarkerPath" d="M 0 5 L 10 10 L 10 0 z"/></marker><marker orient="auto" markerHeight="11" markerWidth="11" markerUnits="userSpaceOnUse" refY="5" refX="11" viewBox="0 0 10 10" class="marker flowchart" id="my-svg_flowchart-circleEnd"><circle style="stroke-width: 1; stroke-dasharray: 1, 0;" class="arrowMarkerPath" r="5" cy="5" cx="5"/></marker><marker orient="auto" markerHeight="11" markerWidth="11" markerUnits="userSpaceOnUse" refY="5" refX="-1" viewBox="0 0 10 10" class="marker flowchart" id="my-svg_flowchart-circleStart"><circle style="stroke-width: 1; stroke-dasharray: 1, 0;" class="arrowMarkerPath" r="5" cy="5" cx="5"/></marker><marker orient="auto" markerHeight="11" markerWidth="11" markerUnits="userSpaceOnUse" refY="5.2" refX="12" viewBox="0 0 11 11" class="marker cross flowchart" id="my-svg_flowchart-crossEnd"><path style="stroke-width: 2; stroke-dasharray: 1, 0;" class="arrowMarkerPath" d="M 1,1 l 9,9 M 10,1 l -9,9"/></marker><marker orient="auto" markerHeight="11" markerWidth="11" markerUnits="userSpaceOnUse" refY="5.2" refX="-1" viewBox="0 0 11 11" class="marker cross flowchart" id="my-svg_flowchart-crossStart"><path style="stroke-width: 2; stroke-dasharray: 1, 0;" class="arrowMarkerPath" d="M 1,1 l 9,9 M 10,1 l -9,9"/></marker><g class="root"><g class="clusters"><g id="subGraph1" class="cluster default flowchart-label"><rect height="103.5" width="531.1015625" y="207" x="102.1953125" ry="0" rx="0" style=""/><g transform="translate(346.08203125, 207)" class="cluster-label"><foreignObject height="18.5" width="43.328125"><div style="display: inline-block; white-space: nowrap;" xmlns="http://www.w3.org/1999/xhtml"><span class="nodeLabel">GPU 1</span></div></foreignObject></g></g><g id="subGraph0" class="cluster default flowchart-label"><rect height="103.5" width="531.1015625" y="0" x="102.1953125" ry="0" rx="0" style=""/><g transform="translate(346.08203125, 0)" class="cluster-label"><foreignObject height="18.5" width="43.328125"><div style="display: inline-block; white-space: nowrap;" xmlns="http://www.w3.org/1999/xhtml"><span class="nodeLabel">GPU 0</span></div></foreignObject></g></g></g><g class="edgePaths"><path marker-end="url(#my-svg_flowchart-pointEnd)" style="fill:none;" class="edge-thickness-normal edge-pattern-solid flowchart-link LS-INPUT LE-ATT_0" id="L-INPUT-ATT_0-0" d="M34.367,138.5L41.505,124.042C48.643,109.583,62.919,80.667,74.224,66.208C85.529,51.75,93.862,51.75,102.011,51.75C110.16,51.75,118.126,51.75,122.108,51.75L126.091,51.75"/><path marker-end="url(#my-svg_flowchart-pointEnd)" style="fill:none;" class="edge-thickness-normal edge-pattern-solid flowchart-link LS-INPUT LE-ATT_1" id="L-INPUT-ATT_1-0" d="M34.367,172L41.505,186.458C48.643,200.917,62.919,229.833,74.224,244.292C85.529,258.75,93.862,258.75,101.312,258.75C108.762,258.75,115.329,258.75,118.612,258.75L121.895,258.75"/><path marker-end="url(#my-svg_flowchart-pointEnd)" style="fill:none;" class="edge-thickness-normal edge-pattern-solid flowchart-link LS-ATT_0 LE-AR1" id="L-ATT_0-AR1-0" d="M297.898,51.75L302.764,51.75C307.63,51.75,317.362,51.75,331.609,65.479C345.856,79.208,364.618,106.666,374,120.395L383.381,134.124"/><path marker-end="url(#my-svg_flowchart-pointEnd)" style="fill:none;" class="edge-thickness-normal edge-pattern-solid flowchart-link LS-ATT_1 LE-AR1" id="L-ATT_1-AR1-0" d="M302.094,258.75L306.26,258.75C310.427,258.75,318.76,258.75,332.308,245.021C345.856,231.292,364.618,203.834,374,190.105L383.381,176.376"/><path marker-end="url(#my-svg_flowchart-pointEnd)" style="fill:none;" class="edge-thickness-normal edge-pattern-solid flowchart-link LS-AR1 LE-MLP_0" id="L-AR1-MLP_0-0" d="M409.262,138.5L419.141,124.042C429.021,109.583,448.78,80.667,461.943,66.208C475.106,51.75,481.672,51.75,484.956,51.75L488.239,51.75"/><path marker-end="url(#my-svg_flowchart-pointEnd)" style="fill:none;" class="edge-thickness-normal edge-pattern-solid flowchart-link LS-AR1 LE-MLP_1" id="L-AR1-MLP_1-0" d="M409.262,172L419.141,186.458C429.021,200.917,448.78,229.833,461.943,244.292C475.106,258.75,481.672,258.75,484.956,258.75L488.239,258.75"/><path marker-end="url(#my-svg_flowchart-pointEnd)" style="fill:none;" class="edge-thickness-normal edge-pattern-solid flowchart-link LS-MLP_0 LE-AR2" id="L-MLP_0-AR2-0" d="M608.297,51.75L612.464,51.75C616.63,51.75,624.964,51.75,633.297,51.75C641.63,51.75,649.964,51.75,663.511,65.479C677.059,79.208,695.822,106.666,705.203,120.395L714.584,134.124"/><path marker-end="url(#my-svg_flowchart-pointEnd)" style="fill:none;" class="edge-thickness-normal edge-pattern-solid flowchart-link LS-MLP_1 LE-AR2" id="L-MLP_1-AR2-0" d="M608.297,258.75L612.464,258.75C616.63,258.75,624.964,258.75,633.297,258.75C641.63,258.75,649.964,258.75,663.511,245.021C677.059,231.292,695.822,203.834,705.203,190.105L714.584,176.376"/><path marker-end="url(#my-svg_flowchart-pointEnd)" style="fill:none;" class="edge-thickness-normal edge-pattern-solid flowchart-link LS-AR2 LE-OUTPUT" id="L-AR2-OUTPUT-0" d="M774.742,155.25L778.909,155.25C783.076,155.25,791.409,155.25,798.859,155.25C806.309,155.25,812.876,155.25,816.159,155.25L819.442,155.25"/></g><g class="edgeLabels"><g class="edgeLabel"><g transform="translate(0, 0)" class="label"><foreignObject height="0" width="0"><div style="display: inline-block; white-space: nowrap;" xmlns="http://www.w3.org/1999/xhtml"><span class="edgeLabel"></span></div></foreignObject></g></g><g class="edgeLabel"><g transform="translate(0, 0)" class="label"><foreignObject height="0" width="0"><div style="display: inline-block; white-space: nowrap;" xmlns="http://www.w3.org/1999/xhtml"><span class="edgeLabel"></span></div></foreignObject></g></g><g class="edgeLabel"><g transform="translate(0, 0)" class="label"><foreignObject height="0" width="0"><div style="display: inline-block; white-space: nowrap;" xmlns="http://www.w3.org/1999/xhtml"><span class="edgeLabel"></span></div></foreignObject></g></g><g class="edgeLabel"><g transform="translate(0, 0)" class="label"><foreignObject height="0" width="0"><div style="display: inline-block; white-space: nowrap;" xmlns="http://www.w3.org/1999/xhtml"><span class="edgeLabel"></span></div></foreignObject></g></g><g class="edgeLabel"><g transform="translate(0, 0)" class="label"><foreignObject height="0" width="0"><div style="display: inline-block; white-space: nowrap;" xmlns="http://www.w3.org/1999/xhtml"><span class="edgeLabel"></span></div></foreignObject></g></g><g class="edgeLabel"><g transform="translate(0, 0)" class="label"><foreignObject height="0" width="0"><div style="display: inline-block; white-space: nowrap;" xmlns="http://www.w3.org/1999/xhtml"><span class="edgeLabel"></span></div></foreignObject></g></g><g class="edgeLabel"><g transform="translate(0, 0)" class="label"><foreignObject height="0" width="0"><div style="display: inline-block; white-space: nowrap;" xmlns="http://www.w3.org/1999/xhtml"><span class="edgeLabel"></span></div></foreignObject></g></g><g class="edgeLabel"><g transform="translate(0, 0)" class="label"><foreignObject height="0" width="0"><div style="display: inline-block; white-space: nowrap;" xmlns="http://www.w3.org/1999/xhtml"><span class="edgeLabel"></span></div></foreignObject></g></g><g class="edgeLabel"><g transform="translate(0, 0)" class="label"><foreignObject height="0" width="0"><div style="display: inline-block; white-space: nowrap;" xmlns="http://www.w3.org/1999/xhtml"><span class="edgeLabel"></span></div></foreignObject></g></g></g><g class="nodes"><g transform="translate(214.64453125, 258.75)" data-id="ATT_1" data-node="true" id="flowchart-ATT_1-2" class="node default default flowchart-label"><rect height="33.5" width="174.8984375" y="-16.75" x="-87.44921875" ry="0" rx="0" style="" class="basic label-container"/><g transform="translate(-79.94921875, -9.25)" style="" class="label"><rect/><foreignObject height="18.5" width="159.8984375"><div style="display: inline-block; white-space: nowrap;" xmlns="http://www.w3.org/1999/xhtml"><span class="nodeLabel">Attention Heads 16-31</span></div></foreignObject></g></g><g transform="translate(550.91796875, 258.75)" data-id="MLP_1" data-node="true" id="flowchart-MLP_1-3" class="node default default flowchart-label"><rect height="33.5" width="114.7578125" y="-16.75" x="-57.37890625" ry="0" rx="0" style="" class="basic label-container"/><g transform="translate(-49.87890625, -9.25)" style="" class="label"><rect/><foreignObject height="18.5" width="99.7578125"><div style="display: inline-block; white-space: nowrap;" xmlns="http://www.w3.org/1999/xhtml"><span class="nodeLabel">MLP Column 1</span></div></foreignObject></g></g><g transform="translate(214.64453125, 51.75)" data-id="ATT_0" data-node="true" id="flowchart-ATT_0-0" class="node default default flowchart-label"><rect height="33.5" width="166.5078125" y="-16.75" x="-83.25390625" ry="0" rx="0" style="" class="basic label-container"/><g transform="translate(-75.75390625, -9.25)" style="" class="label"><rect/><foreignObject height="18.5" width="151.5078125"><div style="display: inline-block; white-space: nowrap;" xmlns="http://www.w3.org/1999/xhtml"><span class="nodeLabel">Attention Heads 0-15</span></div></foreignObject></g></g><g transform="translate(550.91796875, 51.75)" data-id="MLP_0" data-node="true" id="flowchart-MLP_0-1" class="node default default flowchart-label"><rect height="33.5" width="114.7578125" y="-16.75" x="-57.37890625" ry="0" rx="0" style="" class="basic label-container"/><g transform="translate(-49.87890625, -9.25)" style="" class="label"><rect/><foreignObject height="18.5" width="99.7578125"><div style="display: inline-block; white-space: nowrap;" xmlns="http://www.w3.org/1999/xhtml"><span class="nodeLabel">MLP Column 0</span></div></foreignObject></g></g><g transform="translate(26.09765625, 155.25)" data-id="INPUT" data-node="true" id="flowchart-INPUT-4" class="node default default flowchart-label"><rect height="33.5" width="52.1953125" y="-16.75" x="-26.09765625" ry="0" rx="0" style="" class="basic label-container"/><g transform="translate(-18.59765625, -9.25)" style="" class="label"><rect/><foreignObject height="18.5" width="37.1953125"><div style="display: inline-block; white-space: nowrap;" xmlns="http://www.w3.org/1999/xhtml"><span class="nodeLabel">Input</span></div></foreignObject></g></g><g transform="translate(397.81640625, 155.25)" data-id="AR1" data-node="true" id="flowchart-AR1-9" class="node default default flowchart-label"><rect height="33.5" width="91.4453125" y="-16.75" x="-45.72265625" ry="0" rx="0" style="" class="basic label-container"/><g transform="translate(-38.22265625, -9.25)" style="" class="label"><rect/><foreignObject height="18.5" width="76.4453125"><div style="display: inline-block; white-space: nowrap;" xmlns="http://www.w3.org/1999/xhtml"><span class="nodeLabel">All-Reduce</span></div></foreignObject></g></g><g transform="translate(729.01953125, 155.25)" data-id="AR2" data-node="true" id="flowchart-AR2-17" class="node default default flowchart-label"><rect height="33.5" width="91.4453125" y="-16.75" x="-45.72265625" ry="0" rx="0" style="" class="basic label-container"/><g transform="translate(-38.22265625, -9.25)" style="" class="label"><rect/><foreignObject height="18.5" width="76.4453125"><div style="display: inline-block; white-space: nowrap;" xmlns="http://www.w3.org/1999/xhtml"><span class="nodeLabel">All-Reduce</span></div></foreignObject></g></g><g transform="translate(857.17578125, 155.25)" data-id="OUTPUT" data-node="true" id="flowchart-OUTPUT-21" class="node default default flowchart-label"><rect height="33.5" width="64.8671875" y="-16.75" x="-32.43359375" ry="0" rx="0" style="" class="basic label-container"/><g transform="translate(-24.93359375, -9.25)" style="" class="label"><rect/><foreignObject height="18.5" width="49.8671875"><div style="display: inline-block; white-space: nowrap;" xmlns="http://www.w3.org/1999/xhtml"><span class="nodeLabel">Output</span></div></foreignObject></g></g></g></g></g></svg>