<svg aria-roledescription="flowchart-v2" role="graphics-document document" viewBox="-8 -8 576.5078125 735.1611328125" style="max-width: 576.508px; background-color: white;" xmlns:xlink="http://www.w3.org/1999/xlink" xmlns="http://www.w3.org/2000/svg" width="100%" id="my-svg"><style>#my-svg{font-family:"trebuchet ms",verdana,arial,sans-serif;font-size:16px;fill:#333;}#my-svg .error-icon{fill:#552222;}#my-svg .error-text{fill:#552222;stroke:#552222;}#my-svg .edge-thickness-normal{stroke-width:2px;}#my-svg .edge-thickness-thick{stroke-width:3.5px;}#my-svg .edge-pattern-solid{stroke-dasharray:0;}#my-svg .edge-pattern-dashed{stroke-dasharray:3;}#my-svg .edge-pattern-dotted{stroke-dasharray:2;}#my-svg .marker{fill:#333333;stroke:#333333;}#my-svg .marker.cross{stroke:#333333;}#my-svg svg{font-family:"trebuchet ms",verdana,arial,sans-serif;font-size:16px;}#my-svg .label{font-family:"trebuchet ms",verdana,arial,sans-serif;color:#333;}#my-svg .cluster-label text{fill:#333;}#my-svg .cluster-label span,#my-svg p{color:#333;}#my-svg .label text,#my-svg span,#my-svg p{fill:#333;color:#333;}#my-svg .node rect,#my-svg .node circle,#my-svg .node ellipse,#my-svg .node polygon,#my-svg .node path{fill:#ECECFF;stroke:#9370DB;stroke-width:1px;}#my-svg .flowchart-label text{text-anchor:middle;}#my-svg .node .katex path{fill:#000;stroke:#000;stroke-width:1px;}#my-svg .node .label{text-align:center;}#my-svg .node.clickable{cursor:pointer;}#my-svg .arrowheadPath{fill:#333333;}#my-svg .edgePath .path{stroke:#333333;stroke-width:2.0px;}#my-svg .flowchart-link{stroke:#333333;fill:none;}#my-svg .edgeLabel{background-color:#e8e8e8;text-align:center;}#my-svg .edgeLabel rect{opacity:0.5;background-color:#e8e8e8;fill:#e8e8e8;}#my-svg .labelBkg{background-color:rgba(232, 232, 232, 0.5);}#my-svg .cluster rect{fill:#ffffde;stroke:#aaaa33;stroke-width:1px;}#my-svg .cluster text{fill:#333;}#my-svg .cluster span,#my-svg p{color:#333;}#my-svg div.mermaidTooltip{position:absolute;text-align:center;max-width:200px;padding:2px;font-family:"trebuchet ms",verdana,arial,sans-serif;font-size:12px;background:hsl(80, 100%, 96.2745098039%);border:1px solid #aaaa33;border-radius:2px;pointer-events:none;z-index:100;}#my-svg .flowchartTitleText{text-anchor:middle;font-size:18px;fill:#333;}#my-svg :root{--mermaid-font-family:"trebuchet ms",verdana,arial,sans-serif;}</style><g><marker orient="auto" markerHeight="12" markerWidth="12" markerUnits="userSpaceOnUse" refY="5" refX="6" viewBox="0 0 10 10" class="marker flowchart" id="my-svg_flowchart-pointEnd"><path style="stroke-width: 1; stroke-dasharray: 1, 0;" class="arrowMarkerPath" d="M 0 0 L 10 5 L 0 10 z"/></marker><marker orient="auto" markerHeight="12" markerWidth="12" markerUnits="userSpaceOnUse" refY="5" refX="4.5" viewBox="0 0 10 10" class="marker flowchart" id="my-svg_flowchart-pointStart"><path style="stroke-width: 1; stroke-dasharray: 1, 0;" class="arrowMarkerPath" d="M 0 5 L 10 10 L 10 0 z"/></marker><marker orient="auto" markerHeight="11" markerWidth="11" markerUnits="userSpaceOnUse" refY="5" refX="11" viewBox="0 0 10 10" class="marker flowchart" id="my-svg_flowchart-circleEnd"><circle style="stroke-width: 1; stroke-dasharray: 1, 0;" class="arrowMarkerPath" r="5" cy="5" cx="5"/></marker><marker orient="auto" markerHeight="11" markerWidth="11" markerUnits="userSpaceOnUse" refY="5" refX="-1" viewBox="0 0 10 10" class="marker flowchart" id="my-svg_flowchart-circleStart"><circle style="stroke-width: 1; stroke-dasharray: 1, 0;" class="arrowMarkerPath" r="5" cy="5" cx="5"/></marker><marker orient="auto" markerHeight="11" markerWidth="11" markerUnits="userSpaceOnUse" refY="5.2" refX="12" viewBox="0 0 11 11" class="marker cross flowchart" id="my-svg_flowchart-crossEnd"><path style="stroke-width: 2; stroke-dasharray: 1, 0;" class="arrowMarkerPath" d="M 1,1 l 9,9 M 10,1 l -9,9"/></marker><marker orient="auto" markerHeight="11" markerWidth="11" markerUnits="userSpaceOnUse" refY="5.2" refX="-1" viewBox="0 0 11 11" class="marker cross flowchart" id="my-svg_flowchart-crossStart"><path style="stroke-width: 2; stroke-dasharray: 1, 0;" class="arrowMarkerPath" d="M 1,1 l 9,9 M 10,1 l -9,9"/></marker><g class="root"><g class="clusters"/><g class="edgePaths"><path marker-end="url(#my-svg_flowchart-pointEnd)" style="fill:none;" class="edge-thickness-normal edge-pattern-solid flowchart-link LS-Users LE-Logs" id="L-Users-Logs-0" d="M358.787,33.5L365.39,37.667C371.993,41.833,385.2,50.167,391.803,57.617C398.406,65.067,398.406,71.633,398.406,74.917L398.406,78.2"/><path marker-end="url(#my-svg_flowchart-pointEnd)" style="fill:none;" class="edge-thickness-normal edge-pattern-solid flowchart-link LS-Logs LE-Filter" id="L-Logs-Filter-0" d="M398.406,135.5L398.406,139.667C398.406,143.833,398.406,152.167,398.406,159.617C398.406,167.067,398.406,173.633,398.406,176.917L398.406,180.2"/><path marker-end="url(#my-svg_flowchart-pointEnd)" style="fill:none;" class="edge-thickness-normal edge-pattern-solid flowchart-link LS-Filter LE-Store" id="L-Filter-Store-0" d="M398.406,219L398.406,223.167C398.406,227.333,398.406,235.667,398.406,243.117C398.406,250.567,398.406,257.133,398.406,260.417L398.406,263.7"/><path marker-end="url(#my-svg_flowchart-pointEnd)" style="fill:none;" class="edge-thickness-normal edge-pattern-solid flowchart-link LS-Store LE-Train" id="L-Store-Train-0" d="M342.679,345.419L336.813,350.042C330.946,354.666,319.213,363.914,313.347,371.821C307.48,379.728,307.48,386.294,307.48,389.578L307.48,392.861"/><path marker-end="url(#my-svg_flowchart-pointEnd)" style="fill:none;" class="edge-thickness-normal edge-pattern-solid flowchart-link LS-Train LE-Canary" id="L-Train-Canary-0" d="M307.48,450.161L307.48,454.328C307.48,458.494,307.48,466.828,307.48,474.278C307.48,481.728,307.48,488.294,307.48,491.578L307.48,494.861"/><path marker-end="url(#my-svg_flowchart-pointEnd)" style="fill:none;" class="edge-thickness-normal edge-pattern-solid flowchart-link LS-Canary LE-Metrics" id="L-Canary-Metrics-0" d="M307.48,533.661L307.48,537.828C307.48,541.994,307.48,550.328,307.48,557.778C307.48,565.228,307.48,571.794,307.48,575.078L307.48,578.361"/><path marker-end="url(#my-svg_flowchart-pointEnd)" style="fill:none;" class="edge-thickness-normal edge-pattern-solid flowchart-link LS-Metrics LE-Prod" id="L-Metrics-Prod-0" d="M233.043,617.161L207.675,622.869C182.306,628.578,131.57,639.994,107.881,650.576C84.191,661.157,87.549,670.904,89.227,675.777L90.906,680.65"/><path marker-end="url(#my-svg_flowchart-pointEnd)" style="fill:none;" class="edge-thickness-normal edge-pattern-solid flowchart-link LS-Metrics LE-Rollback" id="L-Metrics-Rollback-0" d="M307.48,617.161L307.48,622.869C307.48,628.578,307.48,639.994,307.48,650.528C307.48,661.061,307.48,670.711,307.48,675.536L307.48,680.361"/><path marker-end="url(#my-svg_flowchart-pointEnd)" style="fill:none;" class="edge-thickness-normal edge-pattern-solid flowchart-link LS-Prod LE-Users" id="L-Prod-Users-0" d="M111.006,685.661L115.301,679.953C119.596,674.244,128.187,662.828,132.482,648.619C136.777,634.411,136.777,617.411,136.777,601.953C136.777,586.494,136.777,572.578,136.777,558.661C136.777,544.744,136.777,530.828,136.777,516.911C136.777,502.994,136.777,489.078,136.777,473.619C136.777,458.161,136.777,441.161,136.777,424.161C136.777,407.161,136.777,390.161,136.777,370.898C136.777,351.634,136.777,330.107,136.777,308.581C136.777,287.054,136.777,265.527,136.777,247.805C136.777,230.083,136.777,216.167,136.777,202.25C136.777,188.333,136.777,174.417,136.777,158.958C136.777,143.5,136.777,126.5,136.777,109.5C136.777,92.5,136.777,75.5,159.811,62.08C182.844,48.66,228.91,38.821,251.944,33.901L274.977,28.981"/><path marker-end="url(#my-svg_flowchart-pointEnd)" style="fill:none;" class="edge-thickness-normal edge-pattern-solid flowchart-link LS-Metrics LE-RedTeam" id="L-Metrics-RedTeam-0" d="M342.566,617.161L354.522,622.869C366.479,628.578,390.393,639.994,410.017,650.915C429.64,661.835,444.974,672.258,452.641,677.47L460.308,682.682"/><path marker-end="url(#my-svg_flowchart-pointEnd)" style="fill:none;" class="edge-thickness-normal edge-pattern-solid flowchart-link LS-RedTeam LE-Store" id="L-RedTeam-Store-0" d="M492.616,685.661L493.736,679.953C494.855,674.244,497.093,662.828,498.213,648.619C499.332,634.411,499.332,617.411,499.332,601.953C499.332,586.494,499.332,572.578,499.332,558.661C499.332,544.744,499.332,530.828,499.332,516.911C499.332,502.994,499.332,489.078,499.332,473.619C499.332,458.161,499.332,441.161,499.332,424.161C499.332,407.161,499.332,390.161,493.534,377.436C487.737,364.712,476.141,356.262,470.343,352.037L464.546,347.812"/></g><g class="edgeLabels"><g class="edgeLabel"><g transform="translate(0, 0)" class="label"><foreignObject height="0" width="0"><div style="display: inline-block; white-space: nowrap;" xmlns="http://www.w3.org/1999/xhtml"><span class="edgeLabel"></span></div></foreignObject></g></g><g class="edgeLabel"><g transform="translate(0, 0)" class="label"><foreignObject height="0" width="0"><div style="display: inline-block; white-space: nowrap;" xmlns="http://www.w3.org/1999/xhtml"><span class="edgeLabel"></span></div></foreignObject></g></g><g class="edgeLabel"><g transform="translate(0, 0)" class="label"><foreignObject height="0" width="0"><div style="display: inline-block; white-space: nowrap;" xmlns="http://www.w3.org/1999/xhtml"><span class="edgeLabel"></span></div></foreignObject></g></g><g class="edgeLabel"><g transform="translate(0, 0)" class="label"><foreignObject height="0" width="0"><div style="display: inline-block; white-space: nowrap;" xmlns="http://www.w3.org/1999/xhtml"><span class="edgeLabel"></span></div></foreignObject></g></g><g class="edgeLabel"><g transform="translate(0, 0)" class="label"><foreignObject height="0" width="0"><div style="display: inline-block; white-space: nowrap;" xmlns="http://www.w3.org/1999/xhtml"><span class="edgeLabel"></span></div></foreignObject></g></g><g class="edgeLabel"><g transform="translate(0, 0)" class="label"><foreignObject height="0" width="0"><div style="display: inline-block; white-space: nowrap;" xmlns="http://www.w3.org/1999/xhtml"><span class="edgeLabel"></span></div></foreignObject></g></g><g transform="translate(80.833984375, 651.4111099243164)" class="edgeLabel"><g transform="translate(-15.13671875, -9.25)" class="label"><foreignObject height="18.5" width="30.2734375"><div style="display: inline-block; white-space: nowrap;" xmlns="http://www.w3.org/1999/xhtml"><span class="edgeLabel">pass</span></div></foreignObject></g></g><g transform="translate(307.48046875, 651.4111099243164)" class="edgeLabel"><g transform="translate(-11.80078125, -9.25)" class="label"><foreignObject height="18.5" width="23.6015625"><div style="display: inline-block; white-space: nowrap;" xmlns="http://www.w3.org/1999/xhtml"><span class="edgeLabel">fail</span></div></foreignObject></g></g><g class="edgeLabel"><g transform="translate(0, 0)" class="label"><foreignObject height="0" width="0"><div style="display: inline-block; white-space: nowrap;" xmlns="http://www.w3.org/1999/xhtml"><span class="edgeLabel"></span></div></foreignObject></g></g><g class="edgeLabel"><g transform="translate(0, 0)" class="label"><foreignObject height="0" width="0"><div style="display: inline-block; white-space: nowrap;" xmlns="http://www.w3.org/1999/xhtml"><span class="edgeLabel"></span></div></foreignObject></g></g><g class="edgeLabel"><g transform="translate(0, 0)" class="label"><foreignObject height="0" width="0"><div style="display: inline-block; white-space: nowrap;" xmlns="http://www.w3.org/1999/xhtml"><span class="edgeLabel"></span></div></foreignObject></g></g></g><g class="nodes"><g transform="translate(332.2421875, 16.75)" data-id="Users" data-node="true" id="flowchart-Users-0" class="node default default flowchart-label"><rect height="33.5" width="104.1640625" y="-16.75" x="-52.08203125" ry="0" rx="0" style="" class="basic label-container"/><g transform="translate(-44.58203125, -9.25)" style="" class="label"><rect/><foreignObject height="18.5" width="89.1640625"><div style="display: inline-block; white-space: nowrap;" xmlns="http://www.w3.org/1999/xhtml"><span class="nodeLabel">Users / Apps</span></div></foreignObject></g></g><g transform="translate(398.40625, 109.5)" data-id="Logs" data-node="true" id="flowchart-Logs-1" class="node default default flowchart-label"><rect height="52" width="132.828125" y="-26" x="-66.4140625" ry="0" rx="0" style="" class="basic label-container"/><g transform="translate(-58.9140625, -18.5)" style="" class="label"><rect/><foreignObject height="37" width="117.828125"><div style="display: inline-block; white-space: nowrap;" xmlns="http://www.w3.org/1999/xhtml"><span class="nodeLabel">Interaction logs<br />feedback signals</span></div></foreignObject></g></g><g transform="translate(398.40625, 202.25)" data-id="Filter" data-node="true" id="flowchart-Filter-3" class="node default default flowchart-label"><rect height="33.5" width="175.2109375" y="-16.75" x="-87.60546875" ry="0" rx="0" style="" class="basic label-container"/><g transform="translate(-80.10546875, -9.25)" style="" class="label"><rect/><foreignObject height="18.5" width="160.2109375"><div style="display: inline-block; white-space: nowrap;" xmlns="http://www.w3.org/1999/xhtml"><span class="nodeLabel">Privacy + PII scrubbing</span></div></foreignObject></g></g><g transform="translate(398.40625, 308.5805549621582)" data-id="Store" data-node="true" id="flowchart-Store-5" class="node default default flowchart-label"><path transform="translate(-97.328125,-39.58580995209698)" d="M 0,15.223873301397987 a 97.328125,15.223873301397987 0,0,0 194.65625 0 a 97.328125,15.223873301397987 0,0,0 -194.65625 0 l 0,48.72387330139799 a 97.328125,15.223873301397987 0,0,0 194.65625 0 l 0,-48.72387330139799" style=""/><g transform="translate(-89.828125, -9.25)" style="" class="label"><rect/><foreignObject height="18.5" width="179.65625"><div style="display: inline-block; white-space: nowrap;" xmlns="http://www.w3.org/1999/xhtml"><span class="nodeLabel">Preference / SFT dataset</span></div></foreignObject></g></g><g transform="translate(307.48046875, 424.1611099243164)" data-id="Train" data-node="true" id="flowchart-Train-7" class="node default default flowchart-label"><rect height="52" width="176.71875" y="-26" x="-88.359375" ry="0" rx="0" style="" class="basic label-container"/><g transform="translate(-80.859375, -18.5)" style="" class="label"><rect/><foreignObject height="37" width="161.71875"><div style="display: inline-block; white-space: nowrap;" xmlns="http://www.w3.org/1999/xhtml"><span class="nodeLabel">Periodic training<br />DPO / SFT / small PPO</span></div></foreignObject></g></g><g transform="translate(307.48046875, 516.9111099243164)" data-id="Canary" data-node="true" id="flowchart-Canary-9" class="node default default flowchart-label"><rect height="33.5" width="116.96875" y="-16.75" x="-58.484375" ry="0" rx="0" style="" class="basic label-container"/><g transform="translate(-50.984375, -9.25)" style="" class="label"><rect/><foreignObject height="18.5" width="101.96875"><div style="display: inline-block; white-space: nowrap;" xmlns="http://www.w3.org/1999/xhtml"><span class="nodeLabel">Canary rollout</span></div></foreignObject></g></g><g transform="translate(307.48046875, 600.4111099243164)" data-id="Metrics" data-node="true" id="flowchart-Metrics-11" class="node default default flowchart-label"><rect height="33.5" width="185.9375" y="-16.75" x="-92.96875" ry="0" rx="0" style="" class="basic label-container"/><g transform="translate(-85.46875, -9.25)" style="" class="label"><rect/><foreignObject height="18.5" width="170.9375"><div style="display: inline-block; white-space: nowrap;" xmlns="http://www.w3.org/1999/xhtml"><span class="nodeLabel">Safety + quality metrics</span></div></foreignObject></g></g><g transform="translate(98.40234375, 702.4111099243164)" data-id="Prod" data-node="true" id="flowchart-Prod-13" class="node default default flowchart-label"><rect height="33.5" width="196.8046875" y="-16.75" x="-98.40234375" ry="0" rx="0" style="" class="basic label-container"/><g transform="translate(-90.90234375, -9.25)" style="" class="label"><rect/><foreignObject height="18.5" width="181.8046875"><div style="display: inline-block; white-space: nowrap;" xmlns="http://www.w3.org/1999/xhtml"><span class="nodeLabel">Production model version</span></div></foreignObject></g></g><g transform="translate(307.48046875, 702.4111099243164)" data-id="Rollback" data-node="true" id="flowchart-Rollback-15" class="node default default flowchart-label"><rect height="33.5" width="121.3515625" y="-16.75" x="-60.67578125" ry="0" rx="0" style="" class="basic label-container"/><g transform="translate(-53.17578125, -9.25)" style="" class="label"><rect/><foreignObject height="18.5" width="106.3515625"><div style="display: inline-block; white-space: nowrap;" xmlns="http://www.w3.org/1999/xhtml"><span class="nodeLabel">Rollback + RCA</span></div></foreignObject></g></g><g transform="translate(489.33203125, 702.4111099243164)" data-id="RedTeam" data-node="true" id="flowchart-RedTeam-19" class="node default default flowchart-label"><rect height="33.5" width="142.3515625" y="-16.75" x="-71.17578125" ry="0" rx="0" style="" class="basic label-container"/><g transform="translate(-63.67578125, -9.25)" style="" class="label"><rect/><foreignObject height="18.5" width="127.3515625"><div style="display: inline-block; white-space: nowrap;" xmlns="http://www.w3.org/1999/xhtml"><span class="nodeLabel">Red team backlog</span></div></foreignObject></g></g></g></g></g></svg>