<svg aria-roledescription="flowchart-v2" role="graphics-document document" viewBox="-8 -8 1794.1875 432.375" style="max-width: 1794.19px; background-color: white;" xmlns:xlink="http://www.w3.org/1999/xlink" xmlns="http://www.w3.org/2000/svg" width="100%" id="my-svg"><style>#my-svg{font-family:"trebuchet ms",verdana,arial,sans-serif;font-size:16px;fill:#333;}#my-svg .error-icon{fill:#552222;}#my-svg .error-text{fill:#552222;stroke:#552222;}#my-svg .edge-thickness-normal{stroke-width:2px;}#my-svg .edge-thickness-thick{stroke-width:3.5px;}#my-svg .edge-pattern-solid{stroke-dasharray:0;}#my-svg .edge-pattern-dashed{stroke-dasharray:3;}#my-svg .edge-pattern-dotted{stroke-dasharray:2;}#my-svg .marker{fill:#333333;stroke:#333333;}#my-svg .marker.cross{stroke:#333333;}#my-svg svg{font-family:"trebuchet ms",verdana,arial,sans-serif;font-size:16px;}#my-svg .label{font-family:"trebuchet ms",verdana,arial,sans-serif;color:#333;}#my-svg .cluster-label text{fill:#333;}#my-svg .cluster-label span,#my-svg p{color:#333;}#my-svg .label text,#my-svg span,#my-svg p{fill:#333;color:#333;}#my-svg .node rect,#my-svg .node circle,#my-svg .node ellipse,#my-svg .node polygon,#my-svg .node path{fill:#ECECFF;stroke:#9370DB;stroke-width:1px;}#my-svg .flowchart-label text{text-anchor:middle;}#my-svg .node .katex path{fill:#000;stroke:#000;stroke-width:1px;}#my-svg .node .label{text-align:center;}#my-svg .node.clickable{cursor:pointer;}#my-svg .arrowheadPath{fill:#333333;}#my-svg .edgePath .path{stroke:#333333;stroke-width:2.0px;}#my-svg .flowchart-link{stroke:#333333;fill:none;}#my-svg .edgeLabel{background-color:#e8e8e8;text-align:center;}#my-svg .edgeLabel rect{opacity:0.5;background-color:#e8e8e8;fill:#e8e8e8;}#my-svg .labelBkg{background-color:rgba(232, 232, 232, 0.5);}#my-svg .cluster rect{fill:#ffffde;stroke:#aaaa33;stroke-width:1px;}#my-svg .cluster text{fill:#333;}#my-svg .cluster span,#my-svg p{color:#333;}#my-svg div.mermaidTooltip{position:absolute;text-align:center;max-width:200px;padding:2px;font-family:"trebuchet ms",verdana,arial,sans-serif;font-size:12px;background:hsl(80, 100%, 96.2745098039%);border:1px solid #aaaa33;border-radius:2px;pointer-events:none;z-index:100;}#my-svg .flowchartTitleText{text-anchor:middle;font-size:18px;fill:#333;}#my-svg :root{--mermaid-font-family:"trebuchet ms",verdana,arial,sans-serif;}</style><g><marker orient="auto" markerHeight="12" markerWidth="12" markerUnits="userSpaceOnUse" refY="5" refX="6" viewBox="0 0 10 10" class="marker flowchart" id="my-svg_flowchart-pointEnd"><path style="stroke-width: 1; stroke-dasharray: 1, 0;" class="arrowMarkerPath" d="M 0 0 L 10 5 L 0 10 z"/></marker><marker orient="auto" markerHeight="12" markerWidth="12" markerUnits="userSpaceOnUse" refY="5" refX="4.5" viewBox="0 0 10 10" class="marker flowchart" id="my-svg_flowchart-pointStart"><path style="stroke-width: 1; stroke-dasharray: 1, 0;" class="arrowMarkerPath" d="M 0 5 L 10 10 L 10 0 z"/></marker><marker orient="auto" markerHeight="11" markerWidth="11" markerUnits="userSpaceOnUse" refY="5" refX="11" viewBox="0 0 10 10" class="marker flowchart" id="my-svg_flowchart-circleEnd"><circle style="stroke-width: 1; stroke-dasharray: 1, 0;" class="arrowMarkerPath" r="5" cy="5" cx="5"/></marker><marker orient="auto" markerHeight="11" markerWidth="11" markerUnits="userSpaceOnUse" refY="5" refX="-1" viewBox="0 0 10 10" class="marker flowchart" id="my-svg_flowchart-circleStart"><circle style="stroke-width: 1; stroke-dasharray: 1, 0;" class="arrowMarkerPath" r="5" cy="5" cx="5"/></marker><marker orient="auto" markerHeight="11" markerWidth="11" markerUnits="userSpaceOnUse" refY="5.2" refX="12" viewBox="0 0 11 11" class="marker cross flowchart" id="my-svg_flowchart-crossEnd"><path style="stroke-width: 2; stroke-dasharray: 1, 0;" class="arrowMarkerPath" d="M 1,1 l 9,9 M 10,1 l -9,9"/></marker><marker orient="auto" markerHeight="11" markerWidth="11" markerUnits="userSpaceOnUse" refY="5.2" refX="-1" viewBox="0 0 11 11" class="marker cross flowchart" id="my-svg_flowchart-crossStart"><path style="stroke-width: 2; stroke-dasharray: 1, 0;" class="arrowMarkerPath" d="M 1,1 l 9,9 M 10,1 l -9,9"/></marker><g class="root"><g class="clusters"><g id="Pace" class="cluster default flowchart-label"><rect height="338.75" width="215.3515625" y="77.625" x="257.1015625" ry="0" rx="0" style=""/><g transform="translate(341.859375, 77.625)" class="cluster-label"><foreignObject height="18.5" width="45.8359375"><div style="display: inline-block; white-space: nowrap;" xmlns="http://www.w3.org/1999/xhtml"><span class="nodeLabel">Pacing</span></div></foreignObject></g></g><g id="Auction" class="cluster default flowchart-label"><rect height="139.375" width="613.34375" y="277" x="522.453125" ry="0" rx="0" style=""/><g transform="translate(785.44921875, 277)" class="cluster-label"><foreignObject height="18.5" width="87.3515625"><div style="display: inline-block; white-space: nowrap;" xmlns="http://www.w3.org/1999/xhtml"><span class="nodeLabel">Live auction</span></div></foreignObject></g></g><g id="Control" class="cluster default flowchart-label"><rect height="251.125" width="1255.734375" y="5.875" x="522.453125" ry="0" rx="0" style=""/><g transform="translate(1111.0859375, 5.875)" class="cluster-label"><foreignObject height="18.5" width="78.46875"><div style="display: inline-block; white-space: nowrap;" xmlns="http://www.w3.org/1999/xhtml"><span class="nodeLabel">Bid control</span></div></foreignObject></g></g><g id="Goals" class="cluster default flowchart-label"><rect height="298.75" width="207.1015625" y="0" x="0" ry="0" rx="0" style=""/><g transform="translate(46.30078125, 0)" class="cluster-label"><foreignObject height="18.5" width="114.5"><div style="display: inline-block; white-space: nowrap;" xmlns="http://www.w3.org/1999/xhtml"><span class="nodeLabel">Advertiser goals</span></div></foreignObject></g></g></g><g class="edgePaths"><path marker-end="url(#my-svg_flowchart-pointEnd)" style="fill:none;" class="edge-thickness-normal edge-pattern-solid flowchart-link LS-T LE-PID" id="L-T-PID-0" d="M182.102,51.75L186.268,51.75C190.435,51.75,198.768,51.75,207.102,51.75C215.435,51.75,223.768,51.75,232.102,51.75C240.435,51.75,248.768,51.75,270.881,51.75C292.993,51.75,328.885,51.75,364.777,51.75C400.669,51.75,436.561,51.75,458.674,51.75C480.786,51.75,489.12,51.75,497.453,51.75C505.786,51.75,514.12,51.75,537.648,51.75C561.176,51.75,599.898,51.75,638.621,51.75C677.344,51.75,716.066,51.75,750.954,51.75C785.842,51.75,816.896,51.75,847.949,51.75C879.003,51.75,910.056,51.75,941.807,51.75C973.557,51.75,1006.005,51.75,1038.453,51.75C1070.901,51.75,1103.349,51.75,1123.74,51.75C1144.13,51.75,1152.464,51.75,1181.09,51.75C1209.717,51.75,1258.638,51.75,1307.559,51.75C1356.479,51.75,1405.4,51.75,1451.913,66.407C1498.426,81.064,1542.532,110.378,1564.585,125.034L1586.638,139.691"/><path marker-end="url(#my-svg_flowchart-pointEnd)" style="fill:none;" class="edge-thickness-normal edge-pattern-solid flowchart-link LS-B LE-P" id="L-B-P-0" d="M176.457,247L181.564,247C186.672,247,196.887,247,206.161,247C215.435,247,223.768,247,232.102,247C240.435,247,248.768,247,256.218,247C263.668,247,270.235,247,273.518,247L276.802,247"/><path marker-end="url(#my-svg_flowchart-pointEnd)" style="fill:none;" class="edge-thickness-normal edge-pattern-solid flowchart-link LS-L LE-PID" id="L-L-PID-0" d="M1429.32,185.25L1433.487,185.25C1437.654,185.25,1445.987,185.25,1458.799,183.869C1471.611,182.487,1488.903,179.724,1497.548,178.343L1506.194,176.961"/><path marker-end="url(#my-svg_flowchart-pointEnd)" style="fill:none;" class="edge-thickness-normal edge-pattern-solid flowchart-link LS-PID LE-EB" id="L-PID-EB-0" d="M1511.427,142.625L1501.909,141.104C1492.392,139.583,1473.356,136.542,1439.378,135.021C1405.4,133.5,1356.479,133.5,1307.559,133.5C1258.638,133.5,1209.717,133.5,1181.09,133.5C1152.464,133.5,1144.13,133.5,1123.74,133.5C1103.349,133.5,1070.901,133.5,1038.453,133.5C1006.005,133.5,973.557,133.5,941.807,133.5C910.056,133.5,879.003,133.5,847.949,133.5C816.896,133.5,785.842,133.5,767.029,133.217C748.216,132.934,741.643,132.368,738.356,132.085L735.07,131.802"/><path marker-end="url(#my-svg_flowchart-pointEnd)" style="fill:none;" class="edge-thickness-normal edge-pattern-solid flowchart-link LS-EB LE-AUC" id="L-EB-AUC-0" d="M729.789,107.804L733.956,107.087C738.122,106.369,746.456,104.935,764.657,138.151C782.858,171.367,810.927,239.235,824.962,273.169L838.996,307.102"/><path marker-end="url(#my-svg_flowchart-pointEnd)" style="fill:none;" class="edge-thickness-normal edge-pattern-solid flowchart-link LS-R LE-AUC" id="L-R-AUC-0" d="M721.211,328.75L726.807,328.75C732.404,328.75,743.596,328.75,752.476,328.75C761.356,328.75,767.922,328.75,771.206,328.75L774.489,328.75"/><path marker-end="url(#my-svg_flowchart-pointEnd)" style="fill:none;" class="edge-thickness-normal edge-pattern-solid flowchart-link LS-AUC LE-SP" id="L-AUC-SP-0" d="M916.109,328.75L920.276,328.75C924.443,328.75,932.776,328.75,941.811,330.044C950.845,331.338,960.581,333.926,965.448,335.22L970.316,336.513"/><path marker-end="url(#my-svg_flowchart-pointEnd)" style="fill:none;" class="edge-thickness-normal edge-pattern-solid flowchart-link LS-SP LE-L" id="L-SP-L-0" d="M1089.808,337.875L1097.473,335.375C1105.137,332.875,1120.467,327.875,1132.299,302.438C1144.13,277,1152.464,231.125,1159.914,208.188C1167.364,185.25,1173.93,185.25,1177.214,185.25L1180.497,185.25"/><path marker-end="url(#my-svg_flowchart-pointEnd)" style="fill:none;" class="edge-thickness-normal edge-pattern-solid flowchart-link LS-SP LE-PID" id="L-SP-PID-0" d="M1101.468,371.375L1107.189,372.896C1112.911,374.417,1124.354,377.458,1134.242,355.063C1144.13,332.667,1152.464,284.833,1181.09,260.917C1209.717,237,1258.638,237,1307.559,237C1356.479,237,1405.4,237,1450.229,227.236C1495.058,217.472,1535.795,197.944,1556.164,188.18L1576.532,178.416"/><path marker-end="url(#my-svg_flowchart-pointEnd)" style="fill:none;" class="edge-thickness-normal edge-pattern-solid flowchart-link LS-P LE-EB" id="L-P-EB-0" d="M379.381,230.25L394.893,212.458C410.405,194.667,441.429,159.083,461.108,141.292C480.786,123.5,489.12,123.5,497.453,123.5C505.786,123.5,514.12,123.5,521.57,123.5C529.02,123.5,535.586,123.5,538.87,123.5L542.153,123.5"/><path marker-end="url(#my-svg_flowchart-pointEnd)" style="fill:none;" class="edge-thickness-normal edge-pattern-solid flowchart-link LS-SP LE-P" id="L-SP-P-0" d="M975.438,371.375L969.717,372.896C963.995,374.417,952.552,377.458,931.304,378.979C910.056,380.5,879.003,380.5,847.949,380.5C816.896,380.5,785.842,380.5,750.954,380.5C716.066,380.5,677.344,380.5,638.621,380.5C599.898,380.5,561.176,380.5,537.648,380.5C514.12,380.5,505.786,380.5,497.453,380.5C489.12,380.5,480.786,380.5,461.48,361.729C442.174,342.958,411.894,305.417,396.754,286.646L381.615,267.875"/></g><g class="edgeLabels"><g class="edgeLabel"><g transform="translate(0, 0)" class="label"><foreignObject height="0" width="0"><div style="display: inline-block; white-space: nowrap;" xmlns="http://www.w3.org/1999/xhtml"><span class="edgeLabel"></span></div></foreignObject></g></g><g class="edgeLabel"><g transform="translate(0, 0)" class="label"><foreignObject height="0" width="0"><div style="display: inline-block; white-space: nowrap;" xmlns="http://www.w3.org/1999/xhtml"><span class="edgeLabel"></span></div></foreignObject></g></g><g class="edgeLabel"><g transform="translate(0, 0)" class="label"><foreignObject height="0" width="0"><div style="display: inline-block; white-space: nowrap;" xmlns="http://www.w3.org/1999/xhtml"><span class="edgeLabel"></span></div></foreignObject></g></g><g class="edgeLabel"><g transform="translate(0, 0)" class="label"><foreignObject height="0" width="0"><div style="display: inline-block; white-space: nowrap;" xmlns="http://www.w3.org/1999/xhtml"><span class="edgeLabel"></span></div></foreignObject></g></g><g class="edgeLabel"><g transform="translate(0, 0)" class="label"><foreignObject height="0" width="0"><div style="display: inline-block; white-space: nowrap;" xmlns="http://www.w3.org/1999/xhtml"><span class="edgeLabel"></span></div></foreignObject></g></g><g class="edgeLabel"><g transform="translate(0, 0)" class="label"><foreignObject height="0" width="0"><div style="display: inline-block; white-space: nowrap;" xmlns="http://www.w3.org/1999/xhtml"><span class="edgeLabel"></span></div></foreignObject></g></g><g class="edgeLabel"><g transform="translate(0, 0)" class="label"><foreignObject height="0" width="0"><div style="display: inline-block; white-space: nowrap;" xmlns="http://www.w3.org/1999/xhtml"><span class="edgeLabel"></span></div></foreignObject></g></g><g class="edgeLabel"><g transform="translate(0, 0)" class="label"><foreignObject height="0" width="0"><div style="display: inline-block; white-space: nowrap;" xmlns="http://www.w3.org/1999/xhtml"><span class="edgeLabel"></span></div></foreignObject></g></g><g class="edgeLabel"><g transform="translate(0, 0)" class="label"><foreignObject height="0" width="0"><div style="display: inline-block; white-space: nowrap;" xmlns="http://www.w3.org/1999/xhtml"><span class="edgeLabel"></span></div></foreignObject></g></g><g class="edgeLabel"><g transform="translate(0, 0)" class="label"><foreignObject height="0" width="0"><div style="display: inline-block; white-space: nowrap;" xmlns="http://www.w3.org/1999/xhtml"><span class="edgeLabel"></span></div></foreignObject></g></g><g class="edgeLabel"><g transform="translate(0, 0)" class="label"><foreignObject height="0" width="0"><div style="display: inline-block; white-space: nowrap;" xmlns="http://www.w3.org/1999/xhtml"><span class="edgeLabel"></span></div></foreignObject></g></g></g><g class="nodes"><g transform="translate(364.77734375, 247)" data-id="P" data-node="true" id="flowchart-P-8" class="node default default flowchart-label"><rect height="33.5" width="165.3515625" y="-16.75" x="-82.67578125" ry="0" rx="0" style="" class="basic label-container"/><g transform="translate(-75.17578125, -9.25)" style="" class="label"><rect/><foreignObject height="18.5" width="150.3515625"><div style="display: inline-block; white-space: nowrap;" xmlns="http://www.w3.org/1999/xhtml"><span class="nodeLabel">Pacing state vs curve</span></div></foreignObject></g></g><g transform="translate(638.62109375, 328.75)" data-id="R" data-node="true" id="flowchart-R-5" class="node default default flowchart-label"><rect height="33.5" width="165.1796875" y="-16.75" x="-82.58984375" ry="0" rx="0" style="" class="basic label-container"/><g transform="translate(-75.08984375, -9.25)" style="" class="label"><rect/><foreignObject height="18.5" width="150.1796875"><div style="display: inline-block; white-space: nowrap;" xmlns="http://www.w3.org/1999/xhtml"><span class="nodeLabel">Ranker + pCTR/pCVR</span></div></foreignObject></g></g><g transform="translate(847.94921875, 328.75)" data-id="AUC" data-node="true" id="flowchart-AUC-6" class="node default default flowchart-label"><rect height="33.5" width="136.3203125" y="-16.75" x="-68.16015625" ry="0" rx="0" style="" class="basic label-container"/><g transform="translate(-60.66015625, -9.25)" style="" class="label"><rect/><foreignObject height="18.5" width="121.3203125"><div style="display: inline-block; white-space: nowrap;" xmlns="http://www.w3.org/1999/xhtml"><span class="nodeLabel">Auction + pricing</span></div></foreignObject></g></g><g transform="translate(1038.453125, 354.625)" data-id="SP" data-node="true" id="flowchart-SP-7" class="node default default flowchart-label"><rect height="33.5" width="144.6875" y="-16.75" x="-72.34375" ry="0" rx="0" style="" class="basic label-container"/><g transform="translate(-64.84375, -9.25)" style="" class="label"><rect/><foreignObject height="18.5" width="129.6875"><div style="display: inline-block; white-space: nowrap;" xmlns="http://www.w3.org/1999/xhtml"><span class="nodeLabel">Spend + outcomes</span></div></foreignObject></g></g><g transform="translate(1307.55859375, 185.25)" data-id="L" data-node="true" id="flowchart-L-2" class="node default default flowchart-label"><rect height="33.5" width="243.5234375" y="-16.75" x="-121.76171875" ry="0" rx="0" style="" class="basic label-container"/><g transform="translate(-114.26171875, -9.25)" style="" class="label"><rect/><foreignObject height="18.5" width="228.5234375"><div style="display: inline-block; white-space: nowrap;" xmlns="http://www.w3.org/1999/xhtml"><span class="nodeLabel">Bid landscape / response model</span></div></foreignObject></g></g><g transform="translate(1616.25390625, 159.375)" data-id="PID" data-node="true" id="flowchart-PID-3" class="node default default flowchart-label"><rect height="33.5" width="273.8671875" y="-16.75" x="-136.93359375" ry="0" rx="0" style="" class="basic label-container"/><g transform="translate(-129.43359375, -9.25)" style="" class="label"><rect/><foreignObject height="18.5" width="258.8671875"><div style="display: inline-block; white-space: nowrap;" xmlns="http://www.w3.org/1999/xhtml"><span class="nodeLabel">Controller e.g. PID or online learner</span></div></foreignObject></g></g><g transform="translate(638.62109375, 123.5)" data-id="EB" data-node="true" id="flowchart-EB-4" class="node default default flowchart-label"><rect height="33.5" width="182.3359375" y="-16.75" x="-91.16796875" ry="0" rx="0" style="" class="basic label-container"/><g transform="translate(-83.66796875, -9.25)" style="" class="label"><rect/><foreignObject height="18.5" width="167.3359375"><div style="display: inline-block; white-space: nowrap;" xmlns="http://www.w3.org/1999/xhtml"><span class="nodeLabel">Effective bid multiplier</span></div></foreignObject></g></g><g transform="translate(103.55078125, 51.75)" data-id="T" data-node="true" id="flowchart-T-0" class="node default default flowchart-label"><rect height="33.5" width="157.1015625" y="-16.75" x="-78.55078125" ry="0" rx="0" style="" class="basic label-container"/><g transform="translate(-71.05078125, -9.25)" style="" class="label"><rect/><foreignObject height="18.5" width="142.1015625"><div style="display: inline-block; white-space: nowrap;" xmlns="http://www.w3.org/1999/xhtml"><span class="nodeLabel">tCPA / tROAS target</span></div></foreignObject></g></g><g transform="translate(103.55078125, 247)" data-id="B" data-node="true" id="flowchart-B-1" class="node default default flowchart-label"><rect height="33.5" width="145.8125" y="-16.75" x="-72.90625" ry="0" rx="0" style="" class="basic label-container"/><g transform="translate(-65.40625, -9.25)" style="" class="label"><rect/><foreignObject height="18.5" width="130.8125"><div style="display: inline-block; white-space: nowrap;" xmlns="http://www.w3.org/1999/xhtml"><span class="nodeLabel">Budget + schedule</span></div></foreignObject></g></g></g></g></g></svg>