<svg aria-roledescription="flowchart-v2" role="graphics-document document" viewBox="-8 -8 501.90625 286.5" style="max-width: 501.906px; background-color: white;" xmlns:xlink="http://www.w3.org/1999/xlink" xmlns="http://www.w3.org/2000/svg" width="100%" id="my-svg"><style>#my-svg{font-family:"trebuchet ms",verdana,arial,sans-serif;font-size:16px;fill:#333;}#my-svg .error-icon{fill:#552222;}#my-svg .error-text{fill:#552222;stroke:#552222;}#my-svg .edge-thickness-normal{stroke-width:2px;}#my-svg .edge-thickness-thick{stroke-width:3.5px;}#my-svg .edge-pattern-solid{stroke-dasharray:0;}#my-svg .edge-pattern-dashed{stroke-dasharray:3;}#my-svg .edge-pattern-dotted{stroke-dasharray:2;}#my-svg .marker{fill:#333333;stroke:#333333;}#my-svg .marker.cross{stroke:#333333;}#my-svg svg{font-family:"trebuchet ms",verdana,arial,sans-serif;font-size:16px;}#my-svg .label{font-family:"trebuchet ms",verdana,arial,sans-serif;color:#333;}#my-svg .cluster-label text{fill:#333;}#my-svg .cluster-label span,#my-svg p{color:#333;}#my-svg .label text,#my-svg span,#my-svg p{fill:#333;color:#333;}#my-svg .node rect,#my-svg .node circle,#my-svg .node ellipse,#my-svg .node polygon,#my-svg .node path{fill:#ECECFF;stroke:#9370DB;stroke-width:1px;}#my-svg .flowchart-label text{text-anchor:middle;}#my-svg .node .katex path{fill:#000;stroke:#000;stroke-width:1px;}#my-svg .node .label{text-align:center;}#my-svg .node.clickable{cursor:pointer;}#my-svg .arrowheadPath{fill:#333333;}#my-svg .edgePath .path{stroke:#333333;stroke-width:2.0px;}#my-svg .flowchart-link{stroke:#333333;fill:none;}#my-svg .edgeLabel{background-color:#e8e8e8;text-align:center;}#my-svg .edgeLabel rect{opacity:0.5;background-color:#e8e8e8;fill:#e8e8e8;}#my-svg .labelBkg{background-color:rgba(232, 232, 232, 0.5);}#my-svg .cluster rect{fill:#ffffde;stroke:#aaaa33;stroke-width:1px;}#my-svg .cluster text{fill:#333;}#my-svg .cluster span,#my-svg p{color:#333;}#my-svg div.mermaidTooltip{position:absolute;text-align:center;max-width:200px;padding:2px;font-family:"trebuchet ms",verdana,arial,sans-serif;font-size:12px;background:hsl(80, 100%, 96.2745098039%);border:1px solid #aaaa33;border-radius:2px;pointer-events:none;z-index:100;}#my-svg .flowchartTitleText{text-anchor:middle;font-size:18px;fill:#333;}#my-svg :root{--mermaid-font-family:"trebuchet ms",verdana,arial,sans-serif;}</style><g><marker orient="auto" markerHeight="12" markerWidth="12" markerUnits="userSpaceOnUse" refY="5" refX="6" viewBox="0 0 10 10" class="marker flowchart" id="my-svg_flowchart-pointEnd"><path style="stroke-width: 1; stroke-dasharray: 1, 0;" class="arrowMarkerPath" d="M 0 0 L 10 5 L 0 10 z"/></marker><marker orient="auto" markerHeight="12" markerWidth="12" markerUnits="userSpaceOnUse" refY="5" refX="4.5" viewBox="0 0 10 10" class="marker flowchart" id="my-svg_flowchart-pointStart"><path style="stroke-width: 1; stroke-dasharray: 1, 0;" class="arrowMarkerPath" d="M 0 5 L 10 10 L 10 0 z"/></marker><marker orient="auto" markerHeight="11" markerWidth="11" markerUnits="userSpaceOnUse" refY="5" refX="11" viewBox="0 0 10 10" class="marker flowchart" id="my-svg_flowchart-circleEnd"><circle style="stroke-width: 1; stroke-dasharray: 1, 0;" class="arrowMarkerPath" r="5" cy="5" cx="5"/></marker><marker orient="auto" markerHeight="11" markerWidth="11" markerUnits="userSpaceOnUse" refY="5" refX="-1" viewBox="0 0 10 10" class="marker flowchart" id="my-svg_flowchart-circleStart"><circle style="stroke-width: 1; stroke-dasharray: 1, 0;" class="arrowMarkerPath" r="5" cy="5" cx="5"/></marker><marker orient="auto" markerHeight="11" markerWidth="11" markerUnits="userSpaceOnUse" refY="5.2" refX="12" viewBox="0 0 11 11" class="marker cross flowchart" id="my-svg_flowchart-crossEnd"><path style="stroke-width: 2; stroke-dasharray: 1, 0;" class="arrowMarkerPath" d="M 1,1 l 9,9 M 10,1 l -9,9"/></marker><marker orient="auto" markerHeight="11" markerWidth="11" markerUnits="userSpaceOnUse" refY="5.2" refX="-1" viewBox="0 0 11 11" class="marker cross flowchart" id="my-svg_flowchart-crossStart"><path style="stroke-width: 2; stroke-dasharray: 1, 0;" class="arrowMarkerPath" d="M 1,1 l 9,9 M 10,1 l -9,9"/></marker><g class="root"><g class="clusters"><g id="GPU" class="cluster default flowchart-label"><rect height="187" width="120.5078125" y="37.88082218170166" x="365.3984375" ry="0" rx="0" style=""/><g transform="translate(379.5859375, 37.88082218170166)" class="cluster-label"><foreignObject height="18.5" width="92.1328125"><div style="display: inline-block; white-space: nowrap;" xmlns="http://www.w3.org/1999/xhtml"><span class="nodeLabel">GPU Workers</span></div></foreignObject></g></g><g id="Queue" class="cluster default flowchart-label"><rect height="239.00582218170166" width="144.6484375" y="5.875" x="187.69921875" ry="0" rx="0" style=""/><g transform="translate(187.69921875, 5.875)" class="cluster-label"><foreignObject height="18.5" width="144.6484375"><div style="display: inline-block; white-space: nowrap;" xmlns="http://www.w3.org/1999/xhtml"><span class="nodeLabel">Preprocessed Queue</span></div></foreignObject></g></g><g id="CPU" class="cluster default flowchart-label"><rect height="270.5" width="154.6484375" y="0" x="0" ry="0" rx="0" style=""/><g transform="translate(31.8828125, 0)" class="cluster-label"><foreignObject height="18.5" width="90.8828125"><div style="display: inline-block; white-space: nowrap;" xmlns="http://www.w3.org/1999/xhtml"><span class="nodeLabel">CPU Workers</span></div></foreignObject></g></g></g><g class="edgePaths"><path marker-end="url(#my-svg_flowchart-pointEnd)" style="fill:none;" class="edge-thickness-normal edge-pattern-solid flowchart-link LS-P1 LE-Q" id="L-P1-Q-0" d="M129.648,51.75L133.815,51.75C137.982,51.75,146.315,51.75,154.648,51.75C162.982,51.75,171.315,51.75,179.648,51.75C187.982,51.75,196.315,51.75,206.027,60.396C215.74,69.042,226.831,86.334,232.377,94.98L237.922,103.626"/><path marker-end="url(#my-svg_flowchart-pointEnd)" style="fill:none;" class="edge-thickness-normal edge-pattern-solid flowchart-link LS-P2 LE-Q" id="L-P2-Q-0" d="M129.648,135.25L133.815,135.25C137.982,135.25,146.315,135.25,154.648,135.25C162.982,135.25,171.315,135.25,179.648,135.25C187.982,135.25,196.315,135.25,203.765,135.25C211.215,135.25,217.782,135.25,221.065,135.25L224.348,135.25"/><path marker-end="url(#my-svg_flowchart-pointEnd)" style="fill:none;" class="edge-thickness-normal edge-pattern-solid flowchart-link LS-P3 LE-Q" id="L-P3-Q-0" d="M129.648,218.75L133.815,218.75C137.982,218.75,146.315,218.75,154.648,218.75C162.982,218.75,171.315,218.75,179.648,218.75C187.982,218.75,196.315,218.75,206.027,210.104C215.74,201.458,226.831,184.166,232.377,175.52L237.922,166.874"/><path marker-end="url(#my-svg_flowchart-pointEnd)" style="fill:none;" class="edge-thickness-normal edge-pattern-solid flowchart-link LS-Q LE-G1" id="L-Q-G1-0" d="M290.398,118.403L294.565,113.607C298.732,108.812,307.065,99.221,315.398,94.426C323.732,89.631,332.065,89.631,340.398,89.631C348.732,89.631,357.065,89.631,364.515,89.631C371.965,89.631,378.532,89.631,381.815,89.631L385.098,89.631"/><path marker-end="url(#my-svg_flowchart-pointEnd)" style="fill:none;" class="edge-thickness-normal edge-pattern-solid flowchart-link LS-Q LE-G2" id="L-Q-G2-0" d="M290.398,156.029L294.565,158.879C298.732,161.73,307.065,167.43,315.398,170.28C323.732,173.131,332.065,173.131,340.398,173.131C348.732,173.131,357.065,173.131,364.515,173.131C371.965,173.131,378.532,173.131,381.815,173.131L385.098,173.131"/></g><g class="edgeLabels"><g class="edgeLabel"><g transform="translate(0, 0)" class="label"><foreignObject height="0" width="0"><div style="display: inline-block; white-space: nowrap;" xmlns="http://www.w3.org/1999/xhtml"><span class="edgeLabel"></span></div></foreignObject></g></g><g class="edgeLabel"><g transform="translate(0, 0)" class="label"><foreignObject height="0" width="0"><div style="display: inline-block; white-space: nowrap;" xmlns="http://www.w3.org/1999/xhtml"><span class="edgeLabel"></span></div></foreignObject></g></g><g class="edgeLabel"><g transform="translate(0, 0)" class="label"><foreignObject height="0" width="0"><div style="display: inline-block; white-space: nowrap;" xmlns="http://www.w3.org/1999/xhtml"><span class="edgeLabel"></span></div></foreignObject></g></g><g class="edgeLabel"><g transform="translate(0, 0)" class="label"><foreignObject height="0" width="0"><div style="display: inline-block; white-space: nowrap;" xmlns="http://www.w3.org/1999/xhtml"><span class="edgeLabel"></span></div></foreignObject></g></g><g class="edgeLabel"><g transform="translate(0, 0)" class="label"><foreignObject height="0" width="0"><div style="display: inline-block; white-space: nowrap;" xmlns="http://www.w3.org/1999/xhtml"><span class="edgeLabel"></span></div></foreignObject></g></g></g><g class="nodes"><g transform="translate(425.65234375, 89.63082218170166)" data-id="G1" data-node="true" id="flowchart-G1-4" class="node default default flowchart-label"><rect height="33.5" width="70.5078125" y="-16.75" x="-35.25390625" ry="0" rx="0" style="" class="basic label-container"/><g transform="translate(-27.75390625, -9.25)" style="" class="label"><rect/><foreignObject height="18.5" width="55.5078125"><div style="display: inline-block; white-space: nowrap;" xmlns="http://www.w3.org/1999/xhtml"><span class="nodeLabel">Model 1</span></div></foreignObject></g></g><g transform="translate(425.65234375, 173.13082218170166)" data-id="G2" data-node="true" id="flowchart-G2-5" class="node default default flowchart-label"><rect height="33.5" width="70.5078125" y="-16.75" x="-35.25390625" ry="0" rx="0" style="" class="basic label-container"/><g transform="translate(-27.75390625, -9.25)" style="" class="label"><rect/><foreignObject height="18.5" width="55.5078125"><div style="display: inline-block; white-space: nowrap;" xmlns="http://www.w3.org/1999/xhtml"><span class="nodeLabel">Model 2</span></div></foreignObject></g></g><g transform="translate(260.0234375, 135.25)" data-id="Q" data-node="true" id="flowchart-Q-3" class="node default default flowchart-label"><path transform="translate(-30.375,-29.01446837146703)" d="M 0,8.176312247644685 a 30.375,8.176312247644685 0,0,0 60.75 0 a 30.375,8.176312247644685 0,0,0 -60.75 0 l 0,41.67631224764469 a 30.375,8.176312247644685 0,0,0 60.75 0 l 0,-41.67631224764469" style=""/><g transform="translate(-22.875, -9.25)" style="" class="label"><rect/><foreignObject height="18.5" width="45.75"><div style="display: inline-block; white-space: nowrap;" xmlns="http://www.w3.org/1999/xhtml"><span class="nodeLabel">Queue</span></div></foreignObject></g></g><g transform="translate(77.32421875, 51.75)" data-id="P1" data-node="true" id="flowchart-P1-0" class="node default default flowchart-label"><rect height="33.5" width="104.6484375" y="-16.75" x="-52.32421875" ry="0" rx="0" style="" class="basic label-container"/><g transform="translate(-44.82421875, -9.25)" style="" class="label"><rect/><foreignObject height="18.5" width="89.6484375"><div style="display: inline-block; white-space: nowrap;" xmlns="http://www.w3.org/1999/xhtml"><span class="nodeLabel">Preprocess 1</span></div></foreignObject></g></g><g transform="translate(77.32421875, 135.25)" data-id="P2" data-node="true" id="flowchart-P2-1" class="node default default flowchart-label"><rect height="33.5" width="104.6484375" y="-16.75" x="-52.32421875" ry="0" rx="0" style="" class="basic label-container"/><g transform="translate(-44.82421875, -9.25)" style="" class="label"><rect/><foreignObject height="18.5" width="89.6484375"><div style="display: inline-block; white-space: nowrap;" xmlns="http://www.w3.org/1999/xhtml"><span class="nodeLabel">Preprocess 2</span></div></foreignObject></g></g><g transform="translate(77.32421875, 218.75)" data-id="P3" data-node="true" id="flowchart-P3-2" class="node default default flowchart-label"><rect height="33.5" width="104.6484375" y="-16.75" x="-52.32421875" ry="0" rx="0" style="" class="basic label-container"/><g transform="translate(-44.82421875, -9.25)" style="" class="label"><rect/><foreignObject height="18.5" width="89.6484375"><div style="display: inline-block; white-space: nowrap;" xmlns="http://www.w3.org/1999/xhtml"><span class="nodeLabel">Preprocess 3</span></div></foreignObject></g></g></g></g></g></svg>