<svg aria-roledescription="flowchart-v2" role="graphics-document document" viewBox="-8 -8 1235.625 551.8109741210938" style="max-width: 1235.62px; background-color: white;" xmlns:xlink="http://www.w3.org/1999/xlink" xmlns="http://www.w3.org/2000/svg" width="100%" id="my-svg"><style>#my-svg{font-family:"trebuchet ms",verdana,arial,sans-serif;font-size:16px;fill:#333;}#my-svg .error-icon{fill:#552222;}#my-svg .error-text{fill:#552222;stroke:#552222;}#my-svg .edge-thickness-normal{stroke-width:2px;}#my-svg .edge-thickness-thick{stroke-width:3.5px;}#my-svg .edge-pattern-solid{stroke-dasharray:0;}#my-svg .edge-pattern-dashed{stroke-dasharray:3;}#my-svg .edge-pattern-dotted{stroke-dasharray:2;}#my-svg .marker{fill:#333333;stroke:#333333;}#my-svg .marker.cross{stroke:#333333;}#my-svg svg{font-family:"trebuchet ms",verdana,arial,sans-serif;font-size:16px;}#my-svg .label{font-family:"trebuchet ms",verdana,arial,sans-serif;color:#333;}#my-svg .cluster-label text{fill:#333;}#my-svg .cluster-label span,#my-svg p{color:#333;}#my-svg .label text,#my-svg span,#my-svg p{fill:#333;color:#333;}#my-svg .node rect,#my-svg .node circle,#my-svg .node ellipse,#my-svg .node polygon,#my-svg .node path{fill:#ECECFF;stroke:#9370DB;stroke-width:1px;}#my-svg .flowchart-label text{text-anchor:middle;}#my-svg .node .katex path{fill:#000;stroke:#000;stroke-width:1px;}#my-svg .node .label{text-align:center;}#my-svg .node.clickable{cursor:pointer;}#my-svg .arrowheadPath{fill:#333333;}#my-svg .edgePath .path{stroke:#333333;stroke-width:2.0px;}#my-svg .flowchart-link{stroke:#333333;fill:none;}#my-svg .edgeLabel{background-color:#e8e8e8;text-align:center;}#my-svg .edgeLabel rect{opacity:0.5;background-color:#e8e8e8;fill:#e8e8e8;}#my-svg .labelBkg{background-color:rgba(232, 232, 232, 0.5);}#my-svg .cluster rect{fill:#ffffde;stroke:#aaaa33;stroke-width:1px;}#my-svg .cluster text{fill:#333;}#my-svg .cluster span,#my-svg p{color:#333;}#my-svg div.mermaidTooltip{position:absolute;text-align:center;max-width:200px;padding:2px;font-family:"trebuchet ms",verdana,arial,sans-serif;font-size:12px;background:hsl(80, 100%, 96.2745098039%);border:1px solid #aaaa33;border-radius:2px;pointer-events:none;z-index:100;}#my-svg .flowchartTitleText{text-anchor:middle;font-size:18px;fill:#333;}#my-svg :root{--mermaid-font-family:"trebuchet ms",verdana,arial,sans-serif;}</style><g><marker orient="auto" markerHeight="12" markerWidth="12" markerUnits="userSpaceOnUse" refY="5" refX="6" viewBox="0 0 10 10" class="marker flowchart" id="my-svg_flowchart-pointEnd"><path style="stroke-width: 1; stroke-dasharray: 1, 0;" class="arrowMarkerPath" d="M 0 0 L 10 5 L 0 10 z"/></marker><marker orient="auto" markerHeight="12" markerWidth="12" markerUnits="userSpaceOnUse" refY="5" refX="4.5" viewBox="0 0 10 10" class="marker flowchart" id="my-svg_flowchart-pointStart"><path style="stroke-width: 1; stroke-dasharray: 1, 0;" class="arrowMarkerPath" d="M 0 5 L 10 10 L 10 0 z"/></marker><marker orient="auto" markerHeight="11" markerWidth="11" markerUnits="userSpaceOnUse" refY="5" refX="11" viewBox="0 0 10 10" class="marker flowchart" id="my-svg_flowchart-circleEnd"><circle style="stroke-width: 1; stroke-dasharray: 1, 0;" class="arrowMarkerPath" r="5" cy="5" cx="5"/></marker><marker orient="auto" markerHeight="11" markerWidth="11" markerUnits="userSpaceOnUse" refY="5" refX="-1" viewBox="0 0 10 10" class="marker flowchart" id="my-svg_flowchart-circleStart"><circle style="stroke-width: 1; stroke-dasharray: 1, 0;" class="arrowMarkerPath" r="5" cy="5" cx="5"/></marker><marker orient="auto" markerHeight="11" markerWidth="11" markerUnits="userSpaceOnUse" refY="5.2" refX="12" viewBox="0 0 11 11" class="marker cross flowchart" id="my-svg_flowchart-crossEnd"><path style="stroke-width: 2; stroke-dasharray: 1, 0;" class="arrowMarkerPath" d="M 1,1 l 9,9 M 10,1 l -9,9"/></marker><marker orient="auto" markerHeight="11" markerWidth="11" markerUnits="userSpaceOnUse" refY="5.2" refX="-1" viewBox="0 0 11 11" class="marker cross flowchart" id="my-svg_flowchart-crossStart"><path style="stroke-width: 2; stroke-dasharray: 1, 0;" class="arrowMarkerPath" d="M 1,1 l 9,9 M 10,1 l -9,9"/></marker><g class="root"><g class="clusters"><g id="data" class="cluster default flowchart-label"><rect height="535.8109588623047" width="258.28125" y="0" x="961.34375" ry="0" rx="0" style=""/><g transform="translate(1051.83203125, 0)" class="cluster-label"><foreignObject height="18.5" width="77.3046875"><div style="display: inline-block; white-space: nowrap;" xmlns="http://www.w3.org/1999/xhtml"><span class="nodeLabel">Data Plane</span></div></foreignObject></g></g><g id="realtime" class="cluster default flowchart-label"><rect height="462.97497177124023" width="466.4296875" y="33.565364837646484" x="444.9140625" ry="0" rx="0" style=""/><g transform="translate(630.08203125, 33.565364837646484)" class="cluster-label"><foreignObject height="18.5" width="96.09375"><div style="display: inline-block; white-space: nowrap;" xmlns="http://www.w3.org/1999/xhtml"><span class="nodeLabel">Realtime Tier</span></div></foreignObject></g></g><g id="edge" class="cluster default flowchart-label"><rect height="252.875" width="208.8515625" y="197.4026279449463" x="186.0625" ry="0" rx="0" style=""/><g transform="translate(273.3671875, 197.4026279449463)" class="cluster-label"><foreignObject height="18.5" width="34.2421875"><div style="display: inline-block; white-space: nowrap;" xmlns="http://www.w3.org/1999/xhtml"><span class="nodeLabel">Edge</span></div></foreignObject></g></g><g id="clients" class="cluster default flowchart-label"><rect height="270.5" width="136.0625" y="195.6526279449463" x="0" ry="0" rx="0" style=""/><g transform="translate(43.4609375, 195.6526279449463)" class="cluster-label"><foreignObject height="18.5" width="49.140625"><div style="display: inline-block; white-space: nowrap;" xmlns="http://www.w3.org/1999/xhtml"><span class="nodeLabel">Clients</span></div></foreignObject></g></g></g><g class="edgePaths"><path marker-end="url(#my-svg_flowchart-pointEnd)" style="fill:none;" class="edge-thickness-normal edge-pattern-solid flowchart-link LS-A LE-LB" id="L-A-LB-0" d="M110.813,247.403L115.021,247.403C119.229,247.403,127.646,247.403,136.021,247.403C144.396,247.403,152.729,247.403,161.063,247.403C169.396,247.403,177.729,247.403,194.609,256.344C211.488,265.286,236.913,283.168,249.626,292.11L262.339,301.051"/><path marker-end="url(#my-svg_flowchart-pointEnd)" style="fill:none;" class="edge-thickness-normal edge-pattern-solid flowchart-link LS-LB LE-GW" id="L-LB-GW-0" d="M311.449,304.1L325.36,292.984C339.271,281.868,367.092,259.635,385.17,248.519C403.247,237.403,411.581,237.403,419.914,237.403C428.247,237.403,436.581,237.403,453.275,244.739C469.969,252.076,495.024,266.749,507.552,274.085L520.079,281.422"/><path marker-end="url(#my-svg_flowchart-pointEnd)" style="fill:none;" class="edge-thickness-normal edge-pattern-solid flowchart-link LS-B LE-LB" id="L-B-LB-0" d="M111.063,330.903L115.229,330.903C119.396,330.903,127.729,330.903,136.063,330.903C144.396,330.903,152.729,330.903,161.063,330.903C169.396,330.903,177.729,330.903,185.183,330.586C192.637,330.27,199.212,329.637,202.499,329.32L205.787,329.004"/><path marker-end="url(#my-svg_flowchart-pointEnd)" style="fill:none;" class="edge-thickness-normal edge-pattern-solid flowchart-link LS-LB LE-GW" id="L-LB-GW-1" d="M369.914,313.244L374.081,312.845C378.247,312.446,386.581,311.648,394.914,311.249C403.247,310.85,411.581,310.85,419.914,310.85C428.247,310.85,436.581,310.85,444.034,310.547C451.488,310.244,458.062,309.637,461.349,309.333L464.636,309.03"/><path marker-end="url(#my-svg_flowchart-pointEnd)" style="fill:none;" class="edge-thickness-normal edge-pattern-solid flowchart-link LS-C LE-LB" id="L-C-LB-0" d="M106.156,414.403L111.141,414.403C116.125,414.403,126.094,414.403,135.245,414.403C144.396,414.403,152.729,414.403,161.063,414.403C169.396,414.403,177.729,414.403,195.526,402.192C213.323,389.981,240.583,365.559,254.214,353.348L267.844,341.137"/><path marker-end="url(#my-svg_flowchart-pointEnd)" style="fill:none;" class="edge-thickness-normal edge-pattern-solid flowchart-link LS-LB LE-GW" id="L-LB-GW-2" d="M311.436,337.6L325.349,348.725C339.262,359.85,367.088,382.1,385.168,393.225C403.247,404.35,411.581,404.35,419.914,404.35C428.247,404.35,436.581,404.35,455.243,390.502C473.905,376.654,502.897,348.958,517.393,335.11L531.888,321.262"/><path marker-end="url(#my-svg_flowchart-pointEnd)" style="fill:none;" class="edge-thickness-normal edge-pattern-solid flowchart-link LS-GW LE-DS" id="L-GW-DS-0" d="M571.454,284.1L586.477,270.274C601.5,256.447,631.547,228.793,649.854,214.967C668.16,201.14,674.727,201.14,678.01,201.14L681.294,201.14"/><path marker-end="url(#my-svg_flowchart-pointEnd)" style="fill:none;" class="edge-thickness-normal edge-pattern-solid flowchart-link LS-DS LE-OL" id="L-DS-OL-0" d="M802.864,184.39L820.944,165.919C839.024,147.448,875.184,110.507,897.431,92.036C919.677,73.565,928.01,73.565,936.344,73.565C944.677,73.565,953.01,73.565,963.329,73.565C973.647,73.565,985.951,73.565,992.103,73.565L998.255,73.565"/><path marker-end="url(#my-svg_flowchart-pointEnd)" style="fill:none;" class="edge-thickness-normal edge-pattern-solid flowchart-link LS-DS LE-DB" id="L-DS-DB-0" d="M886.344,201.14L890.51,201.14C894.677,201.14,903.01,201.14,911.344,201.14C919.677,201.14,928.01,201.14,936.344,201.14C944.677,201.14,953.01,201.14,962.604,201.14C972.197,201.14,983.05,201.14,988.477,201.14L993.903,201.14"/><path marker-end="url(#my-svg_flowchart-pointEnd)" style="fill:none;" class="edge-thickness-normal edge-pattern-solid flowchart-link LS-DS LE-OS" id="L-DS-OS-0" d="M802.659,217.89L820.773,236.631C838.887,255.371,875.115,292.853,897.396,311.594C919.677,330.334,928.01,330.334,936.344,330.334C944.677,330.334,953.01,330.334,960.46,330.334C967.91,330.334,974.477,330.334,977.76,330.334L981.044,330.334"/><path marker-end="url(#my-svg_flowchart-pointEnd)" style="fill:none;" class="edge-thickness-normal edge-pattern-solid flowchart-link LS-GW LE-CACHE" id="L-GW-CACHE-0" d="M564.609,317.6L580.773,341.445C596.937,365.289,629.265,412.977,666.242,436.821C703.219,460.665,744.844,460.665,786.469,460.665C828.094,460.665,869.719,460.665,894.698,460.665C919.677,460.665,928.01,460.665,936.344,460.665C944.677,460.665,953.01,460.665,960.539,460.665C968.067,460.665,974.79,460.665,978.151,460.665L981.513,460.665"/></g><g class="edgeLabels"><g class="edgeLabel"><g transform="translate(0, 0)" class="label"><foreignObject height="0" width="0"><div style="display: inline-block; white-space: nowrap;" xmlns="http://www.w3.org/1999/xhtml"><span class="edgeLabel"></span></div></foreignObject></g></g><g class="edgeLabel"><g transform="translate(0, 0)" class="label"><foreignObject height="0" width="0"><div style="display: inline-block; white-space: nowrap;" xmlns="http://www.w3.org/1999/xhtml"><span class="edgeLabel"></span></div></foreignObject></g></g><g class="edgeLabel"><g transform="translate(0, 0)" class="label"><foreignObject height="0" width="0"><div style="display: inline-block; white-space: nowrap;" xmlns="http://www.w3.org/1999/xhtml"><span class="edgeLabel"></span></div></foreignObject></g></g><g class="edgeLabel"><g transform="translate(0, 0)" class="label"><foreignObject height="0" width="0"><div style="display: inline-block; white-space: nowrap;" xmlns="http://www.w3.org/1999/xhtml"><span class="edgeLabel"></span></div></foreignObject></g></g><g class="edgeLabel"><g transform="translate(0, 0)" class="label"><foreignObject height="0" width="0"><div style="display: inline-block; white-space: nowrap;" xmlns="http://www.w3.org/1999/xhtml"><span class="edgeLabel"></span></div></foreignObject></g></g><g class="edgeLabel"><g transform="translate(0, 0)" class="label"><foreignObject height="0" width="0"><div style="display: inline-block; white-space: nowrap;" xmlns="http://www.w3.org/1999/xhtml"><span class="edgeLabel"></span></div></foreignObject></g></g><g class="edgeLabel"><g transform="translate(0, 0)" class="label"><foreignObject height="0" width="0"><div style="display: inline-block; white-space: nowrap;" xmlns="http://www.w3.org/1999/xhtml"><span class="edgeLabel"></span></div></foreignObject></g></g><g class="edgeLabel"><g transform="translate(0, 0)" class="label"><foreignObject height="0" width="0"><div style="display: inline-block; white-space: nowrap;" xmlns="http://www.w3.org/1999/xhtml"><span class="edgeLabel"></span></div></foreignObject></g></g><g class="edgeLabel"><g transform="translate(0, 0)" class="label"><foreignObject height="0" width="0"><div style="display: inline-block; white-space: nowrap;" xmlns="http://www.w3.org/1999/xhtml"><span class="edgeLabel"></span></div></foreignObject></g></g><g class="edgeLabel"><g transform="translate(0, 0)" class="label"><foreignObject height="0" width="0"><div style="display: inline-block; white-space: nowrap;" xmlns="http://www.w3.org/1999/xhtml"><span class="edgeLabel"></span></div></foreignObject></g></g><g class="edgeLabel"><g transform="translate(0, 0)" class="label"><foreignObject height="0" width="0"><div style="display: inline-block; white-space: nowrap;" xmlns="http://www.w3.org/1999/xhtml"><span class="edgeLabel"></span></div></foreignObject></g></g></g><g class="nodes"><g transform="translate(1090.484375, 73.56536483764648)" data-id="OL" data-node="true" id="flowchart-OL-6" class="node default default flowchart-label"><path transform="translate(-86.9296875,-38.565365713389454)" d="M 0,14.543577142259634 a 86.9296875,14.543577142259634 0,0,0 173.859375 0 a 86.9296875,14.543577142259634 0,0,0 -173.859375 0 l 0,48.043577142259636 a 86.9296875,14.543577142259634 0,0,0 173.859375 0 l 0,-48.043577142259636" style=""/><g transform="translate(-79.4296875, -9.25)" style="" class="label"><rect/><foreignObject height="18.5" width="158.859375"><div style="display: inline-block; white-space: nowrap;" xmlns="http://www.w3.org/1999/xhtml"><span class="nodeLabel">Operation Log / Kafka</span></div></foreignObject></g></g><g transform="translate(1090.484375, 201.13991928100586)" data-id="DB" data-node="true" id="flowchart-DB-7" class="node default default flowchart-label"><path transform="translate(-91.28125,-39.009195285511076)" d="M 0,14.83946352367405 a 91.28125,14.83946352367405 0,0,0 182.5625 0 a 91.28125,14.83946352367405 0,0,0 -182.5625 0 l 0,48.33946352367405 a 91.28125,14.83946352367405 0,0,0 182.5625 0 l 0,-48.33946352367405" style=""/><g transform="translate(-83.78125, -9.25)" style="" class="label"><rect/><foreignObject height="18.5" width="167.5625"><div style="display: inline-block; white-space: nowrap;" xmlns="http://www.w3.org/1999/xhtml"><span class="nodeLabel">Document Metadata DB</span></div></foreignObject></g></g><g transform="translate(1090.484375, 330.33441162109375)" data-id="OS" data-node="true" id="flowchart-OS-8" class="node default default flowchart-label"><path transform="translate(-104.140625,-40.185302390998594)" d="M 0,15.623534927332395 a 104.140625,15.623534927332395 0,0,0 208.28125 0 a 104.140625,15.623534927332395 0,0,0 -208.28125 0 l 0,49.12353492733239 a 104.140625,15.623534927332395 0,0,0 208.28125 0 l 0,-49.12353492733239" style=""/><g transform="translate(-96.640625, -9.25)" style="" class="label"><rect/><foreignObject height="18.5" width="193.28125"><div style="display: inline-block; white-space: nowrap;" xmlns="http://www.w3.org/1999/xhtml"><span class="nodeLabel">Object Storage - Snapshots</span></div></foreignObject></g></g><g transform="translate(1090.484375, 460.6653366088867)" data-id="CACHE" data-node="true" id="flowchart-CACHE-9" class="node default default flowchart-label"><path transform="translate(-103.671875,-40.145627644569814)" d="M 0,15.597085096379878 a 103.671875,15.597085096379878 0,0,0 207.34375 0 a 103.671875,15.597085096379878 0,0,0 -207.34375 0 l 0,49.09708509637988 a 103.671875,15.597085096379878 0,0,0 207.34375 0 l 0,-49.09708509637988" style=""/><g transform="translate(-96.171875, -9.25)" style="" class="label"><rect/><foreignObject height="18.5" width="192.34375"><div style="display: inline-block; white-space: nowrap;" xmlns="http://www.w3.org/1999/xhtml"><span class="nodeLabel">Redis - Presence / Sessions</span></div></foreignObject></g></g><g transform="translate(553.25390625, 300.8504390716553)" data-id="GW" data-node="true" id="flowchart-GW-4" class="node default default flowchart-label"><rect height="33.5" width="166.6796875" y="-16.75" x="-83.33984375" ry="0" rx="0" style="" class="basic label-container"/><g transform="translate(-75.83984375, -9.25)" style="" class="label"><rect/><foreignObject height="18.5" width="151.6796875"><div style="display: inline-block; white-space: nowrap;" xmlns="http://www.w3.org/1999/xhtml"><span class="nodeLabel">WebSocket Gateways</span></div></foreignObject></g></g><g transform="translate(786.46875, 201.13991928100586)" data-id="DS" data-node="true" id="flowchart-DS-5" class="node default default flowchart-label"><rect height="33.5" width="199.75" y="-16.75" x="-99.875" ry="0" rx="0" style="" class="basic label-container"/><g transform="translate(-92.375, -9.25)" style="" class="label"><rect/><foreignObject height="18.5" width="184.75"><div style="display: inline-block; white-space: nowrap;" xmlns="http://www.w3.org/1999/xhtml"><span class="nodeLabel">Document Session Service</span></div></foreignObject></g></g><g transform="translate(290.48828125, 320.8504390716553)" data-id="LB" data-node="true" id="flowchart-LB-3" class="node default default flowchart-label"><rect height="33.5" width="158.8515625" y="-16.75" x="-79.42578125" ry="0" rx="0" style="" class="basic label-container"/><g transform="translate(-71.92578125, -9.25)" style="" class="label"><rect/><foreignObject height="18.5" width="143.8515625"><div style="display: inline-block; white-space: nowrap;" xmlns="http://www.w3.org/1999/xhtml"><span class="nodeLabel">Load Balancer / TLS</span></div></foreignObject></g></g><g transform="translate(68.03125, 247.4026279449463)" data-id="A" data-node="true" id="flowchart-A-0" class="node default default flowchart-label"><rect height="33.5" width="85.5625" y="-16.75" x="-42.78125" ry="0" rx="0" style="" class="basic label-container"/><g transform="translate(-35.28125, -9.25)" style="" class="label"><rect/><foreignObject height="18.5" width="70.5625"><div style="display: inline-block; white-space: nowrap;" xmlns="http://www.w3.org/1999/xhtml"><span class="nodeLabel">Browser A</span></div></foreignObject></g></g><g transform="translate(68.03125, 330.9026279449463)" data-id="B" data-node="true" id="flowchart-B-1" class="node default default flowchart-label"><rect height="33.5" width="86.0625" y="-16.75" x="-43.03125" ry="0" rx="0" style="" class="basic label-container"/><g transform="translate(-35.53125, -9.25)" style="" class="label"><rect/><foreignObject height="18.5" width="71.0625"><div style="display: inline-block; white-space: nowrap;" xmlns="http://www.w3.org/1999/xhtml"><span class="nodeLabel">Browser B</span></div></foreignObject></g></g><g transform="translate(68.03125, 414.4026279449463)" data-id="C" data-node="true" id="flowchart-C-2" class="node default default flowchart-label"><rect height="33.5" width="76.25" y="-16.75" x="-38.125" ry="0" rx="0" style="" class="basic label-container"/><g transform="translate(-30.625, -9.25)" style="" class="label"><rect/><foreignObject height="18.5" width="61.25"><div style="display: inline-block; white-space: nowrap;" xmlns="http://www.w3.org/1999/xhtml"><span class="nodeLabel">Mobile C</span></div></foreignObject></g></g></g></g></g></svg>