<svg aria-roledescription="flowchart-v2" role="graphics-document document" viewBox="-8 -8 1142.5546875 493.75" style="max-width: 1142.55px; background-color: white;" xmlns:xlink="http://www.w3.org/1999/xlink" xmlns="http://www.w3.org/2000/svg" width="100%" id="my-svg"><style>#my-svg{font-family:"trebuchet ms",verdana,arial,sans-serif;font-size:16px;fill:#333;}#my-svg .error-icon{fill:#552222;}#my-svg .error-text{fill:#552222;stroke:#552222;}#my-svg .edge-thickness-normal{stroke-width:2px;}#my-svg .edge-thickness-thick{stroke-width:3.5px;}#my-svg .edge-pattern-solid{stroke-dasharray:0;}#my-svg .edge-pattern-dashed{stroke-dasharray:3;}#my-svg .edge-pattern-dotted{stroke-dasharray:2;}#my-svg .marker{fill:#333333;stroke:#333333;}#my-svg .marker.cross{stroke:#333333;}#my-svg svg{font-family:"trebuchet ms",verdana,arial,sans-serif;font-size:16px;}#my-svg .label{font-family:"trebuchet ms",verdana,arial,sans-serif;color:#333;}#my-svg .cluster-label text{fill:#333;}#my-svg .cluster-label span,#my-svg p{color:#333;}#my-svg .label text,#my-svg span,#my-svg p{fill:#333;color:#333;}#my-svg .node rect,#my-svg .node circle,#my-svg .node ellipse,#my-svg .node polygon,#my-svg .node path{fill:#ECECFF;stroke:#9370DB;stroke-width:1px;}#my-svg .flowchart-label text{text-anchor:middle;}#my-svg .node .katex path{fill:#000;stroke:#000;stroke-width:1px;}#my-svg .node .label{text-align:center;}#my-svg .node.clickable{cursor:pointer;}#my-svg .arrowheadPath{fill:#333333;}#my-svg .edgePath .path{stroke:#333333;stroke-width:2.0px;}#my-svg .flowchart-link{stroke:#333333;fill:none;}#my-svg .edgeLabel{background-color:#e8e8e8;text-align:center;}#my-svg .edgeLabel rect{opacity:0.5;background-color:#e8e8e8;fill:#e8e8e8;}#my-svg .labelBkg{background-color:rgba(232, 232, 232, 0.5);}#my-svg .cluster rect{fill:#ffffde;stroke:#aaaa33;stroke-width:1px;}#my-svg .cluster text{fill:#333;}#my-svg .cluster span,#my-svg p{color:#333;}#my-svg div.mermaidTooltip{position:absolute;text-align:center;max-width:200px;padding:2px;font-family:"trebuchet ms",verdana,arial,sans-serif;font-size:12px;background:hsl(80, 100%, 96.2745098039%);border:1px solid #aaaa33;border-radius:2px;pointer-events:none;z-index:100;}#my-svg .flowchartTitleText{text-anchor:middle;font-size:18px;fill:#333;}#my-svg :root{--mermaid-font-family:"trebuchet ms",verdana,arial,sans-serif;}</style><g><marker orient="auto" markerHeight="12" markerWidth="12" markerUnits="userSpaceOnUse" refY="5" refX="6" viewBox="0 0 10 10" class="marker flowchart" id="my-svg_flowchart-pointEnd"><path style="stroke-width: 1; stroke-dasharray: 1, 0;" class="arrowMarkerPath" d="M 0 0 L 10 5 L 0 10 z"/></marker><marker orient="auto" markerHeight="12" markerWidth="12" markerUnits="userSpaceOnUse" refY="5" refX="4.5" viewBox="0 0 10 10" class="marker flowchart" id="my-svg_flowchart-pointStart"><path style="stroke-width: 1; stroke-dasharray: 1, 0;" class="arrowMarkerPath" d="M 0 5 L 10 10 L 10 0 z"/></marker><marker orient="auto" markerHeight="11" markerWidth="11" markerUnits="userSpaceOnUse" refY="5" refX="11" viewBox="0 0 10 10" class="marker flowchart" id="my-svg_flowchart-circleEnd"><circle style="stroke-width: 1; stroke-dasharray: 1, 0;" class="arrowMarkerPath" r="5" cy="5" cx="5"/></marker><marker orient="auto" markerHeight="11" markerWidth="11" markerUnits="userSpaceOnUse" refY="5" refX="-1" viewBox="0 0 10 10" class="marker flowchart" id="my-svg_flowchart-circleStart"><circle style="stroke-width: 1; stroke-dasharray: 1, 0;" class="arrowMarkerPath" r="5" cy="5" cx="5"/></marker><marker orient="auto" markerHeight="11" markerWidth="11" markerUnits="userSpaceOnUse" refY="5.2" refX="12" viewBox="0 0 11 11" class="marker cross flowchart" id="my-svg_flowchart-crossEnd"><path style="stroke-width: 2; stroke-dasharray: 1, 0;" class="arrowMarkerPath" d="M 1,1 l 9,9 M 10,1 l -9,9"/></marker><marker orient="auto" markerHeight="11" markerWidth="11" markerUnits="userSpaceOnUse" refY="5.2" refX="-1" viewBox="0 0 11 11" class="marker cross flowchart" id="my-svg_flowchart-crossStart"><path style="stroke-width: 2; stroke-dasharray: 1, 0;" class="arrowMarkerPath" d="M 1,1 l 9,9 M 10,1 l -9,9"/></marker><g class="root"><g class="clusters"><g id="Chunkservers" class="cluster default flowchart-label"><rect height="270.5" width="265.4765625" y="207.25" x="861.078125" ry="0" rx="0" style=""/><g transform="translate(922.22265625, 207.25)" class="cluster-label"><foreignObject height="18.5" width="143.1875"><div style="display: inline-block; white-space: nowrap;" xmlns="http://www.w3.org/1999/xhtml"><span class="nodeLabel">Chunkservers (data)</span></div></foreignObject></g></g><g id="Master" class="cluster default flowchart-label"><rect height="187.25" width="782.8203125" y="0" x="343.734375" ry="0" rx="0" style=""/><g transform="translate(668.68359375, 0)" class="cluster-label"><foreignObject height="18.5" width="132.921875"><div style="display: inline-block; white-space: nowrap;" xmlns="http://www.w3.org/1999/xhtml"><span class="nodeLabel">Master (metadata)</span></div></foreignObject></g></g><g id="Clients" class="cluster default flowchart-label"><rect height="343.25" width="185.8046875" y="35.125" x="0" ry="0" rx="0" style=""/><g transform="translate(68.33203125, 35.125)" class="cluster-label"><foreignObject height="18.5" width="49.140625"><div style="display: inline-block; white-space: nowrap;" xmlns="http://www.w3.org/1999/xhtml"><span class="nodeLabel">Clients</span></div></foreignObject></g></g></g><g class="edgePaths"><path marker-end="url(#my-svg_flowchart-pointEnd)" style="fill:none;" class="edge-thickness-normal edge-pattern-solid flowchart-link LS-C1 LE-M" id="L-C1-M-0" d="M110.387,153.25L122.956,141.208C135.526,129.167,160.665,105.083,186.396,93.042C212.126,81,238.448,81,264.77,81C291.091,81,317.413,81,333.864,81.424C350.316,81.849,356.897,82.698,360.187,83.122L363.478,83.547"/><path marker-end="url(#my-svg_flowchart-pointEnd)" style="fill:none;" class="edge-thickness-normal edge-pattern-solid flowchart-link LS-C2 LE-M" id="L-C2-M-0" d="M107.937,238.125L120.915,223.667C133.893,209.208,159.849,180.292,185.988,165.833C212.126,151.375,238.448,151.375,264.77,151.375C291.091,151.375,317.413,151.375,346.462,145.932C375.512,140.489,407.289,129.603,423.178,124.161L439.067,118.718"/><path marker-end="url(#my-svg_flowchart-pointEnd)" style="fill:none;" class="edge-thickness-normal edge-pattern-solid flowchart-link LS-C1 LE-S1" id="L-C1-S1-0" d="M110.387,186.75L122.956,198.792C135.526,210.833,160.665,234.917,186.396,246.958C212.126,259,238.448,259,264.77,259C291.091,259,317.413,259,355.447,259C393.482,259,443.229,259,509.132,259C575.034,259,657.091,259,718.441,259C779.792,259,820.435,259,855.24,259C890.045,259,919.011,259,933.494,259L947.977,259"/><path marker-end="url(#my-svg_flowchart-pointEnd)" style="fill:none;" class="edge-thickness-normal edge-pattern-solid flowchart-link LS-C2 LE-S2" id="L-C2-S2-0" d="M110.661,271.625L123.185,283.438C135.709,295.25,160.757,318.875,186.442,330.688C212.126,342.5,238.448,342.5,264.77,342.5C291.091,342.5,317.413,342.5,355.447,342.5C393.482,342.5,443.229,342.5,509.132,342.5C575.034,342.5,657.091,342.5,718.441,342.5C779.792,342.5,820.435,342.5,855.198,342.5C889.961,342.5,918.844,342.5,933.286,342.5L947.727,342.5"/><path marker-end="url(#my-svg_flowchart-pointEnd)" style="fill:none;" class="edge-thickness-normal edge-pattern-solid flowchart-link LS-M LE-S1" id="L-M-S1-0" d="M617.219,90.535L637.54,88.945C657.862,87.356,698.505,84.178,739.148,82.589C779.792,81,820.435,81,860.27,107.167C900.104,133.334,939.131,185.668,958.644,211.834L978.157,238.001"/><path marker-end="url(#my-svg_flowchart-pointEnd)" style="fill:none;" class="edge-thickness-normal edge-pattern-solid flowchart-link LS-M LE-S2" id="L-M-S2-0" d="M617.219,109.965L637.54,111.555C657.862,113.144,698.505,116.322,739.148,117.911C779.792,119.5,820.435,119.5,860.766,153.116C901.097,186.732,941.116,253.964,961.126,287.58L981.135,321.196"/><path marker-end="url(#my-svg_flowchart-pointEnd)" style="fill:none;" class="edge-thickness-normal edge-pattern-solid flowchart-link LS-M LE-S3" id="L-M-S3-0" d="M564.377,117L593.506,123.833C622.634,130.667,680.891,144.333,730.341,151.167C779.792,158,820.435,158,861.105,199.083C901.775,240.167,942.471,322.334,962.82,363.417L983.168,404.501"/><path style="fill:none;" class="edge-thickness-normal edge-pattern-solid flowchart-link LS-M LE-L" id="L-M-L-0" d="M577.995,83.5L604.854,78.208C631.713,72.917,685.431,62.333,732.611,57.042C779.792,51.75,820.435,51.75,844.923,51.75C869.411,51.75,877.745,51.75,881.911,51.75L886.078,51.75"/></g><g class="edgeLabels"><g transform="translate(264.76953125, 81)" class="edgeLabel"><g transform="translate(-53.96484375, -9.25)" class="label"><foreignObject height="18.5" width="107.9296875"><div style="display: inline-block; white-space: nowrap;" xmlns="http://www.w3.org/1999/xhtml"><span class="edgeLabel">metadata RPCs</span></div></foreignObject></g></g><g transform="translate(264.76953125, 151.375)" class="edgeLabel"><g transform="translate(-53.96484375, -9.25)" class="label"><foreignObject height="18.5" width="107.9296875"><div style="display: inline-block; white-space: nowrap;" xmlns="http://www.w3.org/1999/xhtml"><span class="edgeLabel">metadata RPCs</span></div></foreignObject></g></g><g transform="translate(492.9765625, 259)" class="edgeLabel"><g transform="translate(-64.12890625, -9.25)" class="label"><foreignObject height="18.5" width="128.2578125"><div style="display: inline-block; white-space: nowrap;" xmlns="http://www.w3.org/1999/xhtml"><span class="edgeLabel">data reads/writes</span></div></foreignObject></g></g><g transform="translate(492.9765625, 342.5)" class="edgeLabel"><g transform="translate(-57.65234375, -9.25)" class="label"><foreignObject height="18.5" width="115.3046875"><div style="display: inline-block; white-space: nowrap;" xmlns="http://www.w3.org/1999/xhtml"><span class="edgeLabel">append pipeline</span></div></foreignObject></g></g><g transform="translate(739.1484375, 81)" class="edgeLabel"><g transform="translate(-96.9296875, -9.25)" class="label"><foreignObject height="18.5" width="193.859375"><div style="display: inline-block; white-space: nowrap;" xmlns="http://www.w3.org/1999/xhtml"><span class="edgeLabel">heartbeats / chunk reports</span></div></foreignObject></g></g><g transform="translate(739.1484375, 119.5)" class="edgeLabel"><g transform="translate(-96.9296875, -9.25)" class="label"><foreignObject height="18.5" width="193.859375"><div style="display: inline-block; white-space: nowrap;" xmlns="http://www.w3.org/1999/xhtml"><span class="edgeLabel">heartbeats / chunk reports</span></div></foreignObject></g></g><g transform="translate(739.1484375, 158)" class="edgeLabel"><g transform="translate(-96.9296875, -9.25)" class="label"><foreignObject height="18.5" width="193.859375"><div style="display: inline-block; white-space: nowrap;" xmlns="http://www.w3.org/1999/xhtml"><span class="edgeLabel">heartbeats / chunk reports</span></div></foreignObject></g></g><g class="edgeLabel"><g transform="translate(0, 0)" class="label"><foreignObject height="0" width="0"><div style="display: inline-block; white-space: nowrap;" xmlns="http://www.w3.org/1999/xhtml"><span class="edgeLabel"></span></div></foreignObject></g></g></g><g class="nodes"><g transform="translate(993.81640625, 259)" data-id="S1" data-node="true" id="flowchart-S1-4" class="node default default flowchart-label"><rect height="33.5" width="81.078125" y="-16.75" x="-40.5390625" ry="0" rx="0" style="" class="basic label-container"/><g transform="translate(-33.0390625, -9.25)" style="" class="label"><rect/><foreignObject height="18.5" width="66.078125"><div style="display: inline-block; white-space: nowrap;" xmlns="http://www.w3.org/1999/xhtml"><span class="nodeLabel">CS rack A</span></div></foreignObject></g></g><g transform="translate(993.81640625, 342.5)" data-id="S2" data-node="true" id="flowchart-S2-5" class="node default default flowchart-label"><rect height="33.5" width="81.578125" y="-16.75" x="-40.7890625" ry="0" rx="0" style="" class="basic label-container"/><g transform="translate(-33.2890625, -9.25)" style="" class="label"><rect/><foreignObject height="18.5" width="66.578125"><div style="display: inline-block; white-space: nowrap;" xmlns="http://www.w3.org/1999/xhtml"><span class="nodeLabel">CS rack B</span></div></foreignObject></g></g><g transform="translate(993.81640625, 426)" data-id="S3" data-node="true" id="flowchart-S3-6" class="node default default flowchart-label"><rect height="33.5" width="82.09375" y="-16.75" x="-41.046875" ry="0" rx="0" style="" class="basic label-container"/><g transform="translate(-33.546875, -9.25)" style="" class="label"><rect/><foreignObject height="18.5" width="67.09375"><div style="display: inline-block; white-space: nowrap;" xmlns="http://www.w3.org/1999/xhtml"><span class="nodeLabel">CS rack C</span></div></foreignObject></g></g><g transform="translate(492.9765625, 100.25)" data-id="M" data-node="true" id="flowchart-M-2" class="node default default flowchart-label"><rect height="33.5" width="248.484375" y="-16.75" x="-124.2421875" ry="0" rx="0" style="" class="basic label-container"/><g transform="translate(-116.7421875, -9.25)" style="" class="label"><rect/><foreignObject height="18.5" width="233.484375"><div style="display: inline-block; white-space: nowrap;" xmlns="http://www.w3.org/1999/xhtml"><span class="nodeLabel">Namespace + chunkmap + leases</span></div></foreignObject></g></g><g transform="translate(993.81640625, 51.75)" data-id="L" data-node="true" id="flowchart-L-3" class="node default default flowchart-label"><rect height="33.5" width="215.4765625" y="-16.75" x="-107.73828125" ry="0" rx="0" style="" class="basic label-container"/><g transform="translate(-100.23828125, -9.25)" style="" class="label"><rect/><foreignObject height="18.5" width="200.4765625"><div style="display: inline-block; white-space: nowrap;" xmlns="http://www.w3.org/1999/xhtml"><span class="nodeLabel">Operation log + checkpoints</span></div></foreignObject></g></g><g transform="translate(92.90234375, 170)" data-id="C1" data-node="true" id="flowchart-C1-0" class="node default default flowchart-label"><rect height="33.5" width="129.4921875" y="-16.75" x="-64.74609375" ry="0" rx="0" style="" class="basic label-container"/><g transform="translate(-57.24609375, -9.25)" style="" class="label"><rect/><foreignObject height="18.5" width="114.4921875"><div style="display: inline-block; white-space: nowrap;" xmlns="http://www.w3.org/1999/xhtml"><span class="nodeLabel">Batch job client</span></div></foreignObject></g></g><g transform="translate(92.90234375, 254.875)" data-id="C2" data-node="true" id="flowchart-C2-1" class="node default default flowchart-label"><rect height="33.5" width="135.8046875" y="-16.75" x="-67.90234375" ry="0" rx="0" style="" class="basic label-container"/><g transform="translate(-60.40234375, -9.25)" style="" class="label"><rect/><foreignObject height="18.5" width="120.8046875"><div style="display: inline-block; white-space: nowrap;" xmlns="http://www.w3.org/1999/xhtml"><span class="nodeLabel">Streaming writer</span></div></foreignObject></g></g></g></g></g></svg>