<svg aria-roledescription="flowchart-v2" role="graphics-document document" viewBox="-8 -8 1075.4296875 438.8250732421875" style="max-width: 1075.43px; background-color: white;" xmlns:xlink="http://www.w3.org/1999/xlink" xmlns="http://www.w3.org/2000/svg" width="100%" id="my-svg"><style>#my-svg{font-family:"trebuchet ms",verdana,arial,sans-serif;font-size:16px;fill:#333;}#my-svg .error-icon{fill:#552222;}#my-svg .error-text{fill:#552222;stroke:#552222;}#my-svg .edge-thickness-normal{stroke-width:2px;}#my-svg .edge-thickness-thick{stroke-width:3.5px;}#my-svg .edge-pattern-solid{stroke-dasharray:0;}#my-svg .edge-pattern-dashed{stroke-dasharray:3;}#my-svg .edge-pattern-dotted{stroke-dasharray:2;}#my-svg .marker{fill:#333333;stroke:#333333;}#my-svg .marker.cross{stroke:#333333;}#my-svg svg{font-family:"trebuchet ms",verdana,arial,sans-serif;font-size:16px;}#my-svg .label{font-family:"trebuchet ms",verdana,arial,sans-serif;color:#333;}#my-svg .cluster-label text{fill:#333;}#my-svg .cluster-label span,#my-svg p{color:#333;}#my-svg .label text,#my-svg span,#my-svg p{fill:#333;color:#333;}#my-svg .node rect,#my-svg .node circle,#my-svg .node ellipse,#my-svg .node polygon,#my-svg .node path{fill:#ECECFF;stroke:#9370DB;stroke-width:1px;}#my-svg .flowchart-label text{text-anchor:middle;}#my-svg .node .katex path{fill:#000;stroke:#000;stroke-width:1px;}#my-svg .node .label{text-align:center;}#my-svg .node.clickable{cursor:pointer;}#my-svg .arrowheadPath{fill:#333333;}#my-svg .edgePath .path{stroke:#333333;stroke-width:2.0px;}#my-svg .flowchart-link{stroke:#333333;fill:none;}#my-svg .edgeLabel{background-color:#e8e8e8;text-align:center;}#my-svg .edgeLabel rect{opacity:0.5;background-color:#e8e8e8;fill:#e8e8e8;}#my-svg .labelBkg{background-color:rgba(232, 232, 232, 0.5);}#my-svg .cluster rect{fill:#ffffde;stroke:#aaaa33;stroke-width:1px;}#my-svg .cluster text{fill:#333;}#my-svg .cluster span,#my-svg p{color:#333;}#my-svg div.mermaidTooltip{position:absolute;text-align:center;max-width:200px;padding:2px;font-family:"trebuchet ms",verdana,arial,sans-serif;font-size:12px;background:hsl(80, 100%, 96.2745098039%);border:1px solid #aaaa33;border-radius:2px;pointer-events:none;z-index:100;}#my-svg .flowchartTitleText{text-anchor:middle;font-size:18px;fill:#333;}#my-svg :root{--mermaid-font-family:"trebuchet ms",verdana,arial,sans-serif;}</style><g><marker orient="auto" markerHeight="12" markerWidth="12" markerUnits="userSpaceOnUse" refY="5" refX="6" viewBox="0 0 10 10" class="marker flowchart" id="my-svg_flowchart-pointEnd"><path style="stroke-width: 1; stroke-dasharray: 1, 0;" class="arrowMarkerPath" d="M 0 0 L 10 5 L 0 10 z"/></marker><marker orient="auto" markerHeight="12" markerWidth="12" markerUnits="userSpaceOnUse" refY="5" refX="4.5" viewBox="0 0 10 10" class="marker flowchart" id="my-svg_flowchart-pointStart"><path style="stroke-width: 1; stroke-dasharray: 1, 0;" class="arrowMarkerPath" d="M 0 5 L 10 10 L 10 0 z"/></marker><marker orient="auto" markerHeight="11" markerWidth="11" markerUnits="userSpaceOnUse" refY="5" refX="11" viewBox="0 0 10 10" class="marker flowchart" id="my-svg_flowchart-circleEnd"><circle style="stroke-width: 1; stroke-dasharray: 1, 0;" class="arrowMarkerPath" r="5" cy="5" cx="5"/></marker><marker orient="auto" markerHeight="11" markerWidth="11" markerUnits="userSpaceOnUse" refY="5" refX="-1" viewBox="0 0 10 10" class="marker flowchart" id="my-svg_flowchart-circleStart"><circle style="stroke-width: 1; stroke-dasharray: 1, 0;" class="arrowMarkerPath" r="5" cy="5" cx="5"/></marker><marker orient="auto" markerHeight="11" markerWidth="11" markerUnits="userSpaceOnUse" refY="5.2" refX="12" viewBox="0 0 11 11" class="marker cross flowchart" id="my-svg_flowchart-crossEnd"><path style="stroke-width: 2; stroke-dasharray: 1, 0;" class="arrowMarkerPath" d="M 1,1 l 9,9 M 10,1 l -9,9"/></marker><marker orient="auto" markerHeight="11" markerWidth="11" markerUnits="userSpaceOnUse" refY="5.2" refX="-1" viewBox="0 0 11 11" class="marker cross flowchart" id="my-svg_flowchart-crossStart"><path style="stroke-width: 2; stroke-dasharray: 1, 0;" class="arrowMarkerPath" d="M 1,1 l 9,9 M 10,1 l -9,9"/></marker><g class="root"><g class="clusters"><g id="Metadata" class="cluster default flowchart-label"><rect height="137.32506561279297" width="224.6328125" y="285.5" x="0" ry="0" rx="0" style=""/><g transform="translate(78.8671875, 285.5)" class="cluster-label"><foreignObject height="18.5" width="66.8984375"><div style="display: inline-block; white-space: nowrap;" xmlns="http://www.w3.org/1999/xhtml"><span class="nodeLabel">Metadata</span></div></foreignObject></g></g><g id="Consumers" class="cluster default flowchart-label"><rect height="137.32506561279297" width="598.7890625" y="285.5" x="244.6328125" ry="0" rx="0" style=""/><g transform="translate(505.6171875, 285.5)" class="cluster-label"><foreignObject height="18.5" width="76.8203125"><div style="display: inline-block; white-space: nowrap;" xmlns="http://www.w3.org/1999/xhtml"><span class="nodeLabel">Consumers</span></div></foreignObject></g></g><g id="Storage" class="cluster default flowchart-label"><rect height="137.32506561279297" width="181.34375" y="285.5" x="863.421875" ry="0" rx="0" style=""/><g transform="translate(927.08984375, 285.5)" class="cluster-label"><foreignObject height="18.5" width="54.0078125"><div style="display: inline-block; white-space: nowrap;" xmlns="http://www.w3.org/1999/xhtml"><span class="nodeLabel">Storage</span></div></foreignObject></g></g><g id="Brokers" class="cluster default flowchart-label"><rect height="102" width="1043.271484375" y="133.5" x="16.158203125" ry="0" rx="0" style=""/><g transform="translate(511.1181640625, 133.5)" class="cluster-label"><foreignObject height="18.5" width="53.3515625"><div style="display: inline-block; white-space: nowrap;" xmlns="http://www.w3.org/1999/xhtml"><span class="nodeLabel">Brokers</span></div></foreignObject></g></g><g id="Producers" class="cluster default flowchart-label"><rect height="83.5" width="321.5390625" y="0" x="254.42578125" ry="0" rx="0" style=""/><g transform="translate(380.20703125, 0)" class="cluster-label"><foreignObject height="18.5" width="69.9765625"><div style="display: inline-block; white-space: nowrap;" xmlns="http://www.w3.org/1999/xhtml"><span class="nodeLabel">Producers</span></div></foreignObject></g></g></g><g class="edgePaths"><path marker-end="url(#my-svg_flowchart-pointEnd)" style="fill:none;" class="edge-thickness-normal edge-pattern-solid flowchart-link LS-P1 LE-B1" id="L-P1-B1-0" d="M335.363,58.5L335.363,62.667C335.363,66.833,335.363,75.167,335.363,83.5C335.363,91.833,335.363,100.167,335.363,108.5C335.363,116.833,335.363,125.167,335.363,132.617C335.363,140.067,335.363,146.633,335.363,149.917L335.363,153.2"/><path marker-end="url(#my-svg_flowchart-pointEnd)" style="fill:none;" class="edge-thickness-normal edge-pattern-solid flowchart-link LS-P2 LE-B2" id="L-P2-B2-0" d="M494.777,58.5L494.777,62.667C494.777,66.833,494.777,75.167,494.777,83.5C494.777,91.833,494.777,100.167,494.777,108.5C494.777,116.833,494.777,125.167,494.777,132.617C494.777,140.067,494.777,146.633,494.777,149.917L494.777,153.2"/><path marker-end="url(#my-svg_flowchart-pointEnd)" style="fill:none;" class="edge-thickness-normal edge-pattern-solid flowchart-link LS-B1 LE-L1" id="L-B1-L1-0" d="M390.07,189.202L479.852,196.918C569.633,204.635,749.195,220.067,838.977,231.95C928.758,243.833,928.758,252.167,928.758,260.5C928.758,268.833,928.758,277.167,929.995,284.753C931.232,292.34,933.706,299.18,934.943,302.6L936.18,306.02"/><path marker-end="url(#my-svg_flowchart-pointEnd)" style="fill:none;" class="edge-thickness-normal edge-pattern-solid flowchart-link LS-B2 LE-L1" id="L-B2-L1-0" d="M549.484,190.646L616.03,198.121C682.576,205.597,815.667,220.549,882.212,232.191C948.758,243.833,948.758,252.167,948.758,260.5C948.758,268.833,948.758,277.167,949.013,284.623C949.269,292.079,949.78,298.659,950.035,301.948L950.29,305.238"/><path marker-end="url(#my-svg_flowchart-pointEnd)" style="fill:none;" class="edge-thickness-normal edge-pattern-solid flowchart-link LS-B3 LE-L1" id="L-B3-L1-0" d="M759.324,193.801L800.2,200.751C841.075,207.701,922.826,221.6,963.701,232.717C1004.576,243.833,1004.576,252.167,1004.576,260.5C1004.576,268.833,1004.576,277.167,1002.008,285.128C999.44,293.089,994.303,300.677,991.735,304.472L989.166,308.266"/><path marker-end="url(#my-svg_flowchart-pointEnd)" style="fill:none;" class="edge-thickness-normal edge-pattern-solid flowchart-link LS-B1 LE-G1" id="L-B1-G1-0" d="M335.363,210.5L335.363,214.667C335.363,218.833,335.363,227.167,335.363,235.5C335.363,243.833,335.363,252.167,335.363,260.5C335.363,268.833,335.363,277.167,344.738,289.409C354.112,301.651,372.861,317.802,382.236,325.878L391.611,333.953"/><path marker-end="url(#my-svg_flowchart-pointEnd)" style="fill:none;" class="edge-thickness-normal edge-pattern-solid flowchart-link LS-B2 LE-G1" id="L-B2-G1-0" d="M494.777,210.5L494.777,214.667C494.777,218.833,494.777,227.167,494.777,235.5C494.777,243.833,494.777,252.167,494.777,260.5C494.777,268.833,494.777,277.167,485.403,289.409C476.028,301.651,457.279,317.802,447.905,325.878L438.53,333.953"/><path marker-end="url(#my-svg_flowchart-pointEnd)" style="fill:none;" class="edge-thickness-normal edge-pattern-solid flowchart-link LS-B3 LE-G2" id="L-B3-G2-0" d="M704.617,210.5L704.617,214.667C704.617,218.833,704.617,227.167,704.617,235.5C704.617,243.833,704.617,252.167,704.617,260.5C704.617,268.833,704.617,277.167,704.617,289.102C704.617,301.038,704.617,316.575,704.617,324.344L704.617,332.113"/><path marker-end="url(#my-svg_flowchart-pointEnd)" style="fill:none;stroke-width:2px;stroke-dasharray:3;" class="edge-thickness-normal edge-pattern-dotted flowchart-link LS-B1 LE-Z" id="L-B1-Z-0" d="M280.656,195.469L247.382,202.141C214.108,208.813,147.56,222.156,114.286,232.995C81.012,243.833,81.012,252.167,81.012,260.5C81.012,268.833,81.012,277.167,83.887,287.64C86.762,298.113,92.513,310.727,95.388,317.033L98.264,323.34"/><path marker-end="url(#my-svg_flowchart-pointEnd)" style="fill:none;stroke-width:2px;stroke-dasharray:3;" class="edge-thickness-normal edge-pattern-dotted flowchart-link LS-B2 LE-Z" id="L-B2-Z-0" d="M440.07,192.331L389.804,199.525C339.538,206.72,239.007,221.11,188.741,232.472C138.475,243.833,138.475,252.167,138.475,260.5C138.475,268.833,138.475,277.167,136.08,287.618C133.686,298.07,128.897,310.64,126.503,316.925L124.108,323.21"/><path marker-end="url(#my-svg_flowchart-pointEnd)" style="fill:none;stroke-width:2px;stroke-dasharray:3;" class="edge-thickness-normal edge-pattern-dotted flowchart-link LS-B3 LE-Z" id="L-B3-Z-0" d="M649.91,189.609L568.004,197.257C486.098,204.906,322.286,220.203,240.381,232.018C158.475,243.833,158.475,252.167,158.475,260.5C158.475,268.833,158.475,277.167,154.187,287.711C149.9,298.255,141.326,311.009,137.039,317.387L132.752,323.764"/></g><g class="edgeLabels"><g class="edgeLabel"><g transform="translate(0, 0)" class="label"><foreignObject height="0" width="0"><div style="display: inline-block; white-space: nowrap;" xmlns="http://www.w3.org/1999/xhtml"><span class="edgeLabel"></span></div></foreignObject></g></g><g class="edgeLabel"><g transform="translate(0, 0)" class="label"><foreignObject height="0" width="0"><div style="display: inline-block; white-space: nowrap;" xmlns="http://www.w3.org/1999/xhtml"><span class="edgeLabel"></span></div></foreignObject></g></g><g class="edgeLabel"><g transform="translate(0, 0)" class="label"><foreignObject height="0" width="0"><div style="display: inline-block; white-space: nowrap;" xmlns="http://www.w3.org/1999/xhtml"><span class="edgeLabel"></span></div></foreignObject></g></g><g class="edgeLabel"><g transform="translate(0, 0)" class="label"><foreignObject height="0" width="0"><div style="display: inline-block; white-space: nowrap;" xmlns="http://www.w3.org/1999/xhtml"><span class="edgeLabel"></span></div></foreignObject></g></g><g class="edgeLabel"><g transform="translate(0, 0)" class="label"><foreignObject height="0" width="0"><div style="display: inline-block; white-space: nowrap;" xmlns="http://www.w3.org/1999/xhtml"><span class="edgeLabel"></span></div></foreignObject></g></g><g class="edgeLabel"><g transform="translate(0, 0)" class="label"><foreignObject height="0" width="0"><div style="display: inline-block; white-space: nowrap;" xmlns="http://www.w3.org/1999/xhtml"><span class="edgeLabel"></span></div></foreignObject></g></g><g class="edgeLabel"><g transform="translate(0, 0)" class="label"><foreignObject height="0" width="0"><div style="display: inline-block; white-space: nowrap;" xmlns="http://www.w3.org/1999/xhtml"><span class="edgeLabel"></span></div></foreignObject></g></g><g class="edgeLabel"><g transform="translate(0, 0)" class="label"><foreignObject height="0" width="0"><div style="display: inline-block; white-space: nowrap;" xmlns="http://www.w3.org/1999/xhtml"><span class="edgeLabel"></span></div></foreignObject></g></g><g class="edgeLabel"><g transform="translate(0, 0)" class="label"><foreignObject height="0" width="0"><div style="display: inline-block; white-space: nowrap;" xmlns="http://www.w3.org/1999/xhtml"><span class="edgeLabel"></span></div></foreignObject></g></g><g class="edgeLabel"><g transform="translate(0, 0)" class="label"><foreignObject height="0" width="0"><div style="display: inline-block; white-space: nowrap;" xmlns="http://www.w3.org/1999/xhtml"><span class="edgeLabel"></span></div></foreignObject></g></g><g class="edgeLabel"><g transform="translate(0, 0)" class="label"><foreignObject height="0" width="0"><div style="display: inline-block; white-space: nowrap;" xmlns="http://www.w3.org/1999/xhtml"><span class="edgeLabel"></span></div></foreignObject></g></g></g><g class="nodes"><g transform="translate(112.31640625, 354.1625328063965)" data-id="Z" data-node="true" id="flowchart-Z-8" class="node default default flowchart-label"><rect height="52" width="154.6328125" y="-26" x="-77.31640625" ry="0" rx="0" style="" class="basic label-container"/><g transform="translate(-69.81640625, -18.5)" style="" class="label"><rect/><foreignObject height="37" width="139.6328125"><div style="display: inline-block; white-space: nowrap;" xmlns="http://www.w3.org/1999/xhtml"><span class="nodeLabel">ZooKeeper or KRaft<br />metadata quorum</span></div></foreignObject></g></g><g transform="translate(415.0703125, 354.1625328063965)" data-id="G1" data-node="true" id="flowchart-G1-6" class="node default default flowchart-label"><rect height="33.5" width="212.921875" y="-16.75" x="-106.4609375" ry="0" rx="0" style="" class="basic label-container"/><g transform="translate(-98.9609375, -9.25)" style="" class="label"><rect/><foreignObject height="18.5" width="197.921875"><div style="display: inline-block; white-space: nowrap;" xmlns="http://www.w3.org/1999/xhtml"><span class="nodeLabel">Consumer Group: payments</span></div></foreignObject></g></g><g transform="translate(704.6171875, 354.1625328063965)" data-id="G2" data-node="true" id="flowchart-G2-7" class="node default default flowchart-label"><rect height="33.5" width="207.609375" y="-16.75" x="-103.8046875" ry="0" rx="0" style="" class="basic label-container"/><g transform="translate(-96.3046875, -9.25)" style="" class="label"><rect/><foreignObject height="18.5" width="192.609375"><div style="display: inline-block; white-space: nowrap;" xmlns="http://www.w3.org/1999/xhtml"><span class="nodeLabel">Consumer Group: analytics</span></div></foreignObject></g></g><g transform="translate(954.09375, 354.1625328063965)" data-id="L1" data-node="true" id="flowchart-L1-5" class="node default default flowchart-label"><path transform="translate(-55.671875,-43.66660055533519)" d="M 0,11.777733703556791 a 55.671875,11.777733703556791 0,0,0 111.34375 0 a 55.671875,11.777733703556791 0,0,0 -111.34375 0 l 0,63.77773370355679 a 55.671875,11.777733703556791 0,0,0 111.34375 0 l 0,-63.77773370355679" style=""/><g transform="translate(-48.171875, -18.5)" style="" class="label"><rect/><foreignObject height="37" width="96.34375"><div style="display: inline-block; white-space: nowrap;" xmlns="http://www.w3.org/1999/xhtml"><span class="nodeLabel">Log segments<br />+ indexes</span></div></foreignObject></g></g><g transform="translate(335.36328125, 184.5)" data-id="B1" data-node="true" id="flowchart-B1-2" class="node default default flowchart-label"><rect height="52" width="109.4140625" y="-26" x="-54.70703125" ry="0" rx="0" style="" class="basic label-container"/><g transform="translate(-47.20703125, -18.5)" style="" class="label"><rect/><foreignObject height="37" width="94.4140625"><div style="display: inline-block; white-space: nowrap;" xmlns="http://www.w3.org/1999/xhtml"><span class="nodeLabel">Broker 1<br />Leader P0,P3</span></div></foreignObject></g></g><g transform="translate(494.77734375, 184.5)" data-id="B2" data-node="true" id="flowchart-B2-3" class="node default default flowchart-label"><rect height="52" width="109.4140625" y="-26" x="-54.70703125" ry="0" rx="0" style="" class="basic label-container"/><g transform="translate(-47.20703125, -18.5)" style="" class="label"><rect/><foreignObject height="37" width="94.4140625"><div style="display: inline-block; white-space: nowrap;" xmlns="http://www.w3.org/1999/xhtml"><span class="nodeLabel">Broker 2<br />Leader P1,P4</span></div></foreignObject></g></g><g transform="translate(704.6171875, 184.5)" data-id="B3" data-node="true" id="flowchart-B3-4" class="node default default flowchart-label"><rect height="52" width="109.4140625" y="-26" x="-54.70703125" ry="0" rx="0" style="" class="basic label-container"/><g transform="translate(-47.20703125, -18.5)" style="" class="label"><rect/><foreignObject height="37" width="94.4140625"><div style="display: inline-block; white-space: nowrap;" xmlns="http://www.w3.org/1999/xhtml"><span class="nodeLabel">Broker 3<br />Leader P2,P5</span></div></foreignObject></g></g><g transform="translate(335.36328125, 41.75)" data-id="P1" data-node="true" id="flowchart-P1-0" class="node default default flowchart-label"><rect height="33.5" width="91.875" y="-16.75" x="-45.9375" ry="0" rx="0" style="" class="basic label-container"/><g transform="translate(-38.4375, -9.25)" style="" class="label"><rect/><foreignObject height="18.5" width="76.875"><div style="display: inline-block; white-space: nowrap;" xmlns="http://www.w3.org/1999/xhtml"><span class="nodeLabel">Producer A</span></div></foreignObject></g></g><g transform="translate(494.77734375, 41.75)" data-id="P2" data-node="true" id="flowchart-P2-1" class="node default default flowchart-label"><rect height="33.5" width="92.375" y="-16.75" x="-46.1875" ry="0" rx="0" style="" class="basic label-container"/><g transform="translate(-38.6875, -9.25)" style="" class="label"><rect/><foreignObject height="18.5" width="77.375"><div style="display: inline-block; white-space: nowrap;" xmlns="http://www.w3.org/1999/xhtml"><span class="nodeLabel">Producer B</span></div></foreignObject></g></g></g></g></g></svg>