<svg aria-roledescription="stateDiagram" role="graphics-document document" viewBox="0 0 552.509765625 687.5" style="max-width: 552.51px; background-color: white;" class="statediagram" xmlns:xlink="http://www.w3.org/1999/xlink" xmlns="http://www.w3.org/2000/svg" width="100%" id="my-svg"><style>#my-svg{font-family:"trebuchet ms",verdana,arial,sans-serif;font-size:16px;fill:#333;}#my-svg .error-icon{fill:#552222;}#my-svg .error-text{fill:#552222;stroke:#552222;}#my-svg .edge-thickness-normal{stroke-width:2px;}#my-svg .edge-thickness-thick{stroke-width:3.5px;}#my-svg .edge-pattern-solid{stroke-dasharray:0;}#my-svg .edge-pattern-dashed{stroke-dasharray:3;}#my-svg .edge-pattern-dotted{stroke-dasharray:2;}#my-svg .marker{fill:#333333;stroke:#333333;}#my-svg .marker.cross{stroke:#333333;}#my-svg svg{font-family:"trebuchet ms",verdana,arial,sans-serif;font-size:16px;}#my-svg defs #statediagram-barbEnd{fill:#333333;stroke:#333333;}#my-svg g.stateGroup text{fill:#9370DB;stroke:none;font-size:10px;}#my-svg g.stateGroup text{fill:#333;stroke:none;font-size:10px;}#my-svg g.stateGroup .state-title{font-weight:bolder;fill:#131300;}#my-svg g.stateGroup rect{fill:#ECECFF;stroke:#9370DB;}#my-svg g.stateGroup line{stroke:#333333;stroke-width:1;}#my-svg .transition{stroke:#333333;stroke-width:1;fill:none;}#my-svg .stateGroup .composit{fill:white;border-bottom:1px;}#my-svg .stateGroup .alt-composit{fill:#e0e0e0;border-bottom:1px;}#my-svg .state-note{stroke:#aaaa33;fill:#fff5ad;}#my-svg .state-note text{fill:black;stroke:none;font-size:10px;}#my-svg .stateLabel .box{stroke:none;stroke-width:0;fill:#ECECFF;opacity:0.5;}#my-svg .edgeLabel .label rect{fill:#ECECFF;opacity:0.5;}#my-svg .edgeLabel .label text{fill:#333;}#my-svg .label div .edgeLabel{color:#333;}#my-svg .stateLabel text{fill:#131300;font-size:10px;font-weight:bold;}#my-svg .node circle.state-start{fill:#333333;stroke:#333333;}#my-svg .node .fork-join{fill:#333333;stroke:#333333;}#my-svg .node circle.state-end{fill:#9370DB;stroke:white;stroke-width:1.5;}#my-svg .end-state-inner{fill:white;stroke-width:1.5;}#my-svg .node rect{fill:#ECECFF;stroke:#9370DB;stroke-width:1px;}#my-svg .node polygon{fill:#ECECFF;stroke:#9370DB;stroke-width:1px;}#my-svg #statediagram-barbEnd{fill:#333333;}#my-svg .statediagram-cluster rect{fill:#ECECFF;stroke:#9370DB;stroke-width:1px;}#my-svg .cluster-label,#my-svg .nodeLabel{color:#131300;}#my-svg .statediagram-cluster rect.outer{rx:5px;ry:5px;}#my-svg .statediagram-state .divider{stroke:#9370DB;}#my-svg .statediagram-state .title-state{rx:5px;ry:5px;}#my-svg .statediagram-cluster.statediagram-cluster .inner{fill:white;}#my-svg .statediagram-cluster.statediagram-cluster-alt .inner{fill:#f0f0f0;}#my-svg .statediagram-cluster .inner{rx:0;ry:0;}#my-svg .statediagram-state rect.basic{rx:5px;ry:5px;}#my-svg .statediagram-state rect.divider{stroke-dasharray:10,10;fill:#f0f0f0;}#my-svg .note-edge{stroke-dasharray:5;}#my-svg .statediagram-note rect{fill:#fff5ad;stroke:#aaaa33;stroke-width:1px;rx:0;ry:0;}#my-svg .statediagram-note rect{fill:#fff5ad;stroke:#aaaa33;stroke-width:1px;rx:0;ry:0;}#my-svg .statediagram-note text{fill:black;}#my-svg .statediagram-note .nodeLabel{color:black;}#my-svg .statediagram .edgeLabel{color:red;}#my-svg #dependencyStart,#my-svg #dependencyEnd{fill:#333333;stroke:#333333;stroke-width:1;}#my-svg .statediagramTitleText{text-anchor:middle;font-size:18px;fill:#333;}#my-svg :root{--mermaid-font-family:"trebuchet ms",verdana,arial,sans-serif;}</style><g><defs><marker orient="auto" markerUnits="strokeWidth" markerHeight="14" markerWidth="20" refY="7" refX="19" id="my-svg_statediagram-barbEnd"><path d="M 19,7 L9,13 L14,7 L9,1 Z"/></marker></defs><g class="root"><g class="clusters"/><g class="edgePaths"><path marker-end="url(#my-svg_statediagram-barbEnd)" style="fill:none" class="edge-thickness-normal transition" id="edge0" d="M219.293,22L219.293,26.167C219.293,30.333,219.293,38.667,219.293,47C219.293,55.333,219.293,63.667,219.293,67.833L219.293,72"/><path marker-end="url(#my-svg_statediagram-barbEnd)" style="fill:none" class="edge-thickness-normal transition" id="edge1" d="M244.372,105.5L252.919,111.208C261.466,116.917,278.56,128.333,287.107,139.75C295.654,151.167,295.654,162.583,295.654,168.292L295.654,174"/><path marker-end="url(#my-svg_statediagram-barbEnd)" style="fill:none" class="edge-thickness-normal transition" id="edge2" d="M183.477,101.144L164.883,107.578C146.289,114.013,109.102,126.881,90.508,141.816C71.914,156.75,71.914,173.75,71.914,190.75C71.914,207.75,71.914,224.75,74.46,238.958C77.006,253.167,82.098,264.583,84.644,270.292L87.19,276"/><path marker-end="url(#my-svg_statediagram-barbEnd)" style="fill:none" class="edge-thickness-normal transition" id="edge3" d="M313.268,207.5L319.271,213.208C325.274,218.917,337.28,230.333,343.282,241.75C349.285,253.167,349.285,264.583,349.285,270.292L349.285,276"/><path marker-end="url(#my-svg_statediagram-barbEnd)" style="fill:none" class="edge-thickness-normal transition" id="edge4" d="M256.858,207.5L243.636,213.208C230.414,218.917,203.971,230.333,181.474,241.75C158.977,253.167,140.427,264.583,131.152,270.292L121.876,276"/><path marker-end="url(#my-svg_statediagram-barbEnd)" style="fill:none" class="edge-thickness-normal transition" id="edge5" d="M388.879,308.857L403.174,314.673C417.469,320.488,446.06,332.119,460.355,343.643C474.65,355.167,474.65,366.583,474.65,372.292L474.65,378"/><path marker-end="url(#my-svg_statediagram-barbEnd)" style="fill:none" class="edge-thickness-normal transition" id="edge6" d="M309.691,304.926L288.651,311.397C267.61,317.867,225.529,330.809,204.488,345.779C183.447,360.75,183.447,377.75,183.447,394.75C183.447,411.75,183.447,428.75,193.313,442.958C203.179,457.167,222.911,468.583,232.777,474.292L242.642,480"/><path marker-end="url(#my-svg_statediagram-barbEnd)" style="fill:none" class="edge-thickness-normal transition" id="edge7" d="M442.025,402.944L413.62,410.078C385.214,417.213,328.403,431.481,299.997,444.324C271.592,457.167,271.592,468.583,271.592,474.292L271.592,480"/><path marker-end="url(#my-svg_statediagram-barbEnd)" style="fill:none" class="edge-thickness-normal transition" id="edge8" d="M271.592,513.5L271.592,519.208C271.592,524.917,271.592,536.333,285.13,547.75C298.668,559.167,325.745,570.583,339.283,576.292L352.821,582"/><path marker-end="url(#my-svg_statediagram-barbEnd)" style="fill:none" class="edge-thickness-normal transition" id="edge9" d="M352.718,309.5L353.887,315.208C355.057,320.917,357.397,332.333,358.567,346.542C359.736,360.75,359.736,377.75,359.736,394.75C359.736,411.75,359.736,428.75,372.598,442.958C385.461,457.167,411.185,468.583,424.047,474.292L436.909,480"/><path marker-end="url(#my-svg_statediagram-barbEnd)" style="fill:none" class="edge-thickness-normal transition" id="edge10" d="M464.485,411.5L461.021,417.208C457.556,422.917,450.628,434.333,450.628,445.75C450.628,457.167,457.556,468.583,461.021,474.292L464.485,480"/><path marker-end="url(#my-svg_statediagram-barbEnd)" style="fill:none" class="edge-thickness-normal transition" id="edge11" d="M484.816,480L488.28,474.292C491.744,468.583,498.673,457.167,498.673,445.75C498.673,434.333,491.744,422.917,488.28,417.208L484.816,411.5"/><path marker-end="url(#my-svg_statediagram-barbEnd)" style="fill:none" class="edge-thickness-normal transition" id="edge12" d="M474.65,513.5L474.65,519.208C474.65,524.917,474.65,536.333,465.461,547.75C456.271,559.167,437.892,570.583,428.702,576.292L419.512,582"/><path marker-end="url(#my-svg_statediagram-barbEnd)" style="fill:none" class="edge-thickness-normal transition" id="edge13" d="M94.66,309.5L94.66,315.208C94.66,320.917,94.66,332.333,94.66,346.542C94.66,360.75,94.66,377.75,94.66,394.75C94.66,411.75,94.66,428.75,94.66,445.75C94.66,462.75,94.66,479.75,94.66,496.75C94.66,513.75,94.66,530.75,94.66,547.75C94.66,564.75,94.66,581.75,94.66,597.208C94.66,612.667,94.66,626.583,122.153,638.661C149.646,650.739,204.632,660.979,232.125,666.099L259.618,671.218"/><path marker-end="url(#my-svg_statediagram-barbEnd)" style="fill:none" class="edge-thickness-normal transition" id="edge14" d="M392.547,615.5L392.547,619.667C392.547,623.833,392.547,632.167,372.67,641.38C352.793,650.593,313.039,660.685,293.162,665.731L273.285,670.778"/></g><g class="edgeLabels"><g class="edgeLabel"><g transform="translate(0, 0)" class="label"><rect height="0" width="0" ry="0" rx="0"/><foreignObject height="0" width="0"><div style="display: inline-block; white-space: nowrap;" xmlns="http://www.w3.org/1999/xhtml"><span class="edgeLabel"></span></div></foreignObject></g></g><g transform="translate(295.654296875, 139.75)" class="edgeLabel"><g transform="translate(-29.0390625, -9.25)" class="label"><rect height="18.5" width="58.078125" ry="0" rx="0"/><foreignObject height="18.5" width="58.078125"><div style="display: inline-block; white-space: nowrap;" xmlns="http://www.w3.org/1999/xhtml"><span class="edgeLabel">Auth OK</span></div></foreignObject></g></g><g transform="translate(71.9140625, 190.75)" class="edgeLabel"><g transform="translate(-63.9140625, -9.25)" class="label"><rect height="18.5" width="127.828125" ry="0" rx="0"/><foreignObject height="18.5" width="127.828125"><div style="display: inline-block; white-space: nowrap;" xmlns="http://www.w3.org/1999/xhtml"><span class="edgeLabel">Decline / timeout</span></div></foreignObject></g></g><g transform="translate(349.28515625, 241.75)" class="edgeLabel"><g transform="translate(-40.8671875, -9.25)" class="label"><rect height="18.5" width="81.734375" ry="0" rx="0"/><foreignObject height="18.5" width="81.734375"><div style="display: inline-block; white-space: nowrap;" xmlns="http://www.w3.org/1999/xhtml"><span class="edgeLabel">Capture OK</span></div></foreignObject></g></g><g transform="translate(177.52734375, 241.75)" class="edgeLabel"><g transform="translate(-46.39453125, -9.25)" class="label"><rect height="18.5" width="92.7890625" ry="0" rx="0"/><foreignObject height="18.5" width="92.7890625"><div style="display: inline-block; white-space: nowrap;" xmlns="http://www.w3.org/1999/xhtml"><span class="edgeLabel">Void / expiry</span></div></foreignObject></g></g><g transform="translate(474.650390625, 343.75)" class="edgeLabel"><g transform="translate(-62.9296875, -9.25)" class="label"><rect height="18.5" width="125.859375" ry="0" rx="0"/><foreignObject height="18.5" width="125.859375"><div style="display: inline-block; white-space: nowrap;" xmlns="http://www.w3.org/1999/xhtml"><span class="edgeLabel">Reconciliation OK</span></div></foreignObject></g></g><g transform="translate(183.447265625, 394.75)" class="edgeLabel"><g transform="translate(-52.9765625, -9.25)" class="label"><rect height="18.5" width="105.953125" ry="0" rx="0"/><foreignObject height="18.5" width="105.953125"><div style="display: inline-block; white-space: nowrap;" xmlns="http://www.w3.org/1999/xhtml"><span class="edgeLabel">Refund started</span></div></foreignObject></g></g><g transform="translate(271.591796875, 445.75)" class="edgeLabel"><g transform="translate(-68.14453125, -9.25)" class="label"><rect height="18.5" width="136.2890625" ry="0" rx="0"/><foreignObject height="18.5" width="136.2890625"><div style="display: inline-block; white-space: nowrap;" xmlns="http://www.w3.org/1999/xhtml"><span class="edgeLabel">Refund after settle</span></div></foreignObject></g></g><g transform="translate(271.591796875, 547.75)" class="edgeLabel"><g transform="translate(-63.6953125, -9.25)" class="label"><rect height="18.5" width="127.390625" ry="0" rx="0"/><foreignObject height="18.5" width="127.390625"><div style="display: inline-block; white-space: nowrap;" xmlns="http://www.w3.org/1999/xhtml"><span class="edgeLabel">Refund confirmed</span></div></foreignObject></g></g><g transform="translate(359.736328125, 394.75)" class="edgeLabel"><g transform="translate(-26.7890625, -9.25)" class="label"><rect height="18.5" width="53.578125" ry="0" rx="0"/><foreignObject height="18.5" width="53.578125"><div style="display: inline-block; white-space: nowrap;" xmlns="http://www.w3.org/1999/xhtml"><span class="edgeLabel">Dispute</span></div></foreignObject></g></g><g transform="translate(443.69921875, 445.75)" class="edgeLabel"><g transform="translate(-26.7890625, -9.25)" class="label"><rect height="18.5" width="53.578125" ry="0" rx="0"/><foreignObject height="18.5" width="53.578125"><div style="display: inline-block; white-space: nowrap;" xmlns="http://www.w3.org/1999/xhtml"><span class="edgeLabel">Dispute</span></div></foreignObject></g></g><g transform="translate(505.6015625, 445.75)" class="edgeLabel"><g transform="translate(-15.11328125, -9.25)" class="label"><rect height="18.5" width="30.2265625" ry="0" rx="0"/><foreignObject height="18.5" width="30.2265625"><div style="display: inline-block; white-space: nowrap;" xmlns="http://www.w3.org/1999/xhtml"><span class="edgeLabel">Won</span></div></foreignObject></g></g><g transform="translate(474.650390625, 547.75)" class="edgeLabel"><g transform="translate(-14.75390625, -9.25)" class="label"><rect height="18.5" width="29.5078125" ry="0" rx="0"/><foreignObject height="18.5" width="29.5078125"><div style="display: inline-block; white-space: nowrap;" xmlns="http://www.w3.org/1999/xhtml"><span class="edgeLabel">Lost</span></div></foreignObject></g></g><g class="edgeLabel"><g transform="translate(0, 0)" class="label"><rect height="0" width="0" ry="0" rx="0"/><foreignObject height="0" width="0"><div style="display: inline-block; white-space: nowrap;" xmlns="http://www.w3.org/1999/xhtml"><span class="edgeLabel"></span></div></foreignObject></g></g><g class="edgeLabel"><g transform="translate(0, 0)" class="label"><rect height="0" width="0" ry="0" rx="0"/><foreignObject height="0" width="0"><div style="display: inline-block; white-space: nowrap;" xmlns="http://www.w3.org/1999/xhtml"><span class="edgeLabel"></span></div></foreignObject></g></g></g><g class="nodes"><g transform="translate(219.29296875, 15)" data-id="root_start" data-node="true" id="state-root_start-0" class="node default"><circle height="14" width="14" r="7" class="state-start"/></g><g transform="translate(219.29296875, 88.75)" data-id="pending" data-node="true" id="state-pending-2" class="node  statediagram-state undefined"><rect height="33.5" width="71.6328125" y="-16.75" x="-35.81640625" style="" class="basic label-container"/><g transform="translate(-28.31640625, -9.25)" style="" class="label"><rect/><foreignObject height="18.5" width="56.6328125"><div style="display: inline-block; white-space: nowrap;" xmlns="http://www.w3.org/1999/xhtml"><span class="nodeLabel">pending</span></div></foreignObject></g></g><g transform="translate(295.654296875, 190.75)" data-id="authorized" data-node="true" id="state-authorized-4" class="node  statediagram-state undefined"><rect height="33.5" width="91.8359375" y="-16.75" x="-45.91796875" style="" class="basic label-container"/><g transform="translate(-38.41796875, -9.25)" style="" class="label"><rect/><foreignObject height="18.5" width="76.8359375"><div style="display: inline-block; white-space: nowrap;" xmlns="http://www.w3.org/1999/xhtml"><span class="nodeLabel">authorized</span></div></foreignObject></g></g><g transform="translate(94.66015625, 292.75)" data-id="failed" data-node="true" id="state-failed-13" class="node  statediagram-state undefined"><rect height="33.5" width="56.2421875" y="-16.75" x="-28.12109375" style="" class="basic label-container"/><g transform="translate(-20.62109375, -9.25)" style="" class="label"><rect/><foreignObject height="18.5" width="41.2421875"><div style="display: inline-block; white-space: nowrap;" xmlns="http://www.w3.org/1999/xhtml"><span class="nodeLabel">failed</span></div></foreignObject></g></g><g transform="translate(349.28515625, 292.75)" data-id="captured" data-node="true" id="state-captured-9" class="node  statediagram-state undefined"><rect height="33.5" width="79.1875" y="-16.75" x="-39.59375" style="" class="basic label-container"/><g transform="translate(-32.09375, -9.25)" style="" class="label"><rect/><foreignObject height="18.5" width="64.1875"><div style="display: inline-block; white-space: nowrap;" xmlns="http://www.w3.org/1999/xhtml"><span class="nodeLabel">captured</span></div></foreignObject></g></g><g transform="translate(474.650390625, 394.75)" data-id="settled" data-node="true" id="state-settled-11" class="node  statediagram-state undefined"><rect height="33.5" width="65.25" y="-16.75" x="-32.625" style="" class="basic label-container"/><g transform="translate(-25.125, -9.25)" style="" class="label"><rect/><foreignObject height="18.5" width="50.25"><div style="display: inline-block; white-space: nowrap;" xmlns="http://www.w3.org/1999/xhtml"><span class="nodeLabel">settled</span></div></foreignObject></g></g><g transform="translate(271.591796875, 496.75)" data-id="refunding" data-node="true" id="state-refunding-8" class="node  statediagram-state undefined"><rect height="33.5" width="83.59375" y="-16.75" x="-41.796875" style="" class="basic label-container"/><g transform="translate(-34.296875, -9.25)" style="" class="label"><rect/><foreignObject height="18.5" width="68.59375"><div style="display: inline-block; white-space: nowrap;" xmlns="http://www.w3.org/1999/xhtml"><span class="nodeLabel">refunding</span></div></foreignObject></g></g><g transform="translate(392.546875, 598.75)" data-id="refunded" data-node="true" id="state-refunded-14" class="node  statediagram-state undefined"><rect height="33.5" width="79.8984375" y="-16.75" x="-39.94921875" style="" class="basic label-container"/><g transform="translate(-32.44921875, -9.25)" style="" class="label"><rect/><foreignObject height="18.5" width="64.8984375"><div style="display: inline-block; white-space: nowrap;" xmlns="http://www.w3.org/1999/xhtml"><span class="nodeLabel">refunded</span></div></foreignObject></g></g><g transform="translate(474.650390625, 496.75)" data-id="chargeback_open" data-node="true" id="state-chargeback_open-12" class="node  statediagram-state undefined"><rect height="33.5" width="139.71875" y="-16.75" x="-69.859375" style="" class="basic label-container"/><g transform="translate(-62.359375, -9.25)" style="" class="label"><rect/><foreignObject height="18.5" width="124.71875"><div style="display: inline-block; white-space: nowrap;" xmlns="http://www.w3.org/1999/xhtml"><span class="nodeLabel">chargeback_open</span></div></foreignObject></g></g><g transform="translate(266.5, 672.5)" data-id="root_end" data-node="true" id="state-root_end-14" class="node default"><circle height="14" width="14" r="7" class="state-start"/><circle height="10" width="10" r="5" class="state-end"/></g></g></g></g></svg>