<svg aria-roledescription="flowchart-v2" role="graphics-document document" viewBox="-8 -8 864.044921875 546.1318359375" style="max-width: 864.045px; background-color: white;" xmlns:xlink="http://www.w3.org/1999/xlink" xmlns="http://www.w3.org/2000/svg" width="100%" id="my-svg"><style>#my-svg{font-family:"trebuchet ms",verdana,arial,sans-serif;font-size:16px;fill:#333;}#my-svg .error-icon{fill:#552222;}#my-svg .error-text{fill:#552222;stroke:#552222;}#my-svg .edge-thickness-normal{stroke-width:2px;}#my-svg .edge-thickness-thick{stroke-width:3.5px;}#my-svg .edge-pattern-solid{stroke-dasharray:0;}#my-svg .edge-pattern-dashed{stroke-dasharray:3;}#my-svg .edge-pattern-dotted{stroke-dasharray:2;}#my-svg .marker{fill:#333333;stroke:#333333;}#my-svg .marker.cross{stroke:#333333;}#my-svg svg{font-family:"trebuchet ms",verdana,arial,sans-serif;font-size:16px;}#my-svg .label{font-family:"trebuchet ms",verdana,arial,sans-serif;color:#333;}#my-svg .cluster-label text{fill:#333;}#my-svg .cluster-label span,#my-svg p{color:#333;}#my-svg .label text,#my-svg span,#my-svg p{fill:#333;color:#333;}#my-svg .node rect,#my-svg .node circle,#my-svg .node ellipse,#my-svg .node polygon,#my-svg .node path{fill:#ECECFF;stroke:#9370DB;stroke-width:1px;}#my-svg .flowchart-label text{text-anchor:middle;}#my-svg .node .katex path{fill:#000;stroke:#000;stroke-width:1px;}#my-svg .node .label{text-align:center;}#my-svg .node.clickable{cursor:pointer;}#my-svg .arrowheadPath{fill:#333333;}#my-svg .edgePath .path{stroke:#333333;stroke-width:2.0px;}#my-svg .flowchart-link{stroke:#333333;fill:none;}#my-svg .edgeLabel{background-color:#e8e8e8;text-align:center;}#my-svg .edgeLabel rect{opacity:0.5;background-color:#e8e8e8;fill:#e8e8e8;}#my-svg .labelBkg{background-color:rgba(232, 232, 232, 0.5);}#my-svg .cluster rect{fill:#ffffde;stroke:#aaaa33;stroke-width:1px;}#my-svg .cluster text{fill:#333;}#my-svg .cluster span,#my-svg p{color:#333;}#my-svg div.mermaidTooltip{position:absolute;text-align:center;max-width:200px;padding:2px;font-family:"trebuchet ms",verdana,arial,sans-serif;font-size:12px;background:hsl(80, 100%, 96.2745098039%);border:1px solid #aaaa33;border-radius:2px;pointer-events:none;z-index:100;}#my-svg .flowchartTitleText{text-anchor:middle;font-size:18px;fill:#333;}#my-svg :root{--mermaid-font-family:"trebuchet ms",verdana,arial,sans-serif;}</style><g><marker orient="auto" markerHeight="12" markerWidth="12" markerUnits="userSpaceOnUse" refY="5" refX="6" viewBox="0 0 10 10" class="marker flowchart" id="my-svg_flowchart-pointEnd"><path style="stroke-width: 1; stroke-dasharray: 1, 0;" class="arrowMarkerPath" d="M 0 0 L 10 5 L 0 10 z"/></marker><marker orient="auto" markerHeight="12" markerWidth="12" markerUnits="userSpaceOnUse" refY="5" refX="4.5" viewBox="0 0 10 10" class="marker flowchart" id="my-svg_flowchart-pointStart"><path style="stroke-width: 1; stroke-dasharray: 1, 0;" class="arrowMarkerPath" d="M 0 5 L 10 10 L 10 0 z"/></marker><marker orient="auto" markerHeight="11" markerWidth="11" markerUnits="userSpaceOnUse" refY="5" refX="11" viewBox="0 0 10 10" class="marker flowchart" id="my-svg_flowchart-circleEnd"><circle style="stroke-width: 1; stroke-dasharray: 1, 0;" class="arrowMarkerPath" r="5" cy="5" cx="5"/></marker><marker orient="auto" markerHeight="11" markerWidth="11" markerUnits="userSpaceOnUse" refY="5" refX="-1" viewBox="0 0 10 10" class="marker flowchart" id="my-svg_flowchart-circleStart"><circle style="stroke-width: 1; stroke-dasharray: 1, 0;" class="arrowMarkerPath" r="5" cy="5" cx="5"/></marker><marker orient="auto" markerHeight="11" markerWidth="11" markerUnits="userSpaceOnUse" refY="5.2" refX="12" viewBox="0 0 11 11" class="marker cross flowchart" id="my-svg_flowchart-crossEnd"><path style="stroke-width: 2; stroke-dasharray: 1, 0;" class="arrowMarkerPath" d="M 1,1 l 9,9 M 10,1 l -9,9"/></marker><marker orient="auto" markerHeight="11" markerWidth="11" markerUnits="userSpaceOnUse" refY="5.2" refX="-1" viewBox="0 0 11 11" class="marker cross flowchart" id="my-svg_flowchart-crossStart"><path style="stroke-width: 2; stroke-dasharray: 1, 0;" class="arrowMarkerPath" d="M 1,1 l 9,9 M 10,1 l -9,9"/></marker><g class="root"><g class="clusters"><g id="ev_index" class="cluster default flowchart-label"><rect height="403.13182830810547" width="266.15625" y="0" x="0" ry="0" rx="0" style=""/><g transform="translate(3.625, 0)" class="cluster-label"><foreignObject height="18.5" width="258.90625"><div style="display: inline-block; white-space: nowrap;" xmlns="http://www.w3.org/1999/xhtml"><span class="nodeLabel">Eventually consistent index pipeline</span></div></foreignObject></g></g><g id="ap_path" class="cluster default flowchart-label"><rect height="421.63182830810547" width="561.888671875" y="108.5" x="286.15625" ry="0" rx="0" style=""/><g transform="translate(485.6630859375, 108.5)" class="cluster-label"><foreignObject height="18.5" width="162.875"><div style="display: inline-block; white-space: nowrap;" xmlns="http://www.w3.org/1999/xhtml"><span class="nodeLabel">AP-biased serving path</span></div></foreignObject></g></g></g><g class="edgePaths"><path marker-end="url(#my-svg_flowchart-pointEnd)" style="fill:none;" class="edge-thickness-normal edge-pattern-solid flowchart-link LS-U LE-E" id="L-U-E-0" d="M721.764,167L721.764,171.167C721.764,175.333,721.764,183.667,721.764,191.117C721.764,198.567,721.764,205.133,721.764,208.417L721.764,211.7"/><path marker-end="url(#my-svg_flowchart-pointEnd)" style="fill:none;" class="edge-thickness-normal edge-pattern-solid flowchart-link LS-E LE-O" id="L-E-O-0" d="M721.764,250.5L721.764,254.667C721.764,258.833,721.764,267.167,721.764,278.294C721.764,289.422,721.764,303.344,721.764,310.305L721.764,317.266"/><path marker-end="url(#my-svg_flowchart-pointEnd)" style="fill:none;" class="edge-thickness-normal edge-pattern-solid flowchart-link LS-O LE-C" id="L-O-C-0" d="M724.388,356.066L725.618,363.91C726.847,371.755,729.305,387.443,730.534,400.996C731.764,414.548,731.764,425.965,731.764,436.498C731.764,447.032,731.764,456.682,731.764,461.507L731.764,466.332"/><path marker-end="url(#my-svg_flowchart-pointEnd)" style="fill:none;" class="edge-thickness-normal edge-pattern-solid flowchart-link LS-O LE-L" id="L-O-L-0" d="M686.836,356.066L670.478,363.91C654.121,371.755,621.406,387.443,605.049,400.996C588.691,414.548,588.691,425.965,575.732,437.044C562.773,448.122,536.855,458.863,523.895,464.233L510.936,469.603"/><path marker-end="url(#my-svg_flowchart-pointEnd)" style="fill:none;" class="edge-thickness-normal edge-pattern-solid flowchart-link LS-A LE-S" id="L-A-S-0" d="M133.078,167L133.078,171.167C133.078,175.333,133.078,183.667,133.078,191.117C133.078,198.567,133.078,205.133,133.078,208.417L133.078,211.7"/><path marker-end="url(#my-svg_flowchart-pointEnd)" style="fill:none;" class="edge-thickness-normal edge-pattern-solid flowchart-link LS-S LE-OB" id="L-S-OB-0" d="M133.078,250.5L133.078,254.667C133.078,258.833,133.078,267.167,133.078,274.617C133.078,282.067,133.078,288.633,133.078,291.917L133.078,295.2"/><path marker-end="url(#my-svg_flowchart-pointEnd)" style="fill:none;" class="edge-thickness-normal edge-pattern-solid flowchart-link LS-K LE-A" id="L-K-A-0" d="M133.078,58.5L133.078,62.667C133.078,66.833,133.078,75.167,133.078,83.5C133.078,91.833,133.078,100.167,133.078,107.617C133.078,115.067,133.078,121.633,133.078,124.917L133.078,128.2"/><path marker-end="url(#my-svg_flowchart-pointEnd)" style="fill:none;stroke-width:2px;stroke-dasharray:3;" class="edge-thickness-normal edge-pattern-dotted flowchart-link LS-OB LE-L" id="L-OB-L-0" d="M133.078,378.132L133.078,382.298C133.078,386.465,133.078,394.798,180.624,404.673C228.17,414.548,323.262,425.965,375.498,436.734C427.733,447.503,437.113,457.624,441.803,462.684L446.493,467.745"/></g><g class="edgeLabels"><g class="edgeLabel"><g transform="translate(0, 0)" class="label"><foreignObject height="0" width="0"><div style="display: inline-block; white-space: nowrap;" xmlns="http://www.w3.org/1999/xhtml"><span class="edgeLabel"></span></div></foreignObject></g></g><g class="edgeLabel"><g transform="translate(0, 0)" class="label"><foreignObject height="0" width="0"><div style="display: inline-block; white-space: nowrap;" xmlns="http://www.w3.org/1999/xhtml"><span class="edgeLabel"></span></div></foreignObject></g></g><g class="edgeLabel"><g transform="translate(0, 0)" class="label"><foreignObject height="0" width="0"><div style="display: inline-block; white-space: nowrap;" xmlns="http://www.w3.org/1999/xhtml"><span class="edgeLabel"></span></div></foreignObject></g></g><g class="edgeLabel"><g transform="translate(0, 0)" class="label"><foreignObject height="0" width="0"><div style="display: inline-block; white-space: nowrap;" xmlns="http://www.w3.org/1999/xhtml"><span class="edgeLabel"></span></div></foreignObject></g></g><g class="edgeLabel"><g transform="translate(0, 0)" class="label"><foreignObject height="0" width="0"><div style="display: inline-block; white-space: nowrap;" xmlns="http://www.w3.org/1999/xhtml"><span class="edgeLabel"></span></div></foreignObject></g></g><g class="edgeLabel"><g transform="translate(0, 0)" class="label"><foreignObject height="0" width="0"><div style="display: inline-block; white-space: nowrap;" xmlns="http://www.w3.org/1999/xhtml"><span class="edgeLabel"></span></div></foreignObject></g></g><g class="edgeLabel"><g transform="translate(0, 0)" class="label"><foreignObject height="0" width="0"><div style="display: inline-block; white-space: nowrap;" xmlns="http://www.w3.org/1999/xhtml"><span class="edgeLabel"></span></div></foreignObject></g></g><g transform="translate(418.353515625, 437.38182830810547)" class="edgeLabel"><g transform="translate(-74.53125, -9.25)" class="label"><foreignObject height="18.5" width="149.0625"><div style="display: inline-block; white-space: nowrap;" xmlns="http://www.w3.org/1999/xhtml"><span class="edgeLabel">async publish / swap</span></div></foreignObject></g></g></g><g class="nodes"><g transform="translate(133.078125, 41.75)" data-id="K" data-node="true" id="flowchart-K-12" class="node default default flowchart-label"><rect height="33.5" width="132.953125" y="-16.75" x="-66.4765625" ry="0" rx="0" style="" class="basic label-container"/><g transform="translate(-58.9765625, -9.25)" style="" class="label"><rect/><foreignObject height="18.5" width="117.953125"><div style="display: inline-block; white-space: nowrap;" xmlns="http://www.w3.org/1999/xhtml"><span class="nodeLabel">Kafka query logs</span></div></foreignObject></g></g><g transform="translate(133.078125, 150.25)" data-id="A" data-node="true" id="flowchart-A-13" class="node default default flowchart-label"><rect height="33.5" width="196.15625" y="-16.75" x="-98.078125" ry="0" rx="0" style="" class="basic label-container"/><g transform="translate(-90.578125, -9.25)" style="" class="label"><rect/><foreignObject height="18.5" width="181.15625"><div style="display: inline-block; white-space: nowrap;" xmlns="http://www.w3.org/1999/xhtml"><span class="nodeLabel">Aggregators Spark / Flink</span></div></foreignObject></g></g><g transform="translate(133.078125, 233.75)" data-id="S" data-node="true" id="flowchart-S-14" class="node default default flowchart-label"><rect height="33.5" width="134.5234375" y="-16.75" x="-67.26171875" ry="0" rx="0" style="" class="basic label-container"/><g transform="translate(-59.76171875, -9.25)" style="" class="label"><rect/><foreignObject height="18.5" width="119.5234375"><div style="display: inline-block; white-space: nowrap;" xmlns="http://www.w3.org/1999/xhtml"><span class="nodeLabel">Snapshot builder</span></div></foreignObject></g></g><g transform="translate(133.078125, 339.31591415405273)" data-id="OB" data-node="true" id="flowchart-OB-15" class="node default default flowchart-label"><path transform="translate(-89.35546875,-38.815916398713824)" d="M 0,14.710610932475884 a 89.35546875,14.710610932475884 0,0,0 178.7109375 0 a 89.35546875,14.710610932475884 0,0,0 -178.7109375 0 l 0,48.21061093247589 a 89.35546875,14.710610932475884 0,0,0 178.7109375 0 l 0,-48.21061093247589" style=""/><g transform="translate(-81.85546875, -9.25)" style="" class="label"><rect/><foreignObject height="18.5" width="163.7109375"><div style="display: inline-block; white-space: nowrap;" xmlns="http://www.w3.org/1999/xhtml"><span class="nodeLabel">Object store snapshots</span></div></foreignObject></g></g><g transform="translate(721.763671875, 150.25)" data-id="U" data-node="true" id="flowchart-U-0" class="node default default flowchart-label"><rect height="33.5" width="120.7265625" y="-16.75" x="-60.36328125" ry="0" rx="0" style="" class="basic label-container"/><g transform="translate(-52.86328125, -9.25)" style="" class="label"><rect/><foreignObject height="18.5" width="105.7265625"><div style="display: inline-block; white-space: nowrap;" xmlns="http://www.w3.org/1999/xhtml"><span class="nodeLabel">User keystroke</span></div></foreignObject></g></g><g transform="translate(721.763671875, 233.75)" data-id="E" data-node="true" id="flowchart-E-1" class="node default default flowchart-label"><rect height="33.5" width="160.546875" y="-16.75" x="-80.2734375" ry="0" rx="0" style="" class="basic label-container"/><g transform="translate(-72.7734375, -9.25)" style="" class="label"><rect/><foreignObject height="18.5" width="145.546875"><div style="display: inline-block; white-space: nowrap;" xmlns="http://www.w3.org/1999/xhtml"><span class="nodeLabel">Edge / CDN optional</span></div></foreignObject></g></g><g transform="translate(721.763671875, 339.31591415405273)" data-id="O" data-node="true" id="flowchart-O-2" class="node default default flowchart-label"><rect height="33.5" width="162.015625" y="-16.75" x="-81.0078125" ry="0" rx="0" style="" class="basic label-container"/><g transform="translate(-73.5078125, -9.25)" style="" class="label"><rect/><foreignObject height="18.5" width="147.015625"><div style="display: inline-block; white-space: nowrap;" xmlns="http://www.w3.org/1999/xhtml"><span class="nodeLabel">Origin autocomplete</span></div></foreignObject></g></g><g transform="translate(465.619140625, 488.38182830810547)" data-id="L" data-node="true" id="flowchart-L-3" class="node default default flowchart-label"><rect height="33.5" width="269.7265625" y="-16.75" x="-134.86328125" ry="0" rx="0" style="" class="basic label-container"/><g transform="translate(-127.36328125, -9.25)" style="" class="label"><rect/><foreignObject height="18.5" width="254.7265625"><div style="display: inline-block; white-space: nowrap;" xmlns="http://www.w3.org/1999/xhtml"><span class="nodeLabel">Local replica / in-memory snapshot</span></div></foreignObject></g></g><g transform="translate(731.763671875, 488.38182830810547)" data-id="C" data-node="true" id="flowchart-C-4" class="node default default flowchart-label"><rect height="33.5" width="162.5625" y="-16.75" x="-81.28125" ry="0" rx="0" style="" class="basic label-container"/><g transform="translate(-73.78125, -9.25)" style="" class="label"><rect/><foreignObject height="18.5" width="147.5625"><div style="display: inline-block; white-space: nowrap;" xmlns="http://www.w3.org/1999/xhtml"><span class="nodeLabel">Redis cache optional</span></div></foreignObject></g></g></g></g></g></svg>