<svg aria-roledescription="stateDiagram" role="graphics-document document" viewBox="0 0 464.453125 706" style="max-width: 464.453px; background-color: white;" class="statediagram" xmlns:xlink="http://www.w3.org/1999/xlink" xmlns="http://www.w3.org/2000/svg" width="100%" id="my-svg"><style>#my-svg{font-family:"trebuchet ms",verdana,arial,sans-serif;font-size:16px;fill:#333;}#my-svg .error-icon{fill:#552222;}#my-svg .error-text{fill:#552222;stroke:#552222;}#my-svg .edge-thickness-normal{stroke-width:2px;}#my-svg .edge-thickness-thick{stroke-width:3.5px;}#my-svg .edge-pattern-solid{stroke-dasharray:0;}#my-svg .edge-pattern-dashed{stroke-dasharray:3;}#my-svg .edge-pattern-dotted{stroke-dasharray:2;}#my-svg .marker{fill:#333333;stroke:#333333;}#my-svg .marker.cross{stroke:#333333;}#my-svg svg{font-family:"trebuchet ms",verdana,arial,sans-serif;font-size:16px;}#my-svg defs #statediagram-barbEnd{fill:#333333;stroke:#333333;}#my-svg g.stateGroup text{fill:#9370DB;stroke:none;font-size:10px;}#my-svg g.stateGroup text{fill:#333;stroke:none;font-size:10px;}#my-svg g.stateGroup .state-title{font-weight:bolder;fill:#131300;}#my-svg g.stateGroup rect{fill:#ECECFF;stroke:#9370DB;}#my-svg g.stateGroup line{stroke:#333333;stroke-width:1;}#my-svg .transition{stroke:#333333;stroke-width:1;fill:none;}#my-svg .stateGroup .composit{fill:white;border-bottom:1px;}#my-svg .stateGroup .alt-composit{fill:#e0e0e0;border-bottom:1px;}#my-svg .state-note{stroke:#aaaa33;fill:#fff5ad;}#my-svg .state-note text{fill:black;stroke:none;font-size:10px;}#my-svg .stateLabel .box{stroke:none;stroke-width:0;fill:#ECECFF;opacity:0.5;}#my-svg .edgeLabel .label rect{fill:#ECECFF;opacity:0.5;}#my-svg .edgeLabel .label text{fill:#333;}#my-svg .label div .edgeLabel{color:#333;}#my-svg .stateLabel text{fill:#131300;font-size:10px;font-weight:bold;}#my-svg .node circle.state-start{fill:#333333;stroke:#333333;}#my-svg .node .fork-join{fill:#333333;stroke:#333333;}#my-svg .node circle.state-end{fill:#9370DB;stroke:white;stroke-width:1.5;}#my-svg .end-state-inner{fill:white;stroke-width:1.5;}#my-svg .node rect{fill:#ECECFF;stroke:#9370DB;stroke-width:1px;}#my-svg .node polygon{fill:#ECECFF;stroke:#9370DB;stroke-width:1px;}#my-svg #statediagram-barbEnd{fill:#333333;}#my-svg .statediagram-cluster rect{fill:#ECECFF;stroke:#9370DB;stroke-width:1px;}#my-svg .cluster-label,#my-svg .nodeLabel{color:#131300;}#my-svg .statediagram-cluster rect.outer{rx:5px;ry:5px;}#my-svg .statediagram-state .divider{stroke:#9370DB;}#my-svg .statediagram-state .title-state{rx:5px;ry:5px;}#my-svg .statediagram-cluster.statediagram-cluster .inner{fill:white;}#my-svg .statediagram-cluster.statediagram-cluster-alt .inner{fill:#f0f0f0;}#my-svg .statediagram-cluster .inner{rx:0;ry:0;}#my-svg .statediagram-state rect.basic{rx:5px;ry:5px;}#my-svg .statediagram-state rect.divider{stroke-dasharray:10,10;fill:#f0f0f0;}#my-svg .note-edge{stroke-dasharray:5;}#my-svg .statediagram-note rect{fill:#fff5ad;stroke:#aaaa33;stroke-width:1px;rx:0;ry:0;}#my-svg .statediagram-note rect{fill:#fff5ad;stroke:#aaaa33;stroke-width:1px;rx:0;ry:0;}#my-svg .statediagram-note text{fill:black;}#my-svg .statediagram-note .nodeLabel{color:black;}#my-svg .statediagram .edgeLabel{color:red;}#my-svg #dependencyStart,#my-svg #dependencyEnd{fill:#333333;stroke:#333333;stroke-width:1;}#my-svg .statediagramTitleText{text-anchor:middle;font-size:18px;fill:#333;}#my-svg :root{--mermaid-font-family:"trebuchet ms",verdana,arial,sans-serif;}</style><g><defs><marker orient="auto" markerUnits="strokeWidth" markerHeight="14" markerWidth="20" refY="7" refX="19" id="my-svg_statediagram-barbEnd"><path d="M 19,7 L9,13 L14,7 L9,1 Z"/></marker></defs><g class="root"><g class="clusters"/><g class="edgePaths"><path marker-end="url(#my-svg_statediagram-barbEnd)" style="fill:none" class="edge-thickness-normal transition" id="edge0" d="M210.283,22L210.283,27.708C210.283,33.417,210.283,44.833,210.283,56.25C210.283,67.667,210.283,79.083,210.283,84.792L210.283,90.5"/><path marker-end="url(#my-svg_statediagram-barbEnd)" style="fill:none" class="edge-thickness-normal transition" id="edge1" d="M210.283,124L210.283,129.708C210.283,135.417,210.283,146.833,210.283,158.25C210.283,169.667,210.283,181.083,210.283,186.792L210.283,192.5"/><path marker-end="url(#my-svg_statediagram-barbEnd)" style="fill:none" class="edge-thickness-normal transition" id="edge2" d="M210.283,226L210.283,231.708C210.283,237.417,210.283,248.833,210.283,260.25C210.283,271.667,210.283,283.083,210.283,288.792L210.283,294.5"/><path marker-end="url(#my-svg_statediagram-barbEnd)" style="fill:none" class="edge-thickness-normal transition" id="edge3" d="M217.126,328L219.458,333.708C221.79,339.417,226.453,350.833,231.567,362.25C236.681,373.667,242.244,385.083,245.026,390.792L247.808,396.5"/><path marker-end="url(#my-svg_statediagram-barbEnd)" style="fill:none" class="edge-thickness-normal transition" id="edge4" d="M215.674,423.63L189.392,430.4C163.111,437.17,110.548,450.71,84.266,465.98C57.984,481.25,57.984,498.25,57.984,515.25C57.984,532.25,57.984,549.25,57.984,563.458C57.984,577.667,57.984,589.083,57.984,594.792L57.984,600.5"/><path marker-end="url(#my-svg_statediagram-barbEnd)" style="fill:none" class="edge-thickness-normal transition" id="edge5" d="M296.268,397.007L310.638,391.214C325.009,385.421,353.751,373.836,344.525,361.055C335.299,348.274,288.105,334.297,264.509,327.309L240.912,320.321"/><path marker-end="url(#my-svg_statediagram-barbEnd)" style="fill:none" class="edge-thickness-normal transition" id="edge6" d="M296.098,430L309.773,435.708C323.448,441.417,350.798,452.833,364.473,464.25C378.148,475.667,378.148,487.083,378.148,492.792L378.148,498.5"/><path marker-end="url(#my-svg_statediagram-barbEnd)" style="fill:none" class="edge-thickness-normal transition" id="edge7" d="M190.274,328L183.455,333.708C176.636,339.417,162.998,350.833,156.178,365.042C149.359,379.25,149.359,396.25,149.359,413.25C149.359,430.25,149.359,447.25,149.359,464.25C149.359,481.25,149.359,498.25,149.359,515.25C149.359,532.25,149.359,549.25,160.945,564.216C172.53,579.182,195.701,592.115,207.286,598.581L218.871,605.047"/><path marker-end="url(#my-svg_statediagram-barbEnd)" style="fill:none" class="edge-thickness-normal transition" id="edge8" d="M250.967,430L249.261,435.708C247.556,441.417,244.145,452.833,242.44,467.042C240.734,481.25,240.734,498.25,240.734,515.25C240.734,532.25,240.734,549.25,240.734,563.458C240.734,577.667,240.734,589.083,240.734,594.792L240.734,600.5"/><path marker-end="url(#my-svg_statediagram-barbEnd)" style="fill:none" class="edge-thickness-normal transition" id="edge9" d="M378.148,532L378.148,537.708C378.148,543.417,378.148,554.833,358.89,567.689C339.632,580.545,301.115,594.84,281.856,601.988L262.598,609.136"/><path marker-end="url(#my-svg_statediagram-barbEnd)" style="fill:none" class="edge-thickness-normal transition" id="edge10" d="M57.984,634L57.984,638.167C57.984,642.333,57.984,650.667,72.112,659.781C86.241,668.895,114.497,678.791,128.625,683.739L142.753,688.686"/><path marker-end="url(#my-svg_statediagram-barbEnd)" style="fill:none" class="edge-thickness-normal transition" id="edge11" d="M240.734,634L240.734,638.167C240.734,642.333,240.734,650.667,226.606,659.781C212.478,668.895,184.222,678.791,170.094,683.739L155.966,688.686"/></g><g class="edgeLabels"><g transform="translate(210.283203125, 56.25)" class="edgeLabel"><g transform="translate(-23.171875, -9.25)" class="label"><rect height="18.5" width="46.34375" ry="0" rx="0"/><foreignObject height="18.5" width="46.34375"><div style="display: inline-block; white-space: nowrap;" xmlns="http://www.w3.org/1999/xhtml"><span class="edgeLabel">create</span></div></foreignObject></g></g><g transform="translate(210.283203125, 158.25)" class="edgeLabel"><g transform="translate(-64.94921875, -9.25)" class="label"><rect height="18.5" width="129.8984375" ry="0" rx="0"/><foreignObject height="18.5" width="129.8984375"><div style="display: inline-block; white-space: nowrap;" xmlns="http://www.w3.org/1999/xhtml"><span class="edgeLabel">run_at set / delay</span></div></foreignObject></g></g><g transform="translate(210.283203125, 260.25)" class="edgeLabel"><g transform="translate(-50.08203125, -9.25)" class="label"><rect height="18.5" width="100.1640625" ry="0" rx="0"/><foreignObject height="18.5" width="100.1640625"><div style="display: inline-block; white-space: nowrap;" xmlns="http://www.w3.org/1999/xhtml"><span class="edgeLabel">tick &lt;= run_at</span></div></foreignObject></g></g><g transform="translate(231.1171875, 362.25)" class="edgeLabel"><g transform="translate(-52.140625, -9.25)" class="label"><rect height="18.5" width="104.28125" ry="0" rx="0"/><foreignObject height="18.5" width="104.28125"><div style="display: inline-block; white-space: nowrap;" xmlns="http://www.w3.org/1999/xhtml"><span class="edgeLabel">lease acquired</span></div></foreignObject></g></g><g transform="translate(57.984375, 515.25)" class="edgeLabel"><g transform="translate(-26.37109375, -9.25)" class="label"><rect height="18.5" width="52.7421875" ry="0" rx="0"/><foreignObject height="18.5" width="52.7421875"><div style="display: inline-block; white-space: nowrap;" xmlns="http://www.w3.org/1999/xhtml"><span class="edgeLabel">success</span></div></foreignObject></g></g><g transform="translate(382.4921875, 362.25)" class="edgeLabel"><g transform="translate(-73.9609375, -9.25)" class="label"><rect height="18.5" width="147.921875" ry="0" rx="0"/><foreignObject height="18.5" width="147.921875"><div style="display: inline-block; white-space: nowrap;" xmlns="http://www.w3.org/1999/xhtml"><span class="edgeLabel">lease expired (retry)</span></div></foreignObject></g></g><g transform="translate(378.1484375, 464.25)" class="edgeLabel"><g transform="translate(-50.89453125, -9.25)" class="label"><rect height="18.5" width="101.7890625" ry="0" rx="0"/><foreignObject height="18.5" width="101.7890625"><div style="display: inline-block; white-space: nowrap;" xmlns="http://www.w3.org/1999/xhtml"><span class="edgeLabel">terminal error</span></div></foreignObject></g></g><g transform="translate(149.359375, 464.25)" class="edgeLabel"><g transform="translate(-71.375, -9.25)" class="label"><rect height="18.5" width="142.75" ry="0" rx="0"/><foreignObject height="18.5" width="142.75"><div style="display: inline-block; white-space: nowrap;" xmlns="http://www.w3.org/1999/xhtml"><span class="edgeLabel">attempts exhausted</span></div></foreignObject></g></g><g transform="translate(240.734375, 515.25)" class="edgeLabel"><g transform="translate(-71.375, -9.25)" class="label"><rect height="18.5" width="142.75" ry="0" rx="0"/><foreignObject height="18.5" width="142.75"><div style="display: inline-block; white-space: nowrap;" xmlns="http://www.w3.org/1999/xhtml"><span class="edgeLabel">attempts exhausted</span></div></foreignObject></g></g><g transform="translate(378.1484375, 566.25)" class="edgeLabel"><g transform="translate(-64.87109375, -9.25)" class="label"><rect height="18.5" width="129.7421875" ry="0" rx="0"/><foreignObject height="18.5" width="129.7421875"><div style="display: inline-block; white-space: nowrap;" xmlns="http://www.w3.org/1999/xhtml"><span class="edgeLabel">policy routes here</span></div></foreignObject></g></g><g class="edgeLabel"><g transform="translate(0, 0)" class="label"><rect height="0" width="0" ry="0" rx="0"/><foreignObject height="0" width="0"><div style="display: inline-block; white-space: nowrap;" xmlns="http://www.w3.org/1999/xhtml"><span class="edgeLabel"></span></div></foreignObject></g></g><g class="edgeLabel"><g transform="translate(0, 0)" class="label"><rect height="0" width="0" ry="0" rx="0"/><foreignObject height="0" width="0"><div style="display: inline-block; white-space: nowrap;" xmlns="http://www.w3.org/1999/xhtml"><span class="edgeLabel"></span></div></foreignObject></g></g></g><g class="nodes"><g transform="translate(210.283203125, 15)" data-id="root_start" data-node="true" id="state-root_start-0" class="node default"><circle height="14" width="14" r="7" class="state-start"/></g><g transform="translate(210.283203125, 107.25)" data-id="PENDING" data-node="true" id="state-PENDING-1" class="node  statediagram-state undefined"><rect height="33.5" width="78" y="-16.75" x="-39" style="" class="basic label-container"/><g transform="translate(-31.5, -9.25)" style="" class="label"><rect/><foreignObject height="18.5" width="63"><div style="display: inline-block; white-space: nowrap;" xmlns="http://www.w3.org/1999/xhtml"><span class="nodeLabel">PENDING</span></div></foreignObject></g></g><g transform="translate(210.283203125, 209.25)" data-id="SCHEDULED" data-node="true" id="state-SCHEDULED-2" class="node  statediagram-state undefined"><rect height="33.5" width="97.9765625" y="-16.75" x="-48.98828125" style="" class="basic label-container"/><g transform="translate(-41.48828125, -9.25)" style="" class="label"><rect/><foreignObject height="18.5" width="82.9765625"><div style="display: inline-block; white-space: nowrap;" xmlns="http://www.w3.org/1999/xhtml"><span class="nodeLabel">SCHEDULED</span></div></foreignObject></g></g><g transform="translate(210.283203125, 311.25)" data-id="READY" data-node="true" id="state-READY-7" class="node  statediagram-state undefined"><rect height="33.5" width="61.2578125" y="-16.75" x="-30.62890625" style="" class="basic label-container"/><g transform="translate(-23.12890625, -9.25)" style="" class="label"><rect/><foreignObject height="18.5" width="46.2578125"><div style="display: inline-block; white-space: nowrap;" xmlns="http://www.w3.org/1999/xhtml"><span class="nodeLabel">READY</span></div></foreignObject></g></g><g transform="translate(255.970703125, 413.25)" data-id="RUNNING" data-node="true" id="state-RUNNING-8" class="node  statediagram-state undefined"><rect height="33.5" width="80.59375" y="-16.75" x="-40.296875" style="" class="basic label-container"/><g transform="translate(-32.796875, -9.25)" style="" class="label"><rect/><foreignObject height="18.5" width="65.59375"><div style="display: inline-block; white-space: nowrap;" xmlns="http://www.w3.org/1999/xhtml"><span class="nodeLabel">RUNNING</span></div></foreignObject></g></g><g transform="translate(57.984375, 617.25)" data-id="COMPLETED" data-node="true" id="state-COMPLETED-10" class="node  statediagram-state undefined"><rect height="33.5" width="99.96875" y="-16.75" x="-49.984375" style="" class="basic label-container"/><g transform="translate(-42.484375, -9.25)" style="" class="label"><rect/><foreignObject height="18.5" width="84.96875"><div style="display: inline-block; white-space: nowrap;" xmlns="http://www.w3.org/1999/xhtml"><span class="nodeLabel">COMPLETED</span></div></foreignObject></g></g><g transform="translate(378.1484375, 515.25)" data-id="FAILED" data-node="true" id="state-FAILED-9" class="node  statediagram-state undefined"><rect height="33.5" width="62.078125" y="-16.75" x="-31.0390625" style="" class="basic label-container"/><g transform="translate(-23.5390625, -9.25)" style="" class="label"><rect/><foreignObject height="18.5" width="47.078125"><div style="display: inline-block; white-space: nowrap;" xmlns="http://www.w3.org/1999/xhtml"><span class="nodeLabel">FAILED</span></div></foreignObject></g></g><g transform="translate(240.734375, 617.25)" data-id="DLQ" data-node="true" id="state-DLQ-11" class="node  statediagram-state undefined"><rect height="33.5" width="43.7265625" y="-16.75" x="-21.86328125" style="" class="basic label-container"/><g transform="translate(-14.36328125, -9.25)" style="" class="label"><rect/><foreignObject height="18.5" width="28.7265625"><div style="display: inline-block; white-space: nowrap;" xmlns="http://www.w3.org/1999/xhtml"><span class="nodeLabel">DLQ</span></div></foreignObject></g></g><g transform="translate(149.359375, 691)" data-id="root_end" data-node="true" id="state-root_end-11" class="node default"><circle height="14" width="14" r="7" class="state-start"/><circle height="10" width="10" r="5" class="state-end"/></g></g></g></g></svg>