<svg aria-roledescription="flowchart-v2" role="graphics-document document" viewBox="-8 -8 954.400390625 982.3277587890625" style="max-width: 954.4px; background-color: white;" xmlns:xlink="http://www.w3.org/1999/xlink" xmlns="http://www.w3.org/2000/svg" width="100%" id="my-svg"><style>#my-svg{font-family:"trebuchet ms",verdana,arial,sans-serif;font-size:16px;fill:#333;}#my-svg .error-icon{fill:#552222;}#my-svg .error-text{fill:#552222;stroke:#552222;}#my-svg .edge-thickness-normal{stroke-width:2px;}#my-svg .edge-thickness-thick{stroke-width:3.5px;}#my-svg .edge-pattern-solid{stroke-dasharray:0;}#my-svg .edge-pattern-dashed{stroke-dasharray:3;}#my-svg .edge-pattern-dotted{stroke-dasharray:2;}#my-svg .marker{fill:#333333;stroke:#333333;}#my-svg .marker.cross{stroke:#333333;}#my-svg svg{font-family:"trebuchet ms",verdana,arial,sans-serif;font-size:16px;}#my-svg .label{font-family:"trebuchet ms",verdana,arial,sans-serif;color:#333;}#my-svg .cluster-label text{fill:#333;}#my-svg .cluster-label span,#my-svg p{color:#333;}#my-svg .label text,#my-svg span,#my-svg p{fill:#333;color:#333;}#my-svg .node rect,#my-svg .node circle,#my-svg .node ellipse,#my-svg .node polygon,#my-svg .node path{fill:#ECECFF;stroke:#9370DB;stroke-width:1px;}#my-svg .flowchart-label text{text-anchor:middle;}#my-svg .node .katex path{fill:#000;stroke:#000;stroke-width:1px;}#my-svg .node .label{text-align:center;}#my-svg .node.clickable{cursor:pointer;}#my-svg .arrowheadPath{fill:#333333;}#my-svg .edgePath .path{stroke:#333333;stroke-width:2.0px;}#my-svg .flowchart-link{stroke:#333333;fill:none;}#my-svg .edgeLabel{background-color:#e8e8e8;text-align:center;}#my-svg .edgeLabel rect{opacity:0.5;background-color:#e8e8e8;fill:#e8e8e8;}#my-svg .labelBkg{background-color:rgba(232, 232, 232, 0.5);}#my-svg .cluster rect{fill:#ffffde;stroke:#aaaa33;stroke-width:1px;}#my-svg .cluster text{fill:#333;}#my-svg .cluster span,#my-svg p{color:#333;}#my-svg div.mermaidTooltip{position:absolute;text-align:center;max-width:200px;padding:2px;font-family:"trebuchet ms",verdana,arial,sans-serif;font-size:12px;background:hsl(80, 100%, 96.2745098039%);border:1px solid #aaaa33;border-radius:2px;pointer-events:none;z-index:100;}#my-svg .flowchartTitleText{text-anchor:middle;font-size:18px;fill:#333;}#my-svg :root{--mermaid-font-family:"trebuchet ms",verdana,arial,sans-serif;}</style><g><marker orient="auto" markerHeight="12" markerWidth="12" markerUnits="userSpaceOnUse" refY="5" refX="6" viewBox="0 0 10 10" class="marker flowchart" id="my-svg_flowchart-pointEnd"><path style="stroke-width: 1; stroke-dasharray: 1, 0;" class="arrowMarkerPath" d="M 0 0 L 10 5 L 0 10 z"/></marker><marker orient="auto" markerHeight="12" markerWidth="12" markerUnits="userSpaceOnUse" refY="5" refX="4.5" viewBox="0 0 10 10" class="marker flowchart" id="my-svg_flowchart-pointStart"><path style="stroke-width: 1; stroke-dasharray: 1, 0;" class="arrowMarkerPath" d="M 0 5 L 10 10 L 10 0 z"/></marker><marker orient="auto" markerHeight="11" markerWidth="11" markerUnits="userSpaceOnUse" refY="5" refX="11" viewBox="0 0 10 10" class="marker flowchart" id="my-svg_flowchart-circleEnd"><circle style="stroke-width: 1; stroke-dasharray: 1, 0;" class="arrowMarkerPath" r="5" cy="5" cx="5"/></marker><marker orient="auto" markerHeight="11" markerWidth="11" markerUnits="userSpaceOnUse" refY="5" refX="-1" viewBox="0 0 10 10" class="marker flowchart" id="my-svg_flowchart-circleStart"><circle style="stroke-width: 1; stroke-dasharray: 1, 0;" class="arrowMarkerPath" r="5" cy="5" cx="5"/></marker><marker orient="auto" markerHeight="11" markerWidth="11" markerUnits="userSpaceOnUse" refY="5.2" refX="12" viewBox="0 0 11 11" class="marker cross flowchart" id="my-svg_flowchart-crossEnd"><path style="stroke-width: 2; stroke-dasharray: 1, 0;" class="arrowMarkerPath" d="M 1,1 l 9,9 M 10,1 l -9,9"/></marker><marker orient="auto" markerHeight="11" markerWidth="11" markerUnits="userSpaceOnUse" refY="5.2" refX="-1" viewBox="0 0 11 11" class="marker cross flowchart" id="my-svg_flowchart-crossStart"><path style="stroke-width: 2; stroke-dasharray: 1, 0;" class="arrowMarkerPath" d="M 1,1 l 9,9 M 10,1 l -9,9"/></marker><g class="root"><g class="clusters"><g id="Data" class="cluster default flowchart-label"><rect height="113.32777786254883" width="780.27734375" y="853" x="158.123046875" ry="0" rx="0" style=""/><g transform="translate(509.6953125, 853)" class="cluster-label"><foreignObject height="18.5" width="77.1328125"><div style="display: inline-block; white-space: nowrap;" xmlns="http://www.w3.org/1999/xhtml"><span class="nodeLabel">Data Layer</span></div></foreignObject></g></g><g id="Async" class="cluster default flowchart-label"><rect height="167" width="386.34375" y="636" x="335.96875" ry="0" rx="0" style=""/><g transform="translate(469.5390625, 636)" class="cluster-label"><foreignObject height="18.5" width="119.203125"><div style="display: inline-block; white-space: nowrap;" xmlns="http://www.w3.org/1999/xhtml"><span class="nodeLabel">Async Processing</span></div></foreignObject></g></g><g id="Services" class="cluster default flowchart-label"><rect height="83.5" width="929.4375" y="502.5" x="0" ry="0" rx="0" style=""/><g transform="translate(402.08203125, 502.5)" class="cluster-label"><foreignObject height="18.5" width="125.2734375"><div style="display: inline-block; white-space: nowrap;" xmlns="http://www.w3.org/1999/xhtml"><span class="nodeLabel">Application Layer</span></div></foreignObject></g></g><g id="Gateway" class="cluster default flowchart-label"><rect height="102" width="839.962890625" y="350.5" x="46.65234375" ry="0" rx="0" style=""/><g transform="translate(433.1455078125, 350.5)" class="cluster-label"><foreignObject height="18.5" width="66.9765625"><div style="display: inline-block; white-space: nowrap;" xmlns="http://www.w3.org/1999/xhtml"><span class="nodeLabel">API Layer</span></div></foreignObject></g></g><g id="Edge" class="cluster default flowchart-label"><rect height="167" width="408.98046875" y="133.5" x="236.513671875" ry="0" rx="0" style=""/><g transform="translate(401.80078125, 133.5)" class="cluster-label"><foreignObject height="18.5" width="78.40625"><div style="display: inline-block; white-space: nowrap;" xmlns="http://www.w3.org/1999/xhtml"><span class="nodeLabel">Edge Layer</span></div></foreignObject></g></g><g id="Clients" class="cluster default flowchart-label"><rect height="83.5" width="431.578125" y="0" x="238.296875" ry="0" rx="0" style=""/><g transform="translate(410.671875, 0)" class="cluster-label"><foreignObject height="18.5" width="86.828125"><div style="display: inline-block; white-space: nowrap;" xmlns="http://www.w3.org/1999/xhtml"><span class="nodeLabel">Client Layer</span></div></foreignObject></g></g></g><g class="edgePaths"><path marker-end="url(#my-svg_flowchart-pointEnd)" style="fill:none;" class="edge-thickness-normal edge-pattern-solid flowchart-link LS-Web LE-CDN" id="L-Web-CDN-0" d="M311.668,58.5L311.668,62.667C311.668,66.833,311.668,75.167,311.668,83.5C311.668,91.833,311.668,100.167,311.668,108.5C311.668,116.833,311.668,125.167,311.668,132.617C311.668,140.067,311.668,146.633,311.668,149.917L311.668,153.2"/><path marker-end="url(#my-svg_flowchart-pointEnd)" style="fill:none;" class="edge-thickness-normal edge-pattern-solid flowchart-link LS-Mobile LE-LB" id="L-Mobile-LB-0" d="M446.57,58.5L446.57,62.667C446.57,66.833,446.57,75.167,446.57,83.5C446.57,91.833,446.57,100.167,446.57,108.5C446.57,116.833,446.57,125.167,446.57,136.292C446.57,147.417,446.57,161.333,446.57,175.25C446.57,189.167,446.57,203.083,446.866,213.329C447.162,223.574,447.754,230.148,448.05,233.434L448.345,236.721"/><path marker-end="url(#my-svg_flowchart-pointEnd)" style="fill:none;" class="edge-thickness-normal edge-pattern-solid flowchart-link LS-API LE-LB" id="L-API-LB-0" d="M588.988,58.5L588.988,62.667C588.988,66.833,588.988,75.167,588.988,83.5C588.988,91.833,588.988,100.167,588.988,108.5C588.988,116.833,588.988,125.167,588.988,136.292C588.988,147.417,588.988,161.333,588.988,175.25C588.988,189.167,588.988,203.083,575.996,213.954C563.003,224.824,537.018,232.648,524.026,236.56L511.033,240.472"/><path marker-end="url(#my-svg_flowchart-pointEnd)" style="fill:none;" class="edge-thickness-normal edge-pattern-solid flowchart-link LS-CDN LE-LB" id="L-CDN-LB-0" d="M311.668,192L311.668,196.167C311.668,200.333,311.668,208.667,324.66,216.745C337.653,224.824,363.638,232.648,376.631,236.56L389.623,240.472"/><path marker-end="url(#my-svg_flowchart-pointEnd)" style="fill:none;" class="edge-thickness-normal edge-pattern-solid flowchart-link LS-LB LE-APIGw" id="L-LB-APIGw-0" d="M450.328,275.5L450.328,279.667C450.328,283.833,450.328,292.167,450.328,300.5C450.328,308.833,450.328,317.167,450.328,325.5C450.328,333.833,450.328,342.167,450.328,349.617C450.328,357.067,450.328,363.633,450.328,366.917L450.328,370.2"/><path marker-end="url(#my-svg_flowchart-pointEnd)" style="fill:none;" class="edge-thickness-normal edge-pattern-solid flowchart-link LS-APIGw LE-UserSvc" id="L-APIGw-UserSvc-0" d="M369.723,412.804L322.544,419.42C275.366,426.036,181.009,439.268,133.831,450.051C86.652,460.833,86.652,469.167,86.652,477.5C86.652,485.833,86.652,494.167,86.652,501.617C86.652,509.067,86.652,515.633,86.652,518.917L86.652,522.2"/><path marker-end="url(#my-svg_flowchart-pointEnd)" style="fill:none;" class="edge-thickness-normal edge-pattern-solid flowchart-link LS-APIGw LE-PollSvc" id="L-APIGw-PollSvc-0" d="M369.723,420.784L347.628,426.07C325.534,431.356,281.345,441.928,259.251,451.381C237.156,460.833,237.156,469.167,237.156,477.5C237.156,485.833,237.156,494.167,237.156,501.617C237.156,509.067,237.156,515.633,237.156,518.917L237.156,522.2"/><path marker-end="url(#my-svg_flowchart-pointEnd)" style="fill:none;" class="edge-thickness-normal edge-pattern-solid flowchart-link LS-APIGw LE-VoteSvc" id="L-APIGw-VoteSvc-0" d="M530.341,427.5L543.164,431.667C555.987,435.833,581.632,444.167,594.455,452.5C607.277,460.833,607.277,469.167,607.277,477.5C607.277,485.833,607.277,494.167,607.277,501.617C607.277,509.067,607.277,515.633,607.277,518.917L607.277,522.2"/><path marker-end="url(#my-svg_flowchart-pointEnd)" style="fill:none;" class="edge-thickness-normal edge-pattern-solid flowchart-link LS-APIGw LE-ResultSvc" id="L-APIGw-ResultSvc-0" d="M530.934,412.225L581.38,418.938C631.826,425.65,732.717,439.075,783.163,449.954C833.609,460.833,833.609,469.167,833.609,477.5C833.609,485.833,833.609,494.167,833.609,501.617C833.609,509.067,833.609,515.633,833.609,518.917L833.609,522.2"/><path marker-end="url(#my-svg_flowchart-pointEnd)" style="fill:none;" class="edge-thickness-normal edge-pattern-solid flowchart-link LS-VoteSvc LE-Queue" id="L-VoteSvc-Queue-0" d="M555.512,556.481L534.69,561.401C513.868,566.321,472.225,576.16,451.404,585.247C430.582,594.333,430.582,602.667,430.582,611C430.582,619.333,430.582,627.667,430.582,635.117C430.582,642.567,430.582,649.133,430.582,652.417L430.582,655.7"/><path marker-end="url(#my-svg_flowchart-pointEnd)" style="fill:none;" class="edge-thickness-normal edge-pattern-solid flowchart-link LS-VoteSvc LE-Cache" id="L-VoteSvc-Cache-0" d="M659.043,560.255L672.921,564.546C686.799,568.837,714.556,577.418,728.434,585.876C742.313,594.333,742.313,602.667,742.313,611C742.313,619.333,742.313,627.667,742.313,638.792C742.313,649.917,742.313,663.833,742.313,677.75C742.313,691.667,742.313,705.583,742.313,719.5C742.313,733.417,742.313,747.333,742.313,761.25C742.313,775.167,742.313,789.083,742.313,800.208C742.313,811.333,742.313,819.667,742.313,828C742.313,836.333,742.313,844.667,724.856,856.117C707.399,867.568,672.485,882.135,655.028,889.419L637.571,896.703"/><path marker-end="url(#my-svg_flowchart-pointEnd)" style="fill:none;" class="edge-thickness-normal edge-pattern-solid flowchart-link LS-Queue LE-VoteWorker" id="L-Queue-VoteWorker-0" d="M430.582,694.5L430.582,698.667C430.582,702.833,430.582,711.167,430.582,718.617C430.582,726.067,430.582,732.633,430.582,735.917L430.582,739.2"/><path marker-end="url(#my-svg_flowchart-pointEnd)" style="fill:none;" class="edge-thickness-normal edge-pattern-solid flowchart-link LS-VoteWorker LE-VoteDB" id="L-VoteWorker-VoteDB-0" d="M426.57,778L425.572,782.167C424.574,786.333,422.578,794.667,421.58,803C420.582,811.333,420.582,819.667,420.582,828C420.582,836.333,420.582,844.667,414.245,854.851C407.908,865.034,395.234,877.069,388.897,883.086L382.56,889.103"/><path marker-end="url(#my-svg_flowchart-pointEnd)" style="fill:none;" class="edge-thickness-normal edge-pattern-solid flowchart-link LS-VoteWorker LE-Cache" id="L-VoteWorker-Cache-0" d="M444.965,778L448.543,782.167C452.12,786.333,459.276,794.667,462.854,803C466.432,811.333,466.432,819.667,466.432,828C466.432,836.333,466.432,844.667,484.597,856.182C502.762,867.696,539.092,882.393,557.258,889.741L575.423,897.089"/><path marker-end="url(#my-svg_flowchart-pointEnd)" style="fill:none;" class="edge-thickness-normal edge-pattern-solid flowchart-link LS-VoteWorker LE-AuditLog" id="L-VoteWorker-AuditLog-0" d="M489.103,778L503.66,782.167C518.218,786.333,547.332,794.667,561.89,803C576.447,811.333,576.447,819.667,576.447,828C576.447,836.333,576.447,844.667,615.695,856.721C654.943,868.775,733.439,884.55,772.687,892.438L811.935,900.326"/><path marker-end="url(#my-svg_flowchart-pointEnd)" style="fill:none;" class="edge-thickness-normal edge-pattern-solid flowchart-link LS-ResultSvc LE-Cache" id="L-ResultSvc-Cache-0" d="M833.609,561L833.609,565.167C833.609,569.333,833.609,577.667,833.609,586C833.609,594.333,833.609,602.667,833.609,611C833.609,619.333,833.609,627.667,833.609,638.792C833.609,649.917,833.609,663.833,833.609,677.75C833.609,691.667,833.609,705.583,833.609,719.5C833.609,733.417,833.609,747.333,833.609,761.25C833.609,775.167,833.609,789.083,833.609,800.208C833.609,811.333,833.609,819.667,833.609,828C833.609,836.333,833.609,844.667,800.978,856.975C768.347,869.284,703.084,885.567,670.453,893.709L637.822,901.851"/><path marker-end="url(#my-svg_flowchart-pointEnd)" style="fill:none;" class="edge-thickness-normal edge-pattern-solid flowchart-link LS-PollSvc LE-PollDB" id="L-PollSvc-PollDB-0" d="M232.506,561L231.349,565.167C230.192,569.333,227.878,577.667,226.721,586C225.564,594.333,225.564,602.667,225.564,611C225.564,619.333,225.564,627.667,225.564,638.792C225.564,649.917,225.564,663.833,225.564,677.75C225.564,691.667,225.564,705.583,225.564,719.5C225.564,733.417,225.564,747.333,225.564,761.25C225.564,775.167,225.564,789.083,225.564,800.208C225.564,811.333,225.564,819.667,225.564,828C225.564,836.333,225.564,844.667,225.564,852.467C225.564,860.267,225.564,867.533,225.564,871.167L225.564,874.8"/><path marker-end="url(#my-svg_flowchart-pointEnd)" style="fill:none;" class="edge-thickness-normal edge-pattern-solid flowchart-link LS-PollSvc LE-Cache" id="L-PollSvc-Cache-0" d="M268.776,561L276.641,565.167C284.507,569.333,300.238,577.667,308.103,586C315.969,594.333,315.969,602.667,315.969,611C315.969,619.333,315.969,627.667,315.969,638.792C315.969,649.917,315.969,663.833,315.969,677.75C315.969,691.667,315.969,705.583,315.969,719.5C315.969,733.417,315.969,747.333,315.969,761.25C315.969,775.167,315.969,789.083,315.969,800.208C315.969,811.333,315.969,819.667,315.969,828C315.969,836.333,315.969,844.667,359.163,857.258C402.357,869.848,488.746,886.697,531.94,895.121L575.134,903.545"/></g><g class="edgeLabels"><g class="edgeLabel"><g transform="translate(0, 0)" class="label"><foreignObject height="0" width="0"><div style="display: inline-block; white-space: nowrap;" xmlns="http://www.w3.org/1999/xhtml"><span class="edgeLabel"></span></div></foreignObject></g></g><g class="edgeLabel"><g transform="translate(0, 0)" class="label"><foreignObject height="0" width="0"><div style="display: inline-block; white-space: nowrap;" xmlns="http://www.w3.org/1999/xhtml"><span class="edgeLabel"></span></div></foreignObject></g></g><g class="edgeLabel"><g transform="translate(0, 0)" class="label"><foreignObject height="0" width="0"><div style="display: inline-block; white-space: nowrap;" xmlns="http://www.w3.org/1999/xhtml"><span class="edgeLabel"></span></div></foreignObject></g></g><g class="edgeLabel"><g transform="translate(0, 0)" class="label"><foreignObject height="0" width="0"><div style="display: inline-block; white-space: nowrap;" xmlns="http://www.w3.org/1999/xhtml"><span class="edgeLabel"></span></div></foreignObject></g></g><g class="edgeLabel"><g transform="translate(0, 0)" class="label"><foreignObject height="0" width="0"><div style="display: inline-block; white-space: nowrap;" xmlns="http://www.w3.org/1999/xhtml"><span class="edgeLabel"></span></div></foreignObject></g></g><g class="edgeLabel"><g transform="translate(0, 0)" class="label"><foreignObject height="0" width="0"><div style="display: inline-block; white-space: nowrap;" xmlns="http://www.w3.org/1999/xhtml"><span class="edgeLabel"></span></div></foreignObject></g></g><g class="edgeLabel"><g transform="translate(0, 0)" class="label"><foreignObject height="0" width="0"><div style="display: inline-block; white-space: nowrap;" xmlns="http://www.w3.org/1999/xhtml"><span class="edgeLabel"></span></div></foreignObject></g></g><g class="edgeLabel"><g transform="translate(0, 0)" class="label"><foreignObject height="0" width="0"><div style="display: inline-block; white-space: nowrap;" xmlns="http://www.w3.org/1999/xhtml"><span class="edgeLabel"></span></div></foreignObject></g></g><g class="edgeLabel"><g transform="translate(0, 0)" class="label"><foreignObject height="0" width="0"><div style="display: inline-block; white-space: nowrap;" xmlns="http://www.w3.org/1999/xhtml"><span class="edgeLabel"></span></div></foreignObject></g></g><g class="edgeLabel"><g transform="translate(0, 0)" class="label"><foreignObject height="0" width="0"><div style="display: inline-block; white-space: nowrap;" xmlns="http://www.w3.org/1999/xhtml"><span class="edgeLabel"></span></div></foreignObject></g></g><g class="edgeLabel"><g transform="translate(0, 0)" class="label"><foreignObject height="0" width="0"><div style="display: inline-block; white-space: nowrap;" xmlns="http://www.w3.org/1999/xhtml"><span class="edgeLabel"></span></div></foreignObject></g></g><g class="edgeLabel"><g transform="translate(0, 0)" class="label"><foreignObject height="0" width="0"><div style="display: inline-block; white-space: nowrap;" xmlns="http://www.w3.org/1999/xhtml"><span class="edgeLabel"></span></div></foreignObject></g></g><g class="edgeLabel"><g transform="translate(0, 0)" class="label"><foreignObject height="0" width="0"><div style="display: inline-block; white-space: nowrap;" xmlns="http://www.w3.org/1999/xhtml"><span class="edgeLabel"></span></div></foreignObject></g></g><g class="edgeLabel"><g transform="translate(0, 0)" class="label"><foreignObject height="0" width="0"><div style="display: inline-block; white-space: nowrap;" xmlns="http://www.w3.org/1999/xhtml"><span class="edgeLabel"></span></div></foreignObject></g></g><g class="edgeLabel"><g transform="translate(0, 0)" class="label"><foreignObject height="0" width="0"><div style="display: inline-block; white-space: nowrap;" xmlns="http://www.w3.org/1999/xhtml"><span class="edgeLabel"></span></div></foreignObject></g></g><g class="edgeLabel"><g transform="translate(0, 0)" class="label"><foreignObject height="0" width="0"><div style="display: inline-block; white-space: nowrap;" xmlns="http://www.w3.org/1999/xhtml"><span class="edgeLabel"></span></div></foreignObject></g></g><g class="edgeLabel"><g transform="translate(0, 0)" class="label"><foreignObject height="0" width="0"><div style="display: inline-block; white-space: nowrap;" xmlns="http://www.w3.org/1999/xhtml"><span class="edgeLabel"></span></div></foreignObject></g></g><g class="edgeLabel"><g transform="translate(0, 0)" class="label"><foreignObject height="0" width="0"><div style="display: inline-block; white-space: nowrap;" xmlns="http://www.w3.org/1999/xhtml"><span class="edgeLabel"></span></div></foreignObject></g></g></g><g class="nodes"><g transform="translate(606.5078125, 909.6638889312744)" data-id="Cache" data-node="true" id="flowchart-Cache-13" class="node default default flowchart-label"><path transform="translate(-26.171875,-27.81828193832599)" d="M 0,7.378854625550661 a 26.171875,7.378854625550661 0,0,0 52.34375 0 a 26.171875,7.378854625550661 0,0,0 -52.34375 0 l 0,40.87885462555066 a 26.171875,7.378854625550661 0,0,0 52.34375 0 l 0,-40.87885462555066" style=""/><g transform="translate(-18.671875, -9.25)" style="" class="label"><rect/><foreignObject height="18.5" width="37.34375"><div style="display: inline-block; white-space: nowrap;" xmlns="http://www.w3.org/1999/xhtml"><span class="nodeLabel">Redis</span></div></foreignObject></g></g><g transform="translate(225.564453125, 909.6638889312744)" data-id="PollDB" data-node="true" id="flowchart-PollDB-14" class="node default default flowchart-label"><path transform="translate(-32.44140625,-29.563721456490434)" d="M 0,8.542480970993623 a 32.44140625,8.542480970993623 0,0,0 64.8828125 0 a 32.44140625,8.542480970993623 0,0,0 -64.8828125 0 l 0,42.04248097099362 a 32.44140625,8.542480970993623 0,0,0 64.8828125 0 l 0,-42.04248097099362" style=""/><g transform="translate(-24.94140625, -9.25)" style="" class="label"><rect/><foreignObject height="18.5" width="49.8828125"><div style="display: inline-block; white-space: nowrap;" xmlns="http://www.w3.org/1999/xhtml"><span class="nodeLabel">Poll DB</span></div></foreignObject></g></g><g transform="translate(343.361328125, 909.6638889312744)" data-id="VoteDB" data-node="true" id="flowchart-VoteDB-15" class="node default default flowchart-label"><path transform="translate(-35.35546875,-30.29886032493713)" d="M 0,9.032573549958085 a 35.35546875,9.032573549958085 0,0,0 70.7109375 0 a 35.35546875,9.032573549958085 0,0,0 -70.7109375 0 l 0,42.53257354995809 a 35.35546875,9.032573549958085 0,0,0 70.7109375 0 l 0,-42.53257354995809" style=""/><g transform="translate(-27.85546875, -9.25)" style="" class="label"><rect/><foreignObject height="18.5" width="55.7109375"><div style="display: inline-block; white-space: nowrap;" xmlns="http://www.w3.org/1999/xhtml"><span class="nodeLabel">Vote DB</span></div></foreignObject></g></g><g transform="translate(858.400390625, 909.6638889312744)" data-id="AuditLog" data-node="true" id="flowchart-AuditLog-16" class="node default default flowchart-label"><path transform="translate(-41.26953125,-31.663890457368716)" d="M 0,9.942593638245812 a 41.26953125,9.942593638245812 0,0,0 82.5390625 0 a 41.26953125,9.942593638245812 0,0,0 -82.5390625 0 l 0,43.44259363824581 a 41.26953125,9.942593638245812 0,0,0 82.5390625 0 l 0,-43.44259363824581" style=""/><g transform="translate(-33.76953125, -9.25)" style="" class="label"><rect/><foreignObject height="18.5" width="67.5390625"><div style="display: inline-block; white-space: nowrap;" xmlns="http://www.w3.org/1999/xhtml"><span class="nodeLabel">Audit Log</span></div></foreignObject></g></g><g transform="translate(430.58203125, 677.75)" data-id="Queue" data-node="true" id="flowchart-Queue-10" class="node default default flowchart-label"><rect height="33.5" width="55.0078125" y="-16.75" x="-27.50390625" ry="0" rx="0" style="" class="basic label-container"/><g transform="translate(-20.00390625, -9.25)" style="" class="label"><rect/><foreignObject height="18.5" width="40.0078125"><div style="display: inline-block; white-space: nowrap;" xmlns="http://www.w3.org/1999/xhtml"><span class="nodeLabel">Kafka</span></div></foreignObject></g></g><g transform="translate(430.58203125, 761.25)" data-id="VoteWorker" data-node="true" id="flowchart-VoteWorker-11" class="node default default flowchart-label"><rect height="33.5" width="119.2265625" y="-16.75" x="-59.61328125" ry="0" rx="0" style="" class="basic label-container"/><g transform="translate(-52.11328125, -9.25)" style="" class="label"><rect/><foreignObject height="18.5" width="104.2265625"><div style="display: inline-block; white-space: nowrap;" xmlns="http://www.w3.org/1999/xhtml"><span class="nodeLabel">Vote Processor</span></div></foreignObject></g></g><g transform="translate(613.75390625, 761.25)" data-id="ResultWorker" data-node="true" id="flowchart-ResultWorker-12" class="node default default flowchart-label"><rect height="33.5" width="147.1171875" y="-16.75" x="-73.55859375" ry="0" rx="0" style="" class="basic label-container"/><g transform="translate(-66.05859375, -9.25)" style="" class="label"><rect/><foreignObject height="18.5" width="132.1171875"><div style="display: inline-block; white-space: nowrap;" xmlns="http://www.w3.org/1999/xhtml"><span class="nodeLabel">Results Aggregator</span></div></foreignObject></g></g><g transform="translate(86.65234375, 544.25)" data-id="UserSvc" data-node="true" id="flowchart-UserSvc-6" class="node default default flowchart-label"><rect height="33.5" width="103.3046875" y="-16.75" x="-51.65234375" ry="0" rx="0" style="" class="basic label-container"/><g transform="translate(-44.15234375, -9.25)" style="" class="label"><rect/><foreignObject height="18.5" width="88.3046875"><div style="display: inline-block; white-space: nowrap;" xmlns="http://www.w3.org/1999/xhtml"><span class="nodeLabel">User Service</span></div></foreignObject></g></g><g transform="translate(237.15625, 544.25)" data-id="PollSvc" data-node="true" id="flowchart-PollSvc-7" class="node default default flowchart-label"><rect height="33.5" width="97.703125" y="-16.75" x="-48.8515625" ry="0" rx="0" style="" class="basic label-container"/><g transform="translate(-41.3515625, -9.25)" style="" class="label"><rect/><foreignObject height="18.5" width="82.703125"><div style="display: inline-block; white-space: nowrap;" xmlns="http://www.w3.org/1999/xhtml"><span class="nodeLabel">Poll Service</span></div></foreignObject></g></g><g transform="translate(607.27734375, 544.25)" data-id="VoteSvc" data-node="true" id="flowchart-VoteSvc-8" class="node default default flowchart-label"><rect height="33.5" width="103.53125" y="-16.75" x="-51.765625" ry="0" rx="0" style="" class="basic label-container"/><g transform="translate(-44.265625, -9.25)" style="" class="label"><rect/><foreignObject height="18.5" width="88.53125"><div style="display: inline-block; white-space: nowrap;" xmlns="http://www.w3.org/1999/xhtml"><span class="nodeLabel">Vote Service</span></div></foreignObject></g></g><g transform="translate(833.609375, 544.25)" data-id="ResultSvc" data-node="true" id="flowchart-ResultSvc-9" class="node default default flowchart-label"><rect height="33.5" width="121.65625" y="-16.75" x="-60.828125" ry="0" rx="0" style="" class="basic label-container"/><g transform="translate(-53.328125, -9.25)" style="" class="label"><rect/><foreignObject height="18.5" width="106.65625"><div style="display: inline-block; white-space: nowrap;" xmlns="http://www.w3.org/1999/xhtml"><span class="nodeLabel">Results Service</span></div></foreignObject></g></g><g transform="translate(450.328125, 401.5)" data-id="APIGw" data-node="true" id="flowchart-APIGw-5" class="node default default flowchart-label"><rect height="52" width="161.2109375" y="-26" x="-80.60546875" ry="0" rx="0" style="" class="basic label-container"/><g transform="translate(-73.10546875, -18.5)" style="" class="label"><rect/><foreignObject height="37" width="146.2109375"><div style="display: inline-block; white-space: nowrap;" xmlns="http://www.w3.org/1999/xhtml"><span class="nodeLabel">API Gateway<br />Rate Limiting + Auth</span></div></foreignObject></g></g><g transform="translate(311.66796875, 175.25)" data-id="CDN" data-node="true" id="flowchart-CDN-3" class="node default default flowchart-label"><rect height="33.5" width="44.59375" y="-16.75" x="-22.296875" ry="0" rx="0" style="" class="basic label-container"/><g transform="translate(-14.796875, -9.25)" style="" class="label"><rect/><foreignObject height="18.5" width="29.59375"><div style="display: inline-block; white-space: nowrap;" xmlns="http://www.w3.org/1999/xhtml"><span class="nodeLabel">CDN</span></div></foreignObject></g></g><g transform="translate(450.328125, 258.75)" data-id="LB" data-node="true" id="flowchart-LB-4" class="node default default flowchart-label"><rect height="33.5" width="116.0234375" y="-16.75" x="-58.01171875" ry="0" rx="0" style="" class="basic label-container"/><g transform="translate(-50.51171875, -9.25)" style="" class="label"><rect/><foreignObject height="18.5" width="101.0234375"><div style="display: inline-block; white-space: nowrap;" xmlns="http://www.w3.org/1999/xhtml"><span class="nodeLabel">Load Balancer</span></div></foreignObject></g></g><g transform="translate(311.66796875, 41.75)" data-id="Web" data-node="true" id="flowchart-Web-0" class="node default default flowchart-label"><rect height="33.5" width="76.7421875" y="-16.75" x="-38.37109375" ry="0" rx="0" style="" class="basic label-container"/><g transform="translate(-30.87109375, -9.25)" style="" class="label"><rect/><foreignObject height="18.5" width="61.7421875"><div style="display: inline-block; white-space: nowrap;" xmlns="http://www.w3.org/1999/xhtml"><span class="nodeLabel">Web App</span></div></foreignObject></g></g><g transform="translate(446.5703125, 41.75)" data-id="Mobile" data-node="true" id="flowchart-Mobile-1" class="node default default flowchart-label"><rect height="33.5" width="93.0625" y="-16.75" x="-46.53125" ry="0" rx="0" style="" class="basic label-container"/><g transform="translate(-39.03125, -9.25)" style="" class="label"><rect/><foreignObject height="18.5" width="78.0625"><div style="display: inline-block; white-space: nowrap;" xmlns="http://www.w3.org/1999/xhtml"><span class="nodeLabel">Mobile App</span></div></foreignObject></g></g><g transform="translate(588.98828125, 41.75)" data-id="API" data-node="true" id="flowchart-API-2" class="node default default flowchart-label"><rect height="33.5" width="91.7734375" y="-16.75" x="-45.88671875" ry="0" rx="0" style="" class="basic label-container"/><g transform="translate(-38.38671875, -9.25)" style="" class="label"><rect/><foreignObject height="18.5" width="76.7734375"><div style="display: inline-block; white-space: nowrap;" xmlns="http://www.w3.org/1999/xhtml"><span class="nodeLabel">API Clients</span></div></foreignObject></g></g></g></g></g></svg>